<?xml version="1.0" encoding="UTF-8"?>
<svg width="250px" height="77px" viewBox="0 0 250 77" version="1.1" xmlns="http://www.w3.org/2000/svg" xmlns:xlink="http://www.w3.org/1999/xlink">
    <!-- Generator: Sketch 52.6 (67491) - http://www.bohemiancoding.com/sketch -->
    <title>glasses</title>
    <desc>Created with Sketch.</desc>
    <g id="Page-1" stroke="none" stroke-width="1" fill="none" fill-rule="evenodd">
        <g id="glasses" transform="translate(0.000000, -1.000000)" fill="#000000" fill-rule="nonzero">
            <path d="M51.23,1 C57.23,0.94 65.69,1.43 74.13,2.24 C82.57,3.05 90.68,4.24 98.89,5.8 C105.12,7 111.18,8.9 117.4,10.16 C122.891796,11.2954955 128.570957,11.1552271 134,9.75 C141.84,7.75 149.7,5.75 157.71,4.5 C167.13,3 176.58,2 186.07,1.45 C195.093832,0.903381129 204.141002,0.85664298 213.17,1.31 C222.634138,1.7447435 232.065973,2.71630594 241.42,4.22 C243.86,4.62 246.29,5.05 248.73,5.48 C249.38,5.59 249.55,5.73 249.37,6.48 C248.37,10.94 247.37,15.42 246.37,19.9 C246.21,20.66 245.97,20.98 245.08,21.01 C241.710283,21.0572901 238.852577,23.4989479 238.28,26.82 C236.28,35.62 234.13,44.36 231.33,52.92 C230.13,56.57 228.96,60.27 226.71,63.51 C224.374979,66.8454953 221.371284,69.6584799 217.89,71.77 C213.194164,74.5146985 207.97541,76.2451993 202.57,76.85 C196.243195,77.8321686 189.824782,78.0871604 183.44,77.61 C176.777972,77.0484802 170.231129,75.5330073 164,73.11 C157.19,70.49 152.34,65.81 148.28,60.02 C143.647156,53.1810866 139.745737,45.8743043 136.64,38.22 C135.28,35 133.95,31.76 132.51,28.57 C131.64453,26.7856644 130.075931,25.4416679 128.18,24.86 C124.06,23.33 118.87,24.86 117.18,28.38 C116.06,30.65 115.18,33.06 114.18,35.38 C111.940461,40.8804682 109.410227,46.2580493 106.6,51.49 C103.651705,56.9490131 100.037426,62.0210963 95.84,66.59 C92.45,70.15 88.15,72.09 83.71,73.78 C74.41,77.33 64.71,78.25 54.84,77.67 C49.9699115,77.4612623 45.134333,76.7508378 40.41,75.55 C33.7357665,73.8591087 27.8037848,70.0180802 23.53,64.62 C21.5606402,61.856729 20.0573902,58.7894235 19.08,55.54 C16.7810258,48.9085407 14.8382529,42.1589072 13.26,35.32 C12.59,32.53 11.92,29.73 11.26,26.94 C10.26,23.09 8.12,21.22 4.26,20.94 C3.6,20.94 3.38,20.69 3.26,20.08 C2.26,15.45 1.26,10.81 0.12,6.19 C-0.1,5.19 0.58,5.52 0.91,5.45 C4.35,4.71 7.83,4.23 11.31,3.72 C24.5309848,1.82635707 37.8743471,0.917190105 51.23,1 Z M190.49,71.24 C197.15,71.24 203.7,70.72 210.03,68.34 C215.368341,66.4657074 219.663061,62.4180606 221.85,57.2 C224.687649,50.6828797 226.609229,43.8042276 227.56,36.76 C228.453609,31.6329019 228.426519,26.3875946 227.48,21.27 C227.039141,18.5292221 225.764684,15.9907832 223.83,14 C220.778731,11.2205245 216.930439,9.47130094 212.83,9 C208.49,8.35 204.11,8 199.72,7.64 C188.238467,6.71155841 176.684147,7.33720719 165.37,9.5 C160.593336,10.2760373 155.967437,11.7943851 151.66,14 C149.94463,14.8636638 148.420951,16.0642406 147.18,17.53 C145.615506,19.5777363 144.787534,22.0933623 144.83,24.67 C144.91062,27.4636874 145.218301,30.2461916 145.75,32.99 C146.616014,38.486145 148.140306,43.8580995 150.29,48.99 C151.940165,53.0680279 154.247398,56.8481068 157.12,60.18 C161.36,64.95 166.8,67.76 172.91,69.36 C178.66825,70.7198015 184.57442,71.3514056 190.49,71.24 Z M56,71.25 C65.47,71.18 72,70.78 78.41,68.81 C82.9241283,67.4910004 87.078989,65.1622266 90.56,62 C94.0663574,58.5953671 96.8427551,54.5124294 98.72,50 C101.882187,42.694314 103.853825,34.9292996 104.56,27 C105.27,20.34 102.56,16.42 96.89,13.52 C94.0605324,12.12481 91.0766681,11.0675353 88,10.37 C80.7070855,8.62500208 73.2623568,7.59017474 65.77,7.28 C59.5084087,7.06320578 53.2393812,7.24022147 47,7.81 C42.591519,7.99619044 38.2096161,8.58870137 33.91,9.58 C30.05,10.58 26.58,12.35 24.23,15.73 C22.16,18.73 21.65,22.21 21.4,25.73 C21.1608886,30.1253082 21.4496157,34.5334326 22.26,38.86 C23.1747682,44.6105356 24.7657977,50.2328445 27,55.61 C28.0557861,58.3693643 29.5518523,60.9393561 31.43,63.22 C34.03,66.15 37.5,67.67 41.11,68.92 C45.918144,70.482308 50.9444387,71.2688269 56,71.25 Z" id="Shape"></path>
        </g>
    </g>
</svg>