<?xml version="1.0" encoding="UTF-8"?>
<svg width="1101px" height="458px" viewBox="0 0 1101 458" version="1.1" xmlns="http://www.w3.org/2000/svg" xmlns:xlink="http://www.w3.org/1999/xlink">
    <!-- Generator: Sketch 52.6 (67491) - http://www.bohemiancoding.com/sketch -->
    <title>round-glasses</title>
    <desc>Created with Sketch.</desc>
    <g id="Page-1" stroke="none" stroke-width="1" fill="none" fill-rule="evenodd">
        <g id="round-glasses">
            <path d="M1100.999,181.891 C1100.999,181.891 1072.248,177.235 1067.919,176.808 C1067.908,176.762 1067.899,176.715 1067.888,176.669 C1044.275,75.505 953.517,0.22 845.171,0.22 C736.37,0.22 645.305,76.103 622.161,177.898 C622.158,177.912 622.155,177.928 622.151,177.942 C622.137,177.952 622.122,177.972 622.107,177.985 C622.102,178.008 622.098,180.432 622.093,180.454 C615.798,179.675 569.851,177 553.246,177 L551.199,177 C534.305,177 489.548,182.435 482.923,183.294 C482.899,183.155 482.875,183 482.851,183 C482.849,183 482.846,183 482.844,183 C482.846,183 482.39,180.506 482.392,180.517 C482.414,180.649 482,177.981 482,178.109 L482,178.243 C482,178.115 482.034,178.065 482.012,177.933 C482.01,177.982 482,178.158 482,178.149 C482,178.151 482,178.173 482,178.175 C459,76.294 368.214,0.247 259.345,0.247 C151.032,0.247 57.727,75.555 34.066,176.64 C33.924,176.648 31.001,176.66 31.001,176.668 C31.001,176.669 31.001,176.671 31.001,176.672 C28.001,177.493 0.89,181.89 0.89,181.89 L4.295,200.827 L32.183,199.435 C30.937,209.109 30.671,218.973 30.671,228.984 C30.671,355.286 133.241,457.681 259.558,457.681 C385.86,457.681 488.35,356.169 488.35,229.868 C488.35,215.614 487.144,194.999 484.645,188.999 C484.642,188.999 484.637,188.999 484.634,188.999 C484.63,188.999 484.625,188.073 484.621,188.051 C483.795,188.152 483.358,187.769 483.358,187.769 C483.358,187.769 483.789,187.249 484.601,187.144 C484.611,187.198 484.624,187.162 484.634,187.216 C484.638,187.237 484.641,187.234 484.645,187.256 C492.702,186.232 536.549,180.106 552.911,181.243 C553.224,181.219 553.55,181.193 553.89,181.178 C553.769,181.183 553.652,181.234 553.534,181.283 C553.327,181.267 553.122,183.596 552.911,183.581 C552.63,183.602 552.358,185.999 552.102,185.999 L553.449,185.999 C553.266,185.999 553.087,185.91 552.912,185.924 C553.243,185.947 553.583,185.999 553.891,185.999 C553.906,185.999 553.92,185.999 553.92,185.999 C553.967,185.999 554.021,185.99 554.069,185.988 C554.028,185.991 553.989,185.999 553.947,185.999 L555.752,185.999 C555.622,185.999 555.475,183.627 555.336,183.614 C571.641,182.578 612.351,186.609 620.336,187.543 C617.8,202.614 616.477,214.876 616.477,229.223 C616.477,355.525 718.873,457.8 845.174,457.8 C971.475,457.8 1073.871,355.209 1073.871,228.907 C1073.871,219.005 1073.235,209.021 1072.016,199.501 L1099.111,200.859 L1100.999,181.891 Z M32.94,199.435 C32.94,199.434 32.94,199.434 32.94,199.433 L33.204,199.419 L32.94,199.435 Z M37.207,176.638 C37.75,176.566 37.954,176.534 38.114,176.534 C37.96,176.533 38.378,176.57 37.207,176.638 Z M259.74,446.868 C139.406,446.868 41.856,349.318 41.856,228.984 C41.856,108.65 139.406,11.1 259.74,11.1 C380.074,11.1 477.624,108.65 477.624,228.984 C477.624,349.318 380.074,446.868 259.74,446.868 Z M620.533,186 C620.788,185 621.055,183.69 621.334,182.284 C621.058,183.692 620.794,185 620.542,186 C620.538,186 620.536,186 620.533,186 Z M845.171,446.868 C724.837,446.868 627.287,349.318 627.287,228.984 C627.287,108.65 724.837,11.1 845.171,11.1 C965.505,11.1 1063.055,108.65 1063.055,228.984 C1063.055,349.318 965.505,446.868 845.171,446.868 Z" id="Shape" fill="#FFFFFF" fill-rule="nonzero"></path>
            <path d="M622.094,177.998 C622.098,177.998 622.103,177.989 622.107,177.985 C622.125,177.9 622.142,177.811 622.161,177.728 C622.139,177.828 622.117,177.897 622.094,177.998 Z" id="Path" fill="white"></path>
            <path d="M484.619,187.169 C484.623,187.19 484.628,187.212 484.632,187.233 C484.635,187.233 484.64,187.232 484.643,187.232 C484.639,187.211 484.636,187.189 484.632,187.167 C484.627,187.168 484.624,187.169 484.619,187.169 Z" id="Path" fill="white"></path>
        </g>
    </g>
</svg>