<svg id="zwolle_handdrawn_Image" data-name="zwolle handdrawn Image" xmlns="http://www.w3.org/2000/svg" viewBox="0 0 921.6 480"><defs><style>.cls-1{fill:#fff;}</style></defs><title>zwolle-white</title><path class="cls-1" d="M280.93,188.83c-11.72-1.08-23.5-.67-35.24-.82a25,25,0,0,0-2,3.53c-1.18,2.85-2,5.84-3.41,8.63a4.75,4.75,0,0,1-1.8,2.39,5.66,5.66,0,0,0-2.25,2.38,14.31,14.31,0,0,1-2.26,3.29c-1.07.94-1,2.57-2.31,3.27-1.49.79-2.19,2.28-3,3.63a19.23,19.23,0,0,1-2.7,3.63,26.39,26.39,0,0,0-5.84,9.19c-.74,2.11-2.67,3.39-3.88,5.2a2.55,2.55,0,0,1-.42-.08,6.84,6.84,0,0,1,.07-3.39,5.1,5.1,0,0,0,.3-3,1.57,1.57,0,0,1,.14-1.16,4.38,4.38,0,0,0,.27-3.49,5.25,5.25,0,0,1,.11-1.85c.22-1.74,1.25-3.26,1.27-5,.05-4.8-.28-9.59.07-14.38a10.69,10.69,0,0,0-.74-4.43c-.6-1.7-2-3.36-1-5.37-.77-1.3.26-1.43,1.1-1.72a9.71,9.71,0,0,1,1.28-.35c-.89-.21-1.77-.45-2.64-.71-5.34-.22-10.65-1-16-1.49a25.2,25.2,0,0,1-5.35-.24c4.17.62-1.49-.07-2.32-.15-1.16-.12-2.31-.27-3.46-.41a6.15,6.15,0,0,1-3.64.57,87.44,87.44,0,0,0-12.64.15c-1.59.18-1.72.23-1.75,1.87a5.08,5.08,0,0,1-.88,3.4,1.56,1.56,0,0,0-.25,1.14c.35,2,0,4,.17,6a31.47,31.47,0,0,1-.13,8.12,39.11,39.11,0,0,0-.73,6.34c0,.39-.2.77-.25,1.16-.17,1.65-1,3.17-1.24,4.73-.38,2.33-.62,4.7-1.22,7-.54,2-.09,4.12-.53,6.16-.15.69.12,1.88,1,1.91s.51-1.13.74-1.75a.84.84,0,0,1,.15-.18,1.13,1.13,0,0,1,.38.19c.6.68.77,1,1.59-.13,1.48-2.12,2.25-4.55,3.56-6.7,2.15-3.5,4.47-6.9,6.79-10.29,1.13-1.64,2.54-3.09,3.35-4.94a4.3,4.3,0,0,1,1.24-1.44A104.61,104.61,0,0,0,195,198.8a11.55,11.55,0,0,1,6.9-3.81,10.64,10.64,0,0,0,3.14-1.1c2.12-1.12,4.55-1,6.84-2.15-.8,2.77,1,5.17.48,7.74s1.41,4.85.61,7.52c-1.28-1-1.28-1-2.23.19-1.17,1.51-2.3,1.5-3-.22a4.49,4.49,0,0,0-2-2.26,10,10,0,0,1-3.29-3.66c-.61-1,.74-1.84.79-2.87a.47.47,0,0,1,.09-.22c.18-.41.18-.81-.25-1a.81.81,0,0,0-1.23.32c-.48,1.23-1.43,2.36-1,3.83a7,7,0,0,1,.1,2.82c-.18,1.91-.14,3.92,1.19,5.47a16.35,16.35,0,0,1,2.6,4.25,1.65,1.65,0,0,0,1.39,1.16c.47.05,1,.1,1.2-.48s-.32-.63-.66-.81-1.09-.57-.86-1,.43-1.34,1.37-1.31a3,3,0,0,0,2.39-1.37,8.3,8.3,0,0,1,2.52-1.66,3.29,3.29,0,0,1,.47,2.43,3.62,3.62,0,0,0,.08,1.63c.8,3.16.58,6.42.71,9.64a1.39,1.39,0,0,1-.26.9c-1.06,1.19-.81,2.5-.51,3.85a2.93,2.93,0,0,1-.2,2.31c-.66,1.15-1.51,2.23-1.51,3.67a.75.75,0,0,1-.78.76c-1.25-.09-1.23.73-1.21,1.56,0,1.7-1.3,3.23-.63,5-1,2.41-1.41,5.06-2.7,7.34a24.28,24.28,0,0,0-2.28,5.75,4.2,4.2,0,0,1-.64,1.52,20.4,20.4,0,0,0-2.39,5.67c-.31.92-.78,1.57.57,2,.72.22.23.79,0,1.15-1.45,2.46-2.53,5.15-4.34,7.4a2.81,2.81,0,0,0-.71,1.22c-.5,2.7-2.33,4.67-3.82,6.79-2.12,3-4.37,5.94-6.28,9-2.12,3.43-4.81,6.57-6.13,10.48a1.45,1.45,0,0,1-.55.75,6.28,6.28,0,0,0-2.94,4.29c-1.74-1.15-2.06-1.42-1.77-1.92.75-1.31.92-2.86,1.92-4.07a38.46,38.46,0,0,0,4.31-6.39c1.07-2,2.42-3.89,3.43-5.93.64-1.29,2.18-2.07,2.19-3.58a35.06,35.06,0,0,1,.64-3.89,4.1,4.1,0,0,0-1.88,2.25c-.79,2.08-2.24,3.87-2.56,6.14a.75.75,0,0,1-.2.43c-2,1.77-3.08,4.11-4.1,6.53a9.85,9.85,0,0,1-2.13,2.56c-1.1,1.15-2.35,2.19-2.45,4.06-2.08-2-2.6-3.73-1.36-6.22a20.35,20.35,0,0,0,1.67-6.12,12.19,12.19,0,0,1,.84-2.95c1.32-3.05,1.94-6.36,3.32-9.35a26.44,26.44,0,0,0,1.62-5.17,6.75,6.75,0,0,1,1.16-2.59,21.34,21.34,0,0,0,3.35-7.06,5.53,5.53,0,0,1,1.72-3.27,15.61,15.61,0,0,0,3.85,4.09c1,.75.45,1.93.64,2.91s1.78.94,1.54,2.22c-.08.43-.1.87-.14,1.3.44-.29.88-.64,1.27.13.68,1.37,2,2,3.25,2.86a2.39,2.39,0,0,0-.94-2.64c-2.23-2.11-1.91-4.48-.84-7,.19-.44.44-.85.65-1.28,1.18-2.35,1.18-2.35,3.59-1.25.1,0,.28-.09.45-.15-.27-1.71-1.78-1.94-3.32-2.46,1.72-1.8,2-3.91,2.3-6a10.18,10.18,0,0,0-2.66,4.86,45.43,45.43,0,0,0-2,6.88,3.26,3.26,0,0,1-1.09,2.16,1.37,1.37,0,0,1-1-1.14,6.13,6.13,0,0,0-2.35-3.47,16.45,16.45,0,0,1-1.22-1.14,4.69,4.69,0,0,1-.31-5.76,11,11,0,0,0,1-1.86c.71-1.44.86-3.11,1.54-4.46,1.47-2.91,1.42-6.35,3.35-9a.81.81,0,0,0,.07-.47c-.16-2.29,1.64-3.86,2-5.9.71.05,1,.53,1.37.75s.89.58,1.27.06-.08-.9-.51-1.09c-1.7-.75-2.52-1.85-1.8-3.78.18-.5.18-1.25-.54-1.37-.9-.16-.64.65-.74,1.15s.28.92-.33,1.44c-.8-1.34-2.35-1.65-3.46-2.61a3.62,3.62,0,0,1,.13-3.38,7.67,7.67,0,0,0,.7-3,.64.64,0,0,0-.5-.72c-.53-.1-.67.27-.73.69a3.85,3.85,0,0,0,0,.48c.06,1.54.25,3.12-1.73,3.74-.14.05-.28.38-.28.59a11.23,11.23,0,0,1-1.44,5c-.81,1.47-.5,3.52-2,4.52-1.89,1.26-.14,3.32-1.31,4.64a6.37,6.37,0,0,0-.35.63,23.62,23.62,0,0,0-1.43,3c-1,2-1.48,4.13-2.39,6.16a2,2,0,0,1-1.48-1.66c-.09-2.21-2.1-3.3-2.85-5.11a.67.67,0,0,0-.85-.25.68.68,0,0,0-.32.81c0,.23.08.53.24.66,1.81,1.55,2.2,4,3.83,5.71a1.43,1.43,0,0,1,.33,1.72c-1.3,3.16-2.86,6.24-3.45,9.66a2.92,2.92,0,0,1-.93,1.65c-1.53,1.35-.9,2.85-.46,4.37.58-1.84,1.37-3.58,2-5.34.34-.9,1.19-1.74,1.17-2.59-.07-2.87,2.18-4.65,2.85-7.34a5.58,5.58,0,0,1,2.72,2.58,5.73,5.73,0,0,0,1.82,2.49c.87.66.7,1.33.43,2.28-1,3.46-3.86,6-4.39,9.66,0,.07-.1.12-.14.19a20.23,20.23,0,0,0-2.07,4.27,38,38,0,0,1-3.16,8.88,3,3,0,0,0-.41,1.09c-.27,2.6-1.33,5-2,7.46a10.86,10.86,0,0,0-.88,3.18,2.88,2.88,0,0,1-1.44,2.38,55.67,55.67,0,0,1-2.41-6c-.4-1.5-.88-1.83-2.46-1.59.51.74,1.41,1.22,1.49,2.12a11,11,0,0,0,2.41,5.38c.88,1.22,1.4,2.68,0,4.12a4,4,0,0,0-.87,1.94c-.47,2.53-2.18,4.57-2.73,7.07-.21.92-1.35,1.27-1.6,2.32-.45,1.93-1.19,3.79-1.65,5.71-.37,1.49-1.28,2.87-.82,4.57.18.69-.43,1.29-1.79,1.46.93-2,.07-4.05,1.3-5.83a4.86,4.86,0,0,0,.49-3,7.67,7.67,0,0,1,0-1.91,16.53,16.53,0,0,0,.55-7.26,1.85,1.85,0,0,1,.31-1.36,5.34,5.34,0,0,0,.51-4.17,3.49,3.49,0,0,1-.06-2.34,14.61,14.61,0,0,0,1.13-7.47,3.53,3.53,0,0,1,.19-2.12c1.21-1.88,1.54-4.17,2.83-6,1-1.4.86-3.27,2-4.52a12.44,12.44,0,0,0,3-5.89,4,4,0,0,1,.73-2.23.71.71,0,0,0-.18-1.21c-.53-.25-1.33-.19-1.28.53.13,1.63-1.1,2.76-1.26,4.31a7.35,7.35,0,0,1-1.66,3.5,33.15,33.15,0,0,0-2.69,4.33,2.86,2.86,0,0,1-.46-2.4c.58-2,1.72-3.8,1.22-6,1.45-2.3.65-5,1.31-7.46a9.54,9.54,0,0,0,.09-4.75,3,3,0,0,1,0-2.11,8.08,8.08,0,0,0,.63-5.11,3.41,3.41,0,0,1,.08-2.36c1.24-2.17.39-4.55.77-6.8a.58.58,0,0,0-.49-.7c-.49-.07-.73.3-.79.7a2.48,2.48,0,0,0,0,1.18,5.81,5.81,0,0,1-.43,3.89c-1.27-.71-2.85-.09-3,1.05a.68.68,0,0,0,.46.76c1.75.36,1.24,1.46.93,2.56-.37,1.28-1.14,2.39-1.35,3.75-.64-2.26-.13-4.53-.52-6.78a3.3,3.3,0,0,1,.94-3,2.14,2.14,0,0,0,.11-2.67c-.41-.7-1.16-.71-1.47,0-.57,1.35-1.47,2.6-.86,4.3a5,5,0,0,1,0,3.07,14.46,14.46,0,0,0-.34,4c-.11,2,.43,4.09-.23,6-1.85,5.23-1.87,10.78-3.08,16.1a7.37,7.37,0,0,0,0,2.15,5,5,0,0,1-.12,1.89c-.64,2.17-1.81,4.28-1.06,6.68.06.19-.1.47-.22.67-.76,1.28-.75,2.74-1,4.14-.55,2.88.26,5.92-1.13,8.69a1.76,1.76,0,0,0,0,.94,4,4,0,0,1-.64,3.4,1.72,1.72,0,0,0-.15,1.4,4.94,4.94,0,0,1-.27,2.34,10.13,10.13,0,0,0-.7,3.48c.17,3.33-1.15,6.41-1.42,9.66a30.6,30.6,0,0,1-.85,5.42,6.58,6.58,0,0,0-.29,3,8.27,8.27,0,0,1-.35,4.66l1.84.27c.3-1.07-.21-2.13-.24-3.23,1.49.67,1.55.68,1.33,2.12a3.34,3.34,0,0,0,.2,1.32l1.34.22,2.4.38c-.07,0,2.66.38,3.12.43l4.13.52a282.13,282.13,0,0,1,34.77.22,6.08,6.08,0,0,1,.37-.77,1,1,0,0,1,1.7.08,1.43,1.43,0,0,1,.08.22l.24.62,1.57.1a5.61,5.61,0,0,1,.27-.68c1.06-2.31,1.92-4.73,3.72-6.65a4.7,4.7,0,0,0,.86-1.68c1.11-3.23,2.57-6.34,3.16-9.75.25-1.5.38-3.43,2.87-3.17.59.07.7-.77.66-1.35a.8.8,0,0,0-.71-.8c-1.68-.4-1.77-.61-.59-1.78a8.33,8.33,0,0,0,2.25-4.13,6.71,6.71,0,0,1,1.88-3.23c1.71-1.73,3.64-3.52,4.56-5.68a42.88,42.88,0,0,1,4.4-7.58,33.3,33.3,0,0,0,4.35-8.36,4.63,4.63,0,0,1,1.15-2.09,9.43,9.43,0,0,0,1.72-2.56c1.61-2.8,3.64-5.38,4.27-8.67a6.48,6.48,0,0,1,1-1.63,5.63,5.63,0,0,0,.83-1.71c.44-2.78,2.07-5,3.59-7.16,2.53-3.63,5.38-7,8-10.58a16.08,16.08,0,0,0,1.76-2.84c1-2.1,2.7-3.68,4.26-5.35,1.87-2,4.32-3.44,5.66-6.06-1.05,0-1.55,1-2.89,1,1.22-1.63,1.59-3.42,2.86-4.8a8,8,0,0,0,2.19-3.66,15.7,15.7,0,0,1,2.8-5.69,37.69,37.69,0,0,1,4.82-6,4.59,4.59,0,0,0,1.67-3.57,2.85,2.85,0,0,1,1-2.13c1.13-1,1.46-2.43,2-3.75a5.57,5.57,0,0,1,1-2.15c2.41-2.33,3.37-5.73,5.89-8a1.58,1.58,0,0,0,.3-.64,18.21,18.21,0,0,1,2.23-4.29C285.29,189.23,283.1,189,280.93,188.83Zm-78.11,15.53c2.24.79,3,2.78,3.83,4.72C203.56,208.31,202.7,207.26,202.82,204.36Zm-21,45.43c-.12-.21-.29-.39-.42-.59-.38-.6-1.57-.57-1.48-1.37a5.45,5.45,0,0,1,1-2.39,15.49,15.49,0,0,0,2.18-5.26,11.5,11.5,0,0,1,2.1-4.21c1.12.35,1.73,1.49,3.16,1.7a4.71,4.71,0,0,0-1.74-2.77,1.38,1.38,0,0,1-.31-2.06,13.46,13.46,0,0,0,1.81-5.4,7.36,7.36,0,0,1,1.09-2.64c.52-.91,1-.39,1.5,0a45.62,45.62,0,0,0,3.63,4.56,7.84,7.84,0,0,0-1.22,3.44,9.29,9.29,0,0,1-1.38,3.77c-.35.55-.79,1.08-.67,1.73a3.75,3.75,0,0,1-1.2,3.46c-1,1-.52,2.45-.94,3.64a6.71,6.71,0,0,0,0,1.19,1.85,1.85,0,0,1-3,1.45,6.93,6.93,0,0,0-3.48-1.46c-.37,0-.82-.29-1,.29a.76.76,0,0,0,.6.9c1.91.48,3.21,2,5.11,2.64-.33,1.37-1.46,2.25-1.11,3.9A17,17,0,0,1,181.79,249.79Zm-14.88-1.21c.8,3.52-.08,6.6-.51,9.69A48.28,48.28,0,0,1,166.91,248.58ZM166.39,261a1.25,1.25,0,0,1-.38,1.8C165.51,262,166.49,261.67,166.39,261Zm-6.73,49c-.44.07-.46-.31-.46-.6s.08-.65.5-.6c.24,0,.35.24.34.49S160,310,159.66,310Zm1.2-3c.1.51-.13,1-.79.87s-1.12-.48-.86-1.13c.59-1.51.49-3.13.87-4.67.23-1,.38-1.93.57-2.89l.52.1C161.05,301.89,160.34,304.44,160.86,307Zm1.6-34.06c-.09,1.09.29,2.39-1.22,3.2.07-1.19.13-2.18.19-3.17,0-.54-.07-1.28.77-1.16S162.5,272.61,162.46,273Zm2.86-6.07c1.08,1.07,0,1.76-.43,2.94C164.84,268.59,164.45,267.68,165.32,266.91Zm-.6-4.44c0,.21-.08.43-.37.42a.37.37,0,0,1-.23-.51c.07-.2.23-.38.47-.3C164.67,262.11,164.73,262.34,164.72,262.47Zm-.3-6.12a3.83,3.83,0,0,1-.72,3.64C162.83,258.35,164.43,257.55,164.42,256.35Zm-3.23,13.76c1.17-2.16.17-4.89,2.22-6.84,0,1.34,0,2.68,0,4a6.15,6.15,0,0,1-1,3.12.72.72,0,0,1-.78.41A.55.55,0,0,1,161.19,270.11Zm-7.5,56.6c0,.19,0,.32-.31.36.05-1.85-.65-3.71.62-5.48a3.88,3.88,0,0,0,.2-2.1c0-1-.3-2.06.49-3a.8.8,0,0,0,.2-.65c-1.17-2.63,1-4.84.89-7.33,0-.16.29-.34.67-.77,0,1.66,1.45,2.61.9,4.26-.27.84-.26,1.67-1.29,2s-.78.9,0,1.33c.34.19.95.4.66.74-1.15,1.34.2,3.34-1.28,4.54C155.41,322.87,154.11,324.67,153.69,326.71Zm2.39,7.38a1.59,1.59,0,0,1-.18-2C156.55,332.67,156.13,333.21,156.08,334.09Zm1-7.71c-.72-1.91-.69-2.49.34-4.32A7.48,7.48,0,0,1,157.12,326.38Zm-.24-21.51c-.36-2.83.65-5.41.81-8.08a8,8,0,0,0,0-3.05,2.19,2.19,0,0,1-.06-1.19,54.62,54.62,0,0,0,1.38-9.36c.2-2.24,1.68-4.19,1.87-6.53a2.64,2.64,0,0,1,.45,3c-.75,2.2-.64,4.56-1.28,6.78-.22.73.07,1.55-.75,2.13-.54.38-.12,1.06-.09,1.58a19.9,19.9,0,0,1-.57,7.09,4.52,4.52,0,0,0,0,1.9c.21,1.71-.43,3.31-.62,5C157.88,304.54,157.54,304.81,156.88,304.87Zm17.58,1.35a120.84,120.84,0,0,1-6.85,12c-.18.26-.42.6-.38.86.56,3-1.42,5.13-2.71,7.32-1.59,2.73-3.18,5.5-5,8.1-.17.25-.28.58-.78.62-.66-1.86.6-3.44.9-5.13.68-3.86,2.15-7.54,2.92-11.4.33-1.63,1.08-3.3,1.56-4.91,1.07-3.61,3.75-6.47,4.37-10.22.41-2.44.43-2.44,2.25-4.67a3.57,3.57,0,0,1,1.32,1.26c1,1.59,1,1.63-.82,2.65a1.27,1.27,0,0,0-.69.93.62.62,0,0,0,.18.64.52.52,0,0,0,.65.08c.57-.43,1.11-.89,1.66-1.34.74,0,.81.69,1.22,1C175.1,304.7,175,305.25,174.46,306.22Zm42.38-97.08c-.82-2.27.17-4.18,0-6.11C216.87,205,217.32,206.89,216.84,209.14Zm-.44-8.33a26.85,26.85,0,0,0-.89-4.72C217.85,197.56,216.45,199.3,216.4,200.81ZM216,217.27a1.89,1.89,0,0,1,.13,1.15c-.72,1.61-.41,3.44-1.21,5.2-1.41-2.26-.6-4.35,0-6.42a.67.67,0,0,1,.54-.33A.68.68,0,0,1,216,217.27Zm-.89-3.06c-1-.44-.33-.85-.35-1.16a1.75,1.75,0,0,0-.2-1.12,4,4,0,0,1-.73-1.2,1.51,1.51,0,0,1,.8-2.06C215.26,210.48,214.74,212.27,215.12,214.21ZM213,192.35c-.09-.46-.34-.93-.07-1.39a.82.82,0,0,1,.83-.35.42.42,0,0,1,.39.48c-.58,4.09.43,8.21-.14,12.6a2.22,2.22,0,0,1-.37-1.91A36.79,36.79,0,0,0,213,192.35Zm-2.94,44.46c1.39,2.38.29,4-1.48,5.49A14.7,14.7,0,0,1,210.1,236.81Zm-7.25,20a65.31,65.31,0,0,0,4.07-9.27,15.85,15.85,0,0,1,1-1.86c.26-.5.63-.41,1-.28s.51.59.38,1-.44.85-.63,1.28c-.94,2.09-1.89,4.19-2.82,6.27a49.14,49.14,0,0,1-2.38,5.36,3.69,3.69,0,0,1-1.89,1.91A12,12,0,0,1,202.85,256.83Zm4,71c-1.44,2.24-2.53,4.72-3.88,7-2.11-1.56-2-1.5-.6-3.71,2.11-3.31,4.07-6.71,6.09-10.08a1.21,1.21,0,0,1,1-.7C208.59,323,208.37,325.51,206.87,327.83Zm5.68-90.51c.34,1.79-.8,3.35-.77,5.09,0,.41,0,.82-.54.88a.54.54,0,0,1-.43-.13c-.26-.31,0-.6.14-.84a1.9,1.9,0,0,0,.43-1.32c-.49-3,.51-5.8,1.24-8.65.59-2.28.9-4.63,1.37-7.21.83.71.84,1.38.64,1.8-.52,1.07-.16,2.33-.6,3.25C212.91,232.48,213.93,235.14,212.55,237.32Zm2.59-2.89c0,.22-.12.45-.43.43s-.2-.38-.14-.6.18-.52.42-.45S215.2,234.19,215.14,234.43Z"/><path class="cls-1" d="M221.09,320.71a5.87,5.87,0,0,0,.68-2.49c-.05-.41-.26-.77-.76-.73a.59.59,0,0,0-.53.68,4.69,4.69,0,0,1-1.16,3.3,6.9,6.9,0,0,0-1.1,2.64,12,12,0,0,1-1.37,3.31,8.45,8.45,0,0,0-1.33,3.56,3.47,3.47,0,0,1-1.1,2.58,4.37,4.37,0,0,0-1.71,3,2,2,0,0,1-.18.58l1.18.09.14-.32A11.44,11.44,0,0,1,216,333.9c.52.8-.79,1.29-.12,2.11.78-.1,1.31-.53,1.23-1.36a2.54,2.54,0,0,1,1.21-2.43,4.44,4.44,0,0,0,1.24-1.74,76.74,76.74,0,0,0,4.6-12,15,15,0,0,0,.45-3.07.65.65,0,0,0-.75-.71c-.35,0-.49.37-.5.71s0,.8,0,1.2c.19,2.81-1,5.29-2.12,7.7-.67,1.41-1.73,2.64-2.3,4.16a16.76,16.76,0,0,1-1.56,2.72,1.12,1.12,0,0,1-.17-1C217.68,326.67,220.08,324,221.09,320.71Z"/><path class="cls-1" d="M222,337.35a.57.57,0,0,0,.78-.34c.36-1.21,1.61-2,1.58-3.4a1.59,1.59,0,0,1,.93-1.32c-1.47,0-.68-1.21-.55-1.54.75-1.9.84-4.06,2-5.79,1.39-2.13,2-4.7,3.72-6.63a1.93,1.93,0,0,1,1.16-.79,26.36,26.36,0,0,1-1.65,4.24c-1.05,1.72-1.36,3.71-2.36,5.41a2.33,2.33,0,0,0-.28,1.83c.11.47,1.33.26.75,1.12a1.73,1.73,0,0,1-1.61.85c.8,2.17,0,4.15-.75,6.11l1.12-.08c1.24-1.54,1.43-3.51,2.15-5.23a52.59,52.59,0,0,0,2.07-5c.54-1.78,1.21-3.52,1.76-5.3a72.62,72.62,0,0,1,3.06-7.46,23.35,23.35,0,0,0,1.81-5.14,20.74,20.74,0,0,1,1.8-5.41c.83-1.68,1.66-3.39,2.41-5.09a42.65,42.65,0,0,1,3.34-6,10.23,10.23,0,0,0,1.84-4.63,5.73,5.73,0,0,1,1.59-3.63c.34-.36.71-.64.41-1.21a2.65,2.65,0,0,1,.38-2.72c1.62-2.79,1.1-5.85,1-8.77-.22-4.8-.19-9.6,0-14.38a4.21,4.21,0,0,0-1.25-3.73c-2.22,3.33-1,6.73-.32,10.06-.82.24-1.32-.74-2-.06,0,1.55.68,3.07.58,4.68-.24,3.62.09,7.22-.93,10.86a61.84,61.84,0,0,0-2.09,7.63,1.09,1.09,0,0,1-.37.6,4.88,4.88,0,0,0-1.4,3.46,6.71,6.71,0,0,1-1.2,2.84c-1.84,2.89-3.73,5.71-4.73,9.09-.51,1.7-1.49,3.3-2.07,5a34.68,34.68,0,0,1-2,4.18c-1-1.66-3.08-2-3.29-4,0-.4-.66-.38-1-.59-2.15-1.41-4.25-2.87-4.51-5.77a1.49,1.49,0,0,0-.62-1,.64.64,0,0,0-.86-.06.83.83,0,0,0-.28.61,1.71,1.71,0,0,0,.32.87,60.49,60.49,0,0,0,3.78,5.2c.92,1,2.52,1.44,2.38,3.24,0,.23.54.53.87.74.61.39,1.23.74,1.86,1.09a1.22,1.22,0,0,1,.49,2c-1,1.64-1.67,3.57-3,4.88-1.81,1.81-2.43,4-3.19,6.29a37.54,37.54,0,0,1-1.56,3.72,34,34,0,0,0-2.35,7.67A.59.59,0,0,0,222,337.35Zm27-61.59a2.23,2.23,0,0,1-.2-2.24A2.37,2.37,0,0,1,249,275.76Zm0-18.38c.55,1,.55,1,0,3A6,6,0,0,1,248.93,257.38Zm.3,13.79c-.88-1.71-.88-1.71-.91-4C249.54,268.43,249.16,269.72,249.23,271.17Zm-1.73,9.46c.66,1.1.37,1.75-.71,2.28A1.93,1.93,0,0,1,247.5,280.63ZM245.33,287a2.41,2.41,0,0,1-.23,2.73A2.85,2.85,0,0,1,245.33,287Zm-4.85,10.24a2.2,2.2,0,0,1-1.11,2.79A2.39,2.39,0,0,1,240.48,297.23ZM238.1,302a3.31,3.31,0,0,1-.66,3.06C237,304,237.51,303.21,238.1,302Zm-2.91,6.35a1.49,1.49,0,0,1-.5,1.51C234.59,309.17,234.59,309.17,235.19,308.36Zm-1.77,4.15c.37.64-.22.85-.06,1.65C232.72,313.19,233.11,312.91,233.42,312.51Z"/><path class="cls-1" d="M289.44,284.25c-1.49,2.61-2.09,5.51-3.66,8.06-1.06,1.73-2.31,3.71-2,6a3.88,3.88,0,0,1-1.34,3.63,4.72,4.72,0,0,0-1.73,2.52,9.21,9.21,0,0,1-1,2.64,53.72,53.72,0,0,0-3.49,7.81c-.68,2.35-2.07,4-3.5,5.8s-3.76,3.14-4.73,5.77c-.81,2.2-3.43,3.46-4.82,5.53-1.6-.11-2.47,1.24-3.7,1.81a24.53,24.53,0,0,1-8.57,2.55c.23-.58.4-1.24,1-1.26.82,0,1.08-.45,1.28-1.12.93-3.05,2.68-5.75,3.74-8.76,1.37-3.9,3.17-7.66,3.9-11.77a2.68,2.68,0,0,1,.81-1.42,55.5,55.5,0,0,0,6-8c1.37-2.15,2.42-4.63,4.25-6.34,2.86-2.67,4.26-6.33,6.88-9.14a20.76,20.76,0,0,1,4.42-3.87c1-.62,1.95-.9,1-2.34-.3-.45-.09-1.25-.07-1.89.29-9.43.15-18.87.1-28.31,0-1.79.88-3.37.68-5.16-.21-2-.23-4-.34-5.89-.19,3.34-.69,6.77-.86,10.17-.36,7.5-.09,15,0,22.55,0,2.64.17,5.27.29,7.91,0,1-.23,1.74-1.38,1.83a2.06,2.06,0,0,0-1.92,1.54,2.19,2.19,0,0,1-.84,1.13,10,10,0,0,0-4.2,5.37c-.08.3-.42.7-.65.45-1.17-1.27-1.34,0-1.8.64-1.82,2.55-4.23,4.7-5.3,7.76a.39.39,0,0,1-.16.18,6,6,0,0,0-2,3.42,2.94,2.94,0,0,1-1.69,2.39,5.06,5.06,0,0,1-.24-2.48,47.69,47.69,0,0,0-1.15-12.1,43.77,43.77,0,0,0-1.87-5.13,2.63,2.63,0,0,0-.55-.78.7.7,0,0,0-.88-.11.64.64,0,0,0-.29.82c.22.68,1,1.19.87,1.92-.39,1.85.4,3.44.81,5.13a8.91,8.91,0,0,1,.22,4.29,17.65,17.65,0,0,0,.05,6.87c0,.08.22.13.36.22l.65-.92c.25,1.56.31,1.69-.06,1.86-1.46.67-1.4,2.07-1.86,3.29-.6,1.58-.36,3.32-1.11,4.82-1.11,2.21-2.28,4.39-3.45,6.57a12.8,12.8,0,0,0-1.14,3.34c-.39,1.81-.06,3.94-1.78,5.32a.58.58,0,0,0-.18.43c.2,1.78-1.2,2.69-2.08,3.87-.38.5-1,.85-.93,1.59a5.35,5.35,0,0,1-.58,2.57,25.68,25.68,0,0,1,3.62,1c2.2,0,4.4,0,6.61,0l1.6,0c7.85-.14,15.78-.41,23.58.25a5.77,5.77,0,0,1,.22-1.8c.68-2.37.7-4.88,1.57-7.21a2,2,0,0,0,.08-1.18c-.95-3-.17-5.86.32-8.74.26-1.51-.2-3.11.42-4.5a8.88,8.88,0,0,0,.75-3.72c0-3,.92-5.87.18-8.83a1.51,1.51,0,0,1,.08-.94,10.07,10.07,0,0,0,.6-4,9.16,9.16,0,0,1,.42-2.58,35.68,35.68,0,0,0,1.7-8.81C290.63,285.8,290.8,284.64,289.44,284.25ZM261.92,309a1.64,1.64,0,0,1,.43-.52c.15-.14.29-.09.4.18a7.26,7.26,0,0,1-.64.58C262,309.3,261.84,309.14,261.92,309Z"/><path class="cls-1" d="M551.53,188.2a6.17,6.17,0,0,1,4,2.47c1.13,1.34,2.35,2.61,3.47,4a9.64,9.64,0,0,1,1.89,3.55c1.17,4.21.93,8.55,1.29,12.82.22,2.51-.57,5.06.09,7.59a2.82,2.82,0,0,1-.05,1.19,12.48,12.48,0,0,0,0,3.81,24.82,24.82,0,0,1,0,6.94,45.64,45.64,0,0,0-.28,12.62c.22,2.24.61,4.42,0,6.64a3.58,3.58,0,0,0,.07,1.89,15.63,15.63,0,0,1,.3,3.33c.1,2.09-.67,4.21-.34,6.18.48,2.87-.39,5.73.36,8.56a8.31,8.31,0,0,1,0,2.86c-.39,4.15.27,8.27,0,12.44-.34,5.46.42,10.94.14,16.45a78.61,78.61,0,0,0,.17,13.1,52.43,52.43,0,0,1,0,11,21.39,21.39,0,0,0-.32,2.37,10.86,10.86,0,0,1-2.8,7.3c-.1.11-.2.26-.31.38.95-.17,1.91-.31,2.87-.45.9-1.49,1.17-3.3,2.22-4.71a.94.94,0,0,0-.21-.87c-.69-.57-.46-1.07-.07-1.66a3.57,3.57,0,0,0,.29-1.86c.16-2.86-.69-5.71-.05-8.58a5,5,0,0,0-.17-1.66c-.38-2.75-1.21-5.46-.39-8.28a3,3,0,0,0-.06-1.66,9.48,9.48,0,0,1,.18-5.2,8.16,8.16,0,0,0,0-4.72,7.56,7.56,0,0,1-.23-2.14c-.19-4.61.79-9.22,0-13.83a2,2,0,0,1,.08-.95c.8-2.47,0-4.91-.1-7.36,0-.63-.37-1.32-.22-1.88.8-2.94,0-5.9.22-8.84a29.73,29.73,0,0,0,.16-5.49c-.4-3-.06-6-.44-9.06-.73-5.78.42-11.58,0-17.39-.39-6.21.36-12.45-.34-18.66a5.79,5.79,0,0,1,0-1.44,39.05,39.05,0,0,0,.16-6.21c0-4.63-2.27-8.29-5.14-11.52a13.68,13.68,0,0,0-6.66-4.51c-.23-.06-.46-.12-.46-.43a.73.73,0,0,1,.51-.73c.93-.25,2-.13,2.86-1.1a4.94,4.94,0,0,0-3.63-.2,1.19,1.19,0,0,0-.76.5C549.32,185.83,550.26,188,551.53,188.2Z"/><path class="cls-1" d="M641.41,225.16c.93-1.92,1.79-3.79,1.16-5.93a6.07,6.07,0,0,1,.43-3.51c.12-.4.28-.76.81-.67s.93.27,1,.85c0,.32,0,.64,0,1,.14,2.63-.85,5.22-.2,7.87.11.47-.31.66-.6.92a.57.57,0,0,0,.06,1c.47.29,1.1.2,1.15-.33.17-1.56,1.06-3,.64-4.65-.21-.79-.41-1.69.32-2.34.45.13.42.39.43.6.29,4.47.69,8.93.58,13.41a10.12,10.12,0,0,1-.27,3.08c-1.13,3.14-.89,6.4-.43,9.49.83,5.59-.12,11.14.28,16.71.21,2.93-.33,5.92-.06,8.84.42,4.46.34,8.91.48,13.37a4.17,4.17,0,0,1-.06,1.66c-1.12,2.42-.36,4.86-.07,7.25s.32,2.76-2.09,3c-.16,0-.32,0-.48,0-.45.07-1.08,0-1,.72s.74.71,1.3.58c.73-.18,1.39-.69,2.21-.58.15,1.17.8,2.18.49,3.34a15.77,15.77,0,0,0-.25,4.06c0,5.91,0,11.83,0,17.74a18.12,18.12,0,0,0,.81,6.13,14.54,14.54,0,0,1,.66,5.2,22.69,22.69,0,0,0,.12,3.78l3.42.1c3.48-.19,6.91-.13,10.39,0-.33-.15-.66-.3-1-.43s-1-.2-.75-.91c.55-.37,1.26.42,1.74-.21a21.26,21.26,0,0,0-3.08-4.82,7.49,7.49,0,0,1-1.66-4.15c-.22-2.63-.47-5.26-.51-7.89-.08-6.16,0-12.32-.1-18.47,0-2.57.7-5.11.44-7.63-.38-3.75-.1-7.49-.12-11.24,0-11,.15-22.06.17-33.09,0-11.75-.13-23.49.43-35.24a65.12,65.12,0,0,0-.35-13.16c-.21-1.27,0-1.65,1-2.94.82,2.12-.56,4.17,0,6.17s-.32,4.35.48,6.15-.86,4,.73,6c0-.7,0-1,0-1.34.21-4-.56-8,.25-11.95a4.79,4.79,0,0,0-.08-1.18c-.14-3.48-1.29-6.93-.2-10.44.13-.41,0-.87-.48-.91-1-.09-.75-.8-.85-1.4-.42-2.63-.34-5.36-1.61-7.8-.22-.43.54-1.23-.45-1.31-.79-.07-1,.69-1.3,1.22a2.32,2.32,0,0,0,0,2.27c.8,2,.36,3.93,0,5.92-1-1.1-2.38-1.81-2.08-3.57.21-1.25-1.07-2.64.7-3.85-1.23-.1-2,0-2.46.79-.3.52-.85.64-1.34.86-.67,1.7-.69,1.71-2.66,1.59a1.61,1.61,0,0,0-1.9,1.4,6.81,6.81,0,0,0-.24,1.89,126.21,126.21,0,0,1,.39,13.89,25.14,25.14,0,0,0,.28,3.57,64.51,64.51,0,0,1,.18,10.33c-.78-.47-.84-1.11-1.11-1.66-.48-1-2.33-1.48-2.53-.77-.31,1.11-1.56,1.81-1.26,3.19a14.81,14.81,0,0,1-.06,3.58C641.26,221.91,641.37,223.54,641.41,225.16Zm6.5,35.47c0,.07.09.14.09.21,0,.63,0,1.26,0,1.89h-.19c0-.64-.06-1.27-.09-1.82Zm0,5.45a4.48,4.48,0,0,1,0,3.05A5,5,0,0,1,647.88,266.08Zm-.06,7.17c.48,2.67,1.18,5.33.2,8C647.22,278.63,647.75,275.93,647.82,273.25Z"/><path class="cls-1" d="M584.25,187.62c0,.72,0,1.44.06,2.16.12,5.82.35,11.65.32,17.48,0,4.62,0,9.24.38,13.85.25,3.35.24,6.71.33,10.07a2.53,2.53,0,0,1-.25,1.63c-.8,1.05-.67,2.25-.71,3.45-.25,6.39.55,12.74.4,19.15-.23,9.9.11,19.82,0,29.74,0,2.3.91,4.54.29,6.85-.06.22.11.42.36.51.94.35.68,1.17.68,1.85,0,4.47.16,8.94.48,13.4.13,1.75.51,3.46.53,5.24,0,2.88-.28,5.74-.5,8.6a117.39,117.39,0,0,0,0,12.72c6.12.24,12.21.76,18.3,1.33l-.13-.14c-2.44-3.07-5-6.15-4.58-10.42.15-1.5.27-3,.28-4.49a4.71,4.71,0,0,1,1.46-3.4c1.91-1.91,3.54-4.16,6.23-5.08.81-.28.45-1.85,1.57-1.43a8.27,8.27,0,0,1,2.85,1.68c1.38,1.33,2.8,2.59,4.29,3.78a3.54,3.54,0,0,1,1.3,1.7,6.44,6.44,0,0,0,1.56,2.64,3.53,3.53,0,0,1,.92,2.64c-.07,1.35,0,2.71,0,4.07h.12a23.24,23.24,0,0,0,0,2.64,4.34,4.34,0,0,1-1.28,3.6,5.77,5.77,0,0,1-4.87,2.22c-2.76.08-5.55-.7-8.28.13,2.24.21,4.48.42,6.73.61a40,40,0,0,1,6.69-1.15l1.7-1.69c1.88-1.89,1.69-4.57,2.76-6.79a5.78,5.78,0,0,0,0-4.88,4.65,4.65,0,0,1-.35-2.81,6.14,6.14,0,0,0,0-2.86c-1-3-.72-6.13-.3-9.22a8.84,8.84,0,0,0-.07-2.86,11.12,11.12,0,0,1-.16-3.1c.3-3.31.95-6.61.32-10a5.18,5.18,0,0,1,.28-2.6,14.16,14.16,0,0,0,.35-2.58c.56-3.8-.12-7.67.72-11.45a3.41,3.41,0,0,0-.19-2.35,4.65,4.65,0,0,1-.33-2.57,11.56,11.56,0,0,0-.23-3.1,9,9,0,0,1,0-3.82,7,7,0,0,0-.09-3.05c-.54-2.7-1.33-5.34-.73-8.25a5.27,5.27,0,0,0-.93-4.28,62.13,62.13,0,0,1-3.89-5.12,8,8,0,0,0-5.62-3.28c-3.11-.58-6.37-.68-9.27,1.06-3.22,1.94-6.29,4-7.47,8a16,16,0,0,0-.84,5.8c.27,4.15-1.19,8.22-.69,12.41-.38-4.16-.4-8.33-1-12.47a17.31,17.31,0,0,1,.27-6,26.81,26.81,0,0,0,.19-7.15c-.19-5.1-.47-10.2-.71-15.3,0-.46-.11-1,.45-1.25,1.13-.47,2-1.24,3.52-1.1a57.07,57.07,0,0,0,14-.19,17.12,17.12,0,0,1,6.14,0c2.32.53,4.55,1.22,7,.77a10.13,10.13,0,0,1,1.43.13c.5,0,1.12.28,1.48-.31.06-.71-.52-.81-.91-1-1.44-.7-3-1.24-3.49-3a.6.6,0,0,0-.78-.36c-.35.1-.47.4-.56.71-.34,1.17.86,1.77,1.18,2.93-4.77-.64-9.36-1.77-14.08-.36.11-1.19.47-1.73,1.37-1.71a13.33,13.33,0,0,0,4.67-.95,2.3,2.3,0,0,1,.91-.2c1,.13,2.84-.76,3.77-1.39,1.53-1,1.54-2.41,1.43-4-.15-2.31-.82-4.55-.71-6.89.13-2.61-2.33-3.87-3.23-5.95-.09-.22-.12-.46-.21-.68a.43.43,0,0,0-.59-.26c-1.89,1-1.51-.63-1.62-1.48-.22-1.59-.8-3.15-2.18-3.78-1.59-.71-2.48-2.19-4.1-2.78.89-.82,1.81.74,2.26-.08s2.51-1.13,1.49-3c-.28-.48.37-1.37,1.2-1.52a13.42,13.42,0,0,1,1.91-.16c.77,0,1.16.33,1.17,1.14,0,1.24.1,2.47.15,3.7,1-1.29.3-2.8,1-4.08l4.32-.21a2.52,2.52,0,0,1-1.57-2.44,8,8,0,0,0-.78-3.93,13.08,13.08,0,0,1-1.92-5.52c-.43-3.16-2.1-6-2.23-9.29a1.08,1.08,0,0,0-.25-.66c-1.47-1.61-1.65-3.63-2.16-5.64-.86-3.39-.63-7-2.21-10.24a1.17,1.17,0,0,1-.1-.71,28.91,28.91,0,0,0,.27-8.31c-.23-4.13,0-8.28-.23-12.42-.1-1.64-1-3-1.51-4.49-.13-.33-.52-.22-.82-.15-.32,1.26.54,2.45.28,3.75-.69-.34-1.37-.79-1.94-.05a2.08,2.08,0,0,0-.55,2c.28.82,1.06.49,1.66.57s1-.15,1.45.38c0,1.08-.65,2.23-.29,3.43.93,3.12,0,6.37.68,9.53a3.5,3.5,0,0,1-.63,2.42c-1.22-2.58-1.28-5.36-2.23-7.95-.09,1.84-.66,3.61-.14,5.8-1-1.17-2.34-1.47-2.39-2.74-2.09,2-1.57,4.54-1.66,6.95,0,1-.53,2-.23,3.08a13.11,13.11,0,0,1-.39,6.85,92.88,92.88,0,0,0-2,9.25,63,63,0,0,1-3.13,12.46,3.69,3.69,0,0,0-.09,3.07c1.07-2,2.39-3.47,2.41-5.57a12.41,12.41,0,0,1,.79-3.23c.73-2.73,2.06-5.37,1.29-8.34a2.35,2.35,0,0,1,.19-1.64,17.94,17.94,0,0,0,1.68-8.56,5.8,5.8,0,0,1,.74-2.2c1,4.46,1.74,8.93,2.68,13.37a10,10,0,0,1-.18,5.3,4.45,4.45,0,0,0-1.8-.41c-1.33.09-2.77,1.52-2.65,2.64s1.42,1.59,2.94,1.42a9.59,9.59,0,0,0,2.36-.93c.59,2.27.78,4.62,1.81,6.52s1.16,4.11,2,6.08c.64,1.42,0,2-1.57,2.07-.4,0-.89-.09-1.17.1-1.19.83-1.58-.05-1.89-.87a3.84,3.84,0,0,0-2.5-2.17,2.3,2.3,0,0,0-2.89,1.11c-.53-.39-.34-.88-.57-1.19s-.82-.59-1-.17c-.39,1.09-.85.84-1.67.46-1.31-.61-2.16.17-2.69,1.61-.09-.45-.13-.61-.15-.76-.06-.38.08-.94-.43-1-.71-.08-.58.58-.63,1a1.21,1.21,0,0,0,0,.71c1.17,1.87-.4,4,.48,5.83-.9,3.5.06,7,.12,10.47.08,4.47.48,8.92.64,13.39,0,1.35,0,2.8-1.5,3.65a3,3,0,0,1-.22-1.55c-.1-3,.23-6,.38-9.07.12-2.38-.19-4.78-.27-7.17-.11-3.2-.66-6.34-1-9.51s-1.87-6-.56-9.13c.1-.24-.1-.6-.21-1.11a3.08,3.08,0,0,1-4.14-.44c-1-.85-2.13-.63-3.19-.54-1.61.13-2.17,1.57-1,2.67A2.24,2.24,0,0,1,584.25,187.62Zm11.36,111c-.49-2-.15-4-.08-6A33.18,33.18,0,0,1,595.61,298.61Zm1-14.39h-.16v-4.94h.16Zm2.55,40.69c-.7-.93-1.48-1.59-.65-2.83a15,15,0,0,0,1.11-2.48C600.23,321.72,600.14,322.32,599.18,324.91Zm23.59,1.59a7.47,7.47,0,0,1-.47-3.33C623,324.42,623.35,325.18,622.77,326.5Zm.65-51.63c.17,1.06.66,2.15-.35,3.21C622.42,276.8,623.29,275.86,623.42,274.87Zm-.83,8.08c.69,1.42.86,2.4-.28,3.55A10.63,10.63,0,0,1,622.59,283Zm-.18,6.35a4.3,4.3,0,0,1,.15,3.15A4.38,4.38,0,0,1,622.41,289.3Zm-.72,13.78c0-.07.35-.12.37-.09.24.42.07.85.06,1.36A1,1,0,0,1,621.69,303.08Zm0,9.82c-.06-1.66,0-3.33,0-5,0-.12.16-.23.38-.53.68,4.55-.34,9,.52,13.43a17.94,17.94,0,0,1-3.43-3.7C621.84,315.83,621.82,315.84,621.7,312.9Zm-8.06-46.81c1.12,3.13,1,3.41-1.48,4.09C612.06,268.48,613,267.41,613.64,266.09Zm1.17,42.6c1.79-.27,6,4.24,6,6.11,0,.76-.3,1.3-1.15,1a5,5,0,0,1-1.91-.91c-1.79-1.68-3.49-3.45-5.2-5.2a4.68,4.68,0,0,1-.55-1.06C613.15,308.54,613.92,308.83,614.81,308.69Zm-5.34-11.76c.51,1.45.51,1.45-1.29,1.86A2.79,2.79,0,0,1,609.47,296.93Zm.17,3.7c.15,1.72.15,1.72-1.84,2.2C608.26,301.86,608.54,301,609.64,300.63Zm-4.43.53c.71.88,0,1.45-.72,2.51A6.75,6.75,0,0,1,605.21,301.16Zm-2.89-34.55a10.33,10.33,0,0,1-.63,6.75C601.88,271.26,602.08,269.15,602.32,266.61ZM598,315.1a5.61,5.61,0,0,1,3.32-3.85,15.92,15.92,0,0,0,4.86-2.94,5.51,5.51,0,0,1,4.44-1.08c-1.18,1.15-11.15,10.62-12.05,11.77-.28-.9.68-1.94-.47-2.58C597.58,316.16,597.81,315.56,598,315.1Zm-1.85-43.4c.47.12.53.35.54.59.05.87.09,1.73.14,2.84C595.89,273.59,595.89,273.59,596.1,271.7Zm-.58,14.08c.45.79.22,1.37,0,2.3C595.27,287.17,595,286.6,595.52,285.78ZM615.07,185c.5.12.84.4.82.93,0,.26-.26.3-.5.29-.42,0-.79-.15-.84-.6A.53.53,0,0,1,615.07,185Zm-19.49,4.71c.82.89,1.36,1.83.43,3.26A4.35,4.35,0,0,1,595.58,189.7Z"/><path class="cls-1" d="M595.62,305.67l-.08-.43a.86.86,0,0,0-.07.21c0,.15.06.29.09.44Z"/><path class="cls-1" d="M476.83,229.51a2.92,2.92,0,0,0,3.05-.5,5.17,5.17,0,0,1,3.49-.4c2.21.23,4.32.58,6.59-.18,1.3-.44,3,0,4.43.31a37.37,37.37,0,0,0,6.57,1.17,7.53,7.53,0,0,1,3,.82c3.93,2,8.3,3,12,5.79a31.81,31.81,0,0,0,10.69,5.71c3.59,1,5.66,3.35,7.56,6.17,2.3,3.43,4.62,6.87,6.92,10.31a8.84,8.84,0,0,1,1.45,3.49c.54,3.07,1.56,6,2.14,9.08s1.13,5.91,1.76,8.84c.67,3.11-.06,6.2.46,9.28.22,1.29-.29,2.68-.39,4-.26,3.33-.49,6.67-.7,10a7.81,7.81,0,0,1-.52,2.09,14,14,0,0,0-.74,2c-.59,3.49-2.43,6.28-4.52,9-1.3,1.71-2.7,3.35-3.93,5.12-1.54,2.23-3.9,3.73-5.49,6a28.47,28.47,0,0,1-2.13,2.27c-2.09,2.38-4.88,3.78-7.52,5.37-1,.63-2.07,1.05-2.51,2.36s-1.8,1.79-3.13,1.69a12.23,12.23,0,0,0-8.79,2.69,3.75,3.75,0,0,1-4,.44c-1.39-.71-2.24-.7-3.31.39-.85.87-1.48.6-1.75-.66a13.55,13.55,0,0,1-.53-5.67,7.2,7.2,0,0,0-.07-3.33c-.76-2.51-.41-5.07-.75-7.58-.66-4.83-.56-9.69-1-14.52-.21-2.53-.82-5-1.24-7.54-.77-4.61-1.61-9.17-1.15-13.92a35.36,35.36,0,0,0-.4-7.87c-.33-2.61-.28-5.26-.4-7.89a5.23,5.23,0,0,0,0-1.19c-1.12-4.05-.53-8.26-1.16-12.31-.83-5.33-.81-10.87-3.13-15.92a5.44,5.44,0,0,1-.32-2.12,6.44,6.44,0,0,0-.21-2.13c-1.09-2.52-1.37-5.24-2.08-7.85-.24-.89-.5-2.28-1.55-2s-.63,1.72-.25,2.46c.63,1.21.2,2.46,0,3.44a21,21,0,0,0,.35,7.14,84.48,84.48,0,0,0,1.41,9.45c.38,1.45.65,3,.93,4.43a27,27,0,0,1,.66,7.55c0,.32-.18.67-.09.94,1.25,3.6-.2,7.5,1.24,11.09a5,5,0,0,1,.06,2.14,10.34,10.34,0,0,0,.75,5.86,3.37,3.37,0,0,1,.28,1.88c-.19,2.31.59,4.6.1,6.92a3.08,3.08,0,0,0,.16,1.18c.83,3.41.78,6.93,1.24,10.38.8,6,.54,12.1,1.94,18a3.58,3.58,0,0,1,.08,1.42c-.65,3.71.15,7.33.62,11a5.42,5.42,0,0,0,1,2.61,3.34,3.34,0,0,1,.72,3.31c-.58,1.6-.48,1.66-2.22,1.31-.53-.11-1-.14-1.21.38-.54,1.23-1.45,1-2.41.69s-1.93-.79-2.92-1.09c-.6-.19-1.29-.66-1.66.52a.87.87,0,0,1-1.56.1c-.64-1.24-1.78-.14-2.49-.73a4.55,4.55,0,0,0-2.88-1c-2.41-.08-4.38-1.15-6.4-2.34a38.52,38.52,0,0,0-6.49-3,24.91,24.91,0,0,1-5.63-3.13c-3.36-2.33-7.21-4-9.91-7.24a2.63,2.63,0,0,0-.93-.74c-3.05-1.24-4-4.09-5.4-6.69-1.72-3.24-3.2-6.6-4.76-9.91a47.09,47.09,0,0,1-4.08-11.94c-.32-1.85.32-3.8.3-5.72a27.13,27.13,0,0,0-.31-6,4.83,4.83,0,0,1,0-2.14c1.21-4.65,1.53-9.42,2.16-14.16a9.06,9.06,0,0,1,1.21-3.84,29.1,29.1,0,0,0,2.2-4.78,29,29,0,0,1,4.48-7.77c1.67-2,3.79-3.63,5.09-5.94.37-.65,1.09-.88,1.71-1.24a13,13,0,0,0,4.42-3.93,18,18,0,0,1,8-6.61c3-1.29,6.12-2.2,8.81-4.16C473.25,229.52,475,229.63,476.83,229.51ZM519,285.61c.31.65.63,1.29.92,1.94a1.19,1.19,0,0,0,1.78.66,34,34,0,0,1,4.6-1.89c.83-.36,1.29-3.18.67-3.84a.74.74,0,0,0-.63-.17c-2.52.92-5.24,1.41-7.27,3.37-2.53,0-3.12,1.56-2.22,4.07a2,2,0,0,0,2.08-1.8A5.43,5.43,0,0,0,519,285.61Zm-49.21-22c1.22-.73.56-2.36,1.68-3.32-.64,5.44-1.27,10.75-1.89,16.06l-.48,0V272.1c-.39,1.68-.61,3.33-.87,5a14.68,14.68,0,0,0,.33,5.23,2.57,2.57,0,0,1-.06.95c-.3,2.22.53,4.41.22,6.64-.07.56.38,1,.72,1.48v0a16.47,16.47,0,0,0,.72,8c1,3.46,1.63,7,2.55,10.44,2,7.49,4,14.94,8.59,21.38,1.55,2.19,2.7,4.65,4.92,6.37,1.66,1.29,4.06,1.21,5.37,3.22.14-2.5.64-4.84-.19-7.19a6.6,6.6,0,0,1-.54-2.8c.3-3.44-.4-6.84-.61-10.26-.29-5-.77-10-1.37-15-.48-4-.13-8-1-11.92a14.8,14.8,0,0,1-.55-3.06,92.68,92.68,0,0,0-1.44-14c-.26-1.62.14-3.16-.12-4.7a34.93,34.93,0,0,1-.61-6.2,39.8,39.8,0,0,0-1.22-10.42c-.86-3.18-.63-6.47-1.62-9.62-.57-1.83-1.06-3.87-.25-5.87a1.39,1.39,0,0,0,0-.94c-.27-.73.17-1.75-1-2.18-.17-.06.79-1.43.56-2.35a3.89,3.89,0,0,0-.34-.68,8.18,8.18,0,0,0-3.62,4.21,40.76,40.76,0,0,1-1.8,3.92c-3.15,6.53-5.46,13.28-5.58,20.62a1.56,1.56,0,0,1-.41,1.33c.11,1.53-1.15,3-.3,4.72A7.44,7.44,0,0,0,469.75,263.64ZM498,333.71c.25,1.5.55,3.39.9,5.27s.4,2,2.49,1.47a7.58,7.58,0,0,0,4.92-3.08,19,19,0,0,0,1.74-3.92,63.83,63.83,0,0,0,1.71-7.17c.61-2.72,1.24-5.43,1.74-8.17.55-3,.42-6.2,1.58-9.14a6.23,6.23,0,0,0,.18-3.09c-.34-2.7-.29-5.42-.49-8.12a6.74,6.74,0,0,0-.26-1.41,11.23,11.23,0,0,1-.25-6.37,5.45,5.45,0,0,0,0-2.86c-.47-1.9-.17-4-1.39-5.71a.83.83,0,0,1,0-.67c.55-1-.06-1.85-.31-2.74a6.42,6.42,0,0,1-.66-2.53c.39-3.35-.94-6.45-1.43-9.68-.44-2.83-1.33-5.58-1.84-8.36-.64-3.45-2.93-6.1-3.68-9.4a.63.63,0,0,0-.13-.2c-1.27-1.3-1.77-3-2.43-4.64-.2-.51-.36-1.21-.76-1.44-1.36-.79-1.65-2.27-2.45-3.4-1.24-1.77-1.62-4.2-4-5.09a.55.55,0,0,1-.27-.37c-.3-1.33-1.6-1.69-2.43-2.51s-2.14-.56-3.16-.27-.53,1.4-.43,2.07a77.1,77.1,0,0,0,1.55,8.69,38.34,38.34,0,0,1,1.63,6.66c.29,3.14,1.21,6.23,1.44,9.41.23,3,1.17,5.92,1.22,9,.05,2.38-.06,4.77.22,7.16.19,1.53.93,2.88,1,4.42.14,2.61-.22,5.26.54,7.84a3.76,3.76,0,0,1-.14,1.65,22.73,22.73,0,0,0,0,8.1c.66,4.73,1.65,9.4,1.87,14.21a121.16,121.16,0,0,0,1.43,14.74A31.38,31.38,0,0,1,498,333.71ZM456.13,282c0-.32,0-.64,0-1,.08-2.14-.2-2.44-2.21-1.89a31.83,31.83,0,0,1-4.67.9,22.63,22.63,0,0,0-4.5,1.55,1.62,1.62,0,0,0-1,1.28,20.54,20.54,0,0,0-.61,2.8c-.24,1.87.14,2.22,2,2a8.16,8.16,0,0,0,2.6-.39,20.79,20.79,0,0,1,5.27-1.5C456.08,285.23,456.06,285.13,456.13,282ZM457,299.5c-.71-1.9.11-3.57.13-5.3,0-1.42-.16-1.63-1.46-1.34a65.56,65.56,0,0,0-11.22,3.07c.12,1.62,1.36,2.74,1.62,4.27s.57,1.61,1.88,1.17A28,28,0,0,1,457,299.5Zm59.76-15.21c3.18-1.21,6.25-2.39,9.34-3.53,1.23-.46,1.18-1.47,1-2.38a35.76,35.76,0,0,0-1.09-3.71,12.85,12.85,0,0,0-6,2.95c-.48.42-.94,1.05-1.49,1.15-2.2.44-2.44,1.87-2.11,3.69C516.46,283,516.26,283.58,516.71,284.29Zm-60.91,2.5c-3.07.7-6,.69-8.64,1.73-1.1.42-2.55.4-3.21,1.37-.76,1.12.32,2.45.22,3.71,0,.11.19.23.26.31a23.77,23.77,0,0,0,9.32-2c2.25-.86,2.2-.95,2.06-3.3C455.78,288.18,455.8,287.7,455.8,286.79Zm3.92,24.37c-.76-.75-.57-1.87-.64-3-.11-1.85-.8-2.22-2.41-1.5-.86.39-1.6,1.08-2.63,1.06-1.63-.05-3.1.69-4.67.92-1.13.17-1,.79-.63,1.52.67,1.25,1.66,2.33,1.91,3.81.12.74.68.78,1.28.46C454.36,313.12,457.41,313.4,459.72,311.16Zm-2.25-10.87c-.81.18-1.42.36-2,.44-2.13.28-4.06,1.34-6.21,1.55-2.93.3-3.13.62-2.32,3.43.13.46.31.9.44,1.36.27.88.79,1.07,1.63.7a50.81,50.81,0,0,1,7.07-2c2.31-.65,2.31-.6,1.74-3.1A23.74,23.74,0,0,1,457.47,300.29Zm-13.24-19.82a12.05,12.05,0,0,1,3-1.39c1.95-.37,3.83-1,5.84-1.24,2.71-.29,3-.79,3-3.46a3.13,3.13,0,0,0-.31-2.06,75.13,75.13,0,0,1-7.31,1.85C444,275.32,444.05,275.39,444.23,280.47ZM452,315.83a47.35,47.35,0,0,0,3.7,5.16c.42.45.82.83,1.42.41a20.51,20.51,0,0,1,5.59-2.26c-.36-1.73-1.27-3.09-1.65-4.62-.32-1.27-.81-1.5-2-1C456.86,314.3,454.58,315,452,315.83Zm80.81-42.37a5.86,5.86,0,0,0,0,1.71c.22.81.54,1.78,1.74,1.42a16.6,16.6,0,0,0,7.29-3.88c.42-.42,1.13-.69,1-1.52a9.42,9.42,0,0,0-1.07-2.89.46.46,0,0,0-.4-.18c-1.78.79-4,.84-5.19,2.63-.26.38,0,.8-.75.33s-1.74.06-2.45.43S533.1,272.67,532.85,273.46Zm-16.61,4.13c2.32-1,4.81-1.5,6.75-3.24a2.8,2.8,0,0,1,1.53-.61c1.37-.15,1.46-1,1.23-2,0-.23-.14-.46-.21-.68-.82-2.35-1-2.43-3.09-1.23a13.88,13.88,0,0,1-3.27,1.41c-3.85,1-3.86,1-3.33,5.05C515.91,276.72,515.86,277.22,516.24,277.59ZM458,260.47a3.14,3.14,0,0,0-2.64.11,45.59,45.59,0,0,1-4.49,1.65c-2.93.78-3.9,2.85-4.13,5.58,1.42.41,2.41-.47,3.53-.76a46.17,46.17,0,0,0,4.9-1.1,2.86,2.86,0,0,0,2.2-2.75A5.37,5.37,0,0,1,458,260.47Zm84.82,13.33a10.13,10.13,0,0,1-2.88,1.54,29.28,29.28,0,0,0-4.54,2.12,1.75,1.75,0,0,0-1.05,1.92,19.11,19.11,0,0,1,0,2.39c0,1.41.49,1.68,1.77,1a5.07,5.07,0,0,0,1.17-.83,16.2,16.2,0,0,1,4.12-2.82,20.42,20.42,0,0,0,1.84-1.11,1.18,1.18,0,0,0,.67-1.39A6.21,6.21,0,0,0,542.86,273.8Zm-26.48-3.22a3.09,3.09,0,0,0,.84-.32,11.45,11.45,0,0,1,4-1.55c4.46-1.31,4-.83,2.08-4.7a.94.94,0,0,1-.07-.22c-.21-.77-.69-.82-1.26-.43a13,13,0,0,1-4.41,1.68c-2.67.65-3.4,2.72-2,5.11A.84.84,0,0,0,516.38,270.58Zm27.44,31.31a10,10,0,0,0-1.3.58c-1.56,1.07-3.08,2.2-5.07,2.42a2.19,2.19,0,0,0-1.78,1.45,21,21,0,0,0-1.37,4.74,10.25,10.25,0,0,0,5.43-2.1,2.55,2.55,0,0,1,1.24-.66c1.54-.08,2-1.08,2.17-2.36S543.55,303.49,543.82,301.89Zm-80.15-11.72c-1.57.31-2.9,1.07-4.44,1.09a1.23,1.23,0,0,0-1.23,1.21,11.9,11.9,0,0,0,.43,5.17c.16.49.46,1,1,.69,1.34-.74,2.89-.69,4.27-1.21.43-.16,1.06-.32.9-.91C464.06,294.3,464.61,292.24,463.67,290.17Zm78,20.16a4.82,4.82,0,0,0-2.22.31c-4.83.6-7.31,3.84-9.11,8.12,2.43-.09,4.38-1.34,6.53-1.83a1,1,0,0,0,.55-.44C538.77,314.49,540.15,312.47,541.63,310.33Zm-96-37.23c1.82.06,3.49.22,5.05-.6a15.58,15.58,0,0,1,3.83-1.35c2-.47,2.39-1.12,2.21-3.21-.06-.68-.28-1.06-1-.92a8.62,8.62,0,0,0-1.87.39c-1.61.72-3.33,1.07-5,1.63C446.15,270,445.39,270.11,445.67,273.1Zm91.74,25.42a1.41,1.41,0,0,0,1.28,0,24.6,24.6,0,0,1,4.77-2.68,1.32,1.32,0,0,0,.85-1.09,10.52,10.52,0,0,0,.07-4.51,16.49,16.49,0,0,0-5.44,2.07c-.57.39-1.37.77-1.28,1.6C537.81,295.45,537.39,297,537.41,298.52Zm-1.88-10.8a15,15,0,0,1,3.15-1.2,16.62,16.62,0,0,0,5.2-2.85c.37-.27.86-.51.78-1.1-.16-1.06.24-2.21-.46-3.23a2.7,2.7,0,0,0-1.34.5c-1.73.8-3.05,2.25-4.86,3-2.75,1.1-2.73,1.17-2.62,4.09A7.09,7.09,0,0,0,535.53,287.72Zm-21-23.23a36,36,0,0,0,6-2c2.29-.89,2.32-1.06,1.07-3.2-1.5-2.58-1.13-2.06-3.66-1.13a6.9,6.9,0,0,0-.86.43C513.47,260.41,513.47,260.41,514.48,264.49Zm-62.06-8.83c.23.11.39.26.5.22,2.26-.65,4.45-1.53,6.77-2a.82.82,0,0,0,.7-.85c-.11-1.59,1-2.78,1.42-4.39-1,0-1.95.05-2.88,0a3.73,3.73,0,0,0-3.59,1.86C454.23,252.15,453.44,254,452.42,255.66Zm-9.09,53.24c-.78-1.44-1.48-2.69-2.14-3.95a.91.91,0,0,0-1.36-.49c-.46.21-1,.36-1.18-.28s.39-.84.82-1c1.29-.36.84-1.07.45-1.82-.57-1.12-1.66-2-1.77-3.35,0-.45-.28-1.07-.89-.82s-1.68.21-1.71,1.35a4,4,0,0,0,.73,2.24,8,8,0,0,1,1.08,2.39c.52,2.13,1.79,3.91,2.86,5.78a.91.91,0,0,0,1.37.42A14.4,14.4,0,0,1,443.33,308.9Zm3.21,4.72c-.21,0-.29,0-.32-.07-.31-.46-.63-.91-.92-1.38-1.13-1.8-1.65-1.94-3.41-1-.5.27-.71.59-.4,1.14a26.45,26.45,0,0,1,1.79,4.17c.31.84.82,1.29,1.85.77a22.7,22.7,0,0,0,3.18-1.63c.33-.23.79-.45.57-.89-.85-1.7-1.08-3.79-3.23-5.21C446,311.15,446.26,312.36,446.54,313.62Zm86.79-18.81-4.28,2.08a1.81,1.81,0,0,0-.89,1.06,11.8,11.8,0,0,0-.77,3.47c0,1.48.33,1.77,1.65,1.13s2.57-1.86,4.23-2.08a.71.71,0,0,0,.54-.93C533.36,298.08,533.75,296.54,533.33,294.81Zm1.83-2.56c3.58-.26,6.34-2.3,9.13-4.25a3.61,3.61,0,0,0,.9-1.88c.24-.79-.38-1-1-.93a5.28,5.28,0,0,0-1.27.61c-2,.91-3.92,2.09-6,2.8C534.64,289.37,534.56,289.55,535.16,292.25ZM517.4,252.11a7.07,7.07,0,0,0-1.72-3.06c-1.55-1.77-2.18-1.85-4.36-1-1.1.44-1.29,1-.71,2a16.37,16.37,0,0,1,.83,2c.82,1.93.81,1.91,2.88,1.09C515.26,252.73,516.26,252.47,517.4,252.11ZM457,322.39c2.26,3.28,2.81,3.45,6.17,2.14l2.86-1.12a16.63,16.63,0,0,1-1.68-2.51c-.45-1-1.08-1-1.9-.68A43.88,43.88,0,0,1,457,322.39ZM528.65,249c0,.69.46,1.18.64,1.78.34,1.21,1.17,1.36,2.23,1,.45-.14.92-.25,1.36-.42.62-.26.76-.63.46-1.31-1.71-3.87-4.9-5.46-9.22-6.15.59.73,1,1.14,1.28,1.58,1.19,1.69,2.4,3.26,4.8,1.92a.82.82,0,0,1,.23,0c.29,0,.41.18.49.42s-.08.44-.28.58C530,248.81,529.2,248.42,528.65,249Zm-.92,66.6c-3.94.72-6.31,2.8-7.2,7.06a35.9,35.9,0,0,1,5-1.63,2.44,2.44,0,0,0,1.54-1.71A26.71,26.71,0,0,0,527.73,315.6ZM524,315c1.66-.06,2.84-1.05,4.25-1.33.35-.07.49-.36.54-.7.25-1.73,1.28-3.19,1.77-4.91C524.82,309.51,524,310.09,524,315Zm10.71-51.29c1.89-.67,3.34-2,5.1-2.83a4.73,4.73,0,0,0-.57-1c-.66-.63-.35-2.08-1.52-2.12a5.66,5.66,0,0,0-3,.51c-.2.12-.46.12-.67.23-.44.21-.84.49-.62,1.08C533.87,260.86,533.89,262.33,534.67,263.66Zm1.4,5.27c1.51-.77,2.84-1.81,4.48-2.2a1.68,1.68,0,0,0,.78-.52c.89-1,.16-1.92-.27-2.83s-1.15-.49-1.81-.28c-.85.26-1.33,1.09-2.21,1.33-2.13.57-2.12.6-1.66,2.7A3.4,3.4,0,0,0,536.07,268.93Zm.55,35.14c1.91-.9,3.83-1.65,5.6-2.69a3.49,3.49,0,0,0,1.86-4c-1.41.6-2.68,1.26-4,1.7C537.65,299.85,536.35,301.33,536.62,304.07Zm-78.88-19.46c.9-.64,2.4-.07,2.7-1.36.44-2,1.17-3.95.83-6.28-.94.79-2,.33-2.87.78s-1.48.77-1.18,1.77A23.37,23.37,0,0,1,457.74,284.61Zm63.42,13.74a22.67,22.67,0,0,0,4.17-1.45c.43-.2.85-.33,1-.87.3-1,.84-2.17.19-2.94s-1.75,0-2.58.34C520.73,294.65,520.74,294.67,521.16,298.35Zm16.32-42.22a9.08,9.08,0,0,1-2.47-3.38,1,1,0,0,0-1.12-.64c-2.53.15-3.33,1.39-2.26,3.58a6.71,6.71,0,0,1,.44.84,1.32,1.32,0,0,0,1.88.87C535.05,257,536.12,256.62,537.48,256.13Zm-91.18,62a12.31,12.31,0,0,1,4.2,3.87c1.14,1.8,1.71,1.76,3.5.26a14.71,14.71,0,0,0-2.46-3.51c-1.68-2.1-1.64-2.13-4.17-1.16C447.15,317.68,447,317.81,446.3,318.14Zm75-13.17c4-.62,5.31-2.37,4.6-6-4.06.58-4.06.58-4.5,4.63C521.37,304,521.35,304.35,521.31,305Zm-5.82,27.62c2.35.11,7.85-2.86,8.8-4.78a1,1,0,0,0-.07-1.12c-.26-.3-.62-.14-.85,0-2.08,1.38-5.17,1.16-6.31,4-.12.3-.67.4-1,.66S515.37,332,515.49,332.59Zm3.11-86.93c.31,1.35,1.34,2.06,2.1,2.91,1.49,1.69,1.91,1.67,3.86.71.76-.38,1-.83.48-1.44a39.21,39.21,0,0,0-2.81-2.81,1.18,1.18,0,0,0-1.13-.2Zm10.72,39.83a11,11,0,0,0,2.91-1.16c.52-.26,1.12-.46.89-1.19-.4-1.28.27-2.75-.7-3.91a.45.45,0,0,0-.19-.15c-.67-.19-3.23,1.39-3.19,2.08C529.13,282.56,528.66,284,529.32,285.49Zm-.6-6.14c.92-.35,1.74-.64,2.54-1,.43-.19,1-.45.9-1-.36-1.3.09-2.74-.68-3.94-.25-.38-.47-.86-1.07-.79s-2.2,1.48-2.19,2.22C528.23,276.3,528,277.75,528.72,279.35ZM459.3,255.53a3,3,0,0,0-2.61.68,9.92,9.92,0,0,1-4.43,1.6c-1.9.12-2.27.65-2,2.91a8,8,0,0,1,4.3-1.32C457.16,259.34,458.78,258.15,459.3,255.53Zm74.49,34.27c-4.25.72-5.07,1.51-5.31,5.33,1.41-.35,2.78-.66,4.13-1.05a1.74,1.74,0,0,0,1.38-1.73C534,291.49,534.32,290.61,533.79,289.8Zm-68,11.32a3.6,3.6,0,0,0,0-1c-.1-.53-.38-1-.51-1.57-.25-1-.79-1.07-1.57-.56a7,7,0,0,1-1,.59c-1.21.5-1.39,1.33-1,2.51.6,1.78,1.14,2.36,2.49,2.38C465.92,303.51,466,303.4,465.74,301.12Zm48.69-43.33c1.6-.38,3.25-.26,4.44-1.63.65-.75.3-1.28,0-1.9s-.8-1-1.53-.57a7.51,7.51,0,0,1-3.2.78c-.62,0-1.32.11-1.23,1.05C513,256.68,513.82,257.8,514.43,257.79Zm12,49.72c3.85.08,5.12-.87,6.49-4.83C529.29,302.59,526.82,304.43,526.4,307.51Zm-5.71-14.25a20.8,20.8,0,0,1,4.39-1.85,2.48,2.48,0,0,0,2-2.39c0-.57-.18-1-.82-.8-1.38.35-2.78.66-4.12,1.13-1.71.59-1.74.72-1.6,2.63C520.54,292.3,520.6,292.61,520.69,293.26Zm-61.08,13c.22.81.41,1.64.66,2.45.33,1.1,1.43,1.62,2,2.56.22.35,1.28-.29,1.89-.65.13-.07.21-.22.35-.38-.21-.57-.42-1.16-.63-1.75C462.87,305.61,462.87,305.61,459.61,306.3ZM531,257.46c-.4-.79-.77-1.67-1.26-2.48-.69-1.18-1.84-1.29-3.24-.39-1.05.68-1.05,1.11,0,2.52.43.57.86,1.14,1.3,1.7s1.1.43,1.66.05S530.88,258.45,531,257.46Zm-1.34,8.39a12.05,12.05,0,0,0-1.73-3.85,1.4,1.4,0,0,0-2-.44c-.87.45-1.22.88-.79,1.82a14,14,0,0,1,.44,1.6c.66,2.22.84,2.3,3,1.43C528.84,266.26,529.18,266.08,529.64,265.85Zm3.84,19.43c-1.38.43-2.62.72-3.77,1.2a2.14,2.14,0,0,0-1.11,2.61c.45.89,1.26.24,1.91.31a2,2,0,0,0,.47-.06C534.12,288.88,534.12,288.88,533.48,285.28Zm-6.15-13.21c1,.45,1.68-.21,2.44-.32.92-.12,1.11-.86,1.11-1.58a5.31,5.31,0,0,0-.83-2.89c-.06-.09-.3-.11-.45-.09a5,5,0,0,0-2.5.66c-.79.59.06,1.3,0,2A21.55,21.55,0,0,0,527.33,272.07Zm-60.51,45.08c-.51-1.66-1-3.08-1.38-4.52-.34-1.21-1.15-.74-1.9-.64s-1,.4-.89,1.26a14.51,14.51,0,0,0,1.33,4,.83.83,0,0,0,1.16.51C465.65,317.6,466.16,317.4,466.82,317.15Zm59.36,4.69c-2.36,1.07-5.37,1.05-6.83,4.21l2.89-.37C524.91,325.36,525.59,324.76,526.18,321.84Zm6.33-58.93a6,6,0,0,0-.61-2.88c-.31-.66-.78-.7-1.38-.47s-1.68.28-1.43.92c.59,1.47.68,3.09,1.41,4.5a.7.7,0,0,0,1,.36c.43-.18,1-.25,1-.86C532.53,264.08,532.51,263.68,532.51,262.91Zm-79.87,61.45c2.13,3.54,2.5,3.69,5.46,2.26C456.63,323.39,456,323.1,452.64,324.36Zm13.62-77c-2,.23-2.2.21-2.27.7-.24,1.78-1.38,3.22-2.05,5C465.47,252.29,466.07,251.48,466.26,247.34ZM517.11,314c-.38,0-.55-.11-.66-.06-.59.24-1.17.5-1.75.77-1.72.8-1.72.81-1.54,2.69.14,1.46.65,1.78,1.92,1.16a1.86,1.86,0,0,0,1.14-1.15C516.52,316.3,516.81,315.17,517.11,314Zm17.78,5.09a18,18,0,0,0-6.2,2.81.8.8,0,0,0-.25.39c-.12.34,0,.77.32.73,1.28-.19,2.78.46,3.81-.73C533.43,321.32,534.12,320.19,534.89,319.11Zm-27.17-74.78c.24.46.38.75.53,1,1.76,3,1.12,2.9,4.35,1.12C511.18,243.9,509.94,243.32,507.72,244.33Zm-36.65,88c-.57-1.53-1-2.64-1.38-3.78-.19-.57-.58-.86-1.06-.6-1.07.56-2.08,1.25-3.23,2C467.17,331.26,469.08,331.47,471.07,332.37Zm47.4-29.81c-2.43.61-3,1.95-2.4,5.22C518.63,306.78,518.64,306.75,518.47,302.56Zm7.76-43.12a8.87,8.87,0,0,0-2.31-3.56,1.82,1.82,0,0,0-1.57.25c-.59.44,0,.78.16,1.17.36.87.65,1.77,1,2.64.19.47.51.82,1.07.47S526.06,260.27,526.23,259.44Zm-63.42-.25c-1.49.32-3,.1-3.17,1.39-.16,1.08-.75,2.24-.31,3.45C462.38,263.85,461.92,261.29,462.81,259.19Zm-2.14,72.72a1.88,1.88,0,0,0,1.18,1.2c1.4.63,3.1,0,4.43,1,.12.1.48,0,.66-.13s.6-.24.42-.75a9.13,9.13,0,0,1-3.11-2,1.37,1.37,0,0,0-1.74-.31C461.87,331.19,461.28,331.57,460.67,331.91Zm-2.86-55.42c.88-.17,2.06.09,2.15-1.24a12.42,12.42,0,0,0-.13-3.89C457.37,272.06,457.32,272.21,457.81,276.49Zm10,32.47c-.79-1.24-.49-2.78-1.21-4a.89.89,0,0,0-1.35-.41c-.45.22-1.24.29-1,1.06a13.24,13.24,0,0,0,2.1,3.94.83.83,0,0,0,1.09.06C467.66,309.46,467.72,309.19,467.84,309Zm-25.95-26.14c-2.17.61-2.57,1-2.43,2.57a12.78,12.78,0,0,0,.45,2.09c.16.58.48,1,1.19.86a.94.94,0,0,0,.79-1C441.9,285.89,441.89,284.47,441.89,282.82Zm83.67-32.76a3.83,3.83,0,0,0-2.21,1.46c-.09.13,0,.47.1.65a3.14,3.14,0,0,0,4.36.62c.17-.17.3-.4.13-.62A11.78,11.78,0,0,0,525.56,250.06Zm-6-6.63a8.16,8.16,0,0,0-4.17-2.52c-.93-.29-1.44.32-1.14,1.12.56,1.52,2.17,1.45,3.27,2.15C518.33,244.69,518.83,244,519.57,243.43Zm-60.06,61.26c2.49-.69,2.49-.68,1.79-2.64-.14-.37-.26-.75-.38-1.12-.18-.61-.25-1.28-1.21-1.06a1.23,1.23,0,0,0-1,1.75A11.33,11.33,0,0,1,459.51,304.69ZM457.21,329c.54.43,1.2.69,1.28,1.07.25,1.09.62,1.57,1.41,1.08s1.83-.61,2.33-1.53C459.66,327.47,459.66,327.47,457.21,329Zm-14.16-52.82c-2.66.72-3,1.21-3.28,4.23,0,.47-.16,1.05.54,1.05s1.51.18,1.52-.68C441.85,279.18,442.6,277.79,443.05,276.19Zm81.46,29.55a6.1,6.1,0,0,0-3.16,1.24c-.66.41-.65,2.28-.11,2.57a2.28,2.28,0,0,0,2.45-1C524,307.69,524.21,306.79,524.51,305.74Zm-63.43-40.23c-2.09.33-2.46.74-2.72,2.95-.07.61-.17,1.44.59,1.57a1.36,1.36,0,0,0,1.61-1.07A13.74,13.74,0,0,0,461.08,265.51ZM437,271.42c2.44.1,2.73-1.52,3-3.11.11-.52.45-1.21-.22-1.44a1.21,1.21,0,0,0-1.58.65A10.77,10.77,0,0,0,437,271.42Zm74.76,54c2.51-.64,2.91-1.28,3.33-4.92C512.38,321,512.43,323.25,511.71,325.42Zm-44.28-6.89c-.88.13-2.06.24-2.22,1.06-.21,1.07.71,1.81,1.75,2.23a2.37,2.37,0,0,1,.73.58.66.66,0,0,0,.84.2c.46-.25.31-.66.19-1A9.06,9.06,0,0,0,467.43,318.53Zm-7.65-32.68c-2.34.4-2.54.68-2.13,2.82a1.57,1.57,0,0,0,0,.23c.18.52.36,1.16,1.05,1.05s1.47-.36,1.32-1.32S460.19,286.74,459.78,285.85Zm-20.71-21.23c2.31-.54,3.53-2.24,3.66-4.8C440.18,260.45,440.12,262.91,439.07,264.62Zm77.35,36.22c2.39-.73,2.81-1.38,2.46-3.39-.1-.61-.4-.86-1-.69-.74.24-1.58.39-1.51,1.5C516.46,299.05,516.42,299.84,516.42,300.84ZM446,264.59c-.91-.16-1.69-.3-2.12.63s-.84,2-1.21,3.07c-.13.35-.23.86.24,1s1.1.17,1.25-.34C444.63,267.48,445.72,266.26,446,264.59Zm65.6-28.81c-1.9,0-2.84-2.93-4.73-.54-.19.24-.56-.13-.85-.26-.46-.21-.9-.29-1.17.51,1.07,0,1.47,1.08,2.32,1.48.62.28,1.53.39,1.46-.45-.17-1.86.48-1.37,1.38-.65C510.35,236.12,510.65,236.39,511.63,235.78Zm2.12,42.44c-.12-.82-.28-1.92-.45-3-.09-.52,0-1.25-.9-1-.53.17-1,.5-.73,1.23a12.49,12.49,0,0,1,.88,3.9.55.55,0,0,0,.68.49c.37-.05.5-.32.52-.66S513.75,278.73,513.75,278.22Zm18.9-7.89c2.31-.56,2.33-.6,1.41-2.52-.17-.36-.35-.71-.52-1.07-.27-.59-.61-.9-1.29-.52s-1.08.92-.43,1.48C532.68,268.45,532.43,269.45,532.65,270.33Zm-97,19.78c.09,1.62-.22,3.18-.17,4.75,0,.49.15,1,.82.87s1.22-.21,1.15-.92A8.15,8.15,0,0,0,435.6,290.11Zm87.34,20.65c-2.57,1.3-3,2.61-2.2,5.83A13.48,13.48,0,0,0,522.94,310.76Zm-82-35.58c2.4-.4,2.71-.94,2.43-4C441.18,271.73,441.18,271.73,441,275.18Zm22.75-31.65c-2.53.1-3.48,2.09-5.39,3.39C461.09,246.89,462.91,246.18,463.73,243.53Zm54.86,47.92c-1.94.24-2.21.83-2.2,2.65,0,.78.37,1,1.07.75C518.93,294.41,519.1,293.92,518.59,291.45Zm-71.5-38.69c-.64-.49-1.17-.29-1.28,0-.71,1.8-2.49,3-3.12,5.35C445.75,257.13,445.48,254.24,447.09,252.76Zm88.3,46.52.52.15a20.59,20.59,0,0,0,1.4-5.14c.05-.52-.38-.59-.82-.47-.66.18-1.13.48-1.11,1.28C535.41,296.49,535.39,297.89,535.39,299.28Zm-15.66-47.86c.57-.9-.19-1.32-.38-1.86a9.39,9.39,0,0,0-1.8-3.06.94.94,0,0,0-1.28-.23c-.62.41-.14.86.07,1.22C517.21,249,518.71,249.94,519.73,251.42Zm-55.59,2.93c-2.89,1.16-2.89,1.16-3.35,3.35C463.85,257.07,463.85,257.07,464.14,254.35ZM534.23,307c-1.9,1.06-2.34,2.85-2.34,5.27A6.44,6.44,0,0,0,534.23,307Zm-60.41,29.4c-3.3-2.56-3.36-2.57-5.4-1.37A13.94,13.94,0,0,0,473.82,336.35Zm-3.94-90.56c-1.92.77-2.94,2.76-3,5.33C468.62,249.77,468.71,247.76,469.88,245.79ZM466,263.65c-1.28,1.47-1.12,2.89-1.48,4.1-.13.44-.29,1,.44,1.09s.8-.4.94-.87A9,9,0,0,0,466,263.65Zm-1.85,11.29c.36-1.34.73-2.67,1.07-4,.08-.35.24-.86-.28-1a.86.86,0,0,0-1,.76C463.67,272.07,463.22,273.43,464.15,274.94Zm46.7-2.45c1.72-.91,1.88-1.32,1.33-3-.15-.44-.26-.93-.93-.73-.5.15-.88.4-.81,1C510.54,270.58,510.69,271.42,510.85,272.49Zm-37.5-36.86c-2.57-.07-4.23,1.64-3.89,4.1Zm-8.07,92.56c-.1-.68-.53-.95-.81-1.32a4.64,4.64,0,0,0-.49-.5c-.66-.56-1.22-.08-1.69.27s-.14.82.15,1.19C463.31,328.93,463.63,329,465.28,328.19Zm-4.64-53.06c1,.26,1.38-.17,1.54-.85s.3-1.55.42-2.33c.06-.37.27-.86-.24-1s-.9.27-1,.75C461.07,272.82,460.87,274,460.64,275.13Zm3.12-12.22c.14-.07.33-.11.4-.22a10.71,10.71,0,0,0,1-3.41.44.44,0,0,0-.24-.37c-.22,0-.59-.07-.67,0a7.33,7.33,0,0,0-1,3.62C463.2,262.81,463.5,262.92,463.76,262.91ZM444,301.38c-.28-1.63-.56-3.26-.86-4.88-.07-.41-.25-.78-.76-.71s-.56.48-.58.89a.88.88,0,0,0,.05.46C442.78,298.46,442.9,300.12,444,301.38Zm19.61-36.72a1.09,1.09,0,0,0-1.22,1,9.36,9.36,0,0,0-.46,3,.42.42,0,0,0,.51.36c.22,0,.55-.16.58-.31C463.37,267.4,464,266.1,463.65,264.66Zm-1.17,18.11c1.69-2.63,2-4.49,1.08-6.11a24,24,0,0,0-.68,2.57C462.68,280.4,462.61,281.59,462.48,282.77Zm12.38-45.51.15.22c2-1.61,3.25-3.8,4.7-5.84.15-.21.15-.47-.15-.52s-.58.07-.6.16c-.27,1.63-1.72,2.41-2.55,3.63C475.88,235.69,475.06,236.28,474.86,237.26Zm10.85,103.22a4.62,4.62,0,0,0-3.47-3.06c-.44-.11-1,.33-.94,1.17Zm37.14-86.18a3.77,3.77,0,0,0-1.65-1.91,1.07,1.07,0,0,0-1.12.17c-.41.34-.15.71,0,1.05C520.86,255.07,521.23,255.17,522.85,254.3ZM512.3,336.57c3-.28,3.65-.6,4.66-2.36C515.4,335.08,513.49,334.67,512.3,336.57Zm-64.18-13.45a22.74,22.74,0,0,0-2.13-4.45.52.52,0,0,0-.59-.27c-.43.06-.47.39-.37.7A5.51,5.51,0,0,0,448.12,323.12Zm67.33-10.85c2.39-.27,2.39-.28,1.94-2.57C515.31,310.34,515.31,310.34,515.45,312.27ZM467.84,242c-2.23.36-1.39,2.43-2.78,3.52C467.72,244.94,467.72,244.94,467.84,242Zm-1.13,11c-1.83,1.12-1.8,2.64-1.94,4.42C466.67,256.35,466.47,254.75,466.71,253Zm47.21,38.82c.8-1.08,1.06-3.22.51-3.94a.89.89,0,0,0-.62-.2c-.41,0-.5.35-.51.66A6.14,6.14,0,0,0,513.92,291.81Zm-49.16-53.45a5.68,5.68,0,0,0-4.78,4.33C461.51,240.78,463.71,240.28,464.76,238.36Zm-26.22,34.51c-.84,0-1.63.15-1.55.87.14,1.21-.39,2.31-.37,3.75C438.36,276.21,438.17,274.5,438.54,272.87Zm74.69,10.39c-.06.68-.15,1.31-.16,1.94,0,.28.06.68.51.65a.67.67,0,0,0,.66-.57,22.45,22.45,0,0,0-.08-2.84c0-.49.16-1.39-.57-1.34-1.05.07-.37.95-.4,1.49A6.53,6.53,0,0,0,513.23,283.26ZM442,294.69l.52-.06c.18-1.41-.4-2.76-.43-4.16a.55.55,0,0,0-.69-.49c-.54.08-.58.45-.47.87C441.27,292.13,441.63,293.41,442,294.69Zm67.68-32.91c.51,1.64.52,3.35,1,5.1C511.56,265.5,511.2,263.39,509.67,261.78Zm5.48-16.45c-1-.67-1.43-1.88-2.33-2.62-.38-.31-.8-1-1.35-.39-.39.45.17.85.48,1.17A6.94,6.94,0,0,0,515.15,245.33ZM476.58,330.6c-.07,1.44,1.06,2.12,1.34,3.27.11.47.64.23,1,0s.6-.58.23-.94C478.3,332.13,477.43,331.37,476.58,330.6Zm29.67-97.14c-1.86-.2-2.89-1.7-4.57-1.48C502.94,232.8,503.67,234.84,506.25,233.46Zm1.25,5.84c.84.66,1.68,1.32,2.51,2a.68.68,0,0,0,.87.06c.44-.35.1-.72-.13-1C510,239.26,508.62,239.64,507.5,239.3Zm-61.79,69.22a5.2,5.2,0,0,0-1.41-4.62C444.7,305.45,444.67,307.11,445.71,308.52ZM471,327.59a26.54,26.54,0,0,1,1.43,3.13c.15.4.43.7.9.47a.63.63,0,0,0,.25-1A6.12,6.12,0,0,0,471,327.59Zm-5.66-1.87a20,20,0,0,0,1.39,1.52c.43.38,1.39.09,1.29-.36a2.63,2.63,0,0,0-1.13-1.94C466.18,324.59,465.72,325.1,465.31,325.72Zm64.2-8.19a3.79,3.79,0,0,0,1.79-2.34c.12-.43.47-1-.06-1.25a.8.8,0,0,0-1.1.84C530.2,315.65,529.71,316.4,529.51,317.53Zm-60.77-2.34.53-.13a10.33,10.33,0,0,1-.66-3.6.47.47,0,0,0-.59-.53c-.44.08-.73.35-.57.81C467.86,312.9,468.31,314,468.74,315.19Zm37.5-64c0,.24-.17.5-.1.69.43,1.05.19,2.4,1.36,3.13,0,0,.19,0,.2-.07.44-1.2-.67-2-.8-3.08A.84.84,0,0,0,506.24,251.23Zm21,75.9a5.5,5.5,0,0,0,2.69-2.35C527.59,325.14,527.59,325.14,527.25,327.13ZM436,282.4c.43-1,1.07-2,.47-3.53C435.77,280.26,435.47,281.27,436,282.4Zm73.57-23.19c-.14-.44-.25-.89-.42-1.32s-.12-1.1-.76-.94-.39.89-.3,1.36a4.34,4.34,0,0,0,.51,1.29c.07.12.41.16.61.12A.43.43,0,0,0,509.54,259.21Zm-37.78-18.08a5,5,0,0,0-1.57,2.42C471.89,243.34,471.74,242.15,471.76,241.13Zm7.93,95.75c.53,0,1.52-.56,1.47-.92a.78.78,0,0,0-.8-.7c-.54.1-1.32.05-1.4.84A.76.76,0,0,0,479.69,336.88Zm55.48-35c-.43.94-1.35,1.84-.18,3C535.74,303.86,535,302.8,535.17,301.87Zm-19-63.18c-1.61-1.27-1.61-1.27-3-.56C514.2,238.44,515,239.15,516.17,238.69Zm-67.82,20.2c-1.64.45-1.73,1.78-1.81,3.13C447.14,261,447.74,259.93,448.35,258.89ZM435.41,288.4c.28-1.23.76-2.45.35-3.73C435.58,285.91,434.77,287.11,435.41,288.4Zm27,.43a4,4,0,0,0,.19-2.79C462.45,286.86,461.72,287.63,462.4,288.83Zm43.18-48.22a4.51,4.51,0,0,0,.95,1.86.44.44,0,0,0,.61.06c.24-.14.33-.36.18-.57A2.58,2.58,0,0,0,505.58,240.61Zm-37.11,95.56c1,.92,1.69,1.46,2.91,1.16A2.94,2.94,0,0,0,468.47,336.17Zm-4.61-48.59c.1-1,.86-1.89,0-3Zm6,38.53c-.28-1.13-.15-2-1.11-2.44A2.18,2.18,0,0,0,469.89,326.11Zm49.17-5.72c.05.07.09.16.15.19a.2.2,0,0,0,.18-.07,2.29,2.29,0,0,0,.62-1.25c0-.22,0-.44-.29-.52A1.75,1.75,0,0,0,519.06,320.39Zm-4.58-27.15a1.6,1.6,0,0,0-.23,1.46c.08.44-.19,1,.37,1.38C514.65,295.14,515,294.25,514.48,293.24ZM520,241c-.68-.58-1.14-1.13-2.1-.76A2,2,0,0,0,520,241Zm-54,21a1.17,1.17,0,0,0,.59-1.14c0-.24-.16-.28-.26-.08C466.12,261.14,465.63,261.45,466,262Zm45.65,66.61c.36-.11.76-.2.89-.62,0-.07-.16-.29-.21-.28-.35.1-.8.07-.9.55C511.39,328.34,511.55,328.48,511.63,328.6Z"/><path class="cls-1" d="M750.28,314.22c1.27-.44,2.55-.85,3.82-1.31.75-.27,1-.68.91-1.61-.22-3.73-.4-7.46-.34-11.2,0-2.84-.45-5.68-.31-8.54.13-2.47.16-4.95.27-7.42.06-1.4.13-1.49,1.34-.82.53.3.67,0,1-.15,2.61-1.16,4-.36,4.58,2.38.71,3.29.76,6.64,1.14,10a31.29,31.29,0,0,1-.55,7.38c-.15,1.2-.08,2.38-.15,3.61,2.62-.91,3.33-2.09,2.86-4.63-.07-.37-.17-.53-.59-.44-1,.23-1.14-.58-1-1.16.62-3-.45-6.09.24-9.07s.14-5.72.41-8.58a2.13,2.13,0,0,1,.48-1.5c.55.8,1.32,1.12.94,2.38-.53,1.71.15,3.48.51,5.19.47,2.27,1.08,4.5.46,6.85a4.25,4.25,0,0,0,0,1.91,11.31,11.31,0,0,1,0,5.69c2.49-.15,3.83,1.7,3,3.83a5.8,5.8,0,0,1-.7,1.51,45.78,45.78,0,0,0-4.42,7.35,56.34,56.34,0,0,1-5,7.26c-1.09,1.5-2.54,2.8-3.62,4.37-.18.26-.5.46-.61.74-1.36,3.66-4.79,5.48-7.41,7.92a14.53,14.53,0,0,1-7,3.46,16.32,16.32,0,0,0-4.7,1.68c-4.42,2.43-9.26,3.16-14.22,3.37a2.55,2.55,0,0,0-.48,0c-2.81.82-5.54,0-8.19-.68a22.26,22.26,0,0,1-7-3,57.87,57.87,0,0,0-5.91-3.64,18.33,18.33,0,0,1-3.8-2.89c-2.14-1.92-4.71-3.28-6.64-5.44a5.61,5.61,0,0,0-1.58-1.06c-.51-.27-1-.56-1.2-1.11-.83-2.87-3.38-4.36-5.14-6.48a7.42,7.42,0,0,1-1.32-1.68c-1.08-2.48-2.19-5-3.21-7.47a12,12,0,0,1-.82-3.23,14.6,14.6,0,0,0-1.43-5,8.23,8.23,0,0,1-.88-5.55c.56-2.58.12-5.26-.27-7.82a29.29,29.29,0,0,1,.13-8.77c.48-3.22.73-6.47,1.23-9.68a22.33,22.33,0,0,1,1.92-6.87c1.38-2.73,3.15-5.36,3.48-8.59.15-1.45,1.38-2.49,2.43-3.47a4.78,4.78,0,0,0,1.61-2.32,1.67,1.67,0,0,1,.77-1.16c2.69-1.51,4.35-4.17,6.71-6.07a18.69,18.69,0,0,1,2.86-2.11c2.2-1.18,3.76-3.19,5.82-4.58a32.92,32.92,0,0,1,8.72-4.34,39.72,39.72,0,0,0,7-2.3,6.06,6.06,0,0,1,3.48-.62c.16,1.06-.53,1.53-1.2,1.91a14.12,14.12,0,0,0-2.79,2.25,45.21,45.21,0,0,0-7.37,9.27c-1.13,1.93-1,4.15-1.72,6.18-.63,1.87-.3,3.79-.4,5.68-.22,3.86-.79,7.7-.57,11.58a2.58,2.58,0,0,1-.38,1.37A5.54,5.54,0,0,0,705,268c-.38,1.21.21,2.37.21,3.54,0,1.92,1.66,1.34,2.54,1.93,2.79,1.88,5.45,1.12,8.11-.29a1.21,1.21,0,0,0,.33-.31c0-.05,0-.15.05-.22-.09-.36-.35-.23-.57-.2s-.67.3-.84-.09a.7.7,0,0,1,.47-.94c1.09-.28,2-1,3.12-1.18a5.46,5.46,0,0,0,3.23-1.49,44.44,44.44,0,0,0-8.39,2.25c-1.21.52-2.64.67-3.59,1.8-.38.45-.93.22-1.25-.17s-.11-.92.27-1.27a3.26,3.26,0,0,1,2.14-.94,15.37,15.37,0,0,0,7.94-2.33,2.56,2.56,0,0,1,1.08-.49c3.41-.21,6.1-2.2,9.08-3.51a39.09,39.09,0,0,0,4.09-1.93,1.93,1.93,0,0,1,1.54-.21c.82.17,2.19.89,2.29-1,0-.08.24-.17.38-.22,1.86-.72,2-.79,1.68-2.71a42.5,42.5,0,0,1-.51-6.66c0-.46,0-1.11.59-1.11s.87.7.72,1.24a5.57,5.57,0,0,0,.39,4.18,2.28,2.28,0,0,1,0,1.16c-.4,3.68.69,5.22,4,7,1.91,1,3.91,1.19,5.89,1.62,3,.64,5.68,2.09,8.54,3.08,2.23.77,4.65,1.13,6.7,2.47a13.53,13.53,0,0,1,3,2c-.37-2.23.35-4.53-.89-6.61a3.55,3.55,0,0,1-.38-1.62,10.63,10.63,0,0,0-1.31-5,11.68,11.68,0,0,1-.91-3.44c-.64-3-2.76-5.19-4-7.84-1-2.17-2.75-3.9-4.18-5.8-1.17-1.54-3.19-2.16-4.42-3.62-2-2.42-5.09-3.34-7.43-5.3a5.73,5.73,0,0,0-2-.82,5.56,5.56,0,0,1-2.55-1.25,1.88,1.88,0,0,0-1.24-.64c-2,.14-3.7-.77-5.89-1,4.25,5.47,5.45,11.62,5.45,18.56a8.87,8.87,0,0,1-1.41-4c-.71-3.61-1.86-7.08-2.86-10.59a3.91,3.91,0,0,0-2-2.27c-.9-.52-1.84-1-2.7-1.55a1,1,0,0,1-.37-1.27.69.69,0,0,1,.8-.39c3.91,1,8.12.32,11.91,2.17a20.3,20.3,0,0,1,2.63,1.57c1.16.8,2.09,1.79,3.77,1.77,1.15,0,1.94,1.3,2.5,2.37.35.68.74,1.29,1.5,1.4,1.58.22,2.62,1.38,3.92,2.1a3.1,3.1,0,0,1,1.37,1.31c.94,2,2.73,3.35,3.83,5.18a35,35,0,0,1,2.93,6c.87,2.39,2.12,4.6,3,7a68,68,0,0,1,1.69,6.9c.39,1.53.34,3.17.92,4.68a2.15,2.15,0,0,1,0,1.65c-.41.89-.15,1.6.84,2.59a10.11,10.11,0,0,1-3.6-1.18c-.65-.45-1.38-.34-2-.58-1-.35-.94.54-1.24,1a14,14,0,0,0,4.85,1c.47,0,1.12,0,1.15.6,0,.79-.63.75-1.2.73h-.9c1,1.8-1.26,2.27-1.15,4a2.28,2.28,0,0,1-1.18-2.63c.25-1-.08-1.54-1-1.72-2.38-.45-4.61-1.9-7.2-1a2,2,0,0,1-1.4-.09c-1.46-.76-2.79-.51-4.34-.1a16.32,16.32,0,0,1-6.4.46,61,61,0,0,0-7.89-.24,4.83,4.83,0,0,0-2.35.39c-2.13,1.22-4.37.75-6.55.52a12.79,12.79,0,0,0-4.74.13c-2.55.68-5.1.08-7.62-.15s-5.09.5-7.64.41a1.36,1.36,0,0,0-1,.49c-.44.73-.86,1-1.39.17s-.16-1.19.61-1.45c.28-.1.64-.16.72-.58-.46-.43-1-.18-1.54-.23s-.86.33-.84.89c.08,1.75.14,3.51.27,5.25,0,.44.06,1.12.58,1.22,2.33.43,1.89,2.31,2,3.83a6.56,6.56,0,0,1-.15,2.38c-.66,2.44,0,4.72.7,7a8.08,8.08,0,0,0,.91,2.2c0-2.92,0-5.84,0-8.76a16.87,16.87,0,0,1,.23-3.81c.21-.85.19-1.71.94-2.35a1.22,1.22,0,0,0,.27-1.51,4.88,4.88,0,0,1-.23-3.25c.23.12.46.19.46.27.24,2.67.24,2.67,2.85,3.18.47.09.95.1,1.42.2,1.37.29,1.51.55,1.22,2a2.64,2.64,0,0,0,0,.93,3.76,3.76,0,0,0,.41.86c.76-1.58.42-3.07.4-4.49,0-.74-1.29-.1-1.38-1,.38-.62,1-.26,1.46-.22a6.08,6.08,0,0,0,3.29-.34,4.21,4.21,0,0,1,1.64-.21.87.87,0,0,1,1,.58c.09.34-.22.51-.44.74-.94,1-1.28,2.54-2.87,3a3.53,3.53,0,0,1,1,2.06,3.4,3.4,0,0,0,1.17-1.72,2.13,2.13,0,0,1,1.1-1.2c1-.45,1.69,0,1.37,1-1.13,3.62.09,7.33-.52,10.92-.81,4.8-.1,9.53.13,14.29.06,1.19.22,2.38.37,3.57a.55.55,0,0,0,.7.48c.26-.05.34-.3.34-.54V307.8c0-5.6.24-11.18.55-16.77.08-1.32.37-2.71-.57-3.93-.21-.26-.12-.77-.15-1.16-.15-2.53-.15-2.53,2.34-2.89l0,0c.69.64,1,1.65,2.48,1,1-.49,1.66.5,1.66,1.76a26.88,26.88,0,0,1-.6,3c-.18,2-.66,3.93-.09,5.94a6.74,6.74,0,0,1-.12,2.13c0,.48-.26,1.09,0,1.4,1.13,1.66.63,3.36.33,5.08a6.23,6.23,0,0,0,.23,2.34c.7,3.36,1.12,6.77-.11,10.09-.28.74.16.83.49,1,1.2.81,2.61.29,4,.62-1.25-.41-2.16-.95-1.82-2.41-2.14-3.85-.55-8-.85-11.94,0-.23.08-.48,0-.71-.48-4.2.14-8.43-.27-12.65-.18-1.8-.13-3.63-.39-5.35a25.59,25.59,0,0,1,6.29-.6.58.58,0,0,0,.69-.49c.18-1.39,1-.88,1.75-.59s.7.65.14,1c-.34.23-.84.53-.56.88,1.31,1.59.9,3.5,1.05,5.27.47,5.24.82,10.48,1.2,15.73a5.68,5.68,0,0,1-.14,1.89c-.83,2.81-.19,5.47.64,8.12.55,0,.49-.35.5-.64a49.46,49.46,0,0,1,.43-7.38c.48-2.61-.4-5.22-.6-7.83-.07-1-.18-1.9-.18-2.86a4.84,4.84,0,0,0-.57-3,2.81,2.81,0,0,1-.36-1.61,27.53,27.53,0,0,0-.56-5.72,6.1,6.1,0,0,1,0-1.91c.15-1.81.48-2.06,2.23-1.76.71.13,1.41.29,2.1.47,1.42.38,2.78,1,4.13-.33.49-.49,1.23.09,1.66.55s0,.74-.41,1.07c-1.29,1.07-.46,2.37-.44,3.73,1.08-.38.73-1.27,1-2.1a27.38,27.38,0,0,0,.62,4.67.87.87,0,0,1,.06.47c-.84,3.18-.18,6.29.46,9.4a6.62,6.62,0,0,1-.19,2.61,13.58,13.58,0,0,0,0,6.18,1.88,1.88,0,0,1-1,2.53c-.86.46-2,.81-2.1,2.08-.69-.17-1.38-.31-2.06-.51-.3-.09-.63-.27-.74.14s.3.71.7.68C748.89,314.48,749.58,314.33,750.28,314.22ZM767,305.34c-3.82,3-6.86,6.57-11.59,8-2,.62-4,1.83-6.19,2.33-2.45.56-4.68,2.17-7.39,1.6a1.34,1.34,0,0,0-.87.32,7.25,7.25,0,0,1-5.88,1.21c-3-.62-6.18-.73-8.61-3.07a2.51,2.51,0,0,0-2.7-.42.93.93,0,0,1-1.24-.19,16.39,16.39,0,0,0-7-4.35,4.76,4.76,0,0,1-2-1.27c-1.2-1.18-2-2.72-3.07-3.91A9.94,9.94,0,0,1,708.1,300c-.27-1.63-.13-3.38-1.06-4.86a8.67,8.67,0,0,1-1.4-4.74,8.88,8.88,0,0,0-.37-1.63c-.57-2.88-1.4-5.71-1.77-8.64-.22-1.74.56-3.31.37-5a65.25,65.25,0,0,1,0-8.39,25.06,25.06,0,0,1,.52-6.38c1-3.46.34-7,.78-10.39a44.62,44.62,0,0,1,1.2-7.34,14.2,14.2,0,0,1,5-7.44,4.55,4.55,0,0,0,2-3.41c-1.39.44-2.29,1.47-3.54,1.73s-.91,2.26-2.29,2.63c-.28-1.81-.24-1.72-1.74-1.1-3.68,1.54-6.24,4.63-9.54,6.69-2.66,1.67-4.59,4.21-7,6.12s-4.78,3.66-5.74,6.74c-.11.35-.54.59-.76.92-1.37,2.08-2.88,4.12-2.85,6.92a13.44,13.44,0,0,0,4.15-4.54c.74-1.63,2.45-2.35,3.4-3.82.33-.51.93,1.13,1.94.86a8.25,8.25,0,0,1,1.9.1,16.21,16.21,0,0,1,3.33.26c2.39.43,3.4,1.4,3.28,3.78a17.2,17.2,0,0,0,.74,6.84,26.67,26.67,0,0,0,1.11,2.9,5.24,5.24,0,0,1,0,5,6.06,6.06,0,0,0-.28,4.64,6.89,6.89,0,0,1,0,3.74q-.43,1.74-1,3.45a6.28,6.28,0,0,0-.47,3.66,5.62,5.62,0,0,1-1,4.34,3.27,3.27,0,0,0-.64,1.26c-.66,4.23-3.93,7.46-4.54,11.73-.07.55-.44,1.19-1.14.89-1.13-.47-2.37.15-3.53-.65a2.86,2.86,0,0,0-3,.19,13.48,13.48,0,0,1-2.6,1.16c-.43.14-1.27-.22-1-.62,1-1.4-.23-2.44-.47-3.54-.43-1.94-1.93-3.43-3.13-5a1.29,1.29,0,0,0-1.5-.34c0,1.71,1.05,3.29.93,5a4.65,4.65,0,0,0,.6,2.3c1.33,2.84,1.67,6,3.41,8.8,1.46,2.33,2.19,5.09,4.65,6.76a7.38,7.38,0,0,1,1.52,1.83,32.4,32.4,0,0,0,5.4,6.05c1.88,1.55,4.24,2.48,5.66,4.64a4.08,4.08,0,0,0,2,1.17c1,.4,2,.93,3.06,1.36,1.38.57,2.2,1.86,3.45,2.56a35,35,0,0,0,14.22,4.41,5.82,5.82,0,0,0,1.91,0c2.61-.66,5.28-1.05,7.86-1.66a22.33,22.33,0,0,0,7.2-3.1,5.11,5.11,0,0,1,3.07-1,5.57,5.57,0,0,0,4.08-1.71c2-1.91,4.83-2.9,6-5.67,2.84-1.74,3.74-5.1,6.1-7.26s3.7-5.35,5.77-7.87a6.38,6.38,0,0,0,1-1.89,21.07,21.07,0,0,1,2.68-5.05A3.71,3.71,0,0,0,767,305.34Zm-25.13-32.5a2.76,2.76,0,0,0,2.3,0,6.8,6.8,0,0,1,2.62-.1c2.26.28,4.56.13,6.81.72a40,40,0,0,0,4.28.41,5.63,5.63,0,0,0,4.18-1,5.09,5.09,0,0,1-2.54-.76c-1.51-1.3-3.38-1.63-5.27-1.94-2.54-.43-4.88-1.59-7.4-2.21a17.1,17.1,0,0,1-7.3-3.29c-.34-.29-.8-.78-1.25-.4-1.21,1-2.94,1-4,2-1.7,1.58-3.93,2.07-5.83,3.21a4.77,4.77,0,0,1-3,.69c-1.3-.17-2.06.46-2.87,1.49h7.53l3.84,0,3.6,0a14.81,14.81,0,0,0,3.82-.26,12.28,12.28,0,0,1,3.57-.23c1.13.06,2.29-.89,3.6-.12C746.5,272.93,744,271.62,741.86,272.84Zm-25.18,15c-.23.34-.38.46-.39.59a134.06,134.06,0,0,0,.07,20,1.43,1.43,0,0,0,.62,1.21,5.5,5.5,0,0,0,2.53,1.32,2.94,2.94,0,0,0,.12-.7,85,85,0,0,1-.54-13.35c.09-1.35,0-2.71,0-4.07a1.9,1.9,0,0,0-.73-1.75c-1.14,5.66-.43,11.25-.13,17.11a2.23,2.23,0,0,1-1.41-2.08,61.15,61.15,0,0,1-.11-7.41c.32-3.35-.34-6.7.24-10C717,288.55,716.83,288.31,716.68,287.87Zm-22.29-18.56a16.74,16.74,0,0,1-.29,2.86c-1.1,3.6-1.13,7.35-1.69,11-.25,1.65,0,3.37-.35,4.89-.77,3.09-.08,6.09-.07,9.27-.5-2,1.81-1.17,2.2-2.31-1.92,0-1.93,0-1.94-1.9a19.24,19.24,0,0,1,0-2.15c.43-3.83.9-7.66,1.36-11.49a3.46,3.46,0,0,1,.37-1.85c.44-.61,1.27-.06,1.94-.47-1.87-1-2-1.13-1.7-2.94.09-.55.25-1.09.36-1.63A5.47,5.47,0,0,0,694.39,269.31Zm38.91,5c-7.72-.68-14.24-.22-16.44,1.09,1.71.41,3.44-.44,5.19-.06,2.85.62,5.72.34,8.59.27A2.81,2.81,0,0,0,733.3,274.29Zm7.43,28.11h.61q-.33-7.73-.64-15.45C740.48,292.11,739.9,297.27,740.73,302.4Zm.61-28.37c-1.47-.6-2.39-.08-3.32-.13s-1.94-.68-3,.41C737.13,274.9,738.94,274.61,741.34,274Zm-57.47,6.72a2.31,2.31,0,0,1-2.39,1.63,6,6,0,0,0-1.41.15c-.14,0-.26.38-.27.59s.2.37.47.31c.69-.17,1.38-.38,2.08-.49C683.94,282.68,684,282.7,683.87,280.75Zm9.6-17.44-3.17-.17c-.44,0-.68.34-1,.58s-.1.44.06.61a.5.5,0,0,0,.36.09C690.59,263.14,692,264.3,693.47,263.31Zm51.79,3A3.64,3.64,0,0,0,749,267,8.91,8.91,0,0,0,745.26,266.27ZM748.35,288a.87.87,0,0,0,.46-1,1.16,1.16,0,0,0-1.37-1c-.36,0-.61.27-.49.62A2.18,2.18,0,0,0,748.35,288ZM685.07,260c-1.13.54-.85,1.68-1,2.63C684.32,261.7,684.85,260.9,685.07,260Zm53.44,27c0-.53-.27-.85-.86-.79-.36,0-.58.22-.47.58s.36.89.9.89S738.46,287.31,738.51,287Zm-18.82-6.32c-.37-.05-.62.1-.55.48s-.07.86.48.82a.83.83,0,0,0,.7-.8C720.35,280.83,720,280.76,719.69,280.69ZM741.91,312a6.22,6.22,0,0,0,.14,3.18A3.56,3.56,0,0,0,741.91,312ZM688.08,296.4a9.68,9.68,0,0,0-1-.11c-.32,0-.63.13-.51.53s.36.24.58.2S687.89,297,688.08,296.4Zm-.59-5.45c-.31,0-.69,0-.77.33s.31.4.59.45.64,0,.73-.32S687.71,291,687.49,291Zm-2.66-13.06c-.11-.37-.39-.38-.7-.3s-.55.09-.42.38a1,1,0,0,0,.63.56C684.66,278.57,684.78,278.22,684.83,277.89Zm59.79-3.52a3.23,3.23,0,0,0-2.37,0A2.92,2.92,0,0,0,744.62,274.37Zm-19.4-6.75c-1-.39-1.43.18-2.37.56A3.08,3.08,0,0,0,725.22,267.62Zm-30.77,0c0-.46.51-.81.09-1.25C694.13,266.74,694.36,267.14,694.45,267.61ZM752,304.49a4.75,4.75,0,0,0-.09.78c0,.25.16.48.41.4s.18-.38.09-.57A3.38,3.38,0,0,0,752,304.49Zm-69.46-39.23c.23.06.36,0,.41-.19a.93.93,0,0,0,.06-.46c0-.21-.18-.19-.27.05S682.65,265.05,682.58,265.26Zm2.18,31.47c.06-.18,0-.33-.2-.33a4.89,4.89,0,0,0-.66.05c.08.12.14.28.25.35A.42.42,0,0,0,684.76,296.73Zm.73-4.94a.4.4,0,0,0-.57-.19,1.07,1.07,0,0,0-.48.46c-.09.29.19.37.42.32A.69.69,0,0,0,685.49,291.79Z"/><path class="cls-1" d="M756.38,289.25h0l0-1Z"/><path class="cls-1" d="M344.42,294.88q-1.57-4.75-3.41-9.44c-.48-1.25-1.43-2.33-1.85-3.59-1-2.94-2.26-5.75-3.27-8.68-1.06-3.08-2.71-5.93-3.71-9.06a49.26,49.26,0,0,0-2.71-6.91,85.93,85.93,0,0,1-4.08-10.4c-.74-2.18.35-4.21,0-6.3,0-.2.15-.46.28-.65,2-2.86,3.35-6.22,6.73-7.87.13-.06.21-.23.38-.42a11.87,11.87,0,0,0-1.33-1.16c-2.63-.05-5.24-.15-7.82-.36a2.56,2.56,0,0,1-2.07.84,41.85,41.85,0,0,0-4.48-.56c-1.94-.12-4,.05-5.84-.58-1,0-1.94-.12-2.91-.2a14.05,14.05,0,0,1-6.56-.37,30.48,30.48,0,0,0-3.69.24,4.77,4.77,0,0,1-1.19-.08,35.76,35.76,0,0,0-10-.59,2.26,2.26,0,0,1-1.37-.26c-2-1-3.34.25-4.66,1.44a1.62,1.62,0,0,0-.17,2,3.92,3.92,0,0,0,1.4,1.6,9.57,9.57,0,0,1,2.63,2.75,42.13,42.13,0,0,1,4.09,8.37,9.87,9.87,0,0,0,1.31,2.54,19.88,19.88,0,0,1,3.22,6.87,22.29,22.29,0,0,0,2.59,6.37c2.16,3.48,3.14,7.46,5.11,11a29.24,29.24,0,0,1,2.59,7.44,13.54,13.54,0,0,0,1.32,3.32c1.61,3,3.37,6,4.12,9.38a6,6,0,0,0,.91,1.94,23.28,23.28,0,0,1,3.59,8,5.53,5.53,0,0,0,2.28,3.77,8.85,8.85,0,0,1,2.28,2.73c1,1.49.86,3.22,1.4,4.79.94,2.79,1.92,5.57,2.63,8.42a28.24,28.24,0,0,0,4.24,9.81,23.39,23.39,0,0,1,2.39,4.4c.82,1.9,2.09,3.59,2.78,5.57a1.16,1.16,0,0,0,1.5.84,1.11,1.11,0,0,0,.63-1.4c-.22-1.18.35-2.17.63-3.25.85-3.33,3.4-6,3.91-9.45a1.84,1.84,0,0,1,.63-1,6.62,6.62,0,0,0,1.94-3.76,5,5,0,0,1,.72-1.76c1.31-1.95,1.75-4.22,2.43-6.43.85-2.79,1.28-5.71,2.65-8.39,1.22-2.38,1.69-5-.26-7.43A13.12,13.12,0,0,1,344.42,294.88Zm-17.35-62.37c.4-.59,1.09-.45,1.87,0-.76.95-1.38,1.77-2.06,2.55-.12.14-.43.15-.65.14s-.22-.24-.23-.38A4.22,4.22,0,0,1,327.07,232.51Zm-37.93,9.35c-.77-1.41-.63-3-1.65-4.55C290.18,238.52,290.61,239.83,289.14,241.86Zm-.26-9.83a4.75,4.75,0,0,1,4.85,1.58C291.39,234.61,290.26,234.27,288.88,232Zm4.05,7c-.26-.53-.8-1.15-.1-1.67a1.48,1.48,0,0,1,1.78.11c1.42,1,2.63,2.28,2.73,4.18a2.59,2.59,0,0,1-.6,2.28A22.25,22.25,0,0,1,292.93,239.07Zm2.5,10.43c2.15,3.17,2.49,6.37,3.54,9.52C297.72,258.16,295.91,253.24,295.43,249.5Zm6.14-9.88c-.59.39-1,0-1.39-.5-.87-1.2-1.73-2.41-2.73-3.8,1.91-.31,3.51-.65,4.63,1.13.49.77,1.51.8,2.25,1.33C303.65,238.89,302.46,239,301.57,239.62Zm5.32-8.91H308C307.49,231.17,307.16,230.83,306.89,230.71Zm4.5,29.32a7,7,0,0,1-1.51-3.63,1,1,0,0,1,.92-1.17c.78-.09.8.59.79,1.13A12.73,12.73,0,0,1,311.39,260Zm2.27-25.83c.92-1,2-.77,3.08-.79A3.47,3.47,0,0,1,313.66,234.2ZM324.58,232c.06,1.31-.24,1.89-1,2.14-.24.07-.44-.2-.46-.42C323,232.75,323.86,232.67,324.58,232Zm-1.31,7.24c0,.57.08,1.2-.9,1.48A1.52,1.52,0,0,1,323.27,239.19Zm-2.6,43.6a2.3,2.3,0,0,1-.79-2.32C320.64,281.3,321,281.87,320.67,282.79Zm.72-4.27a1.14,1.14,0,0,1-.63-1.6c.68-1.78.13-3.74.94-5.54a9.26,9.26,0,0,1,1.56,4,3,3,0,0,1-.24,2.09C322.69,278.11,322.27,278.82,321.39,278.52Zm3.83,47.53a22,22,0,0,0-2.11-6.78,2.73,2.73,0,0,1-.14-2.44,46.09,46.09,0,0,1,5.31,13A5.11,5.11,0,0,1,325.22,326.05Zm2.49-66.45a8.78,8.78,0,0,0-1.45-3.26,10.68,10.68,0,0,1-1.45-3.78c-.5-1.76-.72-3.61-2.1-5a1.82,1.82,0,0,1-.35-.87.63.63,0,0,1,.6-.83c.36,0,.65,0,.75.39,1.33,4.85,3.7,9.31,5.4,14a81,81,0,0,0,3.05,7.7,55.44,55.44,0,0,1,2.47,6.45c.6,1.78,1.88,3.33,1.79,5.35C333,273.26,329.47,266.81,327.71,259.6Zm4.47,77.85a3.81,3.81,0,0,1-1.07-2.07l2.64-1.17C333.46,335.64,332.26,336.21,332.18,337.45Zm2.31-4.76c-.32-.72.09-1.13.49-1.71C335.28,331.77,334.84,332.15,334.49,332.69Zm1.8-29a10.45,10.45,0,0,0-1.65-5.81,3.09,3.09,0,0,1,.05-3.11,3.4,3.4,0,0,1,1.53,2,10.21,10.21,0,0,0,.87,2.19C338.23,300.75,337.82,302.25,336.29,303.71Zm3.37,18.17a20.56,20.56,0,0,1-1.5,2.66c1.33-3.91,2.15-8,4.23-11.8.09.53,0,.05.23.25.06,0,.14.14.13.19C341.73,316.08,340.75,319,339.66,321.88Zm5.1-15a2.24,2.24,0,0,1-1,1.55c.66-2,.34-3.93.58-5.81a6.21,6.21,0,0,0-1.22-4.75,15.09,15.09,0,0,1-2.44-4.62c-1.25-3.75-3-7.34-3.62-11.62a3.26,3.26,0,0,1,1.33,2.05c1,3.28,3.35,6,3.63,9.54,0,.29.29.56.47.82,1.22,1.8,1.74,3.9,2.61,5.82C346.3,302.49,345.38,304.6,344.76,306.9Z"/><path class="cls-1" d="M403.87,297.32c-.49-2.16-2.08-3.76-2.6-5.87s-1.09-4-1.53-6a9.4,9.4,0,0,0-1.33-3.3,20.53,20.53,0,0,1-2.79-6.84,68.39,68.39,0,0,0-4-12.67c-1.67-3.61-3.74-7.05-4.23-11.11a5.49,5.49,0,0,0-.75-1.49c-1.28-2.62-1.36-5.53-1.87-8.33a1.94,1.94,0,0,1,.3-1.14c.92-1.68,1.81-3.38,2.84-5a5.79,5.79,0,0,1,4.47-2.89,3.57,3.57,0,0,0,1.15-.31c.86-.39.92-1.12.08-1.6a6.94,6.94,0,0,0-.83-.39h-1.91c-13.91.15-28.22,1.9-42.11.34a3.93,3.93,0,0,1,1.19,1c2,2.51,2.12,5.62,3,8.47a12.71,12.71,0,0,0,1.36,3.8,8.13,8.13,0,0,1,1,2.42,35.63,35.63,0,0,0,3.89,8.2,3.27,3.27,0,0,0,.67,1c2.18,1.73,2.7,4.24,3.31,6.73.28,1.16.61,2.31,1,3.46a3.83,3.83,0,0,0,1.78,2.46,3.84,3.84,0,0,1,1.88,2.9c.21,1,.42,2,.66,3a3.62,3.62,0,0,0,.46,1.59c1.41,1.51,1.63,3.63,2.8,5.22a14.11,14.11,0,0,1,2.18,4.5c.75,2.52,1.48,5.05,2.16,7.59a8.27,8.27,0,0,0,1.69,2.86,39,39,0,0,1,5.22,9.31,74.69,74.69,0,0,0,3.4,8,68,68,0,0,1,3.67,8c.75,1.9,1,4,1.79,5.93.06.15,0,.36.12.46,2.28,2.47.78,4.83-.28,7.43-1.18-1.46-2.38-2.77-2.82-4.55-.63-2.55-2.15-4.6-3.54-6.74-2.57-3.94-5.09-7.87-6-12.67A19.25,19.25,0,0,0,377,305.8c-1.72-3.12-4-6-4.78-9.58a22.85,22.85,0,0,0-1.43-3.27A155.65,155.65,0,0,0,364,277.14c-1.42-2.74-2.5-5.69-4.35-8.21-1.11-1.5-1.16-3.3-1.33-5a5.56,5.56,0,0,0-1-2.89,7.27,7.27,0,0,1-1.38-3,10.16,10.16,0,0,0-1.29-3.59c-1.77-2.83-2.52-6.2-4.85-8.75a7.78,7.78,0,0,1-1.84-4.37c-.23-2.09-1.39-3.72-2.15-5.55a4.87,4.87,0,0,0-1.91-2.09,6.65,6.65,0,0,1-2.64-2.83,7.82,7.82,0,0,0,5.58-.2l.28-.07c-1.59-.21-3.17-.47-4.75-.78-.31,0-.61.06-.92.09a16.8,16.8,0,0,1-1.71.37c-.86.41-1.07,1.26-.47,2.24a5.07,5.07,0,0,0,1.86,1.47c2.36,1.46,4.26,3.2,4.74,6.23.25,1.51.32,3.19,1.42,4.52,1.41,1.72,2.08,4,3.73,5.54a4.2,4.2,0,0,1,1,2.16,25.2,25.2,0,0,0,2.6,6.15,32,32,0,0,1,3,9,9.46,9.46,0,0,0,1.86,4.81c2.32,2.72,3.24,6.18,5,9.2,1.43,2.44,1.65,5.49,3.39,7.86a1.34,1.34,0,0,1,.22.68c.1,2.25,1.29,4.06,2.3,6a18.23,18.23,0,0,1,1.78,4.69,4.41,4.41,0,0,0,1,2.13c2.65,2.85,3.71,6.49,4.76,10.06.77,2.62,2.31,4.89,3,7.51a3.37,3.37,0,0,0,.83,1.16,26.38,26.38,0,0,1,4.45,7.31c1.22,3,3.33,5.61,3.9,8.93A1.26,1.26,0,0,0,391.5,339c.8-.09,1.17-.62,1.32-1.45a39.49,39.49,0,0,1,2.62-7.12,10,10,0,0,1,2.06-3.46,4.89,4.89,0,0,0,1.44-2.84,10.18,10.18,0,0,1,1.78-4.27,5,5,0,0,0,1.1-3.5,7.55,7.55,0,0,1,.93-4.34c.71-1.22,1.31-2.54,2-3.8a8.7,8.7,0,0,0,.91-6.44C405.25,300.22,404.21,298.85,403.87,297.32Zm-43.4-65.67c.7-.49,1.21-.1,2.07-.07A2.18,2.18,0,0,1,360.47,231.65Zm1.57,5.28c-.5-.56-1.25-.87-1.34-1.93.78-.28,1.61-.41,2.11.27S362.65,236.4,362,236.93Zm1.54,9.68c3.91.06,3.92.06,4.73,4.18C365.72,250.31,365.22,248,363.58,246.61Zm4.76-9.75c0,.33-.14.6-.56.6a1.48,1.48,0,0,1-.87-1.25c0-.51.38-.64.79-.59C368.49,235.72,368.38,236.32,368.34,236.86Zm20.08,33.38A4.57,4.57,0,0,1,387.2,267,5.17,5.17,0,0,1,388.42,270.24Zm-1.74,14.44a1.42,1.42,0,0,1,.73,1.51C387.07,285.74,386.55,285.38,386.68,284.68ZM370.94,255c1.86.15,2.42,1.13,2.42,2.77C371.57,257.73,371.17,256.56,370.94,255Zm5.55-20.31c-.18.66-.67.5-1.11.27a4.26,4.26,0,0,1-1.68-1.14,2.27,2.27,0,0,1,2.08-.6C376.58,233.36,376.67,234,376.49,234.67Zm2.13,34.57c-1.18-.57-1.22-2.26-1.69-3.5,2.62-.82,2.66-.83,3.39,1.54a16.32,16.32,0,0,1,1.22,4.61A8.88,8.88,0,0,0,378.62,269.24Zm5.92,18c-.74-.24-1.59-.39-1.72-1.39a5.74,5.74,0,0,1,0-.71c.06-.37-.12-.85.42-1a1,1,0,0,1,1.05.39,3.64,3.64,0,0,1,.53.79c.22.55.88,1,.39,1.71A.74.74,0,0,1,384.54,287.25Zm2.61,23.19a1.74,1.74,0,0,1-.36-.56c-.07-.18,0-.25.26-.14a1.89,1.89,0,0,1,.28.51C387.39,310.44,387.25,310.55,387.15,310.44Zm1.94-17.89c-1,.72-1.35.67-1.58-.54-.27-1.43-.59-2.77-2.51-3.43,1.34-.62,2.62-.79,2.46-2.19,1.12,1.25,1.44,2.91,2.22,4.34C390.1,291.48,389.76,292.05,389.09,292.55Zm1.34-13.72c-.43-2.83-1.7-5.48-1.92-8.37,1.55,2.28,2.1,5,3.13,7.49a1.24,1.24,0,0,1-.17.88.94.94,0,0,1-.55.39A.42.42,0,0,1,390.43,278.83ZM394,320.07a23.09,23.09,0,0,1-3.38-8.68c1.29.6,2.64,2.27,2.55,3.36a1.79,1.79,0,0,0,.49,1.73C395,317.56,394.83,318.76,394,320.07Zm2.62,4.85c-.55.11-.58-.4-.55-.77.06-.61.08-1.33.85-1.48.5-.09.56.4.58.92S397.38,324.76,396.64,324.92Zm2.64-8.89c-.34.1-.49-.24-.56-.56a.59.59,0,0,1,.42-.72c.32-.08.34.25.33.44S399.42,316,399.28,316Z"/><path class="cls-1" d="M608.32,123.85c-.7.61-.82,1.52-1.21,2.29-.19.36-.47.68-1,.5-.33-.12-.58-.5-.5-.74.72-2.1-1.45-3.52-1.15-5.51-1.34,1.93-.54,3.81.13,5.61.26.71.84,1.31-.1,1.75s-1.4-.24-1.47-1.18c0-.22-.08-.49-.71-.59-.23,0-.31.4-.31.79,0,3.5,0,7,0,10.52a3.09,3.09,0,0,0,.29,1.62,3.63,3.63,0,0,1-.29,3.83,8.69,8.69,0,0,0-1.46,6.34c.16.84.21,1.75-1.07,2-.78.16-.93,1.08-1.16,1.71a62.56,62.56,0,0,0-2.59,7.39,36.8,36.8,0,0,1-3,7.92,1.89,1.89,0,0,0-.2.68c-.16,3.59-2.06,6.45-4,9.3a1.47,1.47,0,0,0-.16,1.07c0,1.88-.85,2.7-2.45,1.93-1.35-.66-2.29.33-3.43.25-.49,0-.57.46-.58.87s0,1,0,1.44-.23,1-.76,1.06-.71-.52-.72-1c0-1.49-1.28-1.33-2.08-1.33s-1.94.36-1.87,1.69a5.9,5.9,0,0,1,0,1.19c-.07.46-.16,1-.8,1s-.73-.64-.72-1.08a14.06,14.06,0,0,1,1-5.31,2.11,2.11,0,0,0,.18-1.72c-1.1-2.35-1-5-1.84-7.38a4.07,4.07,0,0,1-.09-1.9,2.64,2.64,0,0,0-.06-1.65c-1.2-2.11-1-4.45-1.26-6.73-.14-1.42-.44-2.83-.7-4.44a4.33,4.33,0,0,0-1.35,3.34c-.13,3.38-1.39,6.53-1.78,9.85a18.86,18.86,0,0,0-.36,5.45c.29,1.68-.51,3.23-.49,4.87l.08-.06c-1,.17-1.67.22-1.63-1.21a61.66,61.66,0,0,1,1.18-9,54.35,54.35,0,0,1,1.87-8.15,5,5,0,0,0,0-1.93c-.73,2-2.15,3.69-2.63,5.85s-1.77,3.92-2.08,6.09a4.33,4.33,0,0,1-.72,1.5,7.44,7.44,0,0,0-1.14,3.34,17.72,17.72,0,0,1-1.14,3.88.91.91,0,0,1-1.13.64c-.75-.18-.73-.79-.56-1.34a13.41,13.41,0,0,1,.74-1.76c.8-1.75,1.23-3.63,1.89-5.41,1-2.81,1.74-5.72,3-8.5a78.14,78.14,0,0,0,3.68-9.83c.74-2.51,1.16-5.1,2-7.58.57-1.61,1.42-3.14,1.43-4.95a2.71,2.71,0,0,1,1.28-2c.85.4.87,1.12.81,1.83a6.56,6.56,0,0,0,2,5,8.17,8.17,0,0,1,1.82,3.81c.69,2.87,1.39,5.72,2.31,8.53a10,10,0,0,0,1.13,2.35,17.86,17.86,0,0,1,2.85,8.51c.18,2.56,1.33,4.89,2.3,7.37.77-1.91,2.16-3.42,2.86-5.31,1.11-3,2.2-6,3.34-8.93s2.16-6.12,3.28-9.16c1.2-3.25,2.66-6.73,2.4-10.31-.21-2.81.51-5.52.22-8.34a17.25,17.25,0,0,1,.74-7.56,7.84,7.84,0,0,0,.36-2.59c0-1-.17-2.47.4-3,1-.91,1.87-1.62,1.83-3.08,0-.26.48-.39.81-.2s.36.34.58.41c.62.21,1.43-.61,1.93.32a3.25,3.25,0,0,1,0,2.56c-.12.38-.2.76-.34,1.3,1.15-.11,2.19-.13,2.34,1.26ZM574,157c-.14,1.58-.69,3.26-.14,4.73a55.66,55.66,0,0,1,1.66,7.15C575.46,164.89,574,161.05,574,157Zm-1.5-6.51c-.45,1.34-.45,1.34.67,2.47C573.29,152.07,572.67,151.34,572.5,150.51Zm1.76-6.86c-.19.45-.58.89-.2,1.45a.4.4,0,0,0,.4.07c.48-.46.31-1,.09-1.51C574.54,143.63,574.42,143.65,574.26,143.65Zm1.87,28.47c0-.2,0-.55-.15-.6-.31-.11-.22.23-.22.36a2.18,2.18,0,0,0,.14.6Z"/><path class="cls-1" d="M633.55,140.13a1.56,1.56,0,0,0-.71,1.2c-.48,4.42-2.79,8.3-3.65,12.59-.65,3.22-2,6.21-2.76,9.39-.83,3.4-1.95,6.74-2.34,10.25,0,.23,0,.58-.08.7-1.73,1.56-1.51,4.09-2.92,5.8-.08.1-.28.1-.47.16-.63-.35-.49-1-.34-1.45.77-2.14,1-4.49,2.46-6.37.73-.94.61-2.13.78-3.19s.68-2.3.91-3.42c.65-3.29,2.27-6.32,2.53-9.69a10.38,10.38,0,0,1,.95-3.44,54.72,54.72,0,0,0,2.44-7.22,20,20,0,0,1,.79-2.25,10.18,10.18,0,0,0,1.11-4.37c0-1.59,1-2.82,1.45-4.27a.7.7,0,0,1,.49-.43c1.49-.15,1.34-.87.54-1.66a1.86,1.86,0,0,1-.43-2c.86-3.22.61-6.49.5-9.76,0-.15.11-.29.16-.44.81-.11.67.51.67.93q0,3.84,0,7.67a5.46,5.46,0,0,0,.57,2.23c1.6,3.9,3.4,7.75,4.74,11.72.9,2.65,1.67,5.46,2.42,8.2a27.26,27.26,0,0,0,2.92,7.18,22.07,22.07,0,0,1,2.45,6.89,23.6,23.6,0,0,0,3.09,7.71c1.24,1.95,1.24,4.26,2.15,6.3a.88.88,0,0,1-1,1.25c-1.4-.32-2.94-.29-3.86-1.86-.75-1.28-1.41-1.1-1.94.3-.08.21-.18.41-.41.93-1.31-3.32-4.16-1.93-6.37-2.46-.13,0-.39.23-.5.41a10,10,0,0,0-.76,3c-.16.67,1,.5,1,1.18-.36.13-.73.26-1.11.38-1.32.42-1.34.42-1-1.13.18-.87-.2-1.17-1-1.13s-1.6.09-2.39.07c-.42,0-.8-.22-.75-.72a.72.72,0,0,1,.85-.65c.71.06,1.41.22,2.12.32.4.06,1,.11,1-.33.22-2.17,2-2.28,3.48-2.57,1.25-.25,1.49-.67,1.28-1.92-.72-4.25-2.08-8.35-2.82-12.58-.53-3-1.19-5.92-1.88-8.87a39.54,39.54,0,0,0-2.07-6.37,6.67,6.67,0,0,0-.67,2.42c-.24,5.24-.69,10.47-.56,15.73.06,2.4.35,4.94-.78,7.28a3.34,3.34,0,0,0,0,2.37c.62,2.07-.56,3.88-.78,5.83,0,.17-.3.39-.5.46a.52.52,0,0,1-.71-.42c-.06-1.2-.88-1.35-1.8-1.44a.58.58,0,0,1-.6-.6c0-.35.33-.5.62-.64.07,0,.16,0,.23-.06.77-.34,1.95.47,2.36-.58a7.5,7.5,0,0,0,.16-2.61,49.88,49.88,0,0,1,.18-6.69,7.42,7.42,0,0,1,.39-2.31,4.79,4.79,0,0,0,.33-2.82c-.24-1.61.17-3.2.1-4.77-.25-5.4.87-10.77.26-16.18C634.08,140.84,634.06,140.38,633.55,140.13Zm18.27,39.1c.1-.67.37-1.27-.42-1.49-.2-.05-.61,0-.64.11-.21.63.28,1,.7,1.3C651.51,179.19,651.61,179.19,651.82,179.23Z"/><path class="cls-1" d="M432.34,231.53a12.75,12.75,0,0,0-1.22,3.37c-1.22-.62-2.26-1.1-2.57-2.39a2.45,2.45,0,0,0-.49-1.12l-2.68-.07a2.19,2.19,0,0,0-.77.82c0,.07-.08.13-.12.21-.4.79-1,1.87-.2,2.38s1.71,1.51,3,1.08c.29-.11.55-.34.85-.44a.81.81,0,0,1,.86.27c.28.31.1.56-.12.8-.43.48-.81,1-1.26,1.45-.7.69-1.06,1.4-.38,2.31.09.12.21.32.17.43-.83,2.31-.6,5.06-2.9,6.94a2.7,2.7,0,0,1-.4-2.33,15.87,15.87,0,0,0-1.73-10,5.19,5.19,0,0,0-3-2.92,21.77,21.77,0,0,1-2.85-1.27l-5.45-.21a.22.22,0,0,1,0,.08c.12,1.3,1.25.92,2.06,1a3.85,3.85,0,0,0,.48,0c3.08.19,5,2.4,7.24,4.12a.37.37,0,0,1,.12.2c.47,2.23,2,4.2,1.54,6.67a10.29,10.29,0,0,0,.08,1.91c0,4.06.43,8.2-2.8,11.45a1.86,1.86,0,0,0-.35.63c-.44,1.07-.24,2,.54,2.28a1.5,1.5,0,0,0,2.09-1c.7-1.94,1.85-3.65,2.48-5.67.77-2.47,2.26-4.72,2.84-7.32.06-.29.35-.53.51-.8,1.22-2.21,2.78-4.23,3.36-6.79a8.26,8.26,0,0,1,2.65-4.46,3.38,3.38,0,0,0,1-1.52Z"/><path class="cls-1" d="M369,315.24c.29,2.23-.83,4-1.88,5.77-.56.94-.64-1.17-1-.32-1,2.16-1.75.77-2.56-.05-1.68-1.7-3.65-3.09-5.06-5.07a16.29,16.29,0,0,1-2.65-6.08,6.43,6.43,0,0,0-.45-1.85c-2.19-3.6-2.82-7.76-4.12-11.66-1.1-3.33-2.33-6.59-3.62-9.84a2.78,2.78,0,0,1,1.54-3.49,14.22,14.22,0,0,0,1.94-1.39c1-.64,1.77-.45,2.29.69,1.15,2.53,2.67,4.91,3.33,7.66a9.09,9.09,0,0,0,1.16,2.36,40.9,40.9,0,0,1,3.41,6.57c1.58,4.37,4.26,8.16,6.51,12.17A9,9,0,0,1,369,315.24ZM363,305.35a1.27,1.27,0,0,0-.25-1.14,18.93,18.93,0,0,1-3-5.67c-.9-2.12-2.21-4.05-2.89-6.27-1.12-3.65-1.26-3.69-4.17-1.26-.34.28-.66.47-1,0a.78.78,0,0,1,.06-1.08,5.12,5.12,0,0,1,1-.61c.61-.35,1.44-.29,1.88-1-1.39-4.21-1.39-4.21-4.76-3.22a1.85,1.85,0,0,1-.24,0c-.58.08-.49.5-.44.89s.33.72.81.52,1.09-.84,1.9-.29a7.48,7.48,0,0,1-2.43,1.28c1.72,2,1.1,4.73,2.82,6.46,1.27-.15,2.1-1.64,3.62-1a3.46,3.46,0,0,1-.45.6c-3.26,3.1-3.23,2.3-1.59,6.12.28.65.49,1.32.73,2,1.16-.14,2.1-1.34,3.31-.37-.64.53-1.26,1-1.85,1.53-.36.31-.78.66-.62,1.21.5,1.72.21,3.74,1.89,5a2.65,2.65,0,0,0,.58,2,24.17,24.17,0,0,0,7.44,7.59c.16.11.44,0,.75,0v-2.35a12.77,12.77,0,0,1,0-3.33,4.71,4.71,0,0,0-.66-3.64C364.71,308,363.82,306.7,363,305.35Z"/><path class="cls-1" d="M582,287.11c-1.44-1.81-1.35-3.87-.91-5.87a42.44,42.44,0,0,0,.82-9.48,35.6,35.6,0,0,0-.76-9.38c-.27-1,.69-1.95.06-3.24a6.29,6.29,0,0,0-1.12,4.17l.72,4.72c.16,1.12-.24,1.57-1.27,1.3a30.78,30.78,0,0,1-2.93-1,.6.6,0,0,1-.42-.75c.14-.47.47-.56.92-.46,2.43.5,2.59.44,2.59-2.05,0-2.07-.24-4.14-.38-6.21a2,2,0,0,0-1-1.79c-.54-.31-1.14-.64-1.06-1.47,1.36-.41,2.46,0,3.44,1.4.51-3.1-.19-5.76-.21-8.43,0-3-.29-6,.44-9a10.48,10.48,0,0,0,0-2.38,15.26,15.26,0,0,1,0-2.87,13.19,13.19,0,0,0-.1-5c-.35-1.9.21-3.8,0-5.73-.57-5.16-.27-10.34-.31-15.52,0-4.14.07-8.28,0-12.42,0-2-.87-4-.71-6.13.06-.75-.19-1.57.36-2.19.8,0,.91.6.93,1,.15,3.5.42,7,.42,10.49,0,4.18,0,8.41-.31,12.6a12.83,12.83,0,0,0,.26,3.81,3.85,3.85,0,0,1,.1,1.9,6.76,6.76,0,0,0,.35,5.11,1.84,1.84,0,0,1,.18,1.17c-.62,2.44.12,4.94-.36,7.39a3,3,0,0,0-.07,1.42c.79,2.67,0,5.39.23,8.08.08.82-.47,1.69-.5,2.55a51.93,51.93,0,0,0,0,7.38c.14,1.37.88,2.67.74,4.15-.09,1-.11,1.9-.28,2.85a9.93,9.93,0,0,0,.32,5.65c.44,1.13.2,2.5.41,3.74.47,2.75,0,5.56.52,8.31a1.42,1.42,0,0,1,0,.71c-1.25,3.25-.27,6.77-1.2,10.07A5.22,5.22,0,0,0,582,287.11Z"/><path class="cls-1" d="M570.35,289.55a3.17,3.17,0,0,1-.85-2.71c0-1.67-.18-3.38-.07-5,.35-5.28-.87-10.47-.46-15.78a36.64,36.64,0,0,0-.45-9.78,25.39,25.39,0,0,1-.07-4.78c0-1.67.33-3.37-.45-5a.71.71,0,0,1-.06-.47c.73-2.29,0-4.6.18-6.88a21.8,21.8,0,0,0,0-4,21.15,21.15,0,0,1,.15-5.27c.46-3.45-.35-6.83-.67-10.23a9,9,0,0,1,.14-3.1,2.56,2.56,0,0,0,.18-1.17c-.67-2.69.35-5.4-.17-8.09a4.53,4.53,0,0,1,0-1.42c.35-2.49,1.42-4.91.28-7.51,1,0,.77.52.74.83a22.8,22.8,0,0,0,.19,5,10.37,10.37,0,0,1,.14,2.15,88.76,88.76,0,0,0-.15,12.42c.2,3.12-.32,6.22-.09,9.34a19.82,19.82,0,0,0,.38,4.28.43.43,0,0,1,0,.24c-.74,2.7.26,5.37.16,8.06a75.31,75.31,0,0,0,.38,13.84,3.12,3.12,0,0,1,0,1c-.64,3.26.27,6.53,0,9.79-.18,1.92.39,3.79.5,5.7.16,2.63-.59,5.26.09,7.86a7.64,7.64,0,0,1,0,4.24,4.45,4.45,0,0,0,.2,2.59A4.74,4.74,0,0,1,570.35,289.55Z"/><path class="cls-1" d="M279,258.41a8.85,8.85,0,0,1-2.49,2.95,34.06,34.06,0,0,0-6.6,5.86,14.17,14.17,0,0,1-2.36,2,6.68,6.68,0,0,0-2,2c-.33.54-.65,1.18-1.26,1.41a5,5,0,0,0-3.11,3.09c-.24.65-1,.78-1.56,1a4.78,4.78,0,0,0-2.56,2.08c-1.47,2.92-4,4.92-6.28,7.74a5.44,5.44,0,0,1,1.23-3.33c2.08-2.41,4-5,6.53-7a20.72,20.72,0,0,0,3.36-3.39,22.11,22.11,0,0,1,3.39-3.38c2.82-2.21,4.56-5.33,7-7.86A10.83,10.83,0,0,1,279,258.41Z"/><path class="cls-1" d="M169.62,238.12c-.6.55-1,1-1.49,1.37s-.81.75-1.24.37a1.17,1.17,0,0,1-.14-1.55c.72-1,1.32-2.32,2.32-3,1.33-.85,1.4-3,3.31-3.09.19-1.93,2-2.52,3.06-3.74.11-.12.27-.26.27-.39,0-3.14,2.89-4.37,4.32-6.55.34-.52,1.06-.92,1-1.55a7.26,7.26,0,0,1,1.84-4.7c.28-.38.41-.89.88-1.06,1.27-.45,1.76-1.47,1.92-3,1,2.66-.72,4.09-1.85,5.49a20.08,20.08,0,0,0-3.12,5.29c-.23.59-.36,1.41-.81,1.71-2.17,1.43-3,3.83-4.23,5.86a28.25,28.25,0,0,1-4.62,6,1,1,0,0,0-.23,1.26,14.6,14.6,0,0,1,.62,2.55.91.91,0,0,1-.82,1.21c-.84.09-1.14-.4-1.1-1.17C169.57,239.1,169.59,238.72,169.62,238.12Z"/><path class="cls-1" d="M632.91,269c-1.41-1-1.73-2.34-1.67-4.12.16-4.62.75-9.21.65-13.85a49.78,49.78,0,0,1,0-8.37,2.65,2.65,0,0,0,0-1.19c-1-3-.3-6-.22-9a34.9,34.9,0,0,0-.38-3.56c0-.77-.25-1.55.63-2.23a3.26,3.26,0,0,1,.44,2.54,73.22,73.22,0,0,0,.34,10.25c.25,2.4.79,4.89.15,7.35a.5.5,0,0,0,0,.24c.7,3-.47,6,.25,9a1.81,1.81,0,0,1,0,.95c-.7,2-.47,4-.59,6.05A16.6,16.6,0,0,0,632.91,269Z"/><path class="cls-1" d="M407,280.57c-1.5-3.68-2.88-7.13-3.31-10.89-.09-.84-.88-1.31-1.44-1.85a5,5,0,0,1-1.91-3.95c.05-1-.83-1.7-.9-2.69-.23-3.3-1.22-6.54-.84-9.91a6.48,6.48,0,0,0-.61-3,.52.52,0,0,1,.35-.73,1.15,1.15,0,0,1,.64.25,1.29,1.29,0,0,1,.51,1.27c-.12,2.45.68,4.9-.06,7.36a2.81,2.81,0,0,0,.49,2.46c.89,1.34.58,3.05.92,4.58a2.59,2.59,0,0,0,.77,1.68c2.33,1.81,3,4.49,3.81,7.14.52,1.81.79,3.7,1.82,5.37C407.83,278.52,407.5,279.47,407,280.57Z"/><path class="cls-1" d="M242,322.67c-.88,1-1.11,2.17-2.16,3a5,5,0,0,1,.64-2.72c.7-1.92.65-2.23-.88-3.4-.38-.29-1.3-.37-.7-1.13.43-.54,1.06-.23,1.5.14s.88.9,1.44,1.49c1-1.48.22-3.22,1-4.61a30,30,0,0,1,2.44-4,4.09,4.09,0,0,1-.53,3.24c-.93,1.54-1.2,3.3-1.93,4.89a1.41,1.41,0,0,0,.46,1.87c1,1,2.24,1.8,2.75,3.25.2.57.88.64,1.36.91a6.54,6.54,0,0,1,3,3.86,1,1,0,0,1-.37,1.27,2.43,2.43,0,0,1-1.53-1.37c-.79-1.9-2.5-3.09-3.56-4.79C244.24,323.45,242.78,323.6,242,322.67Z"/><path class="cls-1" d="M568.22,179.52c.58-.24,1.17-.62,1.75,0s.13,1-.21,1.44c-.68.92-.19,2-.31,3s.11,2.22-.75,3.17a2,2,0,0,0-.21,1.85c.61,2.17.18,4.45.74,6.63a1.84,1.84,0,0,1,.06.47c0,.53-.17,1-.73,1.05s-.63-.42-.67-.83a27.94,27.94,0,0,1-.42-5.48,9.13,9.13,0,0,0-.33-4.72,1.32,1.32,0,0,1,.26-1.56c1-.95.32-1.94,0-2.86a1,1,0,0,0-1.51-.69,4.57,4.57,0,0,1-1.64.29c-.59,0-1.46.08-1.45-.81,0-.7.79-.68,1.32-.7a7.16,7.16,0,0,1,1.9.17,2.81,2.81,0,0,0,2.27-.46Z"/><path class="cls-1" d="M631.59,221.93c-.92-9.75-.56-19.47-.67-29.22-.91,0-.22,1.08-1,1.16-.57-.25-.36-.89-.46-1.4a2.07,2.07,0,0,1,.1-1.62c.54-.79,1.11.84,1.83,0,.3-.37.37.3.38.52.07.88.06,1.76.1,2.63s-.23,1.78.55,2.48a.57.57,0,0,1,.06.84c-1,1-.59,2.27-.59,3.42C631.89,207.81,631.93,214.89,631.59,221.93Z"/><path class="cls-1" d="M622.8,217.79a12.17,12.17,0,0,1-.51-8,5.18,5.18,0,0,0,.4-2.79,11.85,11.85,0,0,1,.11-5.2,5.7,5.7,0,0,0-.24-3.3c-.45-1.05-.17-2-.14-3.47a4,4,0,0,1,1.34,3.37c-.21,3.68.22,7.36,0,11C623.55,212,623.91,214.73,622.8,217.79Z"/><path class="cls-1" d="M565.31,290.35V261.62C566.47,263.08,566.37,287,565.31,290.35Z"/><path class="cls-1" d="M209.36,229.86a19.12,19.12,0,0,1-5.78-1.93c-1-.42-1.83-1.28-1-2.68.36-.62.05-1.39-.12-2.09s-.16-1.25.61-1.26.57.63.56,1.09a3.51,3.51,0,0,0,.09,1.88,2.8,2.8,0,0,0,2.48,1.59c1,0,2.06.1,3.08.24a1.69,1.69,0,0,1,1.33,2.68A1,1,0,0,1,209.36,229.86Z"/><path class="cls-1" d="M575.94,224.94a1.22,1.22,0,0,1-.59-1.42,43.55,43.55,0,0,0,.38-7.4,2,2,0,0,1,1.95-2,1.52,1.52,0,0,1,1.77,1.26c.2,1.49.73,3,.37,4.5a10.43,10.43,0,0,0-.25,4.27c.2,1.14-.55,1.17-1.32,1.06-.43-.07-.8-.55-.33-.8,1-.5.84-1.25.79-2.05-.11-1.82-.63-3.62-.28-5.47a.71.71,0,0,0-.79-.92c-.62,0-1.41-.09-1.46.84a11.47,11.47,0,0,0,.06,3.1A9.31,9.31,0,0,1,575.94,224.94Z"/><path class="cls-1" d="M574.87,138.27a3.45,3.45,0,0,1-.69-3c.38-2.53,0-5.08.31-7.61.15-1.14.15-2.41-1.72-2.39-.85,0-1.15-.75-.64-1.57.25-.4.64-.72.62-1.25s.2-1,.78-1a1.42,1.42,0,0,1,1.39.77,4.53,4.53,0,0,1,.43,2.74,31.93,31.93,0,0,0,.1,10A5.39,5.39,0,0,1,574.87,138.27Z"/><path class="cls-1" d="M740.58,278.83a1.76,1.76,0,0,0-1.48.27c-2.25,1.91-5,1.17-7.57,1.43a20.33,20.33,0,0,1-4.72-.59c-.38-.06-.85-.13-.73-.69s.5-.58.92-.6a1.51,1.51,0,0,1,.47.05,20.14,20.14,0,0,0,11.45-.54,15.82,15.82,0,0,1,4-.29c.41,0,.91.08.92.54,0,.62-.56.72-1,.69C742.13,279.07,741.42,278.94,740.58,278.83Z"/><path class="cls-1" d="M633.11,298c.2-8.29-.59-16.56-.37-24.88a14.11,14.11,0,0,1,1.06,4.64c-.09,5.73-.14,11.46-.2,17.18,0,1,0,2,0,3Z"/><path class="cls-1" d="M200.73,212.76c-.25,1.27-1.19,2-1.8,2.87-.31,0,.17.52.09.2l.22-.06c.14-.05.3-.16.43-.14.29.06.37.24.18.5a1.82,1.82,0,0,1-1.94.72c-1.33-.13-.58-.77-.53-1.29a.71.71,0,0,0-.69-.81,13.49,13.49,0,0,1-2.65-1.07,3.29,3.29,0,0,1-2.17-2.91c-.17-1.34-.16-2.7-.2-4.05,0-.33.1-.64.52-.6a.48.48,0,0,1,.41.49,6.22,6.22,0,0,1,0,1.43c-.32,1.67.54,3,1.4,4.18,1.11,1.58,3.07,1.7,5,1.05C199.45,213.09,199.83,212.57,200.73,212.76Z"/><path class="cls-1" d="M198.15,249.54a2.37,2.37,0,0,1,0-1.64c1.1-2.57,1.68-5.32,2.61-8a10.08,10.08,0,0,0,.91-3.93c0-.39,0-.94.23-1.14,1.39-1.21,1.44-2.74,1.25-4.38-.05-.39.12-.82.66-.76a.69.69,0,0,1,.57.68,3.93,3.93,0,0,1-.13,1.18,34.35,34.35,0,0,1-2.16,7c-.79,1.6-.68,3.42-1.29,5.09a13.31,13.31,0,0,1-2.19,4.45,2.29,2.29,0,0,0-.52,1.33Z"/><path class="cls-1" d="M234.37,286.31a12.5,12.5,0,0,1,2.18-5.24,53.25,53.25,0,0,0,5.23-11.44,4.88,4.88,0,0,1,.29-.66c.15-.3.39-.55.74-.37a.59.59,0,0,1,.3.8c-1.08,1.94-1,4.38-2.65,6.06a4.19,4.19,0,0,0-1.4,2.93.78.78,0,0,1-.1.46C237.21,281.07,236.68,284,234.37,286.31Z"/><path class="cls-1" d="M227.71,302.27c.12-2.18,4.72-12.09,6.62-14.55-.16,1.83-.34,3.46-1.62,4.75a4.67,4.67,0,0,0-1.17,2.32,11.46,11.46,0,0,1-1,2.93A28.44,28.44,0,0,1,227.71,302.27Z"/><path class="cls-1" d="M164.42,234.74a1,1,0,0,1,1.05,1.43,1.41,1.41,0,0,1-.43.56c-.92.61-1.49,1.24-1,2.52.26.7-.58,1.13-1.2.58s-1.12-1.06-2.07-.8a1,1,0,0,1-1.34-1c-.09-.71.45-1,1-1.16,1.39-.35,2.8-.59,3.58-2C164.06,234.79,164.29,234.79,164.42,234.74Z"/><path class="cls-1" d="M247.29,318.4a12.41,12.41,0,0,1,1.87-3.68,5.29,5.29,0,0,0,1.21-2.56,1.1,1.1,0,0,1,.23-.67,11.39,11.39,0,0,0,3-5,.55.55,0,0,1,.75-.39.71.71,0,0,1,.2,1c-.51.9-.92,1.88-1.46,2.73-1.62,2.53-2.3,5.65-4.69,7.71C248.16,317.74,247.91,317.92,247.29,318.4Z"/><path class="cls-1" d="M596.21,235.46a1.77,1.77,0,0,1,.18-.42.72.72,0,0,1,.39-.23,5.42,5.42,0,0,1,1.43-.14c4,.49,8.07-.79,12.34-.22C606.66,236,599.18,236.47,596.21,235.46Z"/><path class="cls-1" d="M559.1,183.76c-2.9.65-1.18,3.52-2.85,4.74-.5-1.6,0-3.18-.38-4.68-.13-.61,2-1.8,3.1-1.63.78.11,1.82.22,1.74,1.48,0,.4,0,.8,0,1.2s0,1-.67,1c-.48,0-.59-.45-.68-.85S559.21,184.29,559.1,183.76Z"/><path class="cls-1" d="M575.6,257.48a10.51,10.51,0,0,1,.15,9.15C575.17,263.35,574.57,260.45,575.6,257.48Z"/><path class="cls-1" d="M342.52,270.46c1.47,1.92,3.36,3.61,3.54,6.15.12,1.88.41,3.43,2.6,3.83a.67.67,0,0,1,.32.54c-.08.38-.37.41-.72.28A4.91,4.91,0,0,1,345,278C344.35,275.44,344.26,272.71,342.52,270.46Z"/><path class="cls-1" d="M399.05,240.47c-.16-.3-.34-.48-.3-.56.89-1.88.86-3.95,1.22-5.93.23-1.27,1-1.6,2-.74a2.61,2.61,0,0,1,1.13,1.65,3.54,3.54,0,0,0-2.76,2.15C399.85,238.12,400.1,239.5,399.05,240.47Z"/><path class="cls-1" d="M624.55,185.73a17.66,17.66,0,0,0,.49-4.23,1.45,1.45,0,0,1,.31-1.11c.19-.24.34-.59.72-.4a.66.66,0,0,1,.36.79c-.18.9-.85,1.74-.23,2.77,1-.23,1.93-1.11,3.18-.25-1.31,1.39-3.18,1.68-4.66,2.61Z"/><path class="cls-1" d="M274.71,224.54a95.09,95.09,0,0,1-9.61,8C266.32,230.31,272,225.61,274.71,224.54Z"/><path class="cls-1" d="M634.35,183.08c-.93.37-1.8.73-2.69,1a.8.8,0,0,1-1.13-.55.88.88,0,0,1,.62-1.12c1.35-.54,2.77-.16,4.16-.29.47,0,.5.56.49.94,0,.95-.12,1.89-.21,3.09C634.4,185.34,635,184.13,634.35,183.08Z"/><path class="cls-1" d="M252.44,297.93c-2-2-2.11-3.75-.24-5.16a2,2,0,0,1,.83-.43c.53-.1,1.19-.18,1.4.48s-.41.67-.82.89c-1.66.9-1.63.91-1.1,2.83A1.77,1.77,0,0,1,252.44,297.93Z"/><path class="cls-1" d="M191.64,267.38c-.79,3.75-1.81,7.4-4.8,10.11l0,0a2.18,2.18,0,0,1,.4-1.57c1.65-2.6,2.66-5.51,4-8.24.06-.12.24-.18.37-.26Z"/><path class="cls-1" d="M599.89,231.75a14.38,14.38,0,0,1-.88-6.4.7.7,0,0,1,.8-.69c.31,0,.7.22.62.58C600,227.28,601.07,229.42,599.89,231.75Z"/><path class="cls-1" d="M605.88,233.13c-.67-.07-.84-.28-.86-.5-.23-2.2-.46-4.4-.65-6.6,0-.49.06-1,.71-1a.7.7,0,0,1,.67.83C605,228.29,606.15,230.7,605.88,233.13Z"/><path class="cls-1" d="M611.47,225.35c.77.1.94.52.92.88a20.65,20.65,0,0,0,.11,5.21.69.69,0,0,1-.39.79c-.48.2-.72-.15-.93-.49s-.31-.44-.29-.64C611.06,229.18,611.27,227.26,611.47,225.35Z"/><path class="cls-1" d="M746.67,278.88c2.35,0,4.69,0,7,0a2.61,2.61,0,0,1,2,.53c-3.17,1.53-6.15-.48-9.09.31C746.65,279.46,746.66,279.17,746.67,278.88Z"/><path class="cls-1" d="M617.52,231.38c-.85-.15-.94-.71-1-1.24-.18-1.49.08-3-.32-4.5a.56.56,0,0,1,.46-.71.6.6,0,0,1,.72.46C617.53,227.37,618.38,229.35,617.52,231.38Z"/><path class="cls-1" d="M763.65,280.12c0,.38-.36.72-.57.62-1.79-.87-3.76-.16-5.57-.71-.3-.1-.63-.25-.62-.61a.64.64,0,0,1,.87-.55,12.38,12.38,0,0,0,4.88.47A.86.86,0,0,1,763.65,280.12Z"/><path class="cls-1" d="M195.11,240.61a.39.39,0,0,1,.4.45c-.21,1.54.63,2.51,1.77,3.33a5,5,0,0,1,.88.78.58.58,0,0,1,0,.84,1.74,1.74,0,0,1-.63.21.48.48,0,0,1-.23-.05C195.6,245.61,194.3,242.35,195.11,240.61Z"/><path class="cls-1" d="M660,292.66c1.43,2.14,1.09,3.82.39,5.8C658.92,296.62,659.44,294.89,660,292.66Z"/><path class="cls-1" d="M234.43,295.76c.4-2.5,1.49-4.48,4-5.39v0c-1,1-1.16,2.42-2.05,3.43-.62.7-1.06,1.59-2,1.94Z"/><path class="cls-1" d="M347.43,278.39c-.87-1.87-1-3.9-1.87-5.68-.21-.41,0-.78.49-.88a.53.53,0,0,1,.66.51C347.05,274.35,347.8,276.31,347.43,278.39Z"/><path class="cls-1" d="M624.72,185.91c-.05.86,0,1.74-.16,2.59-.08.59-.47,1.1-1.11,1s-.65-.59-.69-1.11c-.14-1.59.31-2.28,1.79-2.66Z"/><path class="cls-1" d="M643.31,184.48c0,.48,0,.84-.47,1a.78.78,0,0,1-1.1-.54,6.43,6.43,0,0,1-.15-3,.41.41,0,0,1,.52-.33.82.82,0,0,1,.52.42C642.9,182.88,643.1,183.71,643.31,184.48Z"/><path class="cls-1" d="M569.75,293.11c-.64.2-1.31.46-2,.62a1.8,1.8,0,0,1-1.77-.34.82.82,0,0,1-.24-1.06.7.7,0,0,1,.83-.31C567.61,292.36,568.65,292.73,569.75,293.11Z"/><path class="cls-1" d="M201.62,224.77c-1.71-1.79-2-2.62-1.64-4.78C201.87,221.25,200.89,223.29,201.62,224.77Z"/><path class="cls-1" d="M262.23,245.05c2.26-2.78,4.36-3.56,7.37-2.8A9.88,9.88,0,0,0,262.23,245.05Z"/><path class="cls-1" d="M660,228.07c1.17,2.15-.08,4.19-.19,6.29C660,232.26,659.28,230.15,660,228.07Z"/><path class="cls-1" d="M627.78,204.51c-.07-1.08-.15-2.16-.19-3.24a.7.7,0,0,1,.7-.79c.44,0,.66.38.68.81a7.35,7.35,0,0,1-.7,3.31Z"/><path class="cls-1" d="M623.16,177.78c1.88.34,3.63-1.28,5.69-.31A7.47,7.47,0,0,1,623.16,177.78Z"/><path class="cls-1" d="M650.23,183.23a7.7,7.7,0,0,1-2.5.61c-.51.13-1,0-1.08-.61a.91.91,0,0,1,.92-1.12c1-.05,2.07.06,2.59,1.19Z"/><path class="cls-1" d="M629.6,297.92c-.81,0-1.74,1.25-2.46,0-.57-1,.76-2.13,1.76-1.56C629.49,296.67,628.07,297.85,629.6,297.92Z"/><path class="cls-1" d="M579.17,293c1.54-.09,2.45-.76,3.61-.56C581.52,294.46,581.32,294.51,579.17,293Z"/><path class="cls-1" d="M565.67,258.69a34.47,34.47,0,0,1-.09-5.43C566.62,255.38,566.62,255.38,565.67,258.69Z"/><path class="cls-1" d="M573.19,182.87c-.79.76-1.72.53-2.53.64A.59.59,0,0,1,570,183a.73.73,0,0,1,.58-.89A2.62,2.62,0,0,1,573.19,182.87Z"/><path class="cls-1" d="M643.24,204.88c-.11-.1-.28-.18-.34-.3a2.07,2.07,0,0,1,.29-2.23c.08-.11.29-.25.39-.21a.91.91,0,0,1,.52.38,2.66,2.66,0,0,1-.29,2.06A.51.51,0,0,1,643.24,204.88Z"/><path class="cls-1" d="M234.38,295.71c-.53,1.57-.84,3.23-2.37,4.75a7.84,7.84,0,0,1,2.42-4.7Z"/><path class="cls-1" d="M747.69,259.82a3.68,3.68,0,0,1,.23,2.91.62.62,0,0,1-.7.5c-.52,0-.64-.43-.57-.83A3.91,3.91,0,0,1,747.69,259.82Z"/><path class="cls-1" d="M640.18,200.4c-.87.85-.41,2.09-.94,3.24a3.07,3.07,0,0,1-.44-3c.19-.68.91-.32,1.42-.18Z"/><path class="cls-1" d="M237.39,332.15c0-2.47,0-2.53,1.13-3.94a1.62,1.62,0,0,1-.08,1.36A6,6,0,0,1,237.39,332.15Z"/><path class="cls-1" d="M756.11,244.94c-.05.56-.35.89-.9.85a1.23,1.23,0,0,1-1.27-1.12c0-.53.4-.82.92-.82A1.17,1.17,0,0,1,756.11,244.94Z"/><path class="cls-1" d="M639.42,297.37a3,3,0,0,1-2.06.95.65.65,0,0,1-.66-.55c-.07-.35.13-.56.43-.73C637.93,296.57,638.6,297.05,639.42,297.37Z"/><path class="cls-1" d="M642.21,207a1.44,1.44,0,0,1-1.46.88.69.69,0,0,1-.69-.77c.08-.85.74-.86,1.38-.8C641.81,206.38,642.2,206.5,642.21,207Z"/><path class="cls-1" d="M246,309.72a5.48,5.48,0,0,1,1-3.75A4.85,4.85,0,0,1,246,309.72Z"/><path class="cls-1" d="M640.22,200.44c-.19-.42-.61-.84-.26-1.29a1.84,1.84,0,0,1,1.91-.54c.16,0,.43.36.39.48-.16.6-.77.71-1.24,1-.27.14-.57.23-.85.35Z"/><path class="cls-1" d="M622.18,234.9c-.15.44-.15.56-.2.58-.8.31-1.62.67-2.38,0-.2-.18-.07-.46.11-.62C620.56,234.09,621.29,234.72,622.18,234.9Z"/><path class="cls-1" d="M760,251.71c1.24.46,1.61,1.12,1.16,2.13a.42.42,0,0,1-.59.21C759.76,253.49,759.92,252.68,760,251.71Z"/><path class="cls-1" d="M627.89,197.24c-.15.7-.76.88-1.34,1-.39.11-.82,0-.88-.48-.07-.68.43-.94,1-1S627.6,196.66,627.89,197.24Z"/><path class="cls-1" d="M763.4,284.2a1.58,1.58,0,0,1-1.45-2,.4.4,0,0,1,.51-.34C763.42,282.3,763.37,283.14,763.4,284.2Z"/><path class="cls-1" d="M748.8,249.34a1.3,1.3,0,0,1-1-1.94.39.39,0,0,1,.59-.15A1.74,1.74,0,0,1,748.8,249.34Z"/><path class="cls-1" d="M575.2,292.56a4.47,4.47,0,0,0-1.27.53c-.31.29-.35,1-1,.55a.77.77,0,0,1-.19-.88.82.82,0,0,1,1-.73A12.33,12.33,0,0,1,575.2,292.56Z"/><path class="cls-1" d="M247.88,290.28a5.24,5.24,0,0,1,1.85-2.5C249.15,288.63,249.14,289.89,247.88,290.28Z"/><path class="cls-1" d="M190.37,207.05a2.47,2.47,0,0,1-2.05,2.29C188.64,208,189.62,207.65,190.37,207.05Z"/><path class="cls-1" d="M743.22,249.52c0,.57-.23,1-.77,1a.67.67,0,0,1-.73-.75c0-.59.42-.83.92-.89S743.12,249.24,743.22,249.52Z"/><path class="cls-1" d="M238.44,290.37a3.28,3.28,0,0,1,1.47-3.11c0,1.52-1.51,1.9-1.48,3.07C238.44,290.34,238.44,290.37,238.44,290.37Z"/><path class="cls-1" d="M280,257.89c1-.83,1.65-1.1,2.64-.55C281.84,258.13,281.11,257.63,280,257.89Z"/><path class="cls-1" d="M727.6,283.05a.79.79,0,0,0,.14-.18c.18-.43,0-1.18.85-1a.53.53,0,0,1,.42.69c-.25.75-.78.85-1.44.47Z"/><path class="cls-1" d="M565.81,248a3.07,3.07,0,0,1,0,2.38A4.08,4.08,0,0,1,565.81,248Z"/><path class="cls-1" d="M639.16,197.43c-.38,0-.67-.12-.68-.49s.09-1,.6-1.1.48.44.55.77S639.61,197.37,639.16,197.43Z"/><path class="cls-1" d="M733.45,282.05a.59.59,0,0,1-.66.53.6.6,0,0,1-.5-.69c0-.42.33-.53.66-.5S733.46,281.69,733.45,282.05Z"/><path class="cls-1" d="M273.88,241.29l-.52.05a7,7,0,0,1-1.12,0c-.26,0-.24-.19,0-.2s.75,0,1.12,0A4.63,4.63,0,0,1,273.88,241.29Z"/><path class="cls-1" d="M763,265.83c-.15.1-.32.3-.51.31a.46.46,0,0,1-.55-.51.44.44,0,0,1,.47-.39C762.77,265.25,763,265.44,763,265.83Z"/><path class="cls-1" d="M614.41,234.92c-.15.34-.44.36-.75.27s-.47-.18-.39-.47.43-.38.74-.29S614.43,234.63,614.41,234.92Z"/><path class="cls-1" d="M740.74,241.49a.57.57,0,0,1-.61.57c-.39,0-.77-.1-.78-.6s.28-.51.59-.52S740.7,241,740.74,241.49Z"/><path class="cls-1" d="M249.16,302.34a2.19,2.19,0,0,1-.66,1.8C248.19,303.43,248.55,303,249.16,302.34Z"/><path class="cls-1" d="M743.88,255.07a.47.47,0,0,1-.21-.57c.05-.24.2-.43.46-.28a.43.43,0,0,1,.18.39A.47.47,0,0,1,743.88,255.07Z"/><path class="cls-1" d="M469.4,291.37a50.1,50.1,0,0,1-.06-9,54.82,54.82,0,0,1,0,9Z"/><path class="cls-1" d="M743.2,322.86a3.08,3.08,0,0,1-2.43,1.61A.7.7,0,0,1,740,324a.53.53,0,0,1,.33-.76A3.37,3.37,0,0,1,743.2,322.86Z"/><path class="cls-1" d="M711,324.8c0,.68-.49,1-1,1.05a1,1,0,0,1-1.2-.84c-.14-.72.42-.93,1-1A1,1,0,0,1,711,324.8Z"/><path class="cls-1" d="M743,331.52a1.25,1.25,0,0,1-1.06,1.12.77.77,0,0,1-.93-.83,1.08,1.08,0,0,1,1.15-1A.79.79,0,0,1,743,331.52Z"/><path class="cls-1" d="M701.73,257.51c-.2.86-.82,1-1.46.95a.84.84,0,0,1-.89-.89c0-.75.58-.85,1.15-.86A1.07,1.07,0,0,1,701.73,257.51Z"/><path class="cls-1" d="M727.9,320.58c.72,0,1.23.19,1.34.84s-.36.83-.83.88c-.66.07-1.29-.11-1.33-.91C727.05,320.8,727.57,320.69,727.9,320.58Z"/><path class="cls-1" d="M704.7,330.29a1.14,1.14,0,0,1,.83,1.38.52.52,0,0,1-.67.46,1.11,1.11,0,0,1-1-1.14C703.91,330.57,704.17,330.29,704.7,330.29Z"/><path class="cls-1" d="M698.12,302.19c0,.68-.34,1-.89.94s-1.1-.2-1.11-.93.41-.8.91-.83S698.1,301.57,698.12,302.19Z"/><path class="cls-1" d="M758.65,314.6a1,1,0,0,1-1.34.59c-.31-.09-.57-.33-.4-.71a1,1,0,0,1,1.2-.53C758.44,314,758.71,314.14,758.65,314.6Z"/><path class="cls-1" d="M701.11,245.73a.64.64,0,0,1-.65-.6c-.09-.47.23-.71.63-.77s1,.07,1,.65C702.08,245.39,701.72,245.66,701.11,245.73Z"/><path class="cls-1" d="M702.69,305.41a2.75,2.75,0,0,1-.75-2.66C702.78,303.57,702.78,303.57,702.69,305.41Z"/><path class="cls-1" d="M703.67,296.36a1.19,1.19,0,0,1-1.26.8c-.36,0-.61-.22-.54-.57a1,1,0,0,1,1.21-.79C703.41,295.84,703.66,296,703.67,296.36Z"/><path class="cls-1" d="M754,322.47c-.06.14-.13.28-.19.43-.16.43-.29.9-.88.87a.47.47,0,0,1-.33-.27c-.17-.43.2-.7.38-1a3.18,3.18,0,0,1,.27-.37.35.35,0,0,1,.57,0A1.32,1.32,0,0,1,754,322.47Z"/><path class="cls-1" d="M699.82,247.12c-.15.33-.37.54-.74.45s-.75-.34-.68-.82.39-.48.73-.42S699.85,246.64,699.82,247.12Z"/><path class="cls-1" d="M697.45,247.46c-.05.33-.19.63-.52.68a.71.71,0,0,1-.91-.75c0-.34.26-.54.6-.57A.78.78,0,0,1,697.45,247.46Z"/><path class="cls-1" d="M734.92,331.23a1,1,0,0,1-.88.88c-.43.07-.54-.29-.51-.59a.85.85,0,0,1,1-.78C734.74,330.75,735,330.84,734.92,331.23Z"/><path class="cls-1" d="M718.24,319.26a.36.36,0,0,1-.43.39c-.48-.07-.59-.46-.58-.85s.08-.66.53-.49S718.26,318.85,718.24,319.26Z"/><path class="cls-1" d="M702.21,260.47c.22.84.33,1.37-.35,1.62-.1,0-.35-.07-.36-.14C701.35,261.35,701.73,261,702.21,260.47Z"/><path class="cls-1" d="M683.4,313.23c.46,0,.62.39.71.79a.4.4,0,0,1-.31.53.72.72,0,0,1-.87-.61A.57.57,0,0,1,683.4,313.23Z"/><path class="cls-1" d="M704.08,292.28a.7.7,0,0,1-.84.22.43.43,0,0,1-.18-.74.56.56,0,0,1,.83-.09C704.08,291.82,704.24,292,704.08,292.28Z"/><path class="cls-1" d="M702.61,316.13a1.63,1.63,0,0,1,1.19,1.52c-.53.24-.68-.21-.88-.45A1,1,0,0,1,702.61,316.13Z"/><path class="cls-1" d="M692.62,317a.52.52,0,0,1-.7.32c-.22-.07-.44-.19-.35-.47a.5.5,0,0,1,.69-.34C692.48,316.53,692.67,316.66,692.62,317Z"/><path class="cls-1" d="M691.05,251.13c.3.05.55.11.53.37a.47.47,0,0,1-.61.46c-.23-.06-.44-.25-.34-.49S690.93,251.22,691.05,251.13Z"/><path class="cls-1" d="M695.93,312.13a.42.42,0,0,1-.46.39.61.61,0,0,1-.49-.67c0-.08.22-.22.35-.24C695.7,311.56,695.88,311.78,695.93,312.13Z"/><path class="cls-1" d="M363.06,305.32c-.17.45-.33,1-.82,1.1a5.66,5.66,0,0,0-3.73,2.64.9.9,0,0,1-1.28.15A6.42,6.42,0,0,1,363.06,305.32Z"/><path class="cls-1" d="M361,303.19c-1.48,2.9-1.71,3-3.82,2.05Z"/><path class="cls-1" d="M355.76,298.46a4.65,4.65,0,0,1,2.09-.53C357.09,298.69,357.09,298.69,355.76,298.46Z"/></svg>