<?xml version="1.0" encoding="UTF-8" standalone="no"?>
<!-- Created with Keyshape -->
<svg xmlns="http://www.w3.org/2000/svg" xmlns:xlink="http://www.w3.org/1999/xlink" viewBox="0 0 249.44 76.84">
    <style>
@keyframes a1_t { 0% { transform: translate(124.757197px,38.41911px); } 100% { transform: translate(124.757197px,38.41911px); } }
@keyframes a2_t { 0% { transform: scale(1,1); } 6.6666% { transform: scale(0.5,0.5); animation-timing-function: cubic-bezier(0,0,0.25,1.265); } 30% { transform: scale(1,1); animation-timing-function: cubic-bezier(0,0,0.25,1.265); } 93.3333% { transform: scale(0.9,0.9); animation-timing-function: cubic-bezier(0,0,0.25,1.265); } 100% { transform: scale(1,1); animation-timing-function: cubic-bezier(0,0,0.25,1.265); } }
@keyframes a0_t { 0% { transform: translate(-124.757197px,-38.41911px); } 100% { transform: translate(-124.757197px,-38.41911px); } }
    </style>
    <title>glasses</title>
    <g id="Layer_2" data-name="Layer 2">
        <g id="Layer_1-2" data-name="Layer 1">
            <g style="animation: 3s linear infinite both a1_t;">
                <g style="animation: 3s linear infinite both a2_t;">
                    <path class="cls-1" d="M51.23,0C57.23,-0.06,65.69,0.43,74.13,1.24C82.57,2.05,90.68,3.24,98.89,4.8C105.12,6,111.18,7.9,117.4,9.16C118.767,9.44271,120.15,9.64704,121.54,9.77197C122.931,9.89691,124.328,9.94225,125.724,9.90777C127.119,9.8733,128.512,9.75906,129.895,9.56563C131.278,9.37219,132.648,9.09987,134,8.75C141.84,6.75,149.7,4.75,157.71,3.5C167.13,2,176.58,1,186.07,0.45C188.325,0.313378,190.583,0.207964,192.841,0.133788C195.099,0.0596123,197.359,0.0166818,199.618,0.00500904C201.878,-0.00666377,204.137,0.0129222,206.396,0.0637613C208.655,0.1146,210.913,0.196688,213.17,0.31C215.535,0.418659,217.899,0.560868,220.261,0.736585C222.622,0.912302,224.981,1.12151,227.336,1.36414C229.692,1.60678,232.044,1.88281,234.391,2.19217C236.739,2.50153,239.082,2.84417,241.42,3.22C243.86,3.62,246.29,4.05,248.73,4.48C249.38,4.59,249.55,4.73,249.37,5.48C248.37,9.94,247.37,14.42,246.37,18.9C246.21,19.66,245.97,19.98,245.08,20.01C244.27,20.0214,243.467,20.1734,242.709,20.4594C241.95,20.7453,241.247,21.1608,240.631,21.6873C240.015,22.2139,239.495,22.8434,239.094,23.5479C238.693,24.2525,238.418,25.0212,238.28,25.82C236.28,34.62,234.13,43.36,231.33,51.92C230.13,55.57,228.96,59.27,226.71,62.51C226.128,63.3411,225.504,64.1414,224.839,64.9078C224.174,65.6742,223.47,66.4055,222.73,67.099C221.989,67.7924,221.213,68.447,220.405,69.0601C219.597,69.6732,218.757,70.2439,217.89,70.77C216.72,71.4538,215.515,72.0761,214.28,72.6343C213.046,73.1926,211.782,73.6859,210.496,74.1125C209.21,74.539,207.902,74.8981,206.578,75.1882C205.255,75.4784,203.917,75.6993,202.57,75.85C200.99,76.0953,199.403,76.2954,197.812,76.45C196.22,76.6046,194.624,76.7138,193.027,76.7772C191.429,76.8407,189.83,76.8585,188.231,76.8306C186.632,76.8027,185.035,76.7292,183.44,76.61C181.777,76.4698,180.12,76.2701,178.471,76.0112C176.823,75.7523,175.184,75.4344,173.558,75.0581C171.933,74.6817,170.321,74.2472,168.726,73.7554C167.132,73.2636,165.555,72.7148,164,72.11C157.19,69.49,152.34,64.81,148.28,59.02C147.123,57.3117,146.011,55.5734,144.945,53.8068C143.879,52.0402,142.859,50.2459,141.887,48.4258C140.915,46.6057,139.992,44.7604,139.117,42.8918C138.242,41.0232,137.416,39.1319,136.64,37.22C135.28,34,133.95,30.76,132.51,27.57C132.296,27.1298,132.038,26.7127,131.74,26.3254C131.441,25.938,131.103,25.5823,130.731,25.264C130.36,24.9457,129.957,24.6664,129.528,24.4305C129.099,24.1947,128.648,24.0035,128.18,23.86C124.06,22.33,118.87,23.86,117.18,27.38C116.06,29.65,115.18,32.06,114.18,34.38C113.62,35.7548,113.042,37.1221,112.446,38.4816C111.85,39.8411,111.236,41.1925,110.604,42.5357C109.972,43.8788,109.322,45.2135,108.655,46.5394C107.987,47.8653,107.302,49.1823,106.6,50.49C105.864,51.8531,105.086,53.1931,104.266,54.508C103.447,55.8229,102.587,57.1121,101.688,58.3738C100.789,59.6355,99.8515,60.869,98.876,62.0725C97.9006,63.2761,96.8881,64.4491,95.84,65.59C92.45,69.15,88.15,71.09,83.71,72.78C74.41,76.33,64.71,77.25,54.84,76.67C53.6235,76.6179,52.4085,76.5344,51.1963,76.4197C49.9841,76.305,48.775,76.159,47.5703,75.982C46.3656,75.805,45.1657,75.5971,43.9717,75.3583C42.7777,75.1195,41.5901,74.85,40.41,74.55C38.7554,74.1308,37.1377,73.5772,35.5732,72.8946C34.0087,72.2121,32.5026,71.4029,31.0698,70.4752C29.6371,69.5475,28.2825,68.5043,27.0195,67.356C25.7566,66.2077,24.5895,64.9583,23.53,63.62C23.0387,62.9306,22.5758,62.2215,22.1424,61.4943C21.709,60.7671,21.3056,60.0225,20.933,59.2623C20.5605,58.5022,20.2192,57.7271,19.9099,56.939C19.6007,56.151,19.3238,55.3507,19.08,54.54C18.5054,52.8825,17.9529,51.2174,17.4228,49.5451C16.8927,47.8729,16.385,46.1936,15.8997,44.5078C15.4145,42.822,14.9518,41.1297,14.5118,39.4315C14.0718,37.7333,13.6545,36.0293,13.26,34.32C12.59,31.53,11.92,28.73,11.26,25.94C10.26,22.09,8.12,20.22,4.26,19.94C3.6,19.94,3.38,19.69,3.26,19.08C2.26,14.45,1.26,9.81,0.12,5.19C-0.1,4.19,0.58,4.52,0.91,4.45C4.35,3.71,7.83,3.23,11.31,2.72C14.6138,2.24679,17.9261,1.83494,21.2453,1.48466C24.5644,1.13437,27.8897,0.845712,31.2195,0.61883C34.5493,0.391949,37.8831,0.226883,41.219,0.123718C44.555,0.0205528,47.8925,-0.0206936,51.23,0ZM190.49,70.24C197.15,70.24,203.7,69.72,210.03,67.34C211.346,66.8779,212.611,66.2793,213.802,65.554C214.994,64.8287,216.107,63.9807,217.122,63.0239C218.137,62.0671,219.049,61.0067,219.844,59.86C220.638,58.7133,221.311,57.4866,221.85,56.2C222.558,54.5732,223.21,52.9223,223.805,51.2504C224.399,49.5785,224.935,47.8866,225.413,46.1777C225.89,44.4687,226.308,42.7438,226.666,41.006C227.025,39.2681,227.323,37.5184,227.56,35.76C227.783,34.4814,227.949,33.1935,228.057,31.9002C228.166,30.6068,228.217,29.3093,228.21,28.0114C228.203,26.7136,228.139,25.4166,228.017,24.1245C227.895,22.8323,227.716,21.5462,227.48,20.27C227.371,19.5898,227.209,18.919,226.998,18.2634C226.786,17.6079,226.524,16.9694,226.215,16.3538C225.906,15.7381,225.55,15.1469,225.151,14.5855C224.752,14.0241,224.31,13.4941,223.83,13C223.073,12.3104,222.263,11.681,221.408,11.1175C220.553,10.554,219.656,10.0582,218.723,9.63443C217.791,9.21071,216.827,8.86042,215.841,8.58676C214.854,8.31311,213.847,8.11693,212.83,8C208.49,7.35,204.11,7,199.72,6.64C196.854,6.40822,193.98,6.2731,191.105,6.23486C188.23,6.19663,185.354,6.2553,182.482,6.41079C179.611,6.56627,176.745,6.81848,173.891,7.16698C171.036,7.51548,168.195,7.96007,165.37,8.5C164.178,8.69364,162.994,8.93372,161.821,9.2197C160.648,9.50568,159.486,9.83733,158.339,10.2139C157.192,10.5905,156.06,11.0117,154.945,11.4766C153.831,11.9414,152.735,12.4496,151.66,13C151.233,13.2152,150.816,13.4518,150.412,13.7088C150.009,13.9659,149.618,14.243,149.242,14.5392C148.866,14.8354,148.505,15.1503,148.161,15.4828C147.817,15.8152,147.489,16.1647,147.18,16.53C146.792,17.0374,146.448,17.5764,146.15,18.1413C145.852,18.7062,145.602,19.2951,145.402,19.9017C145.203,20.5083,145.054,21.1305,144.958,21.7618C144.862,22.3932,144.819,23.0315,144.83,23.67C144.85,24.3681,144.884,25.0656,144.933,25.7623C144.981,26.459,145.044,27.1546,145.121,27.8487C145.198,28.5428,145.288,29.2353,145.393,29.9257C145.498,30.6162,145.617,31.3044,145.75,31.99C145.966,33.3625,146.224,34.7282,146.522,36.0852C146.82,37.4422,147.159,38.7899,147.539,40.1266C147.918,41.4632,148.337,42.7882,148.796,44.0996C149.255,45.4111,149.753,46.7085,150.29,47.99C150.702,49.0074,151.155,50.0075,151.648,50.9879C152.142,51.9682,152.675,52.928,153.247,53.8648C153.818,54.8016,154.428,55.7146,155.075,56.6016C155.721,57.4886,156.403,58.3488,157.12,59.18C161.36,63.95,166.8,66.76,172.91,68.36C174.348,68.6995,175.796,68.9939,177.252,69.2427C178.708,69.4915,180.172,69.6946,181.641,69.8517C183.11,70.0088,184.583,70.1198,186.059,70.1846C187.535,70.2493,189.013,70.2678,190.49,70.24ZM56,70.25C65.47,70.18,72,69.78,78.41,67.81C79.534,67.4816,80.6385,67.0897,81.7182,66.6363C82.7978,66.1829,83.8509,65.6687,84.8724,65.0962C85.8939,64.5237,86.8821,63.8937,87.8324,63.2094C88.7826,62.525,89.6932,61.7874,90.56,61C91.4338,60.1516,92.2639,59.2594,93.0472,58.3268C93.8306,57.3942,94.5661,56.4225,95.2509,55.4154C95.9358,54.4083,96.569,53.3671,97.1483,52.2958C97.7276,51.2245,98.2522,50.1245,98.72,49C99.509,47.1772,100.225,45.3236,100.866,43.4437C101.507,41.5638,102.072,39.659,102.561,37.7339C103.05,35.8087,103.461,33.8649,103.795,31.9069C104.129,29.9489,104.384,27.9784,104.56,26C105.27,19.34,102.56,15.42,96.89,12.52C96.1834,12.1716,95.4667,11.844,94.7409,11.5377C94.015,11.2314,93.2803,10.9465,92.5377,10.6834C91.7951,10.4203,91.0449,10.179,90.2882,9.95998C89.5314,9.74094,88.7683,9.5442,88,9.37C86.1781,8.93407,84.3459,8.54227,82.5051,8.19494C80.6642,7.84761,78.8153,7.54486,76.9598,7.28694C75.1043,7.02903,73.2429,6.81603,71.3771,6.64813C69.5113,6.48023,67.6417,6.35749,65.77,6.28C64.2051,6.22582,62.6394,6.19622,61.0736,6.19123C59.5077,6.18623,57.9419,6.20584,56.3767,6.25004C54.8114,6.29423,53.247,6.36302,51.6839,6.45636C50.1209,6.5497,48.5594,6.6676,47,6.81C45.8986,6.85652,44.7984,6.92841,43.7004,7.02563C42.6023,7.12285,41.5066,7.24537,40.4142,7.39308C39.3217,7.5408,38.2329,7.71368,37.1484,7.91157C36.0639,8.10947,34.9842,8.33234,33.91,8.58C30.05,9.58,26.58,11.35,24.23,14.73C22.16,17.73,21.65,21.21,21.4,24.73C21.3403,25.8276,21.3135,26.9267,21.3195,28.0259C21.3256,29.1251,21.3646,30.2239,21.4364,31.3208C21.5083,32.4176,21.613,33.5121,21.7503,34.6027C21.8877,35.6933,22.0576,36.7796,22.26,37.86C22.4884,39.2961,22.7592,40.7251,23.072,42.1452C23.3847,43.5653,23.7393,44.9758,24.1352,46.375C24.5312,47.7742,24.9683,49.1614,25.4461,50.5348C25.9239,51.9082,26.4421,53.2672,27,54.61C27.2634,55.2984,27.5545,55.9759,27.8727,56.6408C28.1909,57.3057,28.5358,57.9575,28.9066,58.5945C29.2774,59.2315,29.6739,59.8533,30.095,60.4583C30.516,61.0633,30.9614,61.651,31.43,62.22C34.03,65.15,37.5,66.67,41.11,67.92C42.3097,68.3098,43.5243,68.6518,44.7512,68.9451C45.978,69.2385,47.216,69.4829,48.4622,69.6779C49.7085,69.8729,50.962,70.0183,52.2197,70.1138C53.4775,70.2093,54.7386,70.2547,56,70.25Z" fill="#ffffff" transform="translate(124.757,38.4191) translate(-124.757,-38.4191)" style="animation: 3s linear infinite both a0_t;"/>
                </g>
            </g>
        </g>
    </g>
</svg>
