<svg xmlns="http://www.w3.org/2000/svg" viewBox="0 0 249.44 76.84">
    <defs>
        <style>.cls-1{fill:black;}</style>
    </defs>
    <title>glasses</title>
    <g id="Layer_2" data-name="Layer 2">
        <g id="Layer_1-2" data-name="Layer 1">
            <path class="cls-1"
                  d="M51.23,0c6-.06,14.46.43,22.9,1.24s16.55,2,24.76,3.56C105.12,6,111.18,7.9,117.4,9.16A36.64,36.64,0,0,0,134,8.75c7.84-2,15.7-4,23.71-5.25C167.13,2,176.58,1,186.07.45a245,245,0,0,1,27.1-.14,250.38,250.38,0,0,1,28.25,2.91c2.44.4,4.87.83,7.31,1.26.65.11.82.25.64,1-1,4.46-2,8.94-3,13.42-.16.76-.4,1.08-1.29,1.11a7,7,0,0,0-6.8,5.81c-2,8.8-4.15,17.54-6.95,26.1-1.2,3.65-2.37,7.35-4.62,10.59a29.34,29.34,0,0,1-8.82,8.26,38.94,38.94,0,0,1-15.32,5.08,83.93,83.93,0,0,1-19.13.76A69.82,69.82,0,0,1,164,72.11c-6.81-2.62-11.66-7.3-15.72-13.09a117.92,117.92,0,0,1-11.64-21.8c-1.36-3.22-2.69-6.46-4.13-9.65a7.14,7.14,0,0,0-4.33-3.71c-4.12-1.53-9.31,0-11,3.52-1.12,2.27-2,4.68-3,7a167.65,167.65,0,0,1-7.58,16.11A75,75,0,0,1,95.84,65.59c-3.39,3.56-7.69,5.5-12.13,7.19-9.3,3.55-19,4.47-28.87,3.89a70.9,70.9,0,0,1-14.43-2.12A31.35,31.35,0,0,1,23.53,63.62a31.06,31.06,0,0,1-4.45-9.08,196.91,196.91,0,0,1-5.82-20.22c-.67-2.79-1.34-5.59-2-8.38-1-3.85-3.14-5.72-7-6-.66,0-.88-.25-1-.86-1-4.63-2-9.27-3.14-13.89-.22-1,.46-.67.79-.74,3.44-.74,6.92-1.22,10.4-1.73A269.76,269.76,0,0,1,51.23,0ZM190.49,70.24c6.66,0,13.21-.52,19.54-2.9A20,20,0,0,0,221.85,56.2a77,77,0,0,0,5.71-20.44,43.81,43.81,0,0,0-.08-15.49A13.51,13.51,0,0,0,223.83,13a19.67,19.67,0,0,0-11-5c-4.34-.65-8.72-1-13.11-1.36a128,128,0,0,0-34.35,1.86A46.41,46.41,0,0,0,151.66,13a14.29,14.29,0,0,0-4.48,3.53,11.45,11.45,0,0,0-2.35,7.14,51.55,51.55,0,0,0,.92,8.32,69.35,69.35,0,0,0,4.54,16,40.27,40.27,0,0,0,6.83,11.19c4.24,4.77,9.68,7.58,15.79,9.18A70.7,70.7,0,0,0,190.49,70.24ZM56,70.25c9.47-.07,16-.47,22.41-2.44A31,31,0,0,0,90.56,61a36,36,0,0,0,8.16-12,74.55,74.55,0,0,0,5.84-23c.71-6.66-2-10.58-7.67-13.48A40.2,40.2,0,0,0,88,9.37,116.18,116.18,0,0,0,65.77,6.28,149.51,149.51,0,0,0,47,6.81,71.74,71.74,0,0,0,33.91,8.58c-3.86,1-7.33,2.77-9.68,6.15-2.07,3-2.58,6.48-2.83,10a55.07,55.07,0,0,0,.86,13.13A73.92,73.92,0,0,0,27,54.61a27.34,27.34,0,0,0,4.43,7.61c2.6,2.93,6.07,4.45,9.68,5.7A47.61,47.61,0,0,0,56,70.25Z"/>
        </g>
    </g>
</svg>