<?xml version="1.0" encoding="UTF-8" standalone="no"?>
<!-- Created with Keyshape -->
<svg xmlns="http://www.w3.org/2000/svg" xmlns:xlink="http://www.w3.org/1999/xlink" shape-rendering="geometricPrecision" text-rendering="geometricPrecision" viewBox="0 0 320 240" style="white-space: pre;">
    <style>
@keyframes a0_t { 0% { transform: translate(-29.648px,162.048px); } 9.0909% { transform: translate(-29.648px,162.048px); animation-timing-function: cubic-bezier(0,0,0.205,1); } 15.1515% { transform: translate(18.1562px,162.048px); animation-timing-function: cubic-bezier(0,0,0.205,1); } 75.7575% { transform: translate(18.1562px,162.048px); animation-timing-function: cubic-bezier(0,0,0.205,1); } 87.8787% { transform: translate(61.1562px,162.048px); } 100% { transform: translate(61.1562px,162.048px); } }
@keyframes a0_o { 0% { opacity: 0; } 9.0909% { opacity: 0; animation-timing-function: cubic-bezier(0,0,0.205,1); } 15.1515% { opacity: 1; animation-timing-function: cubic-bezier(0,0,0.205,1); } 75.7576% { opacity: 1; animation-timing-function: cubic-bezier(0,0,0.205,1); } 87.8788% { opacity: 0; } 100% { opacity: 0; } }
@keyframes a1_t { 0% { transform: translate(-30.6595px,162.048px); } 6.0606% { transform: translate(-30.6595px,162.048px); animation-timing-function: cubic-bezier(0,0,0.205,1); } 12.1212% { transform: translate(18.1562px,162.048px); animation-timing-function: cubic-bezier(0,0,0.205,1); } 75.7575% { transform: translate(18.1562px,162.048px); animation-timing-function: cubic-bezier(0,0,0.205,1); } 87.8787% { transform: translate(61.1562px,162.048px); } 100% { transform: translate(61.1562px,162.048px); } }
@keyframes a1_o { 0% { opacity: 0; } 6.0606% { opacity: 0; animation-timing-function: cubic-bezier(0,0,0.205,1); } 12.1212% { opacity: 1; animation-timing-function: cubic-bezier(0,0,0.205,1); } 75.7576% { opacity: 1; animation-timing-function: cubic-bezier(0,0,0.205,1); } 87.8788% { opacity: 0; } 100% { opacity: 0; } }
@keyframes a2_t { 0% { transform: translate(-30.653px,162.048px); } 3.0303% { transform: translate(-30.653px,162.048px); animation-timing-function: cubic-bezier(0,0,0.205,1); } 9.0909% { transform: translate(18.1562px,162.048px); animation-timing-function: cubic-bezier(0,0,0.205,1); } 75.7575% { transform: translate(18.1562px,162.048px); animation-timing-function: cubic-bezier(0,0,0.205,1); } 87.8787% { transform: translate(61.1562px,162.048px); } 100% { transform: translate(61.1562px,162.048px); } }
@keyframes a2_o { 0% { opacity: 0; } 3.0303% { opacity: 0; animation-timing-function: cubic-bezier(0,0,0.205,1); } 9.0909% { opacity: 1; animation-timing-function: cubic-bezier(0,0,0.205,1); } 75.7576% { opacity: 1; animation-timing-function: cubic-bezier(0,0,0.205,1); } 87.8788% { opacity: 0; } 100% { opacity: 0; } }
@keyframes a3_t { 0% { transform: translate(-29.8668px,162.048px); animation-timing-function: cubic-bezier(0,0,0.205,1); } 6.0606% { transform: translate(18.1562px,162.048px); animation-timing-function: cubic-bezier(0,0,0.205,1); } 75.7575% { transform: translate(18.1562px,162.048px); animation-timing-function: cubic-bezier(0,0,0.205,1); } 87.8787% { transform: translate(61.1562px,162.048px); } 100% { transform: translate(61.1562px,162.048px); } }
@keyframes a3_o { 0% { opacity: 0; animation-timing-function: cubic-bezier(0,0,0.205,1); } 6.0606% { opacity: 1; animation-timing-function: cubic-bezier(0,0,0.205,1); } 75.7576% { opacity: 1; animation-timing-function: cubic-bezier(0,0,0.205,1); } 87.8788% { opacity: 0; } 100% { opacity: 0; } }
    </style>
    <path d="M22.032,0L22.032,-37.44C22.032,-50.544,30.096,-58.752,40.464,-58.752C50.256,-58.752,56.016,-52.56,56.016,-40.608L56.016,0L68.544,0L68.544,-44.352C68.544,-60.336,59.04,-69.696,44.496,-69.696C34.848,-69.696,26.784,-65.088,22.032,-57.168L22.032,-68.256L9.648,-68.256L9.648,0Z" fill="#000000" stroke="none" opacity="0" transform="translate(-29.648,162.048)" style="animation: 3.3s linear infinite both a0_t, 3.3s linear infinite both a0_o;"/>
    <path d="M118.076,-9.504C128.587,-9.504,135.068,-14.976,137.803,-24.768L148.604,-20.592C143.995,-6.768,133.771,1.44,118.076,1.44C98.0595,1.44,83.6595,-12.528,83.6595,-34.56C83.6595,-54.144,96.7635,-69.696,116.203,-69.696C125.275,-69.696,132.62,-67.104,138.236,-61.776C143.852,-56.592,146.587,-49.536,146.587,-40.608C146.587,-37.584,146.299,-34.848,145.724,-32.256L96.3315,-32.256C96.4755,-17.424,105.979,-9.504,118.076,-9.504ZM116.06,-58.752C105.548,-58.752,97.6275,-51.984,96.3315,-41.184L134.203,-41.184L134.348,-43.2C134.348,-52.992,126.428,-58.752,116.06,-58.752Z" fill="#000000" stroke="none" fill-rule="evenodd" opacity="0" transform="translate(-30.6595,162.048)" style="animation: 3.3s linear infinite both a1_t, 3.3s linear infinite both a1_o;"/>
    <path d="M214.277,-68.256L199.733,-68.256L185.477,-46.08L171.077,-68.256L156.533,-68.256L178.709,-36L153.653,0L167.909,0L185.477,-26.352L203.045,0L217.301,0L192.389,-36.144Z" fill="#000000" stroke="none" opacity="0" transform="translate(-30.653,162.048)" style="animation: 3.3s linear infinite both a2_t, 3.3s linear infinite both a2_o;"/>
    <path d="M236.02,-20.304C236.02,-6.624,243.94,1.44,258.34,1.44C270.004,1.44,277.78,-5.328,279.652,-17.568L268.132,-20.16C266.98,-12.672,263.668,-9.504,257.908,-9.504C252.58,-9.504,248.548,-13.248,248.548,-19.728L248.548,-57.744L273.028,-57.744L273.028,-68.256L248.548,-68.256L248.548,-89.424L236.02,-89.424L236.02,-68.256L222.484,-68.256L222.484,-57.744L236.02,-57.744Z" fill="#000000" stroke="none" opacity="0" transform="translate(-29.8668,162.048)" style="animation: 3.3s linear infinite both a3_t, 3.3s linear infinite both a3_o;"/>
</svg>
