<svg xmlns="http://www.w3.org/2000/svg" viewBox="0 0 515.16 356.49"><title>rmuts-type</title><g id="Layer_2" data-name="Layer 2"><g id="Layer_1-2" data-name="Layer 1"><path d="M165,88.15c.08-6.17-.86-12.28-1.17-18.42-.21-4.15.08-8.4-.63-12.49-1.4-8-.38-16-.64-24-.09-2.71.88-5.37.86-8.15,0-1.46,1.51-1.91,2.52-.81a18.36,18.36,0,0,1,2.67,3.6c3.77,6.81,7.44,13.68,10.7,20.75,1.53,3.3,2.44,6.89,4.33,10,3.19,5.29,6.09,10.75,9.68,15.82,1.2,1.69,2.56,3.46,3,5.64a1,1,0,0,0,.89.94c.7,0,.5-.6.61-1,.66-2.49,1.51-5,2.05-7.46.82-3.84,2.31-7.41,3.45-11.12,1.63-5.33,2.74-10.88,5.48-15.78,1.81-3.22,2.68-6.93,5.15-9.81.47-.55.45-1.48.76-2.19a27.8,27.8,0,0,1,5.61-8c2.1-2.19,4.36-4.22,6.4-6.46a5.27,5.27,0,0,1,5.92-1.06c1.72.79,1.49,2.77,2,4.25,1.09,3.15.73,6.52,1.43,9.78.6,2.84-.13,5.94.25,8.86.4,3.19.68,6.41,1.26,9.61.51,2.81,1.2,5.57,1.86,8.33.62,2.57,1.49,5.08,1.93,7.7.32,1.85,1.14,3.57,1.17,5.5,0,2.88,1.34,5.52,1.85,8.32s1.35,5.52,2.06,8.27c.85,3.25,1.78,6.48,2.57,9.75.84,3.46,2.29,6.73,3,10.25a32.6,32.6,0,0,0,1.81,5.54c2.84,7.19,5.88,14.29,8.61,21.52,1.76,4.66,3.63,9.34,5.54,14a50.17,50.17,0,0,0,2.47,5.85,27.52,27.52,0,0,0,5,6.24,47.76,47.76,0,0,1,9.7,12.48,53.08,53.08,0,0,0,8.26,11.11c4,4.36,7.71,9,10,14.62.47,1.14-.44,3.81-1.52,4.31s-1.78-.15-1.69-1c.33-2.73-1.18-4.56-2.84-6.27q-6.13-6.3-12.44-12.44a47.78,47.78,0,0,1-6.37-7.68c-.48-.72-1.34-.75-1.88-1.37-4.24-4.86-9.82-8.37-13.95-13.3-5.7-6.78-11.92-13.06-17.91-19.56a99.45,99.45,0,0,1-11.19-15.47,21.78,21.78,0,0,0-3.2-4.18,23.87,23.87,0,0,1-3.68-5,7.91,7.91,0,0,0-.85-1.08c-.26-.28-.55-.66-1-.54s-.41.61-.43,1a2.54,2.54,0,0,0,0,.39c.54,4.22-.64,8.33-1,12.49a43.07,43.07,0,0,1-1.9,9.68c-.6,1.88-1.14,3.83-1.68,5.75a3.15,3.15,0,0,1-2.59,2.28c-1.59.48-5.14-.92-5.83-2.46a20.44,20.44,0,0,0-3.22-4.4c-1.69-2.06-3.33-4.2-5.07-6.23a116.75,116.75,0,0,1-7-9.62c-1.26-1.82-2.39-3.72-3.66-5.53-.33-.47-.77-1.32-1.53-.89-.54.3-.35,1.1-.24,1.66.79,4.18,1.55,8.4,2.5,12.53,1,4.46,1.56,9,2.87,13.44a.42.42,0,0,1,0,.19c-.38,3.75.66,7.41,1,11.1.44,4.78.37,9.67,2,14.41a42.09,42.09,0,0,1,1.89,9.7A21.72,21.72,0,0,0,202.8,188a6.92,6.92,0,0,1,.48,2.67c0,3.75.1,7.51,0,11.26-.12,3.38-1.13,6.62-2,9.87a5.05,5.05,0,0,0-.33,1.52c.54,9.72-1.3,19.37-.8,29.09,0,.92-.09,1.86,0,2.77.39,3.5-1.12,6.82-.91,10.32.07,1.07-.69,2.18-.78,3.39a1.69,1.69,0,0,1-1.82,1.5,1.9,1.9,0,0,1-2-1.61,1.06,1.06,0,0,1,0-.39c.54-4.68-.92-9.23-.83-13.88a42.2,42.2,0,0,0-1.4-9.78c-.37-1.7-.54-3.47-.79-5.18-.67-4.62-2.44-8.85-3.71-13.26a38.6,38.6,0,0,1-1.18-5.1,52.9,52.9,0,0,0-2.63-10.33,32.86,32.86,0,0,1-2.11-9.65c-.21-3.86-.73-7.72-1.29-11.57-.35-2.43-.88-4.85-1.11-7.32a38.79,38.79,0,0,0-1.21-7.25c-.54-1.84-.48-3.83-.94-5.75-.86-3.57-1.49-7.2-2.2-10.81-.38-2-.85-3.92-1.08-5.93a58,58,0,0,0-1.77-8.94c-.54-1.94-.7-3.94-1.28-5.87-1.26-4.2-1.48-8.66-3-12.82a25.3,25.3,0,0,1-.73-4.2,64.7,64.7,0,0,1-1.13-6.73,68.42,68.42,0,0,0-1.23-8.83C164.64,93,165,90.51,165,88.15Z" transform="translate(-18.08 -17.77)"/><path d="M29.75,28.24c2.45-.27,5.41.45,8.31-.67a4.24,4.24,0,0,1,3.82.4,3.2,3.2,0,0,0,1.93.27c4.29-.14,8.29,1.23,12.41,2.13,4.76,1.05,9.3,2.72,13.93,4.16a32.64,32.64,0,0,1,5.6,2.22c2.57,1.39,5.44,2,7.92,3.76,1.83,1.29,2.81,3.08,4.06,4.65C91.61,50.06,93.19,56.1,94.8,62c.88,3.23,1.66,6.8,1,10.27-1.14,5.68-2.82,11.15-7.59,15-.81.66-1.9.87-2.57,1.77-.51.68-.53,1.24.17,1.66,3.78,2.29,6.35,5.87,9.48,8.85,2.46,2.34,4.18,5.31,6.13,8.07,1.46,2.08,3,4.09,4.36,6.24a49.72,49.72,0,0,1,5.68,11.77c1.19,3.82,2.21,7.71,3.08,11.62.38,1.69.26,3.47.85,5.18a73,73,0,0,1,1.94,7.32,37.71,37.71,0,0,1,1.21,6.27c.25,4,1.58,7.74,2.62,11.54s2.46,7.77,3.69,11.66c.74,2.35,1.39,4.72,2.17,7s.1,5.05-1.67,5.72-3.41-.13-4.68-1.28a29.57,29.57,0,0,1-5.65-7c-3.83-6.55-7.18-13.34-10.78-20a52.23,52.23,0,0,0-4.16-7.08c-1.71-2.25-1.92-5.22-2.59-7.91-.56-2.25-1.15-4.51-1.73-6.76-.69-2.69-1.34-5.41-2.29-8-2.07-5.66-4.35-11.19-8-16.17-3.39-4.66-8-7.56-12.68-10.49-2.46-1.53-5-2.75-7.57-4.11-2.14-1.15-2.73-.92-2.27,1.47.77,4,.2,8,.83,11.9s.64,7.9,1.48,11.77c1,4.75,1.36,9.62,2.43,14.34a28.72,28.72,0,0,0,2.57,8c1,1.69-.29,4.17-2.14,4.7A39.76,39.76,0,0,1,56.58,157c-2,0-3.8-.82-5.75-1-3.66-.36-6.27-2.56-8.68-5.19a9.7,9.7,0,0,1-2.71-6.14c-.14-5.23-2.07-10-3.1-15-.75-3.68-1.72-7.3-2.56-10.95-.6-2.58-1.41-5.1-2.12-7.65a2.12,2.12,0,0,1-.16-.77c.5-3.37-.46-6.66-.94-9.9-.68-4.58-1.25-9.23-2.79-13.66a28.34,28.34,0,0,1-.87-4.57c-.63-3.58-1.82-7-2.31-10.6-.28-2.06-.68-4.09-1-6.15-.38-2.61-.73-5.23-1.35-7.82-.44-1.81-.53-3.71-.9-5.57-.68-3.36-1.53-6.67-2.24-10a41.65,41.65,0,0,1-.95-11.68c0-.67.27-1.11,1-1.24,2.31-.38,4.56-1.11,7-.84A35.32,35.32,0,0,0,29.75,28.24ZM60.94,73c1.58,0,2.83.09,4.08,0a9.53,9.53,0,0,0,7.79-5.06,2.3,2.3,0,0,0-.83-3.3c-6.11-3.24-12.39-5.91-19.58-4.95a2.21,2.21,0,0,0-2.12,2.14c-.26,1.54.82,2.74.81,4.19,0,3,1.73,4.89,4.19,6.35C57.22,73.46,59.28,72.68,60.94,73Z" transform="translate(-18.08 -17.77)"/><path d="M431.24,217.68c4.07-.38,7.8,1.15,11.45,2.45a14.74,14.74,0,0,1,5.82,4.13c2.05,2.28,4.61,4.1,6.8,6.27a24.88,24.88,0,0,0,5.34,4.19c2.16,1.18,2.89,3.47,3.28,5.6.58,3.24,1.11,6.58.28,9.87a113.19,113.19,0,0,1-3.41,12.38,92.45,92.45,0,0,1-3.69,9c-1.19,2.37-1.62,5.13-2.29,7.74s-2.3,5.07-3.41,7.61c-.89,2-1.87,4-2.78,6-3.72,8.16-4.95,17-7.48,25.48a25.72,25.72,0,0,0-.72,7.71,7.89,7.89,0,0,1-.06,1c-.69,6.15-2.44,12.06-4,18-1,3.95-1.85,8.07-4.7,11.06-2.59,2.73-2.74,6.22-4.15,9.29-1.09,2.4-1.82,5-3.5,7.15s-3.87,1.75-6,1.52c-3.77-.41-5.43-3.29-6.35-6.47a25.08,25.08,0,0,1-.46-11.61,38.42,38.42,0,0,0,1.1-8.46c-.08-2.21.92-4.49,1.59-6.69a47.4,47.4,0,0,0,1.72-12c.07-2.05.65-4.07.78-6.18a91,91,0,0,0,0-14c-.22-2.34-.62-4.67-1-7a22.69,22.69,0,0,0-2.05-6.32c-1.48-2.93-4.05-4.49-6.47-6.34a22.77,22.77,0,0,1-8.11-10.59c-1.29-3.63-2.7-7.2-3.66-11-.84-3.32-.2-6.62-.28-9.92-.12-4.34,1.29-8.25,3.11-12.18a118.38,118.38,0,0,1,7.83-13.67c1.44-2.27,3.53-3.87,5.4-5.64,5.26-5,11.82-7.4,18.92-8.42A9.12,9.12,0,0,1,431.24,217.68Zm3.21,22.06a9.36,9.36,0,0,0-6.34,3.1c-1.82,2.16-2.51,4.85-3.12,7.68a10.17,10.17,0,0,0,1.6,8.15,5.34,5.34,0,0,0,5.76,2.62c2.55-.31,3.65-2.34,5.25-3.83a11.62,11.62,0,0,0,3.81-10.22C440.9,242.17,438.89,240.31,434.45,239.74Z" transform="translate(-18.08 -17.77)"/><path d="M496.75,100.13c5.67.28,11.27.74,16.61,3.06a22.49,22.49,0,0,1,9.44,7.22c3.47,4.72,6.94,9.47,8.79,15.12,3.36,10.28,1.65,19.59-5.68,27.67a37.3,37.3,0,0,1-6.2,5.79,14,14,0,0,1-13.88,1.64,6.09,6.09,0,0,1-3.2-6.52c.62-2.5,1.29-2.92,3.86-2.63a3.19,3.19,0,0,0,3.67-2,24.51,24.51,0,0,0,1.9-7.62c.32-3.38-3-7.74-6.65-9.3-4.06-1.72-7.1-1.13-10.1,1.86a4.63,4.63,0,0,0-1.36,3.17,54.55,54.55,0,0,0,3.4,23.44c2.21,5.74,2.49,11.64,1.89,17.66-.11,1.11-.41,2.2-.49,3.32-.64,8.71-5.63,14.42-12.72,18.83a56.44,56.44,0,0,1-17,6.76,15.77,15.77,0,0,1-7,.12,54.72,54.72,0,0,1-13.16-4.43,30.88,30.88,0,0,1-11.9-10.17,5.81,5.81,0,0,1-.84-2c-.83-3.19-1.54-6.41-2.52-9.55-.78-2.49-.11-4.72.33-7.13.65-3.62,2-7.07,2.48-10.7s2.89-5.67,5.18-7.89c.87-.86,1.41.34,1.64,1a34.33,34.33,0,0,1,2.12,7.37,25,25,0,0,0,1.61,5.89,7.94,7.94,0,0,0,8.5,5c7.31-.88,11.43-6.93,11.52-14a22.1,22.1,0,0,0-1.39-7.34,54.35,54.35,0,0,1-2.71-18.27c.06-4.06-.26-8.12.6-12.13a30.09,30.09,0,0,1,3.59-8.51c.75-1.34,2.15-1.88,3.19-2.85,2.55-2.34,4.66-5.11,7.45-7.26,4.93-3.8,10.46-5,16.51-4.76Z" transform="translate(-18.08 -17.77)"/><path d="M364.31,58.2c3.31-.83,6.51.31,9.39,1.67a23.11,23.11,0,0,1,6.7,4.68c3.25,3.33,6.34,6.89,10.85,8.6,4.06,1.55,8.13,3.2,12.62,2.94,3.94-.23,7.81.64,11.68,1s7.83.59,11.19,2.89c4.84,3.31,9.32,6.77,11.31,12.78,1.11,3.37,2.64,6.65,2.06,10.19-.88,5.4-1.52,10.9-5,15.58-1.53,2.08-2.39,4.65-3.59,7a40.66,40.66,0,0,1-7.07,9.79c-2.14,2.23-3.56,2.41-5.89,1-2-1.16-3.43-4.34-2.56-6.31,1.05-2.39.81-4.86.49-7.18-.4-2.83-1.09-5.67-3.58-7.79a11.71,11.71,0,0,0-9.47-2.8c-1.57.19-3.15,4-2.28,5.81s.66,3.67,1.22,5.49c.71,2.35,1.46,4.69,2.29,7,1.45,4,3.41,7.85,4.2,12.12.48,2.6,1.64,5.07,2.07,7.67.69,4.18,1.76,8.47.84,12.64a40,40,0,0,1-5.53,12.65,12.85,12.85,0,0,1-6,5.13,9.36,9.36,0,0,1-9.24-1.67,31.65,31.65,0,0,0-3.78-3.16c-3.09-2.17-4.17-5.34-5.31-8.77-2.19-6.53-1.75-13.23-2.38-19.89-.47-5-1.16-10-.44-14.85.92-6.12.38-12.18.55-18.25.11-4.42-1.44-8-6.06-9.82-3.51-1.36-7-2.69-10.51-4.12a23.78,23.78,0,0,1-8.72-6.65c-1.75-2-3.65-3.9-5.33-6-1.83-2.29-2.61-4.93-3.8-7.44-2-4.25-.68-10.82,2.13-14.58,3-4.06,7.32-5.71,11.69-7.26C360.64,57.75,362.51,58.2,364.31,58.2Z" transform="translate(-18.08 -17.77)"/><path d="M300.55,113.05c-.76,3.58.55,7.83,1,12.1a34.18,34.18,0,0,0,2.51,9.13,103.38,103.38,0,0,0,4.26,9.85c1.71,3.28,4.75,4.69,9.16,4.13,2.38-.31,5-3.11,5.87-5.79a36.66,36.66,0,0,0,1.37-16.08c-.41-3.53-.08-7.11-.76-10.52-.58-2.88-.16-5.79-.78-8.54-.5-2.2-.29-4.53-1.25-6.67-.4-.89-.15-2.07-.19-3.13a5.22,5.22,0,0,0-.51-2.86,1.77,1.77,0,0,1,.53-2.45c.87-.73,1.37,0,2,.41,4,2.63,7.48,5.9,11.29,8.7,5.8,4.28,8.54,10.2,11,16.46.87,2.17,1.66,4.37,2.46,6.56.73,2,.93,4.18,1.52,6.2,1.11,3.85.65,7.7.6,11.53a44.69,44.69,0,0,1-1.4,10.77,3.52,3.52,0,0,0-.09,1.17c.27,3.34-1.25,6.35-1.8,9.54a29.19,29.19,0,0,1-4.47,10.35c-2.29,3.66-5.31,6.48-9.88,7.42-2,.41-4.16,1.19-5.95.54-2.79-1-5.66-.69-8.46-1.2-6.16-1.12-11.6-3.83-17.08-6.5a24.88,24.88,0,0,1-7.18-5c-.7-.74-1.7-1-2.39-1.68A25.84,25.84,0,0,1,284.75,157c-.78-2.32-2-4.53-2.51-7-1-4.88-2.29-9.78-.65-14.8a4.84,4.84,0,0,0,.12-1.57c-.11-3,1-5.74,1.34-8.6.47-4,2.07-7.74,2.76-11.72.72-4.15,1.38-8.56,3.84-12.17,2.3-3.4,3.91-5,7.47-3.19a2.59,2.59,0,0,1,1.2,1.2,17.28,17.28,0,0,1,2.23,8.39C300.56,109.11,300.55,110.69,300.55,113.05Z" transform="translate(-18.08 -17.77)"/><path d="M390.13,210.12c.61,7.15-1.1,12.79-2,18.57-1,6.13-3.18,11.93-4,18-.45,3.33-1.83,6.53-1.81,9.77s-1.84,6.19-1.17,9.46a1.4,1.4,0,0,1-.13.77c-1.38,3.32-1.26,6.94-1.77,10.39a66.91,66.91,0,0,0-.78,10.62,8.5,8.5,0,0,1-1.25,4.72c-.9,1.36-2.82,1.19-4.33,1.32a15.64,15.64,0,0,1-13.37-5.3c-2.32-2.52-3.47-5.8-4.62-9-1.23-3.45-1.3-7-1.75-10.58a2,2,0,0,1,0-1c1.39-3.46,1.23-7.2,1.92-10.78a27,27,0,0,0,.63-7.13,2.27,2.27,0,0,1,0-.78c1.1-3.38.56-7,1.9-10.39a7.16,7.16,0,0,0,.52-3.65c-.16-1.27,1.16-2.2,1.49-3.52,1.65-6.58,3.27-13.17,5.29-19.64a92.77,92.77,0,0,1,4.26-10.85,45.68,45.68,0,0,1,3.48-6.51c2.36-3.47,5-3.06,7.74-1.6s4.34,3.81,6,6.1C388.88,202.69,389.16,207.17,390.13,210.12Z" transform="translate(-18.08 -17.77)"/><path d="M144.44,148.71c0,4.69-.3,8.86-2.29,12.76a4.21,4.21,0,0,1-4,2.56c-3.85.18-7.34-.42-10-3.44A16.08,16.08,0,0,1,124,150.31c-.05-1.43.1-2.84-.62-4.23a3.74,3.74,0,0,1-.12-2.52c.77-2.87.6-6.09,2.37-8.56,1.48-2.05,1.89-4.85,4.69-6,5.07-2.14,10.21.08,11.8,5.22a71.12,71.12,0,0,1,2.28,14.52Z" transform="translate(-18.08 -17.77)"/><path d="M360,198.45c-.12,4.42-1.3,7.78-4.09,10.4-4.94,4.63-10.44,8-17.61,7.14a11.9,11.9,0,0,1-2.51-.51c-3.77-1.33-4.84-4.47-2.44-7.63,2-2.62,3.54-5.53,5.51-8.17,2.61-3.51,5.49-6.73,9.34-8.93a6.85,6.85,0,0,1,9.39,2.05C358.94,194.7,360.16,196.6,360,198.45Z" transform="translate(-18.08 -17.77)"/></g></g></svg>