<?xml version="1.0" encoding="UTF-8" standalone="no"?>
<!-- Created with Keyshape -->
<svg xmlns="http://www.w3.org/2000/svg" xmlns:xlink="http://www.w3.org/1999/xlink" shape-rendering="geometricPrecision" text-rendering="geometricPrecision" viewBox="0 0 640 480" style="white-space: pre;">
    <g id="logo-88" fill="#000" transform="translate(320,240) scale(3,3) translate(-269,-67)">
        <path id="logo" d="M242.627,88L279.476,88L279.476,86.0622L242.627,86.0622L242.627,88ZM246.733,81.0039L244.93,81.0039L244.93,82.566L246.758,82.566C247.489,82.566,247.891,82.2869,247.891,81.7908L247.891,81.7669C247.891,81.3066,247.525,81.0039,246.733,81.0039M247.55,78.5953C247.55,78.1234,247.172,77.8689,246.477,77.8689L244.93,77.8689L244.93,79.3578L246.416,79.3578C247.135,79.3578,247.55,79.1158,247.55,78.6199L247.55,78.5953M242.627,75.9808L247.001,75.9808C248.074,75.9808,248.829,76.2467,249.328,76.7311C249.67,77.0824,249.877,77.5302,249.877,78.1107L249.877,78.1353C249.877,79.1158,249.316,79.6969,248.561,80.0236C249.597,80.3622,250.255,80.9439,250.255,82.0935L250.255,82.1175C250.255,83.5702,249.061,84.4534,247.025,84.4534L242.627,84.4534L242.627,75.9808M251.975,80.7376L251.975,75.9805L254.363,75.9805L254.363,80.6891C254.363,81.9119,254.984,82.4929,255.935,82.4929C256.898,82.4929,257.519,81.9358,257.519,80.7496L257.519,75.9805L259.907,75.9805L259.907,80.6769C259.907,83.4007,258.335,84.611,255.911,84.611C253.498,84.611,251.975,83.3887,251.975,80.7376M265.978,80.0476C266.77,80.0476,267.245,79.6602,267.245,79.0432L267.245,79.0186C267.245,78.3408,266.746,78.0022,265.965,78.0022L264.406,78.0022L264.406,80.0476L265.978,80.0476ZM262.042,75.9808L266.075,75.9808C267.379,75.9808,268.281,76.3194,268.853,76.8886C269.353,77.385,269.609,78.0266,269.609,78.8618L269.609,78.8857C269.609,80.1933,268.914,81.0524,267.854,81.5003L269.889,84.4534L267.172,84.4534L265.454,81.8876L264.406,81.8876L264.406,84.4534L262.042,84.4534L262.042,75.9808ZM271.256,80.2416L271.256,80.217C271.256,77.7484,273.206,75.8111,275.837,75.8111C277.336,75.8111,278.396,76.2589,279.298,77.0339L277.909,78.7042C277.3,78.1957,276.703,77.9051,275.85,77.9051C274.619,77.9051,273.669,78.922,273.669,80.217L273.669,80.2416C273.669,81.6211,274.631,82.6021,275.984,82.6021C276.569,82.6021,277.007,82.4807,277.348,82.2508L277.348,81.222L275.679,81.222L275.679,79.5026L279.59,79.5026L279.59,83.3039C278.689,84.0543,277.446,84.6235,275.886,84.6235C273.23,84.6235,271.256,82.8076,271.256,80.2416M225,58.2496L269.889,58.2496L269.889,56.312L225,56.312L225,58.2496ZM227.547,48.2271L225,48.2271L225,46.1698L232.47,46.1698L232.47,48.2271L229.911,48.2271L229.911,54.6424L227.547,54.6424L227.547,48.2271ZM234.299,54.6422L236.663,54.6422L236.663,46.1695L234.299,46.1695L234.299,54.6422ZM238.285,46.1697L240.917,46.1697L242.854,51.5319L244.804,46.1697L247.387,46.1697L243.926,54.7035L241.733,54.7035L238.285,46.1697ZM254.883,50.4305L254.883,50.4059C254.883,49.1716,254.006,48.1185,252.702,48.1185C251.398,48.1185,250.533,49.1591,250.533,50.3819L250.533,50.4059C250.533,51.6287,251.422,52.6938,252.726,52.6938C254.018,52.6938,254.883,51.6528,254.883,50.4305M248.12,50.4305L248.12,50.4059C248.12,47.9732,250.094,46,252.726,46C255.358,46,257.308,47.9493,257.308,50.3819L257.308,50.4059C257.308,52.8391,255.333,54.8123,252.702,54.8123C250.07,54.8123,248.12,52.8637,248.12,50.4305M259.26,46.1697L261.623,46.1697L261.623,52.5849L265.754,52.5849L265.754,54.6423L259.26,54.6423L259.26,46.1697ZM267.571,54.6422L269.936,54.6422L269.936,46.1695L267.571,46.1695L267.571,54.6422ZM256.975,73.07L313,73.07L313,71.1323L256.975,71.1323L256.975,73.07ZM256.975,60.9903L259.607,60.9903L261.544,66.3526L263.494,60.9903L266.077,60.9903L262.617,69.5242L260.423,69.5242L256.975,60.9903ZM271.575,65.0577C272.367,65.0577,272.842,64.6698,272.842,64.0528L272.842,64.0282C272.842,63.3509,272.343,63.0118,271.563,63.0118L270.003,63.0118L270.003,65.0577L271.575,65.0577ZM267.639,60.9904L271.672,60.9904C272.976,60.9904,273.878,61.329,274.451,61.898C274.95,62.3946,275.206,63.0362,275.206,63.8714L275.206,63.8953C275.206,65.2029,274.512,66.062,273.451,66.5099L275.486,69.4635L272.769,69.4635L271.051,66.8972L270.003,66.8972L270.003,69.4635L267.639,69.4635L267.639,60.9904ZM277.133,60.9903L283.994,60.9903L283.994,62.9752L279.473,62.9752L279.473,64.2706L283.567,64.2706L283.567,66.1227L279.473,66.1227L279.473,67.4662L284.054,67.4662L284.054,69.4635L277.133,69.4635L277.133,60.9903ZM288.37,63.0598L288.37,67.3816L289.332,67.3816C290.758,67.3816,291.697,66.6066,291.697,65.239L291.697,65.2144C291.697,63.8594,290.758,63.0598,289.332,63.0598L288.37,63.0598ZM286.006,60.9904L289.308,60.9904C292.342,60.9904,294.109,62.7332,294.109,65.1783L294.109,65.2029C294.109,67.6481,292.318,69.4635,289.259,69.4635L286.006,69.4635L286.006,60.9904ZM296.073,60.9903L302.933,60.9903L302.933,62.9752L298.413,62.9752L298.413,64.2706L302.507,64.2706L302.507,66.1227L298.413,66.1227L298.413,67.4662L302.994,67.4662L302.994,69.4635L296.073,69.4635L296.073,60.9903ZM304.946,60.9903L307.151,60.9903L310.661,65.4689L310.661,60.9903L313,60.9903L313,69.4635L310.941,69.4635L307.285,64.8151L307.285,69.4635L304.946,69.4635L304.946,60.9903Z" fill="none" stroke="#ffffff" stroke-width="0.4"/>
    </g>
</svg>
