<svg xmlns="http://www.w3.org/2000/svg" viewBox="0 0 926.88 1098.76"><defs><style>.cls-1{fill:#fff;}</style></defs><title>Asset 2</title><g id="Layer_2" data-name="Layer 2"><g id="Layer_1-2" data-name="Layer 1"><path class="cls-1" d="M764.45,560.64c40.46-1.46,80.22-5.78,118.76-19.83-3.8-2.35-7.52-5-11.52-7a132.88,132.88,0,0,1-34.62-25.17c-7-7.14-13.69-14.49-20.53-21.73-4.11-4.35-7.93-9-12.39-13-10.81-9.59-18.94-21.48-28.44-32.18-9.34-10.51-19.42-20.41-29.69-30-23.89-22.33-47.8-44.59-65.75-72.29-.78-1.21-.53-3.09-.77-4.66,1.44.4,3.32.36,4.24,1.28,4.48,4.5,8.66,9.3,13,13.92q15.42,16.31,30.91,32.52c5.1,5.31,10.23,10.6,15.57,15.65,7.59,7.19,15.91,13.68,23,21.31,14.85,16,29,32.57,43.63,48.77,6.34,7,13.33,13.47,19.57,20.58,11,12.55,23.82,23,37.28,32.76,6.06,4.37,12,9.15,18.65,12.39,9.82,4.79,20.33,7.2,31.09,2.4,2-.91,5.2-.4,5.43-4,.21-3.32-1.84-5.16-4-7.18-5.67-5.4-11.15-11-16.79-16.42-3.86-3.72-7.88-7.26-11.78-10.93-12.79-12-25.12-24.46-39.94-34.27-8.09-5.35-14.51-13.2-21.68-19.93-9.18-8.6-18.3-17.28-27.57-25.79-7.14-6.57-14.42-13-21.72-19.36-6-5.25-12.13-10.32-18.14-15.54-2.44-2.12-2.78-5-3.63-8.08-2.6-9.37.52-18.27.74-27.36a4.28,4.28,0,0,1,.2-1.48c3.6-8.84.69-17.55-.15-26.38-.51-5.37-1-10.4-4.2-14.93-.75-1-.5-2.91-.43-4.39A72,72,0,0,0,750.37,277c-.77-2.71-.12-5.85,0-8.78.27-5.82.91-11.63.89-17.44,0-8.33.07-16.72-.93-25s-2.82-16.72-8.49-23.39c-4-4.7-5-10.29-5.43-16-.56-6.68-3-12.31-6.66-17.9-3.46-5.28-6.74-11-5.58-18,.23-1.41-1.67-3.26-2.77-4.77s-2.66-3.11-4-4.69c-.55-.67-.94-1.47-1.52-2.11-3.81-4.17-7.67-8.29-11.45-12.48a18.13,18.13,0,0,1-3.15-4.15c-4.11-8.82-10.11-16.12-16.78-23.15a281.16,281.16,0,0,1-22-25.93c-3.57-4.82-8.32-7.72-12.66-11.35-8.34-7-17.24-13.09-27.32-17.36a5,5,0,0,1-1.59-1c-8.62-8.41-20.08-11.16-30.74-15.53-4.4-1.81-8.51-4.41-13-5.9-8-2.64-16.38-4.13-24.19-7.17-10-3.91-20.81-3.45-31-6.28a13.33,13.33,0,0,0-3-.24c-5.45-.19-10.91-.38-16.36-.52-1.37,0-2.91-.31-4.08.2-9.49,4.15-19.33,1-28.94,1.14s-19-2.51-28.56-2.94c-8.76-.38-17.82-.56-26.34,1.18a437.42,437.42,0,0,0-44.4,11.71c-17,5.37-34.2,10.66-49,20.9-8.26,5.71-15.78,12.59-23.07,19.54-9,8.59-17.07,18.22-26.28,26.58a104,104,0,0,1-20.16,13.84c-5.61,3-9.88,6.65-11.86,12.67-1.17,3.55-2,7.22-3.09,10.79-1.39,4.5-3,8.93-4.35,13.44a26.15,26.15,0,0,0-1.48,7.23c-.05,8.93-.34,17.79.9,26.79,1.08,7.73-.65,15.86-1.26,23.81-.8,10.43-1.83,20.82-.16,31.29C232,235,232.92,244,234,253c.25,2.09.66,4.74-2.3,5s-3.62-2.39-3.48-4.66c.37-6.2-1.21-11.9-2.84-17.85a76.26,76.26,0,0,1-2.21-20.69c.15-16.43.35-32.9,1.69-49.26,1-11.9.68-24.06,5.92-35.5,2.9-6.35,3.85-13.61,5.56-20.49a14.58,14.58,0,0,1,9.44-10.82c13.43-4.86,22.42-15,31.85-25,11.67-12.43,23.92-24.39,36.73-35.62,5.46-4.8,12.83-7.56,19.59-10.69a190.24,190.24,0,0,1,21.84-8.76c11.81-3.79,23.83-6.95,35.77-10.34,7-2,13.84-4.43,20.93-5.63,9-1.53,18.27-2.84,27.4-2.68,8.12.15,16.19,2.55,24.32,3.7,5.42.76,10.89,1.19,16.36,1.54C491,5.93,501.53,6.47,512,7c7.89.41,15.79.73,23.69,1.09a8.17,8.17,0,0,1,1.49.1l22.41,5.36c3.26.79,6.51,1.61,9.76,2.41a18.32,18.32,0,0,1,2.9.7c11.17,4.83,22.4,9.55,33.47,14.6,13.74,6.27,26.41,14.38,39.07,22.6,10.82,7,20.33,15,27.43,25.87,1.69,2.58,4.1,4.69,6.09,7.09,8,9.69,16,19.35,23.9,29.15a70.11,70.11,0,0,1,5.3,8.58c4.53,7.75,9.68,15,16.81,20.62a11.92,11.92,0,0,1,3.4,5.25c2.36,6.87,4.29,13.9,6.65,20.78,2,6,4.69,11.71,6.63,17.7,2.71,8.38,7.21,16,10.25,24.11A84.14,84.14,0,0,1,757,247.94c-.87,14.44-3.2,28.93.11,43.5,1.41,6.22.82,12.74,4.22,18.72,1.33,2.33.11,6.07.22,9.16q.18,5.22.68,10.43c.54,5.56.1,11.13.17,16.61.08,6.51-2.33,11.78-4.06,17.49-1.65,5.41-1.42,6,2.86,9.81,2,1.81,3.41,4.3,5.38,6.17,7.68,7.29,15.54,14.39,23.21,21.69,3.15,3,5.86,6.46,9,9.53,15.13,15,30.27,30,45.56,44.85a72.08,72.08,0,0,0,11.44,9C868.49,473,879,483.64,890,493.81q14.1,13.08,27.89,26.51a51.17,51.17,0,0,1,7.21,9c3.26,5.09,1.84,5.71-2.7,9.37-5.42,4.38-11.57,5.1-17.65,6.27-4.36.84-9,0-13.59,0a27,27,0,0,0-6.92.58c-10.06,2.77-19.91,6.45-30.1,8.52-20.17,4.1-40.55,6.94-61.21,7-8.59,0-17.18.11-25.77.12A15.17,15.17,0,0,1,764.45,560.64Z"/><path class="cls-1" d="M157.86,382.74c-.58,2.32-1.46,4.23-1.47,6.15-.09,11.24-5.87,20-11.89,28.79a13.62,13.62,0,0,0-1.67,4.11,78.35,78.35,0,0,0,3.71,53.46c4.26,9.67,12.34,16.68,22.15,21.36,1.52.72,3.78,3.22,3.48,3.84-.85,1.76-2.7,4-4.4,4.21-4.35.56-5.9,2.72-6.29,6.77a44.14,44.14,0,0,1-2,9.13c-.82,2.53.13,3.47,2.27,4.53A42.82,42.82,0,0,0,185,529.67a22.24,22.24,0,0,1,5.59.06c1.3.22,3.16.9,3.54,1.85a4.61,4.61,0,0,1-1,4c-5.14,5.09-11,8.15-18.56,5.61-2.4-.82-4.88-1.41-8.33-2.39,3.16,8.12,3.13,16.29,8.89,22.15a21.25,21.25,0,0,0,15.73,6.6c1.54,0,3.08.8,4.62,1.24-.79,1.4-1.51,2.85-2.4,4.18a2.3,2.3,0,0,1-1.08.71c1.85,4.6,3.27,8.7,5.12,12.6a31,31,0,0,0,16,15.32l.91-.78c-1.06-1.59-2.25-3.11-3.15-4.78-2.67-4.91-5.42-9.79-7.68-14.89-.54-1.2.71-3.2,1.14-4.83,1.39.77,3.2,1.21,4.09,2.36a35,35,0,0,1,4.56,7.7,37.58,37.58,0,0,0,10.75,14.09c7.35,6.33,15,11.9,24.42,14.76,2,.6,3.5,1.07,5.26-1,2-2.31,4.66-1.2,6.12.84,3.09,4.35,6.82,4,10.83,2,3.61-1.82,6.32-2.19,8.58,2.14,1.47,2.81,6.66,3,10.22.86,2.88-1.73,5.61-3.71,8.46-5.49.68-.42,2-.86,2.29-.58a4,4,0,0,1,.85,2.59,5.47,5.47,0,0,1-.78,2.82c-4,6.4-15.4,9.38-22.13,5.82-1.66-.88-3.22-2-5.53-3.38-3.06,1-7.84,3.43-12.86,4.08a32.93,32.93,0,0,1-14.26-1.25c-7.66-2.53-15.14-5.91-20.41-12.58a5,5,0,0,0-1.68-1.46c-4.66-2.2-9.86-3.65-13.94-6.64-6.94-5.09-14.25-10.14-16.56-19.47-.62-2.48-2.66-4.62-4.08-6.89-.26-.41-1-.69-1-1.08-.4-4.61-4.24-4.38-7.29-5.25-8.81-2.51-14.35-8.12-16.49-17.1-1.07-4.48-2.14-9-3.55-13.36-.66-2-2.11-3.84-3.23-5.73-.25-.42-.94-.89-.86-1.17,1.48-4.89-3.88-8.88-1.55-14.13,1.37-3.08,1.54-6.81,1.74-10.27.27-4.79.71-9.17,6.25-9.35-5.14-4.2-10.66-8.15-15.46-12.83a32,32,0,0,1-7.57-10.85c-7.42-19.12-7.69-38.71-2.45-58.42a18.56,18.56,0,0,1,2.94-5.53c3.21-4.59,6.92-8.87,9.75-13.67,1.57-2.66,1.86-6.11,2.55-9.24.43-1.93.37-4,.82-5.88.65-2.78-.45-3.71-3-4.85a52.43,52.43,0,0,1-11.21-7c-2.28-1.81-1.14-5.13,2-5.49,3.73-.44,4.89-2.29,6.93-5.42,3.52-5.42,3.22-11.27,4.66-16.85,1.62-6.26,4.58-10.93,10.63-13.5,7.56-3.23,15.07-6.58,22.64-9.82a10.41,10.41,0,0,0,6.28-6.45,25.77,25.77,0,0,1,3.35-5.8c1.77-2.56,4-4.85,5.5-7.55,2.29-4.11,3.72-8.74,6.26-12.67,2.45-3.78,5.84-6.95,8.45-11.1-1.75.37-3.5,1.08-5.25,1a106.27,106.27,0,0,1-12.48-.92c-1-.13-1.75-1.72-2.62-2.64,1.07-.62,2.14-1.76,3.23-1.78,8.49-.19,15.85-3.75,23.24-7.34a70.08,70.08,0,0,1,9.95-4.26c3.38-1,5.06-3.12,6.42-6.16.86-1.93,2.68-3.44,4.07-5.13-.37,2.12-.37,4.39-1.16,6.35-2.64,6.61-7.59,11-14.19,13.52-2.55,1-5,2.12-7.84,3.31,2.7,4.07,1.13,7.28-2.29,9.86-5.52,4.15-8.72,9.58-10.59,16.23-1,3.48-3.55,6.52-5.4,9.76-1.48,2.59-3.28,5.06-4.36,7.81a15.62,15.62,0,0,1-8.45,9c-7.74,3.44-15.45,7-23.32,10.1-4.13,1.64-6.21,4.36-7.58,8.48-3.14,9.42-2,18.46,1.7,27.33,1,2.47,2.89,4.61,4.44,6.85.92,1.32,2.25,2.43,2.87,3.87a3.61,3.61,0,0,1-.38,3.29,3.71,3.71,0,0,1-3.33.15C160.75,385.37,159.53,384.07,157.86,382.74Zm44.63-107.4c4.84,2.41,9-.35,13.42-1.79Z"/><path class="cls-1" d="M716.79,521.75c2.87.88,5.28,1.4,7.51,2.35A91.59,91.59,0,0,1,734.38,529a18.52,18.52,0,0,0,11.42,2.56c8.07-.73,16.17-1.18,24.26-1.59,1.46-.07,3,.63,4.44,1-.73,1.35-1.19,3-2.22,4-9.67,9.67-21.47,16.09-33.74,21.72-4.38,2-8.94,3.59-14,5.6.65,2.8,1.47,6.12,2.19,9.46.88,4.08-.13,5.91-4.2,6.8-3.55.78-7,.73-10.41-1.38-2.89-1.78-6.35-2.64-9.82-4-1.06,2.89-2.1,5.64-3.07,8.42-4.07,11.62-11.44,20.43-22.66,25.58-10.13,4.65-20.91,4.1-31.56,2.32a86.81,86.81,0,0,1-14.71-4.22c-1.65-.58-2.85-2.44-4.26-3.71,1.33-1.36,2.44-3.16,4-4,3.32-1.69,6.94-2.76,10.35-4.28a29.08,29.08,0,0,0,4.06-2.58c-6.08.33-12.35.58-18.6,1.07a7.27,7.27,0,0,0-4.33,1.71c-2.09,2.15-3.61,4.83-7.35,4.16-.35-.06-1,1.86-1.6,2.81s-1.18,1.69-1.77,2.53c-.72-.85-2.06-1.72-2-2.54a30.87,30.87,0,0,1,1.16-7.71,3.93,3.93,0,0,1,2.72-2.44c.91,0,1.94,1.45,2.75,2.42a7.74,7.74,0,0,1,.79,2.3c.7-.36,1.5-.51,1.66-.9,2.26-5.69,7.21-5.8,11.91-5.26,10,1.17,17.21-2.85,23.27-10.51,3.6-4.56,8.13-8.39,12.36-12.42.5-.49,1.73-.22,2.62-.3.06.91.53,2.12.12,2.68-9.74,13.18-18.08,28-36.56,30.89-1.25.2-2.41,1.06-4.42,2a32,32,0,0,0,4.36,2.5c12.36,4.29,25,5.72,37.91,3.23,6.82-1.32,12-5.58,16.46-10.49,11.81-13,16.06-28,11.44-45.2-.6-2.24-.84-4.55,2-5.11s3.91,1.72,4,3.9a128.48,128.48,0,0,1-.39,14.55c-.62,6.92,1,8.94,7.83,9.61,2.54.25,5,1.29,7.55,1.51s3.78-.81,2.61-3.66c-.81-1.94-.92-4.18-1.79-6.08-1-2.28-2.7-4.26-3.81-6.51a107.46,107.46,0,0,1-4.92-11,24.49,24.49,0,0,1-1.23-7.33c0-1.36.87-2.75,1.35-4.13,1.24.6,3.08.87,3.61,1.85,2.79,5.14,5.43,10.38,7.73,15.76,1,2.24,2.12,3.29,4.42,2.85a45.83,45.83,0,0,0,8-1.79c13.06-5,24.5-12.63,35.27-21.39a9.18,9.18,0,0,1,2-1l-.83-1.19c-3,.51-6,1-9,1.55-5.64,1-11.28,2-16.9,3.1-4.49.84-8.58-.18-12.67-2.1-5.29-2.47-10.84-4.38-16.14-6.82s-10.5-5.1-15.56-8a4.5,4.5,0,0,1-1.75-3.92c.32-1.11,2.27-2.35,3.57-2.42a6.79,6.79,0,0,1,4.64,1.7c2.67,2.61,5.49,2.6,8.13.7,7.33-5.3,15.4-9.75,20.2-18,1.86-3.2,4.75-5.78,6.83-8.87a73,73,0,0,0,4.06-7.87l-1.46-1c-1.53,1.3-3.18,2.48-4.58,3.91-6.21,6.34-12.37,12.76-20.58,16.56s-16.44,5-24.93,1.4c-1.1-.47-1.73-2.07-2.57-3.14,1-.79,2-2.25,3-2.26,12.31-.08,19.36-7.91,25.6-17l6.93-10.11c-6-2.31-11.27-4.52-16.7-6.43-3.78-1.32-6.7-3.09-7.32-7.51-.16-1.11-1.47-2.07-2.28-3.07-2.08-2.58-4.22-5.11-6.26-7.73a13.67,13.67,0,0,1-2.35-3.74c-1-2.83-2.34-5.8-2.2-8.65.16-3.37-.45-5.66-3.17-7.71a56.14,56.14,0,0,1-8-7.24c-1.71-1.89-2.09-4.51.45-6.21,2.2-1.46,3.84-.14,5.36,1.71A42.59,42.59,0,0,0,692,420a12,12,0,0,1,4.92,7.53c1,4.48,2.51,8.84,3.85,13.24,1.51,5,5,7.47,10.06,8.23,2.07.31,4.41.64,6,1.81a9,9,0,0,1,3.15,5.08c.81,4.16,3.13,6.8,7.35,7.24,6.09.63,7.9,2.89,4.64,8.07-5.07,8.05-11.28,15.39-17.09,23-.53.69-1.66.93-2.51,1.38l1.26,1.57c4.06-2.5,8.32-4.73,12.11-7.58,4-3,7.49-6.57,11.22-9.88,1.11-1,2.14-2.41,3.45-2.8,2.61-.79,5.89-2.06,7.93-1.1,1.64.78,2.49,4.54,2.57,7a15.13,15.13,0,0,1-4.77,11.79,8.78,8.78,0,0,0-1.43,1.73,62.77,62.77,0,0,1-26.13,23.89A13.08,13.08,0,0,0,716.79,521.75Z"/><path class="cls-1" d="M827,1098.76a18.14,18.14,0,0,1-1.06-3.64c-.84-10.28-1.4-20.59-2.44-30.85-.67-6.55-2.76-13-2.86-19.56a175.22,175.22,0,0,1,1.67-28.23,162,162,0,0,0,.78-36.89c-.55-6.81.34-13.73-.15-20.54-.74-10.41-2.18-20.76-3.19-31.15-1.1-11.39-2.39-22.78-3-34.21a172.43,172.43,0,0,0-6.51-37.1c-1-3.76-3.56-7.09-5-10.76-3.34-8.26-6.69-16.53-9.62-24.94a101.75,101.75,0,0,0-18.07-32.4c-1.6-1.91-4.45-2.72-6.37-4.44-5.26-4.71-10.29-9.69-15.5-14.47-5.76-5.26-11.55-10.51-17.47-15.59-2.59-2.22-6.12-3.56-8.23-6.11a119.9,119.9,0,0,1-9.53-14.08c-3.5-5.72-6.71-11.63-10.07-17.45a5,5,0,0,0-1.15-1.47c-12.33-9.78-23-22-38.45-27.3a129.78,129.78,0,0,0-20.38-5.18c1.07,1.82,2,3.7,3.22,5.45,6.9,10.28,11.88,21.43,16.33,33,4.11,10.68,7.7,21.33,8.34,32.76q1.11,20.16,1.65,40.35c.08,3.3-1,6.63-1.52,9.95s-.18,5.93,2.63,8.36c1.59,1.38,2.12,4,3.06,6.09a3.06,3.06,0,0,1,.05,1.48c-1,7.34.29,13.28,6.17,19s7.63,14,8.67,22.26c.51,4.13,2.8,8.07,4.51,12,1.84,4.19,3.91,8.28,5.94,12.38,2.37,4.76,4.8,9.5,7.22,14.24,1.62,3.18,3.5,6.25,4.86,9.53,3.44,8.26,6.9,16.53,9.89,25s5.33,16.82,7.92,25.26c.33,1.06.19,2.29.62,3.29,4.51,10.58,3.58,21.76,3.73,32.82a8.46,8.46,0,0,1-1.47,4.84,52.54,52.54,0,0,1-1.95-5,10.58,10.58,0,0,1-.38-3.71c1.32-17.72-4.64-34.15-9.34-50.72-2.49-8.78-6.89-17-9.8-25.68-2.1-6.24-4.8-11.9-9.19-16.84a18.63,18.63,0,0,1-3.29-6.27,98.94,98.94,0,0,0-10.06-21.17c-2-3.07-2.29-7.33-2.78-11.12A33.07,33.07,0,0,0,685,839.36c-4.26-3.92-6.2-8.09-5.59-13.81.48-4.57.91-9.31-3.64-13.32-1.13,4.38-2.2,8.5-3.27,12.63l-1.55-.13c0-2.17-.45-4.47.08-6.51,1.47-5.64,4.23-11.08,4.88-16.78a218.31,218.31,0,0,0,1.49-30.88c-.27-9.92-1.8-19.82-3.12-29.68-.47-3.53-1.85-6.94-3-10.35-1.07-3.19-2.68-6.22-3.49-9.46-2.58-10.37-8.27-19.16-14.17-27.76-5.2-7.56-10.84-14.86-16.76-21.88-4.56-5.42-10.29-9.88-14.71-15.4-6.52-8.14-12.38-16.83-18.42-25.36a5.68,5.68,0,0,1-.57-3.21,2.16,2.16,0,0,1,1.12-1.67c.42-.13,1.31.49,1.68,1,2.56,3.54,5.25,7,7.48,10.72,5.57,9.33,13.37,16.7,20.75,24.47,3.31,3.49,6.06,7.52,9.05,11.32,1.28,1.63,2.54,3.3,3.88,5,1-1.33,1.61-3.05,2.44-3.15s2.05,1.24,3.06,2c.29.22.45.67.77.8,4.36,1.83,8.59,4.28,13.14,5.29,11,2.46,21.24,6.18,29.78,13.8,3.35,3,6.51,6.28,10.2,8.78,8.81,6,13.13,14.87,16.22,24.43A32,32,0,0,0,739.53,750c1.82.92,3.19,2.71,4.81,4,8,6.64,16.4,12.91,22.79,21.37a23.21,23.21,0,0,0,7,6.07c10.44,5.86,15,16.17,19.36,26.21,4.48,10.22,7.53,21.07,11.48,31.55a39.32,39.32,0,0,0,5,9c4.48,6.17,6.51,13.27,7.5,20.53,1.69,12.46,2.62,25,3.93,37.53,1.18,11.25,2.63,22.49,3.59,33.76.65,7.54.78,15.14.94,22.72.16,7.33.28,14.67,0,22-.44,12.93-.15,26-2.08,38.73a109.19,109.19,0,0,0,.17,31.53c1.78,13.2,2.83,26.49,4.13,39.75a21.19,21.19,0,0,1-.31,3.87Z"/><path class="cls-1" d="M669.61,348.33c-.87-.91-1.19-1.09-1.18-1.25.42-6.2-4.28-8.59-8.35-11.68-11.61-8.82-22.93-18-34.64-26.74a117,117,0,0,0-16.52-10c-14.64-7.49-29.48-14.59-44.2-21.92-18.23-9.08-37.34-15.9-56.54-22.54-7.87-2.72-15.93-5.45-23.05-9.64-11.66-6.87-24.22-10.39-37.26-12.78-9.07-1.66-18.22-2.92-27.26-4.69-6.83-1.33-13.48-4-20.35-4.61-12.86-1.21-25.66-2.7-38.73-2.56s-26.44-2.94-39.7-4.09a27.06,27.06,0,0,0-12.26,1.76c-7.35,3-14.31,7-21.45,10.54a17.66,17.66,0,0,1-4.2,1.54c-4.58.93-7.91,3.28-11.57,6.45-4.31,3.72-8.85,7.4-13.34,11-.89.72-2.23.88-4.53,1.74.78-2.58.76-4.84,1.85-5.72,3.46-2.77,7.34-5,11-7.47,1.62-1.07,3.58-1.9,4.71-3.36,2-2.54,4.56-3.39,7.4-4.54,9-3.63,17.85-7.56,26.47-11.95a25.38,25.38,0,0,1,18-2.29,173.93,173.93,0,0,0,43.82,3.71c8.77-.3,17.6,1.81,26.41,2,10.68.17,20.48,4.13,30.74,6,12.26,2.2,24.54,4.33,36.79,6.6a54.61,54.61,0,0,1,20.16,8.59,99.68,99.68,0,0,0,29,12.67,136.64,136.64,0,0,1,16.28,5.5c14,5.81,28,11.82,41.91,17.9,15,6.54,29.94,13,44.71,20A94.18,94.18,0,0,1,631,306.7c11.67,8.94,22.91,18.45,34.34,27.72,3.31,2.68,6.12,5.61,5.28,10.38A35.68,35.68,0,0,1,669.61,348.33Z"/><path class="cls-1" d="M260.66,1034.44c-.55-2.87-1-5.76-1.65-8.6-1.87-8-3.22-16.12-5.88-23.82a326.53,326.53,0,0,1-13-48.57c-2.18-12.06-5.95-23.83-8.79-35.79-1-4.22-1.31-8.6-2-12.9A355,355,0,0,0,217,852.13c-2.72-8.53-4.53-17.33-7-26-1.22-4.29-3-8.44-4.46-12.67-3.86-11-7.34-22.18-11.72-33-2.5-6.16-6.77-11.57-9.69-17.59-3.86-7.94-7-16.17-7.69-25.16a38.08,38.08,0,0,0-2.08-9.08c-3.12-9.17-2.26-18.62-1.16-27.8.58-4.85,4-9.55,6.75-13.91a203.24,203.24,0,0,1,12.06-16.59,15,15,0,0,1,5.32-3.66c.58-.28,1.82.79,2.76,1.24a21.84,21.84,0,0,1-1.86,2.2c-.43.41-1.27.43-1.6.87-6.83,8.94-17.06,15.9-19.83,27.11-2,7.93-1.38,16.91-.09,25.13a206.13,206.13,0,0,0,8.14,32.09c2.09,6.38,6.19,12.09,9.18,18.21a103.25,103.25,0,0,1,4.38,10.66c4.47,12.53,9,25,13.18,37.66,2.07,6.25,3.34,12.75,5.13,19.1,2.83,10.06,6.41,20,8.56,30.17,2.89,13.75,4.73,27.72,7,41.6a15.42,15.42,0,0,0,.38,2.58c6.84,19.61,9.86,40,13.32,60.4.56,3.24,2.23,6.28,3.31,9.44,2,5.88,4.27,11.7,5.86,17.7,2.23,8.41,4,16.94,5.83,25.45.42,1.91.5,3.91.73,5.87Z"/><path class="cls-1" d="M0,816.07c.21-4.08,2.27-5.7,5.23-5.88,7.26-.43,12.63-4.69,17.24-9.35,8.92-9,17.08-18.82,25.64-28.21,6.47-7.09,13.06-14,19.62-21a6.33,6.33,0,0,1,2-1.62c9.08-3.73,15-11.32,21.94-17.69,4.83-4.4,10.81-7.51,16.11-11.43a100.86,100.86,0,0,0,8-7.08c1.74-1.6,3.11-3.83,5.12-4.85,4.32-2.21,5.71-6.28,7.78-10.08a52,52,0,0,1,6-8.88,147.92,147.92,0,0,1,11.55-12.2,34,34,0,0,1,8-5.34c7-3.49,14.22-6.49,21.15-10.06,6.19-3.2,12.72-4.24,19.52-4.29,3.48,0,7,0,10.44.19a13.69,13.69,0,0,1,2.87.76l.06,1.56c-2.64.49-5.27,1.31-7.93,1.4-6.35.24-12.7,0-18.77,2.45-14.4,5.73-28.28,12-39.11,23.87-5.38,5.92-10,12.28-15.07,18.39a87.93,87.93,0,0,1-18.14,16.46,157.56,157.56,0,0,0-25.46,21.29,27.44,27.44,0,0,1-4.43,4c-11,7.34-20.2,16.53-28.88,26.39-5,5.7-10.41,11.09-15.59,16.65-2,2.19-4.39,4.22-5.87,6.75-3.69,6.33-9.65,10.11-15.51,13.69C9.82,814.2,5,814.63,0,816.07Z"/><path class="cls-1" d="M413.71,761.12c2.52-4.13,6.46-5.39,11-6.23,10.28-1.88,20.39-4.79,30.71-6.4,16.41-2.55,32.55.68,48.58,3.79,6.79,1.33,12.41,5.18,17,10.36,8.13,9.28,16.31,18.51,24.1,28.06,8,9.79,13.84,20.73,15.57,33.48a31.49,31.49,0,0,1-.12,9.08c-.71-2.21-1.58-4.38-2.09-6.64-3.83-16.84-13.16-30.49-24.66-42.92-4.31-4.66-8.64-9.33-12.59-14.3-6.14-7.72-13.73-12.17-23.71-13.26-14.61-1.59-29.18-4.54-43.91-2.64-11.19,1.45-22.24,4-33.34,6.23-1.15.22-2.12,1.35-3.28,1.61a9.42,9.42,0,0,1-3.16-.33Z"/><path class="cls-1" d="M109.42,875.75l4.7-2.77c-2.48-1.38-4.13-2.18-5.65-3.17-2.79-1.8-4-4.56-2.26-7.38a38.55,38.55,0,0,1,6.65-7.47c.48-.45,2.56,0,3.07.62s.11,2.37-.51,3.09c-1.45,1.68-3.36,3-4.93,4.55-2,2-2.17,3.89.64,5.37.33.18.65.38,1,.59,4.35,3,4.41,3.27,1.47,7.22.31,4.28,5.06,7.43,2.39,11.89,4.67,4.85,9.4,9.44,8,17.11-.19,1.1.68,2.36,1,3.57a11.72,11.72,0,0,1,.45,3.2c-.16,2.8-.59,5.59-.67,8.39A3.08,3.08,0,0,0,126,923c2.89,1.6,3.14,4.11,2.48,6.78-.86,3.5-.15,6.43,1,9.91a100.48,100.48,0,0,1,5.17,25c.49,6.79,3.29,13.4,4.93,20.12.6,2.49.82,5.07,1.18,7.62.49,3.39.91,6.8,1.45,10.2.34,2.19.88,4.36,1.27,6.54.15.86-.2,2,.24,2.57,4.76,6.45,2.51,14.19,4,21.21.36,1.67.67,3.56,1.66,4.83,2.39,3.06,2.62,6.37,2.09,9.92-.28,1.85-.61,3.7-.93,5.54-1.14,6.47-1,12.6,3.72,18a17.69,17.69,0,0,1,3.12,6.31,6.17,6.17,0,0,1-2.29,7.28,25,25,0,0,1-1-2.48c-1-3.5-1.32-7.37-3-10.45a32.38,32.38,0,0,1-3.38-23.48c.82-3.86.09-7.18-1.28-11-2-5.58-1.79-11.92-2.62-17.92a29.31,29.31,0,0,0-1.23-4.77c-.22-.69-1-1.23-1.12-1.91-1.11-6.78-2.07-13.58-3.2-20.35-.38-2.26-1.1-4.47-1.67-6.69-1.88-7.32-4.75-14.55-5.4-22a134.15,134.15,0,0,0-5.59-26.79c-.66-2.21.24-4.86.33-7.32,0-1.31.39-3.23-.3-3.84-4.16-3.69-3.1-8.2-2.5-12.71a6.87,6.87,0,0,0-.07-2.17c-.56-2.77-1.17-5.54-1.81-8.29a18.09,18.09,0,0,0-1.26-4.66c-1.57-2.87-3.48-5.55-5.24-8.32a1.64,1.64,0,0,1-.34-1C115.39,883.66,112.87,880.08,109.42,875.75Z"/><path class="cls-1" d="M610.23,714.41c-3,11.17-5.86,20.84-8.1,30.65-5.18,22.69-10.34,45.39-14.9,68.21a235.7,235.7,0,0,0-3.6,30.36c-.58,8.66-.12,17.38-.12,26.29l4.93-1.4c.09.25.18.5.28.75l-8.44,3.28a18.44,18.44,0,0,1-.58-3.29,358.31,358.31,0,0,1,8.95-80.38c4.83-21,9.13-42.08,13.82-63.1a30.83,30.83,0,0,1,3.39-8.22C606.52,716.37,608.26,715.77,610.23,714.41Z"/><path class="cls-1" d="M383.16,781.25c-8.25.45-14.59-3.21-20.79-8.41a240.16,240.16,0,0,0-26.08-19.29,138.59,138.59,0,0,1-45.66-46.41c-5.43-9-10.71-18.19-15.5-27.58-1.69-3.29-1.63-7.46-2.52-11.19-1.44-6-3.13-12-4.47-18-.42-1.87-.07-3.91-.07-5.87l1.13-.08a10.22,10.22,0,0,1,1,2.2c.91,5.36,1.57,10.78,2.66,16.11,2.41,11.77,6.26,23,13.6,32.74,2.52,3.36,4.24,7.32,6.67,10.76,4.37,6.19,8.86,12.3,13.56,18.24a82,82,0,0,0,29.38,23.06c5.17,2.49,9.7,6.49,14.15,10.25,5.88,5,11.11,10.78,17.2,15.49,3.19,2.46,7.53,3.59,11.5,4.82,2,.61,4,.54,4.19,3.22Z"/><path class="cls-1" d="M762.44,829c-1.06-1.89-2.18-3.22-2.54-4.73-.26-1.08.47-2.4.76-3.62,1.11.33,2.53.33,3.26,1.05,3.37,3.34,3.37,7.7.54,11.38-.56.73-.23,2.24-.12,3.37.22,2.18.59,4.34.87,6.52,0,.36-.22,1-.07,1.08,5.24,3.51.53,10.13,4.39,14.1a2.74,2.74,0,0,1,.53,2.45c-2.17,3.83.49,7,1.19,10.48a3,3,0,0,0,1.31,2c3.31,1.45,2.8,4.18,2.79,7,0,4.79.38,9.59.48,14.38.15,6.56,0,13.12.31,19.66.16,3.87.83,7.72,1.32,11.58.54,4.27,1.09,8.55,1.73,12.81.21,1.37.34,3,1.15,4,1.74,2.11,1.28,4,.5,6.24-.62,1.81-.36,3.91-.57,5.88-.58,5.39,2.9,10.82-.17,16.19a3,3,0,0,0-.4,1.79c.58,3.72,1.26,7.43,1.85,11.15a4.19,4.19,0,0,1,0,2.2c-2.26,5.34-2.89,10.79-1,16.25-4-4.85-2.69-10-1.6-15.61.76-3.84-.37-8.06-.7-12.11-.06-.85-.57-1.75-.4-2.53,1.4-6.51.22-13-.23-19.45-.28-4,.34-8.14-.17-12.12-.67-5.24-2.09-10.37-3.1-15.56a13.16,13.16,0,0,1-.26-4.41,74.67,74.67,0,0,0,.18-23c-.57-3.88-1.5-7.71-2.15-11.58a14.65,14.65,0,0,1-.15-4.43c.38-2.69,1.52-5.52-2.57-6.38a1.18,1.18,0,0,1-.7-.83c-.6-3.82-1.13-7.65-1.72-11.47a35.94,35.94,0,0,0-.83-4.13c-.19-.69-1.11-1.41-1-1.94,1.27-5.19-.88-9.89-2-14.7a30.85,30.85,0,0,0-2.33-6.56C759.52,832.71,759.2,830.57,762.44,829Z"/><path class="cls-1" d="M621.76,996.18V949.84l1.34-.08c.51,3.2,1.57,6.42,1.42,9.59-.47,10-1.13,20.09-2.24,30.08-.7,6.39-1,12.47,1.15,18.74a49.11,49.11,0,0,1,2.18,23.58c-.84-4.86-1.41-9.79-2.58-14.56-3.2-13-6.58-26-12.08-38.28-2-4.48-2.42-9.65-4.16-14.28-3.34-8.9-6.4-17.93-14.52-24.15-4.72-3.62-8.55-8.39-13.06-12.33-3.76-3.29-7.48-6.4-9.26-11.36-.38-1.07-2.69-1.43-4.07-2.18a20,20,0,0,1-4.4-3.09,11.73,11.73,0,0,1,11.93,6.63,21.84,21.84,0,0,0,4.62,5.56c4.66,4.36,9.48,8.57,14.23,12.84.19.16.31.4.51.54,11.12,7.9,14.66,19.77,17.29,32.28a87.52,87.52,0,0,0,4.87,14.49c1.7,4.22,3.94,8.22,6,12.31Z"/><path class="cls-1" d="M561.9,659.76c3.51,2.08,7.28,3.82,10.47,6.31,9.23,7.19,18.77,13.83,29.36,18.91a20.09,20.09,0,0,1,5.3,4,85.86,85.86,0,0,1,9.37,10.1,51.74,51.74,0,0,1,5.83,11.13c.44,1.07-1,2.9-1.59,4.39-1.46-.66-2.94-1.31-4.39-2a1,1,0,0,1-.37-.63c-2.16-8.3-9.06-13.23-14.2-19.3-2.68-3.16-7.22-4.7-10.76-7.19-4.68-3.29-9.26-6.73-13.76-10.25-4-3.11-7.86-6.38-11.71-9.67-1.62-1.37-3.05-3-4.56-4.46Z"/><path class="cls-1" d="M202.11,1054.54c-2.79-9.61-5.88-19.14-8.28-28.84s-4.05-19.46-6.13-29.18c-.93-4.38-1.57-8.92-3.25-13-4-9.77-5.89-20-7.81-30.27-2.29-12.31-4.74-24.61-7.79-36.74-1.74-6.93-4.9-13.5-7.29-20.27-2.75-7.78-5.36-15.6-8-23.4l1.25-.43a35.94,35.94,0,0,0,1.32,4.08c1.36,3,2.92,5.92,4.27,8.93,1.94,4.3,4.23,8.52,5.55,13,2.81,9.64,5.39,19.36,7.53,29.17,2.88,13.23,5.13,26.6,8,39.84.65,3.09,2.49,5.92,3.79,8.87,4.44,10.06,5.41,20.83,7.17,31.55,2.5,15.19,6.45,30.14,9.78,45.2.11.47.18.94.27,1.41Z"/><path class="cls-1" d="M383.09,781.32c6.55-6.37,13.06-12.78,19.69-19.07a19.37,19.37,0,0,1,5.12-3.54c2.59-1.21,4.89-.82,5.81,2.41l.09-.11c-1.7.73-3.68,1.1-5,2.23-7.76,6.45-16.23,12.32-22.8,19.83-8.15,9.31-16.67,18.83-21.14,30.62-3.17,8.37-6.52,17.11-3.67,26.5a8.46,8.46,0,0,1,.46,3.32,40.41,40.41,0,0,1-1.11,4.91c-1.31-1.43-3.5-2.73-3.74-4.32a29.62,29.62,0,0,1,.16-10.33c2-9.77,4.35-19.53,9.65-28.14C370,800,374,794.72,377.72,789.27q2.73-4,5.44-8Z"/><path class="cls-1" d="M615.38,719.36a7.07,7.07,0,0,1,.1,2.09c-3.32,12.76-3.81,25.83-4.79,38.89-.65,8.65-2.84,17.16-4,25.79q-2.73,21.11-4.91,42.28c-1.45,14.12-3.12,28.26-3.68,42.44-.43,11,.72,22.13,1.14,33.2.08,2.16,0,4.32,0,6.48l-1.41.11c-.42-3-1-6.08-1.22-9.14-1.59-22-.08-43.77,3.23-65.55,2.16-14.26,3.18-28.69,5-43,.87-6.89,2.94-13.66,3.54-20.57.93-10.66.8-21.41,1.64-32.09.48-6.18,1.93-12.28,3-18.4a12.49,12.49,0,0,1,1.27-2.83Z"/><path class="cls-1" d="M679.48,408.26c-.52-2.12-.93-4.28-1.59-6.36-2-6.25-4.09-12.47-6.15-18.7-.78-2.35-1.71-4.66-2.35-7.05-1-3.68-.27-6.82,3.08-9.22a14.07,14.07,0,0,0,3.37-4c4.29-6.65,4.44-6.71,12-2.1-4.21,3.94-8.58,7.49-12.19,11.7-1.12,1.3-1,4.74-.06,6.57a63.42,63.42,0,0,1,6.58,24.74C682.26,406,682.46,407.6,679.48,408.26Z"/><path class="cls-1" d="M617.56,902.1c-1.37-4-3.44-8.4-4.27-13a31.19,31.19,0,0,1,.15-12.44c.84-3.56,9.64-3.51,12-.1a8.68,8.68,0,0,1,1.82,4.79c-.27,5-.49,10.22-1.84,15-.56,2-3.94,3.17-6.07,4.67A17.68,17.68,0,0,1,617.56,902.1Zm1.27-22.21c-2.19,4.85-3.19,9.34-.36,13.94C622.12,891.74,622.65,882.55,618.83,879.89Z"/><path class="cls-1" d="M521.48,755.34c4.38-4.87,8.86-9.68,13.14-14.64a98.74,98.74,0,0,0,17.83-31.32,51,51,0,0,0,3-20.19c-.09-1.77.69-3.59,1.06-5.38l1.33.1a28.29,28.29,0,0,1,.73,4.14c.69,20.81-5.85,38.62-21.57,52.8-4.78,4.32-9,9.29-13.43,13.95a13.19,13.19,0,0,1-1.44,1.12Z"/><path class="cls-1" d="M396.42,914.47c-3.58-3.73-7.18-7.46-10.74-11.22-3.17-3.34-6.19-6.82-9.44-10.08-6.75-6.74-10.6-15.29-14.7-23.65-1.3-2.63-1.63-5.72,1.82-8.89.33.79.54,1.39.83,2,2.26,4.4,5.12,8.61,6.67,13.25,2.11,6.27,6.49,10.78,10.16,15.91,5.33,7.45,10.23,15.2,15.32,22.82Z"/><path class="cls-1" d="M642.82,807.47c.78-4.7,1.58-8.74,2-12.81.11-1-1.05-2.09-1.36-3.22a38.54,38.54,0,0,1-.72-4.32c1.15.59,2.69.88,3.4,1.81q5.57,7.19,10.73,14.68c1.23,1.8,1.13,3.51-1.66,4.11-.85.18-1.59,1.22-2.2,2-1,1.34-2,4-2.87,3.94a9.7,9.7,0,0,1-5.39-2.51C643.67,810.21,643.29,808.41,642.82,807.47Z"/><path class="cls-1" d="M502,789.41c-2.73-1.87-5.16-3.52-7.57-5.2-1.63-1.14-2.79-.9-4.07.73-5.71,7.23-11.65,14.28-17.29,21.56-3.94,5.08-8.77,10-4.32,17.92-4.65-2.26-6-6.12-3.91-10.81A63.51,63.51,0,0,1,471,803.4c5-7.14,10.18-14.15,15.3-21.2,2.82-3.89,2.94-3.85,6.7-.7a6.8,6.8,0,0,0,2.42.74A8.69,8.69,0,0,1,502,789.41Z"/><path class="cls-1" d="M618.91,1024.66c-1.32,6.41,2.77,15.37,4.54,24.69.42,2.2.8,4.41,1.08,6.63a36.15,36.15,0,0,0,7.67,18c5.24,6.77,6.93,14.62,5.19,23.27-.41-1.22-.74-2.48-1.26-3.66-3-6.79-6.33-13.46-9-20.38a86,86,0,0,1-4.67-16.36C620.51,1045.05,617.62,1033.33,618.91,1024.66Z"/><path class="cls-1" d="M396.34,914.56c3.26,1.67,6.64,3.15,9.74,5.09,2.7,1.69,4.87,4.29,7.65,5.8C427,932.67,441,938.3,456.11,940.16c11.1,1.37,22.31,1.86,29.07,2.4-30.11,2.16-62.12-4-88.75-28.09Z"/><path class="cls-1" d="M428.08,690.77c-25-6.24-44.41-21.7-63.3-38C385.5,666,404.55,682.13,428.08,690.77Z"/><path class="cls-1" d="M605.31,592.25c9-24.61,21.91-46.82,27-72C626.45,545.12,620.08,569.78,605.31,592.25Z"/><path class="cls-1" d="M144.55,859.57c-2.18,5.49-4,11.09-10.43,13.52-4.76,1.78-7.23.78-8.43-4.27-.93-3.87-2.12-7.68-3-11.55a9,9,0,0,1,.31-2.92c1.08.35,2.75.38,3.15,1.11a46.62,46.62,0,0,1,2.74,6.87,29.91,29.91,0,0,0,.78,2.89c.7,1.5,1.45,4,2.42,4.16,2.94.35,6-.09,7.46-3.56a79.5,79.5,0,0,1,3.89-7.05Z"/><path class="cls-1" d="M216.35,652c3.27-7.36,10-10.8,16.58-14.24,1.24-.64,3.18-1.34,4.14-.82,2.92,1.6,4.12,0,5.75-1.94a6.76,6.76,0,0,1,8.32-2.09c-.18.66-.17,1.2-.38,1.31-3.73,1.88-7.54,3.57-9.54,7.7-.27.57-2.27.95-3,.55-5.57-3.07-9.5.61-13.56,3.23-2.46,1.58-4.47,3.85-6.75,5.75A4.54,4.54,0,0,1,216.35,652Z"/><path class="cls-1" d="M650.61,477.89c2-9.77,4-19.48,6-29.21.48-2.4.23-5.8,3.75-5.2s2.69,3.81,1.84,6.13c-3.12,8.53-6.42,17-9.73,25.45A14.62,14.62,0,0,1,650.61,477.89Z"/><path class="cls-1" d="M525.8,808.66a41.32,41.32,0,0,1-1.85,3.78c-4.72,7.73-9.68,15.33-14.14,23.21-1.29,2.28-1.21,5.34-1.93,8.83-1.2.41-2.52-.68-2.51-2.92a11.45,11.45,0,0,1,1.18-5.73c5.58-9.09,11.41-18,17.19-27,.22-.34.76-.49,1.14-.73Z"/><path class="cls-1" d="M622.35,911.05c.69-2.65,1.34-5.11,2-7.77,4.26,3.35,4.12,10.5.18,13a12.23,12.23,0,0,1-2.15,1.44,37.92,37.92,0,0,1-3.94,1,36.63,36.63,0,0,1-.06-4.44,2.57,2.57,0,0,1,.77-1.28c-1-2.13-1.77-3.78-2.41-5.5a4.25,4.25,0,0,1,1.6-1C619.62,907.79,620.72,909.15,622.35,911.05Z"/><path class="cls-1" d="M526.72,909.58c2-4.42,3.92-8.88,6-13.23a33.18,33.18,0,0,1,3.65-5.62c2.84-3.66,5.64-7.28,3.87-12.59l1.57,0c.36,2.34,1.79,5.24.91,6.94-4.45,8.63-9.5,16.94-14.34,25.37Z"/><path class="cls-1" d="M657.68,774.64c-3.51,1.09-4.73-.6-5.63-2.59-1.7-3.73-3.23-7.54-4.93-11.28-.76-1.67-1.79-3.22-2.6-4.88a11,11,0,0,1-.61-2.23,7.27,7.27,0,0,1,2.7-.4,3.32,3.32,0,0,1,1.9,1.66C651.58,761.38,654.56,767.89,657.68,774.64Z"/><path class="cls-1" d="M722.43,815.87c4.2-1.61,8.41-1.06,12.72,1.51,3.82,2.28,7.66,5.6,12.7,3.52,1.76-.74,3.15-2.38,4.92-3.1,1.24-.5,2.83-.16,4.27-.19-.58,1-.89,2.54-1.77,3.09-5.11,3.13-10.25,5.59-16.09,1.11a34.92,34.92,0,0,0-9.13-5C727.61,815.94,724.77,816.13,722.43,815.87Z"/><path class="cls-1" d="M649.53,744.28c13.41,13.4,18.61,30.81,23,48.62C667.81,775.25,659.22,759.51,649.53,744.28Z"/><path class="cls-1" d="M156.81,809.09c.23-2.57.58-5.14.66-7.71.15-4.8.13-9.59.24-14.39,0-1.09.25-2.18.38-3.28.91.81,2.3,1.46,2.63,2.45,2.69,8.15,1.27,15.81-2.91,23Z"/><path class="cls-1" d="M624.45,933.15a17,17,0,0,1-3.5-2c-1-1-2.63-2.74-2.32-3.45a7.17,7.17,0,0,1,3.71-3.68c1.53-.55,3.54,0,5.28.39a2.09,2.09,0,0,1,1,1.8c-.91,2.71-2,5.35-3.1,8Z"/><path class="cls-1" d="M778.45,1072c.28,2.57.76,5.57.92,8.59.26,4.81.34,9.62.37,14.44a2,2,0,0,1-1.22,1.52c-.49.07-1.14-.68-1.62-1.16a1.38,1.38,0,0,1-.33-1c1.18-7.29-1.71-14.9,1.7-22C778.43,1072,778.6,1071.71,778.45,1072Z"/><path class="cls-1" d="M603.83,916.3l-3.45-2.4c1.11-1,2.07-2.44,3.35-2.83a31.45,31.45,0,0,1,7.38-1.06c.94,0,1.92.72,2.88,1.12-.55,1-.89,2.58-1.71,2.9A78,78,0,0,1,603.83,916.3Z"/><path class="cls-1" d="M536.82,928.58c3.89-3.86,7.81-7.89,11.94-11.69a7.35,7.35,0,0,1,4-1.32c.55-.06,1.47.9,1.75,1.58a2.08,2.08,0,0,1-.68,1.9C548.1,922.34,542.31,925.53,536.82,928.58Z"/><path class="cls-1" d="M669.64,833c.55,8.89-3.67,16.51-7.31,24.72,2.1-8.6,4.09-16.78,6.09-25Z"/><path class="cls-1" d="M460.39,694.11c-9.63,1.9-18.39-.2-27.17-1.77Z"/><path class="cls-1" d="M781.59,1041.82v21.38A32.24,32.24,0,0,1,781.59,1041.82Z"/><path class="cls-1" d="M621.06,718.22c6.88-.35,9.45,4.88,13.41,9.08Z"/><path class="cls-1" d="M532,816a52,52,0,0,1-3-5.69c-.22-.55.73-1.56,1.15-2.36.69.54,1.78.95,2,1.65a48.5,48.5,0,0,1,1.22,5.65Z"/><path class="cls-1" d="M208.51,1075.17q-.51,6.22-1,12.46c-2.78-1-3.23-2.7-1.76-5.14,1.3-2.14,2.25-4.5,3.35-6.76Z"/><path class="cls-1" d="M150.59,867.21c-3.92-.83-4.57-2.35-3.75-8.47Z"/><path d="M202.49,275.34l13.42-1.79C211.52,275,207.33,277.75,202.49,275.34Z"/><path d="M618.83,879.89c3.82,2.66,3.29,11.85-.36,13.94C615.64,889.23,616.64,884.74,618.83,879.89Z"/></g></g></svg>