<svg xmlns="http://www.w3.org/2000/svg" viewBox="0 0 140.99 62.16">
    <title>hand1</title>
    <defs>
        <style>
        </style>
    </defs>
    <g id="Layer_2" data-name="Layer 2">
        <g id="Laag_1" data-name="Laag 1">
            <path d="M.36,56.4c.36-6,5.64-12.24,8-18-3.6,4-5.52,8.64-8,13L.24,48.12s.12-.48.36-.6C3.48,42.72,5.4,38,8.16,33.24A80,80,0,0,0,.36,45.6C0,45.6,0,45.36,0,45.24c0-.84.24-2.64.24-3,2.64-4.8,5.4-9.36,8.16-13.92-1.8,1.2-3.6,4.8-4.68,6.36C2.64,35.64,1.2,38.76.6,39.6c0,.24-.48.24-.6.24C0,34.56,4.08,30.48,7,26l1.56-2.4s-.12-.36-.24-.36C5,26.88,3.12,30.6.6,34.56c0,.12-.24.12-.36.12v-3c0-2,9.12-11.88,9.12-14.4l-.48.6C6,20.64,3.24,25.56.72,28.8l-.36-.24v-1.8c0-.24,9-12.84,9.6-14.28-2.88,2.4-6.72,8.4-9.24,11.64-.36,0-.36-.12-.36-.24,0-.6.24-2.16.24-2.52C1.92,18.36,7,13,9,9.84c.36-.48,1.08-1.68,1.08-1.68-2.64,1.92-9,10.8-9.36,11.4V16.92A79.34,79.34,0,0,0,8.16,6.72C6.6,8.16,1,15.48.6,15.48v-2.4c0-1.68,6.24-6.36,6.24-7.92L6,5.64c-.24.12-2.76,3.24-4.08,4.2,0,0-1,1.2-1.32,1.2V9.36l1.8-1.8a23.43,23.43,0,0,0,2-2.76l-.36-.24C3.72,5,1.32,7.92.72,7.92c-.12,0-.24-.24-.36-.24C.6,6.12,1.56,5.16,2.52,4a15.63,15.63,0,0,1-1.8,1.2L.6,3.24l1.2-.12H3.48c6.84,0,15.48.6,19.92,6l-3,.72-.72-1.08c-.6,0-.84,1.44-1,1.92a3.55,3.55,0,0,0-.24,1.2A124.17,124.17,0,0,1,40,5C57.6,1,65.52,0,80.16,0a200.55,200.55,0,0,1,38.15,3.84c7.08,1.32,13.68,3.84,20.88,4.32,1.2.36,1.8,3.24,1.8,4.32,0,6.12-8.64,7-12.72,7h-.48c-3.48,0-9.48-2.16-10.44-2.16-2.27,0-4.31.84-6.84.84-4.19,0-10.55-1.8-12.11-1.8a27.27,27.27,0,0,0-5.76,1.8c4.68,5.16,11.28,10.2,11.28,18,0,3.12-2.28,6.12-4.44,8.4l.6.6c2,2.16,3.71,4,3.71,6.72,0,4.08-2.87,6.72-7.91,6.72-5.52,0-8.76-2-12.72-2.4-2.88,1.56-6.12,3.12-9.36,3.12-1.92,0-4-1.08-5.88-1.08-1.44.72-3.12,1.92-5.76,1.92-6.48,0-10.08-8.4-11.4-8.4-2.88,0-5.64.6-8.28.6-9.6,0-15.72-1.8-24.12-6,0,.48,2,9.6,2.64,9.6.84-1.56,1.08-5,1.8-5.88,2.28.72,3.72,1.08,3.72,1.08,0,4.08-3,11-7.2,11-3.72,0-7.2-.84-11-.84H6.36c-2,.12-3.6.84-6,.84V57.48l.6-.6C1.8,55.92,8,44.16,8,44.16A76,76,0,0,0,.36,56.4Zm2.28,1.92c1.56-1.56,4.2-8,5.52-9.6a54.73,54.73,0,0,0-6,9.24Zm2.52-1c1,0,4-5.76,4-6.72C8.76,51.12,4.8,56,4.8,57Zm4.68-4.44C9,54,8.4,56.28,7.92,56.88,9.24,56.88,9.84,53.76,9.84,52.92Zm.12,4c.36,0,.72-.48.72-1.2C10.2,56.16,10,56.52,10,56.88Zm1-15.6c0,1.8.72,19.68,5.16,19.68-.6-.72-1.68-1.8-1.68-3.24l5-.24s.48-.24.48-.36C19.2,54.84,17.52,49.68,17,47a82.66,82.66,0,0,1-1.8-19.44,61.55,61.55,0,0,1,1-12.72,34.08,34.08,0,0,0,1.08-4.68c0-.84-2.4-.36-2.4-1.08,0-1.44,1.92-2.28,1.92-3-5.64,0-5.88,27.72-5.88,34.08ZM11,57.12s.24.36.36.36.12-.36.12-.36a.44.44,0,0,0-.12-.36A.54.54,0,0,0,11,57.12Zm.72-17.28a45.41,45.41,0,0,1,1.08,7.68v1c0,.24-.72.72-.72.72a48.83,48.83,0,0,1-.48-7.32Zm2.88,8.28c2,0,2.76,2.28,2.76,3.6A2.39,2.39,0,0,1,15,54c-1.8,0-2.64-1.92-2.64-3.36A2.81,2.81,0,0,1,14.64,48.12ZM14,54.48a12.69,12.69,0,0,1,.84,2.64c-1.08,0-1.8-1.44-1.8-3.36C13.44,54.12,13.8,54.12,14,54.48ZM13.2,43.92c.36,0,.72,2.88.72,3.48l-.48.48A21.5,21.5,0,0,1,13.2,45ZM15,53.16a1.74,1.74,0,0,0,1.68-1.92c0-1.08-.6-2.28-1.8-2.28a1.81,1.81,0,0,0-1.68,2C13.2,51.84,13.92,53.16,15,53.16Zm-.84-8.28h.72a16.39,16.39,0,0,1,.48,2.76l-.72-.12Zm1,9.72c.24,0,.36.12.6.48,0,.12.6,1.68.6,2h-.84c-.6-.72-.24-2-.84-2.64Zm.72-10.68a20.58,20.58,0,0,1,.84,4.44c-.24-.24-.6-.24-.72-.6a19.7,19.7,0,0,1-.6-2.76C15.36,44.4,15.48,43.92,15.84,43.92ZM16.8,54s.6,1.92.72,2.4c.12.24.36.48.36.72-1.2,0-1.68-1.8-1.68-2.76Zm79,3.12c3.12,0,6.24-1.44,6.24-5.28,0-6.48-8.88-8.28-13.8-9.84l-1-.24a59.66,59.66,0,0,1-12.12-4.92c-6.84-4.08-12.48-10-18.72-14.64-1-.84-3-1.56-3.36-2.4,5.4,0,10.08,5.76,13.92,8.76,1.68,0,2.4-6.6,2.4-7.68,0-.12.24-.12.36-.12.6,0,.6,1.2.6,1.92v.6c-.24,3.48-1.68,5-1.68,6.48,0,.84,4.8,4,5.16,4,1.08,0,1.92-4.56,1.92-5.64,0-.12,0-2.88-.6-3-.12.12-1.68,1.68-2.28,1.68a.64.64,0,0,1-.6-.6.92.92,0,0,1,.24-.6C73,25.08,75,23,75.24,22.68c.6-.48,3.84-3.84,3.84-4.68-1.2,0-4-.48-4.68-1.44a.44.44,0,0,1,.48-.48c3.72,0,7.44.6,11.4.6a29.83,29.83,0,0,0,11.16-1.8c.48-.12.72-.36,1.08-.36a.44.44,0,0,1,.36.12,41.53,41.53,0,0,0,11.75,1.92c4.08,0,6-1.08,7.2-1.08,2.28,0,6.6,2.4,10.44,2.4,3.36,0,11-.72,11-6.12,0-.48-.12-1-.24-1A7.47,7.47,0,0,1,134.15,13c-7.92-.84-7.56-3.84-12.48-6.6A69.85,69.85,0,0,0,109.2,3.72a181.07,181.07,0,0,0-29-2.28C60.6,1.44,40.08,5.64,22.44,12c-.48.24-3.48,1.2-4.2,2.16a66,66,0,0,0-1.44,13c0,5.52,0,11.52,1.08,17a4.17,4.17,0,0,0,1.08.72c7.44,4.44,14.88,5.88,23.64,5.88,7.2,0,14.28-3,20.88-3C74.52,47.76,84.84,57.12,95.76,57.12Zm-77.88-4.2c.24,1.08,1.2,3.36,1.2,4,0,.12,0,.24-.24.24-.72,0-1.44-2.52-1.44-3.36C17.4,53.4,17.52,52.92,17.88,52.92Zm34.92-1.8.48.6c2,2.88,4.68,6.72,8.64,6.72,1.44,0,3.6-.72,4.2-1.56-1.8-1-7.32-7-7.8-7.08ZM74,57.6c1,0,6.12-1,6.84-2.52-5.4-2-11.52-5.64-17.4-5.64H62.4c-.72,0-1.56,0-1.56.36C64.44,52.8,68,57.6,74,57.6Zm6.12-20.16a7.37,7.37,0,0,1,2.4-3.6C80.64,31.92,78.72,30.6,77,28.2a13.77,13.77,0,0,1-.48,3.72c-.24.72-1.44,2.52-1.44,2.64A17,17,0,0,0,80.16,37.44Zm17.88,6c2.28-2.52,4.2-4.8,4.2-8.28,0-7.32-7.92-12.6-12.12-17H81.6l-1.32,1.32c-.24.36-3.48,3.6-3.48,4,0,3.6,4.2,7.32,6.48,9.36l.36.24h.72c1,0,1.8-1.08,2.64-1.08,0,2.28-5.52,3-5.52,6.12,5.16,1.92,13.08,4.2,15.36,5.28ZM94.8,46.92c2.64,0,5.52,2.4,5.52,4.92a4.36,4.36,0,0,1-4.2,4.32c-3,0-5.76-2.4-5.76-5.16S92.4,46.92,94.8,46.92Zm.72,7.92a3,3,0,0,0,3.24-3c0-1.68-2.16-3.72-4.08-3.72A2.68,2.68,0,0,0,91.8,51,4.1,4.1,0,0,0,95.52,54.84ZM126.35,7.32c0,1.8,4.68,4.08,5.88,4.08a12,12,0,0,0,1.92.24c1.8,0,3.12-.72,3.24-2.16l-2.52-.24a37.73,37.73,0,0,1-4.8-1c-1-.24-3.24-1-3.24-1Z"/>
        </g>
    </g>
</svg>