<svg xmlns="http://www.w3.org/2000/svg" viewBox="0 0 142.79 62.4"><title>hand2</title><g id="Layer_2" data-name="Layer 2"><g id="Laag_1" data-name="Laag 1"><path d="M8.16,48.84C6,50.28,3.72,56.4,1.8,57.24c-.6,0-.6-.24-.6-.6,2.64-4.32,4.44-8.28,7.2-12C7.2,45.24,2,53,.84,53V52c1.32-1.2,7.56-11.4,7.56-12.12-1,.48-7.44,9.24-7.2,9v-.72c0-2,1.32-2.76,2.64-4.92A78.14,78.14,0,0,1,8.4,36.12a1.29,1.29,0,0,0,.24-.84c-.84.6-7.2,8.64-7.8,8.64V42.48c2.88-3.6,4.2-6.6,7-10.2L1.2,39.36A2.53,2.53,0,0,1,.6,37.8a6.27,6.27,0,0,1,.84-1.44,68.44,68.44,0,0,0,7-9.72C5,29,3.84,32.52.84,34.68L.6,34.32v-.6c0-2.28,7-9.48,8.4-11.64a19.14,19.14,0,0,0-3.6,3c-1.08,1.2-3,4-4.8,5.4-.36,0-.36-.6-.36-.6a1.45,1.45,0,0,1,.36-1.2c3-2.88,7-6.84,8.4-10.56,0,0-8.64,8.64-8.76,8.64S0,25.8,0,25.56,10.92,12.48,11.4,11c-3.24,3.24-6.6,6.6-10,10.44-.48.24-.72.6-1.08.6C0,21.84,0,21.72,0,21.48A7.18,7.18,0,0,1,.24,20C4,16.2,8.76,12,10.8,7.56c-.24,0-3,3.12-4.44,4.44-.72.36-2.64,3.24-3.36,3.84,0,0-1.8,2.28-3,2.28,0-3.84,9-8,9-11.88-.24,0-2.4,2-3.36,2.76a30.72,30.72,0,0,1-2.4,3.12A20.89,20.89,0,0,1,.6,14.28a.38.38,0,0,1-.36-.36C.24,11,6,8.76,6,5.76,4.44,7.2,2.64,9.24.84,10.68H.24c0-2.16,3.6-3.48,3.6-5.76-.84.84-2,1.56-3,2.64L.6,2.28l.84-.72h5c5.76,0,17.28.48,17.28,7a12.45,12.45,0,0,1-1.2.48c-.48,0-1.32-1-1.68-1.32L20.76,8v2.64c1,0,2.88-1.44,3.72-1.44C37.56,2,56.28,0,70.56,0,75,0,81.72.24,85.92.6,110.4,3.12,118.56,6,127.67,8.16c4.32,1.08,15.12,1.08,15.12,7.2,0,5.76-6,7.2-10.8,7.2-4.55,0-9.11-2.16-13.67-2.16-1.68,0-3,.24-4.8.24-4.44,0-8.88-1.8-12.84-1.8-1.44,0-3,.72-4.44.72-3.6,0-7.2-.48-10.92-.48-1,0-4.92,1.56-4.92,3,1.2-.48,4-2.52,5.16-2.52h.6c-1.44,2-4.92,2.88-5.76,5.16,2-1.32,5.76-4.08,7.44-4.08-.36.24-1.92,1.8-2.28,1.92L82.08,26c1.32-.48,4.08-2.76,5.4-3.24,0,2.76-4.56,3.24-5.16,5.64,1.44-.72,3.24-2.16,4.68-2.16,0,1.44-2.64,3.12-3.48,3.84,1.68,0,2.64-1.68,4-1.68.36,0,.36.24.36.6,0,1.44-4.08,1.92-4.08,3.72a34.08,34.08,0,0,0,4.68-2.16l.48.36c-1.08.48-3,1.56-3,2.4,1.32-.36,2.52-1.08,4-1.08,0,1.68-2.88,1.2-3.36,2.52H87c1.08,0,2.52-.48,3.84-.48.72,0,1.8.36,1.8,1-1.32.6-4.8.84-5.64,2,1.56,0,3.12-.48,4.32-.48.24,0,1,0,1,.24l-.48.72a62.35,62.35,0,0,0-8,1.32H91l-.12.72c-1.92.24-4.68.48-6.72,1,.6,0,1.44.24,1.44.72,1.44,0,2.52-.24,3.72-.24,0,1.2-1.8.48-1.8,1.2,2.88,1,7.32,3.84,9,4.2,4,0,6-5.88,6-9,0-6.48-6.36-12.48-9.84-17,0-.24.12-.24.36-.24a1.93,1.93,0,0,1,1.56.72c3.48,4.08,9.6,10.2,9.6,16.32,0,4-1.68,8.64-5.4,10.2,2.64,2.64,4.44,4.32,4.44,8.16,0,4.56-5.16,5.76-9,5.76-11.28,0-20.64-10.68-29.88-10.68H58.2C55.8,52.32,46.56,53,43.44,53a44.36,44.36,0,0,1-13.68-1.92c-2.28-1.08-7.08-4.44-9.84-4.44v.48c0,1.56.12,5.88,1.32,5.88,1,0,1.32-2.16,1.32-2.76,0-.36-.24-1.44-.24-1.92l4.08,2.28a.8.8,0,0,1,.48.84c0,.36-.12.6-.12.84,0,3-3.36,10.08-7.56,10.08H2c-.6,0-.6-.84-.6-1.2C1.44,58.44,8.16,52.32,8.16,48.84ZM3.6,60.36c1.92,0,5.52-8.16,5.76-9.24C8,52,3.6,59.4,3.6,60.36Zm2.88-.48c1.8,0,3.48-4.2,3.48-5.64C9.24,55.2,6.48,58.44,6.48,59.88Zm3.12-.12h.72a15.68,15.68,0,0,0,1-2.52C10.44,57.24,9.6,58.8,9.6,59.76Zm2.76-13.08C12.6,50.64,13.92,58.2,18,60l.24-.48A10.19,10.19,0,0,1,15.6,55.8c.24-1.2,4.32,0,4.32-1.56,0-2-1.44-4.8-1.8-7.08-1-6.84-1-13.8-1-21.12,0-5.64,2.28-11.4,2.28-17,0-.72-.6-.72-1.2-.72s-1.32,0-1.32-.72c0-1.08,1.08-1.8,1.08-2.64-4.68,0-6.12,16.32-6.6,24.48C11.76,34.68,11.76,41.76,12.36,46.68ZM11.76,60c.6,0,1.2-.84,1.2-1.8C12.36,58.8,11.76,59.4,11.76,60ZM13.2,42.24l.48.48c.6.72.6,4,.6,4.92h-.84A29.81,29.81,0,0,1,13.2,43Zm2,6.12c1.68,0,3,.72,3,2.76,0,1.2-1.08,1.44-2.16,1.44-1.44,0-2.16-.6-2.16-2.28C13.92,49.44,14.64,48.36,15.24,48.36Zm.12,4.8c.48,0,.72.12.72.48,0,1-.12,1-.6,1-.72,0-.72-1-.72-1.44Zm-.12-7.08c.48,0,.72.48.72,1,0,.12,0,.36-.24.36s-.48-.48-.48-.84Zm1.2,5.52c.48,0,.48-.24.48-.72,0-.24-.24-1.2-.72-1.2a1,1,0,0,0-.48,1C15.72,51.12,15.72,51.6,16.44,51.6ZM17.52,53c.24,0,.36.24.48.6s-.24.6-.6.6-.84,0-.84-.6A4.53,4.53,0,0,1,17.52,53Zm0-6.48c.24,0,.36.36.36.72a2.44,2.44,0,0,1-.12.6.81.81,0,0,1-.84-.84C16.92,46.68,16.92,46.56,17.52,46.56Zm1.2,6c.24,0,.24,1.08.24,1.44-.24,0-.48-1-.72-1.2ZM93,58.2l-.24.36h.72c.72,0,1.2-.48,2.28-.48.36,0,1.2.48,1.44.48h.48a4,4,0,0,0,4.08-3.72c-.12-2.16-2.52-5.52-6.48-7C88.44,44.28,80.4,42.24,74,38c-4.92-3.24-8.64-7.92-13.56-10.92C59.28,26,52.2,22.8,52,21.6a1.76,1.76,0,0,1,.24-.48h1.32c4.68,0,10,7.92,13,7.92-.24-.36-1.44-1-1.44-1.68,0-.24,0-.6.6-.6.84.36,1.32,1,2,1,0-1-1.44-1.08-1.44-2.16,0-.48,0-.84.36-.84l.36.36c.12,0,.72.48,1,.48,0-1-.72-1.32-1.32-1.56.36-.72,1.08-4.68,1.8-4.68,1.08,0,1.44,4.68,1.44,5.4,0,1.56-.36,3-.36,4.68,0,.24.24.36.48.36a5.2,5.2,0,0,0,.6-.12c1.32,0,4.2-1.56,4.2-2.88-1.68,0-2.64,1.92-4.44,1.92.36-1.68,7.92-6.12,9.48-9.36-.24.12-6.36,6.24-8.28,6.24,0-1.8,4-4.44,5.16-5.52-1.92,0-3.36,3.24-5.28,3.36v-.6a44.15,44.15,0,0,0,4.08-4c-1.08,0-3.6,1.92-4.44,2.64,0-.36.48-.84.84-1.08s1.68-1.56,1.8-1.8v-.48L71,19.32c-.72,0-1.08,0-1.08-.48l2.28-1.68c-.84,0-1.68.6-2.4.6L71,16.2c-.72,0-1.2.48-1.68.48s-.84,0-.84-.48c0-1,3.72-3.24,4.8-3.24l.36.24-.12.48-1.68,2c1.8,0,3.12-2.52,5-2.52,0,.72-1.2,2-1.68,2.52h.48c.84-.6,3-2.28,4.2-2.52l-2.4,3c.24.12,2.4-1.32,3.24-1.92.48-.36,1-1.2,1.92-1.2a.26.26,0,0,1,.24.24c0,.12-.36.48-.36.48-.36.6-1.56,2-1.8,2.4v.48c1.56-1,3.36-2.4,4.8-3.48-.36,1.08-1.8,2-2,3,2-.84,3.12-3.24,5.52-3.24,0,1-1.8,1.92-2,2.88,1.92,0,3.12-3.12,5.16-3.12h.48c-.36.24-1.08,1.56-1.32,1.56a2.15,2.15,0,0,0-.48,1c1.8-.36,2.88-3.24,4.92-3.24a1.48,1.48,0,0,1-.48,1,21.27,21.27,0,0,0-2,2.4c2.28,0,4.2-4.32,6-4.32.36,0,.48.24.72.36-.48.6-2.52,2.88-3.24,4l4.68-3.24h1.08a31.74,31.74,0,0,1-3,3.6c2.16,0,3.36-3,5.4-3v.48a17.94,17.94,0,0,0-3,3.48c1.8-1,4.08-3.48,6-3.48.24,0,.6,0,.6.12-.6,1.32-2.4,2-2.52,3.48,1.44-.6,3.36-3.12,5-3.12l-1.92,2.64v.48c1.92,0,3.24-2.88,5.16-2.88-.24.84-2.16,2.64-2.64,3.36,1.92-.48,3.72-3.36,5.64-3.36,0,.12.12.24.12.36s-.12.24-.36.36a29.2,29.2,0,0,1-2.4,3,31.31,31.31,0,0,0,5.4-3.72l.36.36-3.72,3.84c2.28-.36,3.84-3.48,5.88-3.48a24.53,24.53,0,0,0-3,4l4.56-2.88h.59c0,1-1.43,2-2.27,3.12,1.68-.72,3.12-2.64,4.68-2.64,0,.6-1.56,2.4-1.81,2.64,2.17,0,2.88-2.52,4.8-2.52,0,1-1.56,1.8-1.56,2.76,1.92,0,2.76-2.76,4.68-2.76l-2.76,3.48h.49c1-.72,3.23-2.28,4.07-3.12h.72c-.72,1.08-1.8,2.4-2.52,3.72l2-1.56a31.8,31.8,0,0,1,3.12-2.52,16.67,16.67,0,0,1-2,3.24c.84,0,4.2-3.84,4.8-5.28a11.06,11.06,0,0,1-4.56,1c-9.11,0-6-4.56-9.36-5.64C117.12,6.24,96.6,2.52,87,2.52H83.4l.36.6C79.92,3.12,76.2,2,72.6,2a17,17,0,0,0-3.48.24l5.4.84c-.24.24-.84.24-1.2.24-3,0-5.64-.48-8.64-.48-11.88,0-24,3.36-35.4,6.12l-.84.24h.84A7.26,7.26,0,0,0,31.08,9c1.56-.24,8.28-1.8,9.6-1.92,7.2-1.56,14.4-3,21.6-3h3.36a11.45,11.45,0,0,1-2,.48c-.12,0-1.2-.12-1.44-.12a3.38,3.38,0,0,0-1.32.12c-1.2,0-5.76.72-6.84.72-1.2.24-3.84.36-5,1.08,2.28,0,4.8-.6,6.84-.6h1.08a1.52,1.52,0,0,1-.72.12c-10.44,1.8-21,3.72-30.48,9a14.25,14.25,0,0,0,4.68-1.56c6.36-2.28,13.8-5.64,21-5.64,0,1.32-4,1.56-4.8,1.8-4.56,1-19.44,5.76-21.24,8.16,1.8-.48,8-3.36,9.36-3.72,2.64-1,5.76-2.52,8.76-2.52-.24.12-.72.6-1,.6-.72.36-6.48,2.28-7.32,2.64-2.4,1.08-8.16,3-9.84,5.16,4.44-1.32,7.08-3.48,10.2-4.08-3.12,3.84-9.84,3.84-13.2,8,1.8-1,4.32-2.4,6.12-3.12h.84c-1.2,1.8-5.4,3.48-7.2,4.8v.48a18.13,18.13,0,0,0,4.44-1.8c-1.32,1.8-3.72,3.12-5.16,4.56,1.44,0,2.28-1.32,3.48-1.32,0,1.68-3,2.52-4,4.44,1,0,2.52-1.32,3.48-1.92v.72c0,1.32-3.12,2.76-3.6,3.72.48,0,2.64-1.56,3.6-1.56.24,0,.24.6.24.72,0,.84-2.76,2.16-3.36,3.12,1.08,0,2.16-1.44,3.36-1.44,0,1.92-2.4,2.16-2.88,4,1.44,0,2.4-1.8,4-1.8,0,1.8-2.88,2.52-3.84,3.72a14.27,14.27,0,0,0,4-1.68c.6,0,.84,0,.84.24-.48.72-3.84,2.64-3.84,3.12A13.5,13.5,0,0,0,27.12,41h.72a.81.81,0,0,1-.36.72C27,42,25.2,43.68,24.6,43.92l.24.36a16.35,16.35,0,0,0,3.6-1.8H29c0,1.2-1.92,2.4-2.88,3.36a3.21,3.21,0,0,0,1.32-.24l3.36-1.92c.24,0,.48.12.48.24l-.48.72-2.4,1.92c1.92,0,3.48-1.08,4.92-1.68h.72c0,1.2-2.52,1.68-3.24,2.52a3.55,3.55,0,0,0,1.08-.24c.48-.12,3.24-1.56,3.84-1.8.24,0,1.2,0,1.32.24,0,1.08-3.36,2-4,2.88,2.4,0,4.2-2.4,6.6-2.4-.48,1.08-2.16,1.32-3.12,2.4,2-.6,4.56-2.4,7.08-2.4h1c-1.2,1.56-4,1.56-5.28,3.36,3.84,0,6.72-3.84,10.44-3.84-1.32,1.56-4.92,2.76-6.6,4.08h.48c3.48,0,9.36-5.76,13.92-5.76l-.12.72-8.4,4.8c5.28-.24,8.52-5.76,13.56-5.76a8,8,0,0,1-1.8,1.92l-.6.24c-.72.48-3.48,1.8-3.72,2,3.72,0,6.12-3.24,9.48-3.24.48,0,.6.24,1,.6l-.36.12a30.26,30.26,0,0,1-4,1.8c-.6.48-2.76,1.2-3.12,1.92,2.64-.72,5.88-3,8.88-3-.36.48-1.92,1-1.92,1.32l4.08-.84H71c.36,0,1.08,0,1.08.12,0,1-2.28,1.2-2.76,1.8h.48c1.56,0,2.76-.6,3.84-.6h.72c.24,0,.36,0,.36.24l-.72.24a8.68,8.68,0,0,0-2.16,1.08c1.44,0,2.64-.6,4.2-.6a.77.77,0,0,1,.84.84c0,.6-2.88,1-2.88,1.44,1.2,0,2.88-.48,4.2-.48.12,0,.72,0,.72.24l-.24.48c-.36.24-1.8.6-2,.84h.48c.84,0,2.28-.36,3.24-.36.36,0,.6.12.6.36a11.1,11.1,0,0,1-1.2.6,3.53,3.53,0,0,1-1.08.36,2.64,2.64,0,0,0,1,.12c1,0,2.16-.24,3-.24.24,0,.72,0,.72.36l-1.92,1.2c1.44,0,2.28-.36,3.6-.36.12,0,.84.36.84,1L83.76,56a3.32,3.32,0,0,0,1.08.12c1.2,0,2.52-.36,3.6-.36v.6a3.22,3.22,0,0,0-1.44.72l-.36.12c1.44,0,2.4-.24,3.48-.24.24,0,.72,0,.72.12l-1.32.6a28.18,28.18,0,0,1,3.12-.12c.12,0,1.08,0,1.08.12ZM27.72,11.76a79.79,79.79,0,0,0,9-2.76A20.81,20.81,0,0,0,27.72,11.76Zm18.84-5c-1.2,0-6.12,1-7.08,1.56h.6c2,0,5.28-1.08,7.32-1.56ZM63,61.68c-3.36,0-10.44-3.84-10.44-8,0-.84,2-.84,2.88-.84v.48c1,0,1-1,2-1,0,.48-.36,1.2-.36,1.8l1.56-1.32c.6,0,.6.24.6.72s-1,2.16-1,2.4l2.28-2,.6.6-1.32,3,2.28-1.8a1.52,1.52,0,0,1,.12.72,3.47,3.47,0,0,1-.48,1.68c.72,0,.84-.6,1.8-1,.36,0,.36.36.36.48s-.12.6-.12.72c.6,0,.84-.6,1.56-.6-.24-2-4.8-3.84-4.8-5.4l3.48-.24-.12.36c.6,0,.84-.36,1.2-.36s.84,0,.84.36l-.24.84.6.24,1-.72c.12,0,.72.24.72.48s-.6.84-.6,1.2c.84,0,1.08-.84,1.8-.84.12,0,.6.24.6.36,0,.48-.6,1.32-.6,1.92.6-.24,1.44-1.2,2.16-1.2A9.06,9.06,0,0,1,71,57.48a16.2,16.2,0,0,0,1.56-1.8,2,2,0,0,1,.6-.24c.12,0,.24,0,.24.24a8.71,8.71,0,0,1-.84,2h.6a17.92,17.92,0,0,0,1.68-1.44c.24,0,.24.72.24.6,0,.24-1.08,1.32-1.08,1.44l.36.24,2.16-1.44H77c0,.6-.6,1-1,1.44a13.91,13.91,0,0,0,2.16-1.08c.36,0,.36.12.36.24,0,.36-.48.84-.48,1a8.61,8.61,0,0,0,1.68-.6l1.8.6C81.6,60.48,75.36,62,74,62c-1.8,0-3.84-1.8-5.76-1.8C66.84,60.24,65,61.68,63,61.68ZM65.64,58l-.6,1.2c.84,0,1.68-.72,1.68-1.2Zm1-44.28c0-.72.36-1,1.08-1A1.15,1.15,0,0,1,66.6,13.68ZM70.8,13c0,.24-1.68,2.4-2.88,2.4-.12-.12-.24-.12-.24-.48C67.68,14.28,70.32,13,70.8,13ZM70,31a1.78,1.78,0,0,0-.12.84c1.68,0,3.48-1.68,4.44-2.76Zm.36,2.52a3.88,3.88,0,0,0,3-1.68C72.24,31.8,70.32,32.52,70.32,33.48Zm1.56,1.68A6.81,6.81,0,0,0,74,33.72c-.48,0-2.52.36-2.52,1Zm1.32.6c0,.24,0,.36.12.36.36,0,.6-.12.6-.36s-.24-.36-.6-.36C73.2,35.4,73.2,35.64,73.2,35.76Zm5.52,3.12c1.2-.48,6-3,6-3.6s-1.44-1.32-1.8-1.56c-.84-.72-4.68-4.68-5.4-5.4-.36,3.12-2,6-2,9h.72c1.56-.72,4.2-2.64,5.88-2.64l.6.12c-1,.84-4.92,1.8-4.92,2.88l1,.12Zm2.52-5.4c0,.6-4.2,2.4-4.32,2.4S79.32,33.48,81.24,33.48Zm-2.52-2.76.36.6c-.36.36-.48.48-.84.48a4.24,4.24,0,0,0-.72-.12ZM77.52,34v-.48c0-1.2,1.08-1.32,2.28-1.32A5.24,5.24,0,0,1,77.52,34Zm.72-3.72-.48.24V29.4ZM94.56,49.68c2.88,0,5.88,2.16,5.88,5.16,0,2.4-1.56,2.76-3.24,2.76-1.92,0-6.6-.6-6.6-3.6C91,51.6,92.16,49.68,94.56,49.68Zm1.68,7c2.52,0,2.76-.72,2.76-1.68V54c0-2.16-2.88-2.88-4.44-2.88-.48,0-.72.12-1,.12A3,3,0,0,0,92.28,54C92.28,56,94.68,56.64,96.24,56.64Zm1.8-1.2c-1.56,0-4-.6-5-2C93.24,53.52,98,54.6,98,55.44Zm-4.56-.6a4.1,4.1,0,0,1,1.56.6.9.9,0,0,1-.6.12c-.6,0-1.32-.24-1.44-.72ZM98,54c-1.2,0-4.56-.84-4.56-1.68C94.2,52.56,98,53,98,54Zm-1.32-1.44a5.06,5.06,0,0,1-1.44-.36C96.12,52.2,96.48,52.2,96.72,52.56Zm39-38.28c1.08,0,4.68,0,4.68-1.32s-1.56-1.32-2.64-1.56A62.73,62.73,0,0,0,131.27,10c-.35,0-.48,0-.48.12,1.68,1.44,4.92,1.2,7,1.92h-.6a34.77,34.77,0,0,1-6.72-1C130.43,13.68,134,14.28,135.71,14.28Zm-1.8-1.92a12,12,0,0,1,3.24.36l-2,.12a2.35,2.35,0,0,1-1.68-.48Zm.24,1c.24,0,2.4,0,2.4.36a6.34,6.34,0,0,1-1.44.12c-.72,0-1.2-.12-1.44-.48Zm7.2,2a31.67,31.67,0,0,0-1.8,3.48c.84-.72,2.16-2,2.16-3.36Z"/></g></g></svg>