<?xml version="1.0" encoding="UTF-8"?>
<svg width="261px" height="261px" viewBox="0 0 261 261" version="1.1" xmlns="http://www.w3.org/2000/svg" xmlns:xlink="http://www.w3.org/1999/xlink">
    <!-- Generator: Sketch 52.6 (67491) - http://www.bohemiancoding.com/sketch -->
    <title>arrow</title>
    <desc>Created with Sketch.</desc>
    <g id="Page-1" stroke="none" stroke-width="1" fill="none" fill-rule="evenodd">
        <g id="arrow">
            <circle id="Oval" fill-opacity="0.246744792" fill="#000000" cx="130.5" cy="130.5" r="130.5"></circle>
            <g id="left-arrow" transform="translate(122.000000, 130.500000) scale(-1, 1) translate(-122.000000, -130.500000) translate(47.000000, 78.000000)" fill="#FFFFFF">
                <path d="M48.9307742,1.57919696 C51.0454123,-0.526398988 54.3745386,-0.526398988 56.4891768,1.57919696 C58.5323744,3.61365792 58.5323744,6.99968384 56.4891768,9.02940247 L18.1637416,47.190958 L144.632439,47.190958 C147.580549,47.190958 150,49.5241859 150,52.4596902 C150,55.3951944 147.580549,57.8042997 144.632439,57.8042997 L18.1637416,57.8042997 L56.4891768,95.8947202 C58.5323744,98.0003162 58.5323744,101.391084 56.4891768,103.420803 C54.3745386,105.526399 51.0454123,105.526399 48.9307742,103.420803 L1.53239826,56.2251028 C-0.510799419,54.1906418 -0.510799419,50.8046159 1.53239826,48.7748972 L48.9307742,1.57919696 Z" id="Path"></path>
            </g>
        </g>
    </g>
</svg>