<?xml version="1.0" encoding="UTF-8" standalone="no"?>
<!-- Created with Keyshape -->
<svg xmlns="http://www.w3.org/2000/svg" xmlns:xlink="http://www.w3.org/1999/xlink" shape-rendering="geometricPrecision" text-rendering="geometricPrecision" viewBox="0 0 419 369" style="white-space: pre;">
    <style>
        @keyframes a0_t { 0% { transform: translate(0px,172.032px); } 28.5714% { transform: translate(-0.000001px,172.032px); animation-timing-function: cubic-bezier(0,0,0,0.885); } 35.7142% { transform: translate(0.000003px,268.032px); } 50% { transform: translate(0.000003px,268.032px); animation-timing-function: cubic-bezier(0,0,0,0.885); } 57.1428% { transform: translate(0.000003px,364.032px); } 71.4285% { transform: translate(0.000003px,364.032px); animation-timing-function: cubic-bezier(0,0,0,0.885); } 78.5714% { transform: translate(0.000003px,172.032px); } 92.8571% { transform: translate(0.000003px,172.032px); } 100% { transform: translate(0px,172.032px); } }
        @keyframes a1_t { 0% { transform: translate(0px,364.032px); } 28.5714% { transform: translate(0px,364.032px); } 35.7142% { transform: translate(0px,364.032px); } 50% { transform: translate(0.000003px,364.032px); animation-timing-function: cubic-bezier(0,0,0,0.885); } 57.1428% { transform: translate(0px,268.032px); } 71.4285% { transform: translate(0px,268.032px); } 78.5714% { transform: translate(0px,268.032px); } 92.8571% { transform: translate(0px,268.032px); animation-timing-function: cubic-bezier(0,0,0,0.885); } 100% { transform: translate(0px,364.032px); } }
        @keyframes a2_t { 0% { transform: translate(0px,268.032px); } 28.5714% { transform: translate(-0.000001px,268.032px); animation-timing-function: cubic-bezier(0,0,0,0.885); } 35.7142% { transform: translate(0px,172.032px); } 50% { transform: translate(0px,172.032px); } 57.1428% { transform: translate(0px,172.032px); } 71.4285% { transform: translate(0px,172.032px); animation-timing-function: cubic-bezier(0,0,0,0.885); } 78.5714% { transform: translate(0px,364.032px); } 92.8571% { transform: translate(0px,364.032px); animation-timing-function: cubic-bezier(0,0,0,0.885); } 100% { transform: translate(0px,268.032px); } }
    </style>
    <path fill="#000000" stroke="none" d="M11.232,0L19.488,0L19.488,-38.496L32.352,-38.496L32.352,-45.504L19.488,-45.504L19.488,-52.224C19.488,-58.176,21.888,-61.152,26.688,-61.152C31.2,-61.152,33.984,-58.656,33.984,-54.336L33.888,-52.608L41.664,-52.608C41.76,-53.184,41.76,-53.856,41.76,-54.72C41.76,-62.688,36.672,-68.16,26.688,-68.16C16.8,-68.16,11.232,-61.92,11.232,-52.416L11.232,-45.504L1.056,-45.504L1.056,-38.496L11.232,-38.496ZM38.2105,-22.752C38.2105,-9.312,47.5225,0.96,61.2505,0.96C74.8825,0.96,84.3865,-9.312,84.3865,-22.752C84.3865,-36.192,75.0745,-46.464,61.2505,-46.464C47.5225,-46.464,38.2105,-36.192,38.2105,-22.752ZM75.8425,-22.752C75.8425,-13.152,69.7945,-6.528,61.2505,-6.528C52.8025,-6.528,46.6585,-13.248,46.6585,-22.752C46.6585,-32.256,52.8025,-38.976,61.2505,-38.976C65.5705,-38.976,69.0265,-37.44,71.7145,-34.368C74.4985,-31.392,75.8425,-27.456,75.8425,-22.752ZM94.3695,-45.504L94.3695,0L102.626,0L102.626,-28.992C102.626,-35.136,105.986,-39.168,111.074,-39.168C115.585,-39.168,118.369,-36.576,118.369,-32.352C118.369,-31.488,118.273,-30.336,118.081,-28.992L126.146,-28.992C126.53,-30.528,126.721,-32.256,126.721,-34.08C126.721,-40.992,121.633,-46.464,114.242,-46.464C108.77,-46.464,104.641,-43.776,102.626,-38.88L102.626,-45.504ZM136.604,-45.504L136.604,0L144.86,0L144.86,-27.84C144.86,-35.232,148.7,-38.976,153.692,-38.976C158.684,-38.976,162.044,-35.712,162.044,-29.472L162.044,0L170.396,0L170.396,-28.32C170.396,-35.328,174.332,-38.976,179.324,-38.976C184.22,-38.976,187.676,-35.52,187.676,-29.856L187.676,0L195.932,0L195.932,-31.584C195.932,-41.184,190.556,-46.464,182.108,-46.464C176.348,-46.464,171.164,-43.2,168.764,-37.44C167.228,-43.296,162.62,-46.464,157.148,-46.464C151.1,-46.464,147.068,-43.584,144.86,-39.072L144.86,-45.504Z" transform="translate(0,172.032)" style="animation: 14s linear infinite both a0_t;"/>
    <path fill="#000000" stroke="none" d="M3.648,-22.464C3.648,-8.544,12.384,0.96,24.96,0.96C31.872,0.96,37.632,-2.688,40.704,-8.16L40.704,0L48.672,0L48.672,-67.2L40.32,-67.2L40.32,-37.248C37.344,-42.912,31.776,-46.464,24.768,-46.464C12.384,-46.464,3.648,-36.576,3.648,-22.464ZM40.704,-22.56C40.704,-12.384,33.408,-6.432,26.304,-6.432C18.816,-6.432,11.904,-12.288,11.904,-22.56C11.904,-32.736,18.912,-38.976,26.304,-38.976C33.408,-38.976,40.704,-32.64,40.704,-22.56ZM59.3356,-12.96C59.3356,-8.736,60.7756,-5.376,63.6556,-2.784C66.6316,-0.288,70.1836,0.96,74.4076,0.96C81.7036,0.96,87.7516,-2.304,90.0556,-7.2L90.0556,0L98.0236,0L98.0236,-28.512C98.0236,-39.744,91.0156,-46.464,78.6316,-46.464C67.9756,-46.464,60.8716,-40.896,59.0476,-32.16L66.5356,-30.048C67.6876,-35.904,72.1036,-39.456,78.6316,-39.456C85.4476,-39.456,90.0556,-35.808,90.0556,-29.184L90.0556,-24.48L85.9276,-25.632C82.8556,-26.592,79.5916,-27.072,76.2316,-27.072C66.3436,-27.072,59.3356,-22.272,59.3356,-12.96ZM90.0556,-16.992C90.0556,-10.368,84.7756,-6.336,77.1916,-6.336C71.1436,-6.336,67.8796,-9.216,67.8796,-13.44C67.8796,-18.144,71.5276,-20.64,77.3836,-20.64C79.7836,-20.64,82.6636,-20.16,85.8316,-19.2L90.0556,-17.952ZM113.279,-13.536C113.279,-4.416,118.559,0.96,128.159,0.96C135.935,0.96,141.119,-3.552,142.367,-11.712L134.687,-13.44C133.919,-8.448,131.711,-6.336,127.871,-6.336C124.319,-6.336,121.631,-8.832,121.631,-13.152L121.631,-38.496L137.951,-38.496L137.951,-45.504L121.631,-45.504L121.631,-59.616L113.279,-59.616L113.279,-45.504L104.255,-45.504L104.255,-38.496L113.279,-38.496ZM149.383,-12.96C149.383,-8.736,150.822,-5.376,153.702,-2.784C156.678,-0.288,160.23,0.96,164.454,0.96C171.751,0.96,177.798,-2.304,180.103,-7.2L180.103,0L188.07,0L188.07,-28.512C188.07,-39.744,181.062,-46.464,168.678,-46.464C158.023,-46.464,150.919,-40.896,149.094,-32.16L156.583,-30.048C157.734,-35.904,162.15,-39.456,168.678,-39.456C175.495,-39.456,180.103,-35.808,180.103,-29.184L180.103,-24.48L175.975,-25.632C172.902,-26.592,169.639,-27.072,166.279,-27.072C156.391,-27.072,149.383,-22.272,149.383,-12.96ZM180.103,-16.992C180.103,-10.368,174.822,-6.336,167.238,-6.336C161.191,-6.336,157.926,-9.216,157.926,-13.44C157.926,-18.144,161.574,-20.64,167.43,-20.64C169.831,-20.64,172.71,-20.16,175.879,-19.2L180.103,-17.952Z" transform="translate(0,364.032)" style="animation: 14s linear infinite both a1_t;"/>
    <path fill="#000000" stroke="none" d="M3.168,-11.904C5.856,-4.128,12.864,0.96,23.136,0.96C33.408,0.96,41.376,-4.992,41.376,-13.44C41.376,-21.024,36.096,-25.536,25.44,-26.976C16.512,-28.224,13.248,-29.952,13.248,-33.888C13.248,-37.44,17.088,-39.744,22.08,-39.744C26.976,-39.744,30.528,-37.44,32.064,-32.832L38.496,-36.384C35.712,-42.816,30.624,-46.464,22.08,-46.464C17.376,-46.464,13.44,-45.312,10.272,-42.912C7.2,-40.608,5.664,-37.632,5.664,-33.984C5.664,-26.784,10.848,-22.464,21.312,-20.928C30.528,-19.68,33.312,-17.28,33.312,-12.96C33.312,-9.024,29.568,-6.336,23.52,-6.336C16.608,-6.336,12.576,-9.024,9.984,-15.456ZM54.8101,-13.536C54.8101,-4.416,60.0901,0.96,69.6901,0.96C77.4661,0.96,82.6501,-3.552,83.8981,-11.712L76.2181,-13.44C75.4501,-8.448,73.2421,-6.336,69.4021,-6.336C65.8501,-6.336,63.1621,-8.832,63.1621,-13.152L63.1621,-38.496L79.4821,-38.496L79.4821,-45.504L63.1621,-45.504L63.1621,-59.616L54.8101,-59.616L54.8101,-45.504L45.7861,-45.504L45.7861,-38.496L54.8101,-38.496ZM92.4476,-45.504L92.4476,0L100.704,0L100.704,-28.992C100.704,-35.136,104.064,-39.168,109.152,-39.168C113.664,-39.168,116.448,-36.576,116.448,-32.352C116.448,-31.488,116.352,-30.336,116.16,-28.992L124.224,-28.992C124.608,-30.528,124.8,-32.256,124.8,-34.08C124.8,-40.992,119.712,-46.464,112.32,-46.464C106.848,-46.464,102.72,-43.776,100.704,-38.88L100.704,-45.504ZM165.882,-45.504L165.882,-21.312C165.882,-12.192,160.41,-6.336,153.21,-6.336C146.586,-6.336,142.938,-10.272,142.938,-18.24L142.938,-45.504L134.682,-45.504L134.682,-16.32C134.682,-5.088,141.018,0.96,151.002,0.96C157.626,0.96,162.81,-2.4,165.882,-7.68L165.882,0L174.234,0L174.234,-45.504ZM207.923,-6.336C199.859,-6.336,192.275,-12.864,192.275,-23.04C192.275,-33.504,199.954,-39.168,206.962,-39.168C214.354,-39.168,219.155,-34.944,220.594,-27.744L228.178,-30.048C225.97,-40.416,218.098,-46.464,207.059,-46.464C194.674,-46.464,184.21,-36.672,184.21,-23.04C184.21,-8.64,193.811,0.96,208.115,0.96C219.538,0.96,227.794,-5.664,230.387,-17.184L222.995,-19.968C221.171,-11.424,216.755,-6.336,207.923,-6.336ZM243.529,-13.536C243.529,-4.416,248.809,0.96,258.409,0.96C266.185,0.96,271.369,-3.552,272.617,-11.712L264.937,-13.44C264.169,-8.448,261.961,-6.336,258.121,-6.336C254.569,-6.336,251.881,-8.832,251.881,-13.152L251.881,-38.496L268.201,-38.496L268.201,-45.504L251.881,-45.504L251.881,-59.616L243.529,-59.616L243.529,-45.504L234.505,-45.504L234.505,-38.496L243.529,-38.496ZM311.991,-45.504L311.991,-21.312C311.991,-12.192,306.519,-6.336,299.319,-6.336C292.695,-6.336,289.047,-10.272,289.047,-18.24L289.047,-45.504L280.791,-45.504L280.791,-16.32C280.791,-5.088,287.127,0.96,297.111,0.96C303.735,0.96,308.919,-2.4,311.991,-7.68L311.991,0L320.343,0L320.343,-45.504ZM333.104,-45.504L333.104,0L341.36,0L341.36,-28.992C341.36,-35.136,344.72,-39.168,349.808,-39.168C354.32,-39.168,357.104,-36.576,357.104,-32.352C357.104,-31.488,357.008,-30.336,356.816,-28.992L364.88,-28.992C365.264,-30.528,365.456,-32.256,365.456,-34.08C365.456,-40.992,360.368,-46.464,352.976,-46.464C347.504,-46.464,343.376,-43.776,341.36,-38.88L341.36,-45.504ZM407.791,-16.512C405.967,-9.984,401.647,-6.336,394.639,-6.336C386.575,-6.336,380.239,-11.616,380.143,-21.504L413.071,-21.504C413.455,-23.232,413.647,-25.056,413.647,-27.072C413.647,-33.024,411.823,-37.728,408.079,-41.184C404.335,-44.736,399.439,-46.464,393.391,-46.464C380.431,-46.464,371.695,-36.096,371.695,-23.04C371.695,-8.352,381.295,0.96,394.639,0.96C405.103,0.96,411.919,-4.512,414.991,-13.728ZM380.143,-27.456C381.007,-34.656,386.287,-39.168,393.295,-39.168C400.207,-39.168,405.487,-35.328,405.487,-28.8L405.391,-27.456Z" transform="translate(0,268.032)" style="animation: 14s linear infinite both a2_t;"/>
</svg>
