<svg xmlns="http://www.w3.org/2000/svg" viewBox="0 0 658 544.95"><title>bars</title><g id="Layer_2" data-name="Layer 2"><g id="Layer_1-2" data-name="Layer 1"><path d="M339.94,373.86a2.73,2.73,0,0,0,3-1.4,5.77,5.77,0,0,1,1.93-1.75c3.9-2.83,8.73-3.88,12.59-6.79,3.49-2.64,7-5.3,10.7-7.59,4.33-2.67,8.23-6,13.09-7.86,2.1-.81,3.94-2.38,6-3.45a63,63,0,0,1,6.52-2.51,1.74,1.74,0,0,1,2.21.43c.64.91.14,1.72-.43,2.45a2.77,2.77,0,0,1-.81.68c-4.19,2.24-7.93,5.19-12.11,7.49-2.67,1.46-5.61,2.72-7.81,5a3.6,3.6,0,0,1-1.55,1.05,16,16,0,0,0-5.45,3.29c-3,2.35-6.25,4.19-9.3,6.38-2,1.44-4.24,2.61-5.74,4.69a2,2,0,0,1-1.12.71c-2.37.4-3.35,2.57-5,3.89-.8.64-.76,1.51.31,1.85,1.49.47,2.67,1.07,2.67,2.88,0,1.34.23,2.7-1,3.7-.6.46-.39,1.11-.18,1.73a4.72,4.72,0,0,1-.21,3.67c-.49,1-.36,1.6.66,2.17s.86,1.6.21,2.31c-1.51,1.62-2.82,3.52-5.19,4.1s-3.23,3-5.07,4.21c-.26.18-.2.68,0,1s.59.9.87,1.36c1.11,1.83.67,3.7-1.37,3.88-3.1.28-3.16,2.32-3.47,4.45-.17,1.24-.38,2.48-.5,3.73s.26,1.6,1.57,1.43c1.59-.21,3.18-.54,4.72-.88a21,21,0,0,1,6.93-.21,15.29,15.29,0,0,0,5.58-.44,20.07,20.07,0,0,1,7.49-.09,23.1,23.1,0,0,0,6.92-.32c5.9-1.05,11.77-.58,17.66-.13a5.78,5.78,0,0,0,1.07.13c4.55-.7,8.84.94,13.26,1.44a23.42,23.42,0,0,0,5.61.39,10.71,10.71,0,0,1,4.21.79c2.81.8,5.61,1.64,8.49,2.29a47.3,47.3,0,0,1-22.18,1.85c2,2.36,2,4.74-.09,6.71-4.74,4.49-9.55,8.9-14.59,13.07-4.13,3.41-8.19,6.93-12,10.67-1.51,1.47-2.72,3.28-4.45,4.59-2,1.56-4.14,3.09-6.07,4.79-2.34,2.06-4.53,4.29-6.78,6.45-.06.06-.08.19-.15.22-3.08,1.51-3,4.46-3.29,7.23-.23,1.89-.88,2.64-2.28,2.91a2.4,2.4,0,0,1-3.16-2.27,26,26,0,0,0-.51-3.18c-.57-2.08-1.6-2.63-3.6-1.82a14.64,14.64,0,0,1-5.25,1c-2.22.05-3.34-.86-3.72-3-.5-2.74-1.83-5.22-2.25-8a5.78,5.78,0,0,1,0-2.65c1.47-4.57,1.19-9.22.47-13.85a12.18,12.18,0,0,1,.17-4.52c.61-2.8.48-5.71,1.33-8.46a3.32,3.32,0,0,0-.12-1.85,45.47,45.47,0,0,1-.78-5c-.66-4.52.11-8.93.86-13.34.28-1.64.56-3.16-.7-4.54-.8-.87-.61-2-.7-3.08-.09-1.26.94-1.58,1.77-2.11a2.84,2.84,0,0,0,1.37-2.49c-.11-2.9.82-5.67.88-8.55.09-3.75.31-7.5.5-11.26.05-1,.18-2,.28-2.94.23-2.35.28-4.67-1-6.78a1.82,1.82,0,0,1,.12-2.46,6,6,0,0,0,1.64-5.17c-.42-5.84.11-11.65,0-17.48-.07-4.2.06-8.41.21-12.62.18-4.72.65-9.49.1-14.2a80.45,80.45,0,0,0-1.37-9c-.72-3.07-.35-6.06,0-9.08.07-.61.48-1.24.25-1.84-1.39-3.46-.14-6.92.06-10.36a28.23,28.23,0,0,0-.67-9.87,11.67,11.67,0,0,1-.16-4.81,44.53,44.53,0,0,0,0-6.43c0-2.31.27-4.64.47-7a4.75,4.75,0,0,0-1-3.51c-1.63-2.16-1.55-3.25.39-5.11,1.49-1.44,1.56-3.18,1.41-5a18.29,18.29,0,0,1-.06-2.67c.41-5.79,1.48-11.52,1.48-17.35a16.62,16.62,0,0,1,.55-4.27,84.23,84.23,0,0,0,1.79-13,22.2,22.2,0,0,0-.64-8.53c-1.29-4.23-1-8.5-.68-12.8.28-3.63.14-7.29.69-10.91a6.54,6.54,0,0,0-.38-2.9,47.37,47.37,0,0,1-2-16.74q.57-7.86,1.5-15.73c.47-4,1.81-7.83,2-11.87a14.48,14.48,0,0,0-.42-5.58,3.53,3.53,0,0,1,.63-3.75,6,6,0,0,0,1.43-3.68c.37-4.48,1.79-8.78,2.38-13.22a8,8,0,0,0-.39-4.21,22.25,22.25,0,0,1-1.42-12.64c.22-1.11.15-2.16-1.09-2.74-3.22-1.5-3.42-3.1-2.71-7A35.48,35.48,0,0,1,338.11,72a22.27,22.27,0,0,1,1.23-2.38,1.72,1.72,0,0,1,2.09-.79,7.1,7.1,0,0,0,1.79.51c2.39.11,2.82-.22,3.11-2.56a19.73,19.73,0,0,1,1.78-6.44,4.35,4.35,0,0,0,.22-3.88,2.46,2.46,0,0,0-2.66-1.76c-3.32.16-6.64.39-9.95.41a82.22,82.22,0,0,1-13.67-.56,15.6,15.6,0,0,0-4.82-.26,5,5,0,0,1-2.14,0c-2.71-.82-5.44-.46-8.17-.21a2.19,2.19,0,0,1-.8,0c-4.58-1.18-9.2-.18-13.78-.42-2.34-.13-4.62.57-6.85.19s-4.22-.66-6.35-.85c-4.9-.46-9.8-.8-14.72-.77a39.75,39.75,0,0,1-5.33-.43,70.93,70.93,0,0,0-15.55-.36c-7.13.6-14.25,1.52-21.43.86a34.9,34.9,0,0,0-5.11.08c-1.19,0-1.54.73-.65,1.52,1.53,1.34,1.42,2.94,1.31,4.66-.21,3,.61,5.87,1.09,8.78.43,2.6,2.68,3.24,4.78,3.72,3.75.87,5.05,2.82,4.63,6.75a58.74,58.74,0,0,0-.14,7.51c.07,4-.39,8.06.26,12.08a3.52,3.52,0,0,1-.06,1.07c-.78,4.87-.56,9.8-.84,14.7-.4,7-.66,14.08-2.18,21a10.73,10.73,0,0,0,0,5.16c.12.51.29,1.21.06,1.57-1.45,2.22-.79,4.74-1.07,7.09-.55,4.61-.61,9.28-1.09,13.9-.27,2.66,0,5.36-.79,8-.32,1.07.25,2.46.54,3.67a10.28,10.28,0,0,1,.21,3.71,37.88,37.88,0,0,0-.06,5.11c.08,2.41.51,4.81,0,7.24a4.83,4.83,0,0,0,.22,2.12,13.23,13.23,0,0,1,0,6.87c-.5,2-.2,4.25-.37,6.39-.32,3.92.93,7.78.6,11.72-.09,1,.61,1.36,1.52,1.52a34.23,34.23,0,0,1,5.12,1.63c.75.25,1.35.63,1.39,1.44.08,1.78.44,3.59-.27,5.31-.81,2-1.77,3.91-2.57,5.9-.41,1-.92,1.7-2.09,1.78-1.45.1-2.39,1.15-3.43,2a1,1,0,0,0-.28,1.23c.23.51.73.42,1.17.39a4.44,4.44,0,0,1,2.35,0c3.19,1.33,3.79,4.58,1.19,6.87-.74.65-1.66,1-2.38,1.74-3.13,3.06-5.43,6.45-5.34,11.08.05,2.59-.78,5.11-.74,7.74,0,2.33-.1,4.66,0,7a12.74,12.74,0,0,1-.45,4.79,10.63,10.63,0,0,0-.16,2.93c-.11,4.27-.37,8.54-.59,12.81-.19,3.76-.27,7.54-.61,11.29-.27,3,.27,6,.33,9,.06,3.57.29,7.25-.72,10.81-.4,1.39.33,2.78.18,4.24-.45,4.62,0,9.27-.2,13.92a140.89,140.89,0,0,0,.19,17.19c.48,5.4-.46,10.73-.85,16.1s-2.07,10.88-2,16.46a6.83,6.83,0,0,1-.39,2.65,23.27,23.27,0,0,0-1.36,9.21,2.2,2.2,0,0,1-.11,1.06c-1.59,3-.31,6.34-1.07,9.51-.72,3-.6,6.22-.76,9.35-.41,8-.44,15.93-1.54,23.85a3,3,0,0,0,0,1.33c.9,2.48.33,5,.12,7.47a12.13,12.13,0,0,0,1.28,7.29c1.62,2.83.09,5.39-.63,8a2.26,2.26,0,0,1-2.16,1.36,12.78,12.78,0,0,0-2.38.43,2.56,2.56,0,0,0-2.07,2.49,26.75,26.75,0,0,0-.28,4,12.13,12.13,0,0,1-.39,3.73,27.48,27.48,0,0,0-.58,5.77,30.61,30.61,0,0,1-1,7.1c-.37,1.51-3.43,2.17-5.21,1.35s-2.67-2.89-1.79-4.43a6.31,6.31,0,0,0,.78-2.53c.22-2-.29-2.7-2.3-2.58-4.82.32-9.69,0-14.46.49a21.16,21.16,0,0,0-7.74,2c-1.72.91-3.68.24-5.53.38-3.47.28-7-.06-10.42.8a3.67,3.67,0,0,1-.8.11c-4.57.06-9.13.16-13.7.14a7.93,7.93,0,0,0-3.42.41,4.16,4.16,0,0,1-5.34-1.13c-.81-1-1.45-.79-2.18.06s-1.72,1.86-3.15,1.81c-2.16-.08-3.72-2-3.54-4.52.07-1,.39-1.93.53-2.91.4-2.76-.38-3.57-3.13-3.39-.63,0-1.26-.06-1.88,0a3,3,0,0,1-3.55-2.52,1.61,1.61,0,0,0-1.88-1.46c-2,.1-3.55-1.15-5.34-1.69-1.21-.37-1.38-1.57-1.4-2.68,0-1.61,0-3.22,0-4.83a3.62,3.62,0,0,0,0-.8c-1.13-4.46.37-8.62,1.4-12.84a4.24,4.24,0,0,0,.09-2.12,5.86,5.86,0,0,1,.12-2.67c1-5.38,2.06-10.86,1.41-16.25-.57-4.7.33-9.19.44-13.77,0-1.08.24-2.15.25-3.22,0-2-.39-2.33-2.36-1.67a3.46,3.46,0,0,1-3.92-.91,3.91,3.91,0,0,1-1.06-4,2.94,2.94,0,0,1,3-1.85c4.36,0,4.14-1.21,3.89-4.64-.45-6.36,0-12.71-.15-19.06-.13-5.54.71-11.08,1-16.61.4-7.46,1.89-14.75,2.68-22.14.6-5.68,1.4-11.36,1.35-17.09,0-1.46.4-2.84.48-4.28.1-1.69.29-3.31-.64-5-.63-1.12-.35-2.32.44-3.69,1.63-2.85,2.92-6,.84-9.31-1.1-1.72-1-3.19.46-4.54a3.39,3.39,0,0,0,.94-2.43c.35-4.64.62-9.29,1.08-13.92.55-5.5,1.1-11,1.87-16.51s1.93-10.69,2.35-16.14c.24-3.17.86-6.38,1.31-9.57a153.8,153.8,0,0,0,1.46-17.68c.08-3.54,1.18-6.88,1.55-10.36.52-5,1.42-9.9,1.93-14.88.4-4,.45-8,.66-12a6.37,6.37,0,0,1,0-1.06c2-8.76,2-17.77,3.35-26.6.78-5.14,1.45-10.3,1.74-15.47a172,172,0,0,0,.24-20.69,3.09,3.09,0,0,1-.06-.8c1-5.51-.09-11.07.37-16.6a58.92,58.92,0,0,0,.49-8.82c-.23-3.3,0-6.64-.29-9.92a23,23,0,0,1,1-9.27,1.34,1.34,0,0,0,.09-.26,6.68,6.68,0,0,1,4.43-6.08c.79-.31.9-1,.92-1.8.09-2.77.25-5.55.25-8.33a19.09,19.09,0,0,1,.15-2.4,3.81,3.81,0,0,1,3.39-3.57c1.5-.08,3.34,1.5,3.87,3.14s.14,3.2,0,4.79c-.14,2.23-.38,4.39.71,6.56.88,1.75-.39,4.36-2.3,5.5a25.83,25.83,0,0,0-3.52,2c-2.28,1.89-2.59,4.59-3,7.23a61.66,61.66,0,0,0-.37,15.71.83.83,0,0,1,0,.27c-.91,5.08-.42,10.19-.28,15.27.15,5.83-.31,11.62-.36,17.43,0,2,0,3.92,0,5.87,0,2.72,1.19,4.18,3.81,4.76a13.46,13.46,0,0,0,3.19.48c4-.14,7.76,1.28,11.65,1.79,5.1.67,10.1,1.92,15.36.54,4-1,8.18-.9,12.31-.81,2.38.06,4.65.54,7-.7s5.63-.51,8.37-1.23a56.53,56.53,0,0,1,11.28-1.86,4.87,4.87,0,0,1,2.91.26c3.11,1.61,4.06.93,3.89-2.51a66.68,66.68,0,0,1,1.12-14.46,82.36,82.36,0,0,0,1.19-14.16c-.06-7.43.68-14.85.51-22.28a12.62,12.62,0,0,0-.26-2.94c-.65-2.46,0-5-.45-7.49a9.27,9.27,0,0,0-.71-2.57,3.19,3.19,0,0,0-2.94-2,7,7,0,0,1-2.61-.51c-1.78-.74-2.86-1.89-2.53-3.91.55-3.36-.66-6.55-.9-9.83a7,7,0,0,0-1.08-2.74c-1.63-3-1.21-4.53,1.82-6.29a.67.67,0,0,0,.37-.82c-2.31,0-4.67.1-7-.09a70.4,70.4,0,0,0-10.45-.44c-4.12.28-8.21-.11-12.31.12-2.48.13-4.95-.3-7.46-.25a104.64,104.64,0,0,0-12.26.73,18.91,18.91,0,0,1-3.76.14c-3.66-.22-7.33.08-11,0-4.57,0-9.09.65-13.63.52a42.87,42.87,0,0,1-7-.51c-2.47-.47-5-.09-7.52-.21-2-.09-4.09,0-6.14-.31a5,5,0,0,0-4.43,1.5,4.28,4.28,0,0,1-3.21,1.8c2.1,2.81.8,5.32-.14,7.73a20.89,20.89,0,0,0-1.22,7.39c0,1.55,1.35,2.65,3.35,2.72a7.25,7.25,0,0,0,3.18-.44,2.56,2.56,0,0,1,2.56.32,39.94,39.94,0,0,1,4,3.57,3.22,3.22,0,0,1,.51,4.15,18.8,18.8,0,0,0-1.86,12.22A2.44,2.44,0,0,1,117,94c-1,3.92.21,7.85-.08,11.78-.24,3.38-.37,6.79-.28,10.18.11,4.55.22,9.1.52,13.65a126.81,126.81,0,0,1,.23,14.2,81.88,81.88,0,0,0,.17,8.27,2.86,2.86,0,0,0,.63,1.46,6.51,6.51,0,0,1,.82,5.66,47.63,47.63,0,0,0-1.57,9c-.12,1.82-1.33,3.44-1.28,5.42.06,2.67-.32,5.34-.29,8,0,1.62-.61,3.09-.56,4.76a93,93,0,0,1-.66,16.58c-.36,2.39,0,5-.13,7.46-.17,2.68-.46,5.35-.69,8a11,11,0,0,0,0,3.48,2.45,2.45,0,0,1,.12,1.06c-1.07,3.85-.3,7.87-1.12,11.76a13.71,13.71,0,0,0-.36,4.27c.33,2.89-.49,5.71-.34,8.58s-1.15,5.43-1,8.25c.19,4.3-.44,8.57-.52,12.86a41.16,41.16,0,0,1-.81,5.85c-.58,3.51-.76,7.06-1.34,10.57-.75,4.58-1,9.21-1.39,13.83-.21,2.83-.24,5.68-.34,8.53a3.53,3.53,0,0,1,0,.8c-1.13,3.81-.72,7.77-1,11.65C105.18,326,104,332.1,104,338.3c0,2.23-.44,4.45-.56,6.68a23.91,23.91,0,0,0,.17,6.86,9.67,9.67,0,0,1,.1,4.28c-.88,3.88-.58,7.85-1,11.77-.32,3.12-.71,6.26-.84,9.37-.15,3.47-.58,6.95-.55,10.39.09,9.69-.73,19.29-1.6,28.91-.36,4-.28,8-.46,12-.3,6.34-.76,12.7-1.64,19a15.55,15.55,0,0,0,.34,4.79c.4,2.25,0,4.46,0,6.69-.07,3.21-.23,6.41-.26,9.62a8.85,8.85,0,0,0,.71,3.13,4.3,4.3,0,0,1-4.78,5.93,11.41,11.41,0,0,0-4,.13,3.12,3.12,0,0,0-1.22.5c-1.07.8-2.18,4.86-1.74,6.15.93,2.72-.45,7.05-2.76,8.65-1.39,1-3.49,1.2-4.58.38a3.63,3.63,0,0,1-1.21-3.88,42.69,42.69,0,0,1,1.16-5.79c.62-1.84-.49-3.82.7-5.52a12.22,12.22,0,0,0,2.49-5c.29-1.61,2-2.21,3.47-2.62a5,5,0,0,1,1.6-.06c3.57.18,3.85,0,3.9-3.49,0-1.65.72-3.67-1.62-4.61-.5-.21-.25-.92.17-1.08,2.59-1,2.42-3.25,2.42-5.43a53.31,53.31,0,0,0-.15-7.79,5.18,5.18,0,0,1,.18-1.87c1.24-5.34,1-10.88,2.11-16.25.38-1.79-.18-3.76,0-5.62.26-3.41.11-6.82.44-10.26.72-7.37,1.77-14.74,1.53-22.22a56.57,56.57,0,0,1,.7-13.67c.51-2.44,0-5,.43-7.5.91-5.39.62-10.87,1-16.3.1-1.51-.09-3-.12-4.56a124.16,124.16,0,0,1,1.08-17.12c.57-4.89,1-9.8,1.47-14.7.43-4.2.17-8.39.47-12.57.29-3.92.24-7.86,1.13-11.74.6-2.62.23-5.35.59-8,.76-5.59,1.23-11.21,1.9-16.8a58.77,58.77,0,0,0,.78-10.42,12.48,12.48,0,0,1,.43-3.46c.78-3.46.16-7,.47-10.45.39-4.46.34-9,1.1-13.37.62-3.59.31-7.09.38-10.64.09-5,.4-10,.49-15,0-2.14.12-4.28.13-6.41a40.48,40.48,0,0,1,.55-7.2,24.45,24.45,0,0,0,.34-4.81,119.72,119.72,0,0,1,1.78-22.19,60.55,60.55,0,0,0,.53-14.87c-.33-5,0-10.06-.59-15-.36-3.3-.5-6.6-.76-9.9-.29-3.64-.11-7.33-.18-11-.13-7.43.54-14.87-.56-22.27a9.07,9.07,0,0,1,.14-3.48,49.78,49.78,0,0,0-.19-7.38c-.55-1.94-.88-2.16-2.83-1.77-1,.2-1.93.45-2.87.72-2.52.73-3.91-.14-4.15-2.83A41.64,41.64,0,0,1,99.88,71a58.7,58.7,0,0,0-.13-11c-.28-2.32.16-4.31,2.65-5.26,1.3-.49,1.55-1.34.84-2.53-.93-1.58-.36-3.16.16-4.68a3.15,3.15,0,0,1,3.4-2,71,71,0,0,0,11.76.18,29,29,0,0,1,6.91.5,26.71,26.71,0,0,0,9.56,0,4.37,4.37,0,0,1,1.34-.11c4,.5,8-.14,12,.27s8.22-.11,12.33.22c2.1.16,4.34.64,6.33-.19,3-1.24,6-.47,8.94-.85,3.26-.43,6.4.29,9.62.06a76,76,0,0,1,12.07,0c3.9.36,7.84,0,11.72.63A28.49,28.49,0,0,0,215,46c5.28-.23,10.57.86,15.78.13,4.07-.56,8.15-.08,12.25-.89,3.08-.62,6.5-1.07,9.84.17,1.31.48,3.09,0,4.69.14,3.67.22,7.33.71,11,.82,4.12.12,8.21.74,12.33.66,3.51-.06,6.93.87,10.44.83a16.79,16.79,0,0,0,3.74-.27,13.27,13.27,0,0,1,4.27-.29,62.41,62.41,0,0,0,12.3,0,5,5,0,0,1,2.14.08c4.18,1.54,8.52.25,12.75.82,1.15.16,2.34.07,3.48.25,3.92.62,7.81-.12,11.7-.12,3.55,0,7.14-.22,10.68.11a82,82,0,0,0,12.24.22,81,81,0,0,1,15,.25,2.34,2.34,0,0,0,1.57-.1,4.14,4.14,0,0,1,3.13-.36c3.64.71,7.33.34,11,.46,2.66.1,5.34.34,8,.56a90.81,90.81,0,0,0,10.94.09,19.79,19.79,0,0,1,6.14.47c2.84.81,5.71-.19,8.56.15.62.07,1.26,0,1.88,0a36,36,0,0,0,8.3.23,83.3,83.3,0,0,1,14.73.12c2.9.24,5.83.05,8.76.62,1.77.33,3.87,0,5.81.16a115.06,115.06,0,0,0,15-.14,32.28,32.28,0,0,1,3.71.44c6.79.32,13.61-.26,20.39.63,1.43.19,2.79-.46,4.24-.53,3.44-.16,6.74.87,10.14,1s6.91.67,10.37.91c5.15.37,10.28,1.13,15.42,1.26a119.22,119.22,0,0,1,12.25,1c1.53.2,3-.26,4.55-.08a87.45,87.45,0,0,0,15.77-.17c1.58-.11,3.17-.52,4.78-.63a5,5,0,0,1,3.58.84,3.24,3.24,0,0,1-.31,5.7c-.16.09-.32.16-.49.24-1,.48-2.46.3-2.84,1.71a7.85,7.85,0,0,0,.18,4.5,19.42,19.42,0,0,0,2.41,4.49c1.42,2.26.66,4.18-2,5.58a1.47,1.47,0,0,1-1.91-.2,6.56,6.56,0,0,0-7.3-.87,6.91,6.91,0,0,1-1.52.49c-3.87.72-5.27,2.28-6.45,6a37.51,37.51,0,0,0-1.52,5.85c-.58,3.7.69,7.24.57,10.9a55.9,55.9,0,0,1-.47,8.57c-.65,3.55,0,7.15-.31,10.71a48,48,0,0,0,.26,12.27,9.37,9.37,0,0,1-.19,2.4,6.36,6.36,0,0,0-.22,1.85c.78,3.53.15,7.12.68,10.69.49,3.34,1,6.88.14,10.13-.74,2.75,0,5.43-.65,8.14-.5,2.08.44,4.35.36,6.62-.15,4.64.1,9.29-.15,13.93-.13,2.48-.72,4.92-.21,7.44a6.23,6.23,0,0,1-.38,3.7,1.34,1.34,0,0,0-.17.78c.78,3.15-.05,6.43.77,9.57a16,16,0,0,1,.45,4.26,83.27,83.27,0,0,0,.85,14.2,14.82,14.82,0,0,1,0,4c-.4,3.45.61,6.76.59,10.15a57,57,0,0,0,1.93,14,42.63,42.63,0,0,1,.84,9.31,51.47,51.47,0,0,0,.69,5.78c.41,2.74,1,5.47,0,8.23a4,4,0,0,0-.15,1.86,52.53,52.53,0,0,1-.32,14.71,37.9,37.9,0,0,1-.88,5.55c-.76,2.6-.19,5.35-.16,8a73.19,73.19,0,0,0,.85,10.94,30.81,30.81,0,0,1,0,6.72c-.35,5.36-.07,10.72-.43,16.1a110.41,110.41,0,0,0-.32,13.63c.19,3.13.08,6.47-1.47,9.44a3,3,0,0,0-.2,2.52,58.27,58.27,0,0,1,1.36,6,3.1,3.1,0,0,1,.12,1.34c-1.2,4.44.28,8.9-.12,13.32-.21,2.35.15,4.72-.74,7.12-.68,1.82-.28,4.07-.22,6.13a46.94,46.94,0,0,1-.61,8.29,4.65,4.65,0,0,1-.66,1.74c-.29.48-.58,1.06-.28,1.52,1,1.49.26,2.93.08,4.41-.65,5.43-1.19,10.87-1.87,16.3a56.89,56.89,0,0,1-1.27,6.87,38.24,38.24,0,0,0-1,13,40.68,40.68,0,0,1-.23,6.42c-.31,4.82.38,9.27,4.29,12.68a9,9,0,0,1,3.53,6.38c.06,1.14.76,1.19,1.71,1a36.76,36.76,0,0,1,10.33-.44A32.36,32.36,0,0,0,595,478c4.44-1.3,8.82-1.2,13.26-1.25,3.12,0,3.14,0,3.08-3a4.16,4.16,0,0,1,.48-2.33,4.91,4.91,0,0,0,.42-4.38,11.9,11.9,0,0,1-.66-4,2.49,2.49,0,0,0-.56-2c-.59-.57-.39-1.1.08-1.63a3.16,3.16,0,0,0,.56-2.3c0-4.73.23-9.48-.21-14.17-.61-6.33-.33-12.66-.5-19a13.34,13.34,0,0,0-.13-2.69c-1.47-6-.55-12.26-1.4-18.34a121.12,121.12,0,0,1-1.26-14.45c-.11-5.64-.81-11.24-.82-16.86,0-3.74-.15-7.48-.09-11.22a23.15,23.15,0,0,0-.11-3.23,52,52,0,0,1-.13-8.28,40.16,40.16,0,0,0-.2-8.83,1.44,1.44,0,0,1-.07-.53c.57-2.84-.48-5.68,0-8.5a18.39,18.39,0,0,0-.17-6.41,17.08,17.08,0,0,1,0-6.94,4.3,4.3,0,0,0,.05-1.34,105.8,105.8,0,0,1-.23-15.11c.11-2.66.37-5.33.35-8a16.35,16.35,0,0,1,.46-5.07,3.46,3.46,0,0,0,.07-1.6,15.41,15.41,0,0,1,.44-7.94c.46-1.35-.54-2.59-.53-3.95,0-5.1-.5-10.25,0-15.3a104.88,104.88,0,0,0,.07-12c-.06-3.82,1.07-7.57.36-11.41a10,10,0,0,1,.28-4c.51-2.2.19-4.46.1-6.69-.35-8.86-.54-17.71-.31-26.58.08-3.22,0-6.45,0-9.68,0-1.52-.25-3,.36-4.52a2.77,2.77,0,0,0,0-1.59,26.62,26.62,0,0,1,.33-10.92,7.65,7.65,0,0,0,.18-2.13c-.72-7.32-.2-14.66-.46-22a2.14,2.14,0,0,1,0-.8c.94-2.48.1-5-.24-7.34-.47-3.27,0-6.44,0-9.65.09-4.45.54-8.9.11-13.35a51.81,51.81,0,0,1-.31-7.26,9.57,9.57,0,0,0-.09-2.14c-.88-4.71-.48-9.46-.58-14.19A42,42,0,0,1,608,82.69a5.17,5.17,0,0,0,0-2.41c-.42-1.61,0-3.16.17-4.76a39.81,39.81,0,0,0-.2-10.17,6.37,6.37,0,0,1-.08-2.38,10.48,10.48,0,0,0-.22-5.3,18,18,0,0,1-.23-5.29c.06-4.09-.33-8.16-.44-12.24,0-1.76-.1-3.41.8-4.93a2.32,2.32,0,0,0-.23-2.94,6.17,6.17,0,0,1-1.43-5.5,1.83,1.83,0,0,0-.54-2c-3-1.93-5.26-5.1-9.62-4.24-2.13.42-4.45-.12-6.68-.28-3.44-.23-6.88-.38-10.34-.42a147.08,147.08,0,0,1-17.15-1.1c-7.7-1-15.36-2.25-23.09-3-3.26-.3-6.47-1.08-9.75-1.34-5.88-.46-11.65-1.68-17.61-1.63-4.6,0-9.28,0-13.83-1.12a1.63,1.63,0,0,0-.79,0c-5.52,1.32-11-.39-16.59,0-3.59.23-7.3-.7-10.94-.43a69.76,69.76,0,0,1-8.81-.25c-6.23-.34-12.48-.25-18.7-1-3.28-.38-6.62-.12-9.93-.25-6.44-.25-12.87.41-19.31-.15-2.65-.23-5.35.22-8,.21-1.69,0-3.38,0-5.09-.08a96,96,0,0,0-10.46.09,65,65,0,0,1-15.76-.58,30,30,0,0,0-6.95-.16c-7.43.55-14.83-.19-22.25-.1-4.82-1.52-9.9-.83-14.85-1.64a49.12,49.12,0,0,0-13.1,0,66.28,66.28,0,0,1-16.05.26,17.22,17.22,0,0,0-2.69,0c-4.12.1-8.19-.66-12.3-.8s-8-.66-12,.08a3,3,0,0,1-1.08,0c-6.87-1.1-13.71.29-20.57.3-2.34,0-4.62-.42-6.92-.57-5.8-.4-11.6-.47-17.39-.78a2.44,2.44,0,0,0-.81,0c-3.74,1.12-7.64.4-11.44,1a16.08,16.08,0,0,1-5.36-.05c-2.3-.4-4.63,0-6.93.1a32.62,32.62,0,0,1-5.06-.25A39.85,39.85,0,0,0,192,6.37c-5.45.11-10.8,1.17-16.2,1.57S165.36,9.27,160,9.05a26.63,26.63,0,0,0-8,.84,24.45,24.45,0,0,1-6.39.74c-4.58,0-9.12.57-13.68.7-5.28.16-10.53-.08-15.81-.25-6.12-.19-12.33-.51-18.45.66A6.4,6.4,0,0,0,94.1,13.3c-1.53,1.53-3.29,2.4-5.58,1.48a2.16,2.16,0,0,0-2.82.82c-.63.9-1.87,1-2.93,1.19-2,.28-4,.63-6.09.78a53.79,53.79,0,0,0-6.84,1.28c-1.11.22-1.56,1-1.84,2a54.6,54.6,0,0,0-1.34,14.64c.07,4.93,1.09,9.82.66,14.75C67,53.54,67,56.8,66.4,60.07c-.67,3.59-1.15,7.25-1.64,10.89-.46,3.36-.44,6.76-1.05,10.11-.5,2.8-.35,5.72-.61,8.57A123.73,123.73,0,0,1,61.38,104c-.48,2.29.15,4.46.3,6.66a55.83,55.83,0,0,1-.22,13.61c-.26,1.49-.18,3-.29,4.55-.5,6.79-1.26,13.56-1.06,20.39a32.53,32.53,0,0,0,.54,4.24c.86,5.18.41,10.35.3,15.52-.16,7.27-.11,14.52.41,21.77a46.88,46.88,0,0,1-.35,9.38,36.67,36.67,0,0,0,.14,6.7c.19,3.67.89,7.37.54,11s.48,7-.36,10.4c-.5,2,.07,4.1.08,6.15,0,3.66-.28,7.31-.38,11a133,133,0,0,1-.83,14.13c-.72,5.21-.7,10.54-2.32,15.62a3.12,3.12,0,0,0,0,2.13,9,9,0,0,1,.27,5.27c-.59,3.26-.44,6.57-.6,9.86-.07,1.6-.44,3.16-.38,4.8A85.34,85.34,0,0,0,58.39,311a4.89,4.89,0,0,1,0,1.32,143.62,143.62,0,0,0-.84,16.85,27.87,27.87,0,0,1-.87,7.15c-.78,3.28-.83,6.74-1.21,10.12a16.77,16.77,0,0,1-.39,2.65c-1.45,4.95-1.37,10.07-1.82,15.14-.31,3.46-.06,7-.83,10.4a5,5,0,0,0-.13,1.33c.63,9.27-1.3,18.42-1.39,27.66,0,3-1.19,6-1.38,9a142.72,142.72,0,0,0,0,14.48,125.1,125.1,0,0,1-1,23.61c-.11.7-.39,1.38-.54,2.08-.36,1.68-.6,3.25.65,4.84a5.62,5.62,0,0,1,1,4.09,14.64,14.64,0,0,0,0,3,3.24,3.24,0,0,0,3.06,3.18c3.49.32,6.77,1.61,10.28,1.95a7.46,7.46,0,0,1,5.84,3.39,3.84,3.84,0,0,1-.31,4.5,3.33,3.33,0,0,1-3.9,1c-1.64-.66-3.54-.68-4.92-2a2.59,2.59,0,0,0-2-.64c-2.46.24-4.76-.47-7.12-.9a16.37,16.37,0,0,0-4.81-.34c-2,.22-4.13-1.93-4.15-4a9,9,0,0,0-1.77-5.76,4.32,4.32,0,0,1-.57-4.11,20.87,20.87,0,0,0,1.11-8.48,7.41,7.41,0,0,1,.33-2.1c1.06-5.37,2.09-10.74,1.9-16.24a15.78,15.78,0,0,0-.25-2.67,7.76,7.76,0,0,1,.09-4.74,4.19,4.19,0,0,0,.13-2.38c-.58-2.66-.31-5.38-.78-8a6.21,6.21,0,0,1,.06-2.68,61.83,61.83,0,0,0,1.92-10.78c.23-3.2.28-6.42.4-9.62a10.36,10.36,0,0,1,.08-2.68,37,37,0,0,0,1.19-10.35c.09-4.47.77-8.89.66-13.38a61.86,61.86,0,0,1,.59-9.11c.56-4.51,1.08-9,2-13.49a22.25,22.25,0,0,0,.3-5.61c-.12-1.91.52-3.87.86-5.8a9.8,9.8,0,0,0,.57-2.62c-.33-3,.54-5.86.58-8.75a156.91,156.91,0,0,0-.18-15.78c-.39-4.82-.83-9.74.15-14.68a37.85,37.85,0,0,0,.38-12.57c-.46-3.28.26-6.48.94-9.55a95,95,0,0,0,1.51-11.71c.38-4,.23-8.05,1.14-12a3.49,3.49,0,0,0,0-1.07c-.44-4.48,0-9-.08-13.43a27.15,27.15,0,0,1,.46-3.73,31,31,0,0,0,0-7.76c-.46-3.39.62-6.83-.31-10.16-.75-2.73-.41-5.53-.36-8.23a40.88,40.88,0,0,1,.63-8.42c.66-2.83-.26-5.42-.41-8.11-.12-2-.23-4.07-.24-6.12,0-5.79.32-11.56.23-17.34-.05-2.69-.41-5.36-.63-8-.47-5.55-.73-11.08.46-16.58a14.09,14.09,0,0,0,.29-5.34c-.41-2.33.35-4.62.56-6.91.54-5.86-.13-11.62-.69-17.41a13,13,0,0,1,.21-3.74c.79-4.12,1.44-8.26,2.11-12.39.23-1.4-.39-2.63-.16-4,1.11-6.71.91-13.59,2.39-20.23,1-4.4,1.3-8.86,1.87-13.29a30.65,30.65,0,0,0-.6-12.53,12.74,12.74,0,0,1-.08-6.4c.39-1.69.79-3.25.08-4.91a.4.4,0,0,1,0-.26c.5-3-.36-6.07.47-9,.17-.6.24-1.41.65-1.72a13.77,13.77,0,0,0,4.19-4.91A1.31,1.31,0,0,1,67,12.58c3.4-.27,6.48-1.94,10-2.09,1.87-.08,3.66-1.29,5.71-.65.64.2,1.13-.31,1.42-1,.62-1.37,1.34-2.59,3.24-2,.34.1.86-.2,1.24-.41a5.1,5.1,0,0,1,3.61-.62,6.47,6.47,0,0,0,3.2-.24c4.63-1.47,9.41-1.28,14.12-1,5.65.36,11.32.6,16.93.4,3.39-.13,6.73.46,10.1.08,4.61-.51,9.24-1,13.88-1.2,4.44-.18,8.85-.66,13.32-.69,5.44,0,10.87-.87,16.3-1.42,1.94-.2,3.92-.14,5.79-1A4.94,4.94,0,0,1,188.49.6c4.25.67,8.56.19,12.77.67,5.76.66,11.44-.15,17.11-.43C223.44.6,228.54.42,233.62.06a14.61,14.61,0,0,1,3.74.13,112.47,112.47,0,0,0,13.32,1.2,106.07,106.07,0,0,0,12.85-.23A52.4,52.4,0,0,1,269.67,1c4.65.3,9.26-.73,13.94-.35a75.87,75.87,0,0,1,9,1.34c2,.42,3.84-.62,5.79-.1.71.18.69-1.21,1.62-1.4,1.53,1.47,3.46,1.66,5.6,1.74,3.8.15,7.47-.82,11.23-.92,4.82-.13,9.6.27,14.39.48,2.57.11,5.05,1.16,7.69.59,1.22-.26,2.32.62,3.65.6,4.08,0,8.17.52,12.24.42,3-.08,6.08-.2,9.1-.13,3.92.1,7.85-.14,11.76.69,2.45.52,5-.26,7.5.2,3.65.67,7.24.16,10.87-.22,4.91-.51,9.8.53,14.75.29s9.81-.12,14.71-.37c2.58-.13,5.11.38,7.69.21,4.29-.3,8.57.32,12.83.4a27.94,27.94,0,0,1,7.41.63A4.41,4.41,0,0,0,455,4.47a2.29,2.29,0,0,1,2.87-.15c2,1.2,4.36.9,6.58,1,6.07.2,12.14.28,18.21.39s11.93.08,17.85,1c2.12.34,4.29,0,6.44.21,3,.23,6,0,9,.27,6.31.63,12.61,1.31,18.88,2.32a51.13,51.13,0,0,0,9,.79,3.21,3.21,0,0,1,1.85.21c1.87,1.15,3.92.92,6,.92,1.87,0,3.78-.19,5.51.81,1,.58,2.14.11,3.17.34,3.58.8,7.32.57,10.84,1.75a2.11,2.11,0,0,0,1.06.06c5.42-1.19,10.86.16,16.29-.12,3.09-.17,6.15.7,9.3.06,2.94-.58,5.5.74,8.05,2.19a19.57,19.57,0,0,1,5.75,5.14c1.34,1.71,1.75,3.86,2.79,5.73,1.5,2.7,1.41,3-.91,5a2.41,2.41,0,0,0-.69,3.12,7.17,7.17,0,0,1,.44,3.38c-.07,5.1-.41,10.18.12,15.31a31.47,31.47,0,0,1,.2,7.46,11.35,11.35,0,0,0,.23,3.48,22.66,22.66,0,0,1,.11,6.93c-.44,3.36-.44,6.78-.61,10.17,0,.71,0,1.44,0,2.15a89.5,89.5,0,0,0-.08,16.85c.32,4.37.12,8.77.74,13.12a9.26,9.26,0,0,1,0,2.68c-.48,3,0,6.07.17,9.1a6.87,6.87,0,0,1-.29,2.55c-.57,1.85.13,3.73.12,5.61,0,7.69.84,15.35.36,23.07-.42,6.78-.39,13.59-.39,20.4a83.78,83.78,0,0,1-.26,9.62c-.41,3.52,0,7.14,0,10.71,0,8.69,0,17.38-.12,26.07-.05,6.44,0,12.88-.3,19.32-.15,3.3,0,6.64,0,10s.34,6.6-.42,9.85a3.87,3.87,0,0,0,.08,1.32,75.06,75.06,0,0,1-.28,17.66,2.93,2.93,0,0,0-.05,1.06c.79,4-.22,8-.48,12-.25,3.74,0,7.52,0,11.28,0,8.06.54,16.11.75,24.16.16,5.92-.57,11.79-.27,17.69.2,3.94.38,7.89.58,11.83.24,4.64.54,9.27.7,13.92.1,2.76.11,5.54-.06,8.3-.09,1.47.79,2.66.69,4.17-.18,2.8.14,5.62.12,8.43a17.93,17.93,0,0,0,.66,3.13c.82,5.33.77,10.72,1.12,16.08.45,6.79.82,13.58,1.19,20.37.31,5.71.72,11.42.79,17.13a49.76,49.76,0,0,0,.77,9.6,12,12,0,0,1,.05,4,15.13,15.13,0,0,0,.41,6.13,7.08,7.08,0,0,1,.3,3.45,3.69,3.69,0,0,1-3.83,3.31c-1.11.05-1.87.08-1.59,1.66.51,2.94-.35,4-3.36,4-2.31,0-4.64-.28-7-.44a5.65,5.65,0,0,0-2.12-.06c-3.93,1.44-8.23.66-12.15,2.11-.24.09-.58.22-.77.13-2.5-1.18-5.15.11-7.7-.51a3.74,3.74,0,0,0-3.54.78,7,7,0,0,1-2.25.81,2.25,2.25,0,0,1-2.83-.87c-.41-.54-.8-1.4-1.65-1.15a2.17,2.17,0,0,0-1.39,2.11c-.07.71,0,1.44-.1,2.15-.26,2.49-.75,5-.17,7.47a2.19,2.19,0,0,1-.85,2.4,3.63,3.63,0,0,0-1.41,3,6.9,6.9,0,0,1-6.71,6c-2.15,0-4.3.19-6.45.31-2.49.14-5.05-.35-7.45-.12-5.09.49-9.91-1.64-14.95-1a3.09,3.09,0,0,1-3.36-2.15c-.41-2.23-1.92-4.31-.65-7,.81-1.69.27-4,.74-6a1,1,0,0,0-1-1.29,11.26,11.26,0,0,0-2.95-.09c-4.21.76-8.43.16-12.62,0-2.86-.14-5.42.92-8.17,1.09a15.14,15.14,0,0,1-3.48.2c-3.87-.7-7.67.12-11.51.36-2.49.15-5-.32-7.51-.05a72.26,72.26,0,0,1-10.9.75,7.79,7.79,0,0,0-2.55.81c-1.82.61-3.34.38-4.14-.78a3.78,3.78,0,0,1,0-4.1,5.41,5.41,0,0,1,4.47-3.05c5.35-.42,10.73-1.12,16.08-.75,5.92.4,11.78-.71,17.69-.21,2.3.2,4.59-.64,6.93-.71,4.72-.15,9.44-.54,14.16-.72a37.49,37.49,0,0,1,3.73.51c1.51.11,2-.43,1.74-1.9-.21-1.14-.32-2.53-1-3.29-1.4-1.49-.54-2.55.23-3.69s1.92-2.4,3.51-2a4.36,4.36,0,0,0,4.64-1.32,6.57,6.57,0,0,0,1.59-4.92c-.27-3.83-.79-7.65-1.3-11.46a19.78,19.78,0,0,1,.16-4.81c.55-4.81.15-9.66.8-14.46.21-1.56-.3-3.21-.36-4.81-.13-3.32-.4-6.63-.25-10,.09-1.9-.43-2.17-2.3-1.53-.42.14-.84.47-1.25.45-4.26-.15-8.33,1.28-12.5,1.49s-8.34.92-12.56.87c-4.55-.05-9,1-13.49,1.77-2.6.44-5.23,1.53-7.93.32a1.63,1.63,0,0,0-1.06.06c-3,1-6,.46-9.06.18-2-.19-4.09-.63-6,.59a1.56,1.56,0,0,1-1,.25c-2.33-.4-4.61.36-6.94.15-1.9-.17-3.49-.62-4.61-2.29-.48-.72-1.41-1.23-.86-2.3s1.25-2.16,2.8-2.14a22.44,22.44,0,0,0,4-.22,39.82,39.82,0,0,1,12.47,0c5.71.84,11.25,0,16.87-.29,1.61-.09,3.15-.58,4.76-.78,6.48-.79,13-.21,19.52-1.21,4.48-.7,9-1.09,13.44-2.12,1.78-.41,3.31-1.82,5.38-1.15.74.24,1-.59,1-1.26.08-1.52.19-3,.2-4.57q.06-9.79,0-19.58c0-3.14-.3-6.3.21-9.4.55-3.37.19-6.8.77-10.16a28.47,28.47,0,0,0,.07-5.91c-.18-4.64-.22-9.26-.78-13.91a74.14,74.14,0,0,1,0-12.56c.32-6,1.54-11.89,1.4-17.93-.1-4.22-1-8.38-.85-12.61.06-2.22-.17-4.45-.26-6.67-7.42.34-14.73,1.08-22,.65-3.74-.22-7.46.3-11.15,0a102.47,102.47,0,0,0-16-.16,4.52,4.52,0,0,1-1.6-.14c-2.9-.85-5.63-.23-8.32.85a15,15,0,0,1-8.39.61,6,6,0,0,0-3.64.29,11.25,11.25,0,0,1-4.68,1c-2,0-2.29.59-2.85,2.47-1.33,4.42-.84,8.8-.19,13.21a4.17,4.17,0,0,1,.14,1.34c-.45,2.4-.09,4.83-.25,7.21-.25,3.75-.09,7.62-.9,11.22-1.2,5.31-1.64,10.69-2.49,16a19.25,19.25,0,0,0,0,3.22,16.48,16.48,0,0,1-.53,5.33,6.78,6.78,0,0,0,0,2.94c.17,1.52.38,3,.55,4.54a69.28,69.28,0,0,1-.58,17.14,27.91,27.91,0,0,0-.17,4.57,10.33,10.33,0,0,1-1,5.71,9.15,9.15,0,0,0-.7,4.46c0,1.64.16,3.22,2.37,3.57,1.07.18,3.89.54,5,.15a2.88,2.88,0,0,1,1.85-.18c4.72,1.43,9.6.88,14.41,1.11,5,.23,10,.47,15,.25,3.41-.15,6.8.46,10.18-.08,4.7-.76,9.32-1.87,13.93-3,3-.76,6-1.63,9.19-1.39,2.08.15,4.09-.44,6.14-.66,1.46-.16,2.88-.13,4,1.15.71.85,1.35,1.69.8,2.9a3.19,3.19,0,0,1-3.28,1.87,30.54,30.54,0,0,0-8,.17c-4.6.69-9.21,1.35-13.75,2.34a83.59,83.59,0,0,1-22.94,2c-3.3-.2-6.61.74-9.88-.16a.62.62,0,0,0-.27,0c-4.95,1-9.95.22-14.92.33a5.17,5.17,0,0,1-3.72-1.21c-1.45-1.23-3.06-.1-4.48.32-1.26.38-1.47,1.65-1.24,2.94a33.1,33.1,0,0,1,0,13.08c-.35,1.58.13,3.2-.16,4.82-.49,2.72-1.33,5.38-1.42,8.17a12.61,12.61,0,0,0,0,2.13,28.14,28.14,0,0,1,0,7.16,8.63,8.63,0,0,0,3,8.14,19.81,19.81,0,0,1,5,5.21c1.75,3,1.08,6.28.58,9.45a32.56,32.56,0,0,0-.69,7.18,11.09,11.09,0,0,1-.7,4.17,23,23,0,0,0-.86,6.92c-.08,2.15-.58,4.24-.68,6.39s-1.94,3.06-3.71,3.74a2.77,2.77,0,0,0-1.69,1.52c-.87,1.57-2.13,3.16-4.5,3.25a25.29,25.29,0,0,1-7.47-.4,12.76,12.76,0,0,0-2.4-.22,4.86,4.86,0,0,0-1.08,0c-2.3.46-4-1.72-6.16-1.48a9.74,9.74,0,0,1-6.23-1,4.47,4.47,0,0,1-1.6-1.66,13.43,13.43,0,0,1-1.81-8.44c.23-3-1.65-4.67-4.83-5.16A45.54,45.54,0,0,0,400,487a5.77,5.77,0,0,1-1.6.13,64.15,64.15,0,0,0-15.22.89,12.25,12.25,0,0,1-2.41-.1,6.13,6.13,0,0,0-2.13,0c-2.87,1-5.81.63-8.74.72a6.38,6.38,0,0,0-1.85.28,45,45,0,0,1-10,1.74c-.71.07-1.42.17-2.13.23a2.47,2.47,0,0,0-2.49,2.26c-.45,1.94-.5,4.09-2.09,5.71-1.37,1.39-2.43,1.92-3.73,1.4a3.43,3.43,0,0,1-2.2-3.85,19.57,19.57,0,0,0-.28-6.16,5.18,5.18,0,0,1,1.19-4.25,3.21,3.21,0,0,1,2.76-1.4,12.53,12.53,0,0,0,4.46-.8,14.93,14.93,0,0,1,5.06-.61,15.12,15.12,0,0,0,4.23-.71c1.21-.28,2-1,1.34-2.32a1.45,1.45,0,0,1,.47-2.07c.77-.61,1.09-1.68,1.69-2.35,2-2.23,3.8-5,7.32-5.15,2.53-.11,3.12.54,3,3.18,0,.52-.33,1,0,1.64,1,.45,1.57-.53,2.37-.75,1.46-.41,3.22-1.29,4.25.1.92,1.23.75,3.06,0,4.61-.18.38-.65.62-.63,1.3a6,6,0,0,0,4.29.67,70,70,0,0,1,8.81-.77c2.75-.09,5.52-.53,8.27-.89a16.3,16.3,0,0,1,4-.23c3.76.45,7.51-.27,11.27-.05a1.33,1.33,0,0,0,1.61-1.35,23.21,23.21,0,0,0,.22-4.55,5.12,5.12,0,0,1,3.23-5.84,8.23,8.23,0,0,0,2.6-1.9,1.68,1.68,0,0,0,.37-2.2c-1.42-2.11-1-4.48-.86-6.74a25.53,25.53,0,0,0,.15-4.28,2.79,2.79,0,0,1-.05-.81c1-4.59.05-9.25.49-13.89a71.71,71.71,0,0,0,.15-12.61,23.73,23.73,0,0,1,.32-4.82c.32-2.42-.07-4.85.14-7.26s-1.46-2.54-2.92-1.31a10.74,10.74,0,0,1-5.63,2.32c-2.73.39-5.51.77-8.19-.24a2.93,2.93,0,0,0-2.09.11c-3.62,1.16-7.28.28-10.93.26-.17,0-.34-.13-.52-.14-5.55,0-11.12-1.44-16.6-.61-4.39.67-8.52,0-12.75-.53a12.16,12.16,0,0,0-1.6-.08,41.51,41.51,0,0,1-12.62-1.79c-.25-.08-.58-.25-.76-.16-1.84,1-3.65-.21-5.5,0a6.07,6.07,0,0,1-5-2.32,1.76,1.76,0,0,1-.57-1.94,2.16,2.16,0,0,1,2-1.54,48,48,0,0,1,5.88.33c4,.35,8,1,12,1.38,3.11.28,6,1.61,9.27,1.18a2.5,2.5,0,0,0,2.54-2.17c.27-1.14.26-2-1.15-2.13a2.24,2.24,0,0,1-2.31-2.12,2.57,2.57,0,0,1,1.56-3.07c3.53-1.6,6.23-4.48,9.72-6.18a17.74,17.74,0,0,0,4.16-3.37,41.79,41.79,0,0,1,5.83-4.7c1.72-1.15,3.19-1.36,4.21-.56a4.09,4.09,0,0,1,.72,4.93c-.24.47-.56.9-1.2,1.94,2.91-1.2,5.37-.63,7.85-.37-1.17,3.31-3.7,5.26-6.61,6.95-3.54,2.06-7.19,4-10,7.12-1.21,1.36-3.24,1.82-4.64,3.4a11.66,11.66,0,0,0,5.54,1.22,91.25,91.25,0,0,1,11,.58,13.62,13.62,0,0,0,4-.07c4.15-.65,8.37-.35,12.55-1,3.35-.54,6.87-1.17,10.27.6,1.63.86,2.28.25,2.38-1.59a11.44,11.44,0,0,0-.15-2.41c-.91-6-1.58-12.05-1.94-18.1-.16-2.82-.2-5.69-.11-8.55.12-3.56-.29-7.15-.26-10.73,0-3.85.08-7.71,0-11.52-.05-5.29.75-10.52.41-15.83s-1-10.7-1-16.09c0-3.4,0-6.81-.14-10.22-.05-2-.1-2-2.26-2.14a4.5,4.5,0,0,1-1.8-.49c-3.73-1.86-7.62-1.37-11.58-1.05-4.53.35-7.67,3.16-11.11,5.51-2.37,1.62-4.87,3-7.3,4.52-3.52,2.15-6.83,4.63-10.39,6.7a1.58,1.58,0,0,0-.44.31,16.4,16.4,0,0,1-5.93,4.43c-.31.16-.66.32-.67.82.58.64,1.11.11,1.59-.18,4.77-2.85,9.5-5.74,14-8.95a12.3,12.3,0,0,1,4.59-2.17c1.82-.38,3.13-1.71,4.55-2.75a64.76,64.76,0,0,1,7.23-4.13,4.12,4.12,0,0,1,3-.44,15,15,0,0,1-5.74,5.33c-3.6,2-6.74,4.65-10.06,7-3,2.13-5.51,4.9-9.18,5.95a1.71,1.71,0,0,0-.88.58c-2.6,3.45-6.78,4.61-10.09,7-4.14,3-8.92,4.92-13.17,7.72a8.06,8.06,0,0,0-2.31,1.83c-.16.21-.34.57-.53.58-2.91.22-4.53,2.73-6.92,3.86-1.18.56-2.41,1.61-3.69.42s-.2-2.46.24-3.69a5.57,5.57,0,0,1,1.58-2c-.57-.93-1.39-.7-2-.91-1.47-.47-1.69-1-1.06-2.38a11.19,11.19,0,0,1,.65-1.17c.17-.3.37-.58.86-1.33-2.33,1.15-3.69,2.91-5.81,3.44-.87.21-.83,1.26-.83,2.09,0,3.49-.08,7,.15,10.48.11,1.78-.32,3.54-.15,5.51,2.15-.5,3.38-1.9,4.65-3.21,1.83-1.88,4.2-1.93,5.77,0,1.44,1.8,1.68,3.65-.61,4.94-1.85,1.05-3.79,2.08-5,4-.34.58-1,.63-1.6.9a4.21,4.21,0,0,0-2.24,2.87c-1,0-1.5.51-1.28,1.54a.49.49,0,0,0,.41.27c1.06-.12.85-.92.84-1.62C340,374,340,374,339.94,373.86Zm16.07,71a3.59,3.59,0,0,0,3.06-1.4c2.19-2.23,4.28-4.57,6.47-6.81,2.81-2.87,4.78-6.46,7.91-9.06a1.93,1.93,0,0,0,.92-2,12.12,12.12,0,0,0-4.13-.33c-1,0-1.29.66-.84,1.46,1,1.81.24,3.05-1.15,4.15-3.67,2.9-6.33,6.72-9.36,10.2a15.64,15.64,0,0,0-2.81,3.82c-.61.66-1.61,1.05-1.6,2.4C355.68,446.76,356.24,446.06,356,444.85ZM356,432a13.84,13.84,0,0,1-3.76,3.33,5.69,5.69,0,0,0-2.79,2.44c-1.9,3.89-5.81,5.72-8.79,8.5a3.09,3.09,0,0,1-4-.39,2.61,2.61,0,0,1,.28-3.43c.86-1,1.39-2.29,2.46-3.18A60.11,60.11,0,0,0,349,429.23c.51-.69,1.95-1.05,1.58-1.94-.5-1.19-1.72-.19-2.62-.18a.74.74,0,0,1-.26,0c-3-1.14-6,0-9-.14a10.6,10.6,0,0,0-2.1.39c-1.42.21-1.93,1-1.85,2.43a36.17,36.17,0,0,1,0,5.1,7.16,7.16,0,0,0,.69,4.65,4.22,4.22,0,0,1,.21,3.4,21,21,0,0,0-.78,2.84,23,23,0,0,0,.28,7.77,11.94,11.94,0,0,0,.91-.81c2.18-2.42,3.1-2.52,5.55-.43a10.43,10.43,0,0,0,3.22,1.88c1.6.59,3.39,1.07,2.53,3.5-.15.43.21.87.65,1.06a1,1,0,0,0,1.19-.35,8.26,8.26,0,0,1,1.41-1.6,1.54,1.54,0,0,0,.48-2.32,2.77,2.77,0,0,1,.46-3.46,5.68,5.68,0,0,0,1.32-2.52,6.5,6.5,0,0,0-1.72.56c-.63.49-1.09,1.17-1.68,1.71-1.57,1.41-3.1,1.4-4.44,0-1.75-1.83-1.81-2.33.14-4.14,2.35-2.19,4-5,6.54-7a23.51,23.51,0,0,0,3.58-4.31A3.37,3.37,0,0,0,356,432c2.5-.11,3.71-1.82,4.69-3.8.36-.72,1.75-1.28.94-2.14s-1.48.58-2.31.75-.84,1-1.1,1.65C357.64,429.74,357.31,431.18,356,432Zm32.07-195.39c1.95-1.26,4-2.39,5.81-3.82a27.69,27.69,0,0,1,5.68-3.47c2.1-1,3.6-.77,5,.92.89,1.08,1.89.9,2.87.26s2-1.51,3-2.27c2.89-2.2,5.93-4,9.65-4.41a3.4,3.4,0,0,1,3,.79c1.85,1.9.93,4.42-1.94,5.25-7.5,2.18-13.54,6.8-19.36,11.72q-1.74,1.47-3.52,2.9c-2.93,2.35-5.6,5-8.4,7.5-2.54,2.27-4.66,5-7.49,6.94a9.13,9.13,0,0,0-1.5,1.54,38,38,0,0,1-9.88,8.1c-.58.32-1.21.66-.81,1.41s1.05.46,1.61.09c.22-.15.4-.36.63-.5,1.91-1.18,3.21-.88,4.49,1,.24.36.34.85,1,1a13.35,13.35,0,0,1,2.39-1.46c1.32-.65,2.68-1.62,2.11-3.54a2.15,2.15,0,0,1,.43-1.77,9.76,9.76,0,0,1,3.43-3.72,9.11,9.11,0,0,0,3.31-3.09,35.54,35.54,0,0,1,7.34-7.78c3.26-2.74,6.09-6.06,9.91-8.18a42.05,42.05,0,0,0,5.26-3.19c2.15-1.66,4.56-2.85,6.72-4.43a15.38,15.38,0,0,1,4.71-1.94c2-.61,4.09,1.12,3.48,2.79-.55,1.51-1.61,3.19-3.21,3.35-3.2.3-5,3.1-7.89,3.81-3.71,3.22-8.32,5.18-11.71,8.94-2.12,2.35-4.72,4.36-7.1,6.53-3.53,3.21-6.69,6.83-10.29,10.09a2.21,2.21,0,0,0,.33.67c1.3,1.43,1.24,2.75.07,4.32a28.41,28.41,0,0,0-2.24,4.23c-.23.44-.89.9-.27,1.38s1.15,0,1.58-.53a21.36,21.36,0,0,1,2.34-2.58,4.92,4.92,0,0,0,1.84-4.52,2.9,2.9,0,0,1,.48-2.3c2.31-2.73,4.59-5.48,6.9-8.21,3.17-3.71,7.33-6.31,10.78-9.71,1.22-1.19,2.92-1.36,4.51-1.54,1-.11,2-.12,2.55,1a3.48,3.48,0,0,1-.55,3.77,12.47,12.47,0,0,1-1.37.83c-2.22,1.5-4.62,2.79-6.51,4.71-3.39,3.43-6.67,7-10,10.49-.64.68-1.26,1.47-.64,2.38,1.21,1.8.51,3.12-.8,4.44a16.18,16.18,0,0,0-1.61,2.14,18.84,18.84,0,0,0-3.1,5.74,2.11,2.11,0,0,0,1.8-.91c1.84-1.82,3.67-3.64,5.43-5.53a8.4,8.4,0,0,1,4.44-2.86c.64-.13,1.25-.32,1.46-1,.64-2.12,2.31-3.61,3.47-5.39,1.58-2.41,2.78-5.23,5.67-6.53.3-.14.48-.53.73-.78,2-2,3.59-4.39,6.15-5.8a3.69,3.69,0,0,0,1.16-1.1,8.11,8.11,0,0,1,4.79-3.29c2.49-.6,2.91-2.23,2.91-4.38,0-3.31-.07-6.62.17-9.92.44-6.16,1.28-12.3,1.28-18.5a34.56,34.56,0,0,0-.26-4.54c-.43-3.28-.75-6.59-.85-9.9-.12-4,.09-8.06.07-12.1-.05-6.72-.24-13.44,0-20.17.11-2.46-.7-3.31-3.07-3.52-2.9-.26-5.77-.58-8.65-1a71.52,71.52,0,0,0-18.43.24,6.1,6.1,0,0,1-2.13,0,15,15,0,0,0-7.14,0c-3.58.91-7.32.39-11,.9a48.08,48.08,0,0,1-13.92.26,15.92,15.92,0,0,0-3.74.28c-.83.08-1.42.47-1.2,1.39a3.79,3.79,0,0,1-1,3.23,2.34,2.34,0,0,0-.15,2.92c1.35,2.57,1.25,3-.64,5.22-1.07,1.24-1.12,1.37.32,2.07,1.13.54,1.58,1.33,1.08,2.34-1,2-1.6,4-3.74,5.4a41.37,41.37,0,0,1-6.17,3.71,10.12,10.12,0,0,0-2.33,1.8,12.41,12.41,0,0,1-1.64,1.37,7.57,7.57,0,0,0-4.17,7.28c.23,2.79-.33,5.49,0,8.22a7.53,7.53,0,0,0,.23,2.68c.94-.16,1.19-.9,1.61-1.42a84.41,84.41,0,0,1,5.48-6.94c2.45-2.52,3.94-5.77,6.52-8.16a2.1,2.1,0,0,0,.36-1,5.67,5.67,0,0,1,3.68-4,3.26,3.26,0,0,1,4.68,3.51c-.06.57-.69,1.11,0,1.9a52,52,0,0,0,4.43-3.63,11,11,0,0,1,5.71-3.35,3.1,3.1,0,0,1,3.22,1.43,2.9,2.9,0,0,1-.72,3.65,3.31,3.31,0,0,1-1.77,1.17c-1.33.17-2.2,1.07-3.21,1.83-4.71,3.52-7.79,8.58-12,12.6-6.28,6-10.87,13.51-16.74,19.89-.81.87-.81,2.26-1.95,2.84a3.16,3.16,0,0,0-1.78,3.56,2.73,2.73,0,0,1-.35,1.55c-.8,1.67-.72,3.38-.26,5.54,2.56-2.54,5.58-4.29,5-8.3a1.31,1.31,0,0,1,.33-1.26c1.6-1.15,2.17-3,3.34-4.48a80.26,80.26,0,0,1,6-6.46c3.35-3.28,6.09-7,9.17-10.5a31.71,31.71,0,0,1,3.16-3.65,55,55,0,0,0,5.84-5.89,23,23,0,0,1,7.39-5.7,3.21,3.21,0,0,1,4.55,2,3.07,3.07,0,0,1-2.35,3.87,6.08,6.08,0,0,0-2.81,1.46c-1.11,1-2.31,2-3.36,3.09s-2,2.36-3,3.55a4,4,0,0,0,2.77-1.32c2.42-2.47,4.86-4.91,8-6.45a6,6,0,0,0,1.3-.95,13.67,13.67,0,0,1,5.62-2.48,3,3,0,0,1,3.87,1.53c1,1.77,1,1.81,2.64.61s3.7-2.16,5.33-3.6a3.29,3.29,0,0,1,5.32,3c0,.59-.49,1.2.1,1.8,1.09.14,1.75-.77,2.65-1.11,1.73-.63,3.2-.2,4,1.18a3.42,3.42,0,0,1-1,4.34,7.35,7.35,0,0,1-2,.9c-.7.28-1.66.11-2.09,1.16a22.64,22.64,0,0,1,2.58,1.23,3.1,3.1,0,0,1,1.44,3,2.13,2.13,0,0,1-1.59,2c-5.36,1.52-9.92,4.49-14.21,7.93-2.73,2.18-5.44,4.39-8.16,6.58a1.84,1.84,0,0,0-.86,1.84,3.2,3.2,0,0,0-2.67,1c-1.5,1.25-3.11,2.4-4.5,3.78-2.74,2.74-6,5-8.64,7.74-1.27,1.32-3.26,1.81-4.1,3.35-1.09,2-3,3-4.47,4.45a99.66,99.66,0,0,1-8.91,8,4.92,4.92,0,0,0-.78.73c-.57.69-.52,1.28.32,1.74a7.23,7.23,0,0,0,2.8.88c1.07.11,1.66.65,1.13,1.83a2,2,0,0,0-.22,1c.09.5.18,1.12.88,1.18a.93.93,0,0,0,1-.71c.36-1.86,1.55-3.33,2.35-4.83a1.22,1.22,0,0,0-1.07-.59c-1.83-.35-2.25-1.12-1.38-2.72.42-.76.77-1.67,1.69-2,1.81-.67,2.83-2.15,3.76-3.68a4,4,0,0,1,2.51-2.24c2.57-.54,3.88-2.58,4.92-4.59a4.3,4.3,0,0,1,2.08-2.23,5.49,5.49,0,0,0,3.21-2.59c.14-.29.57-.42.85-.64C382.26,242.89,385.6,240.21,388.08,236.63Zm-251.61-70a10.59,10.59,0,0,1,7.73-1A34,34,0,0,0,149,166a91.51,91.51,0,0,0,13,.12,56.65,56.65,0,0,1,9.39,0,12.75,12.75,0,0,0,4.75-.33c2.88-.9,5.88-.64,8.8-.94a44,44,0,0,1,7.17,0,22.48,22.48,0,0,0,10-1.25,8.32,8.32,0,0,1,5.55-.05c1.93.55,2.46,2.21,1.12,3.69a7,7,0,0,1-3.3,2.23c-3.3.86-6.66,1.46-10.07.59a7.32,7.32,0,0,0-2.94-.18,80.2,80.2,0,0,1-18.19.63,18,18,0,0,0-5.34.08c-4.4,1-8.94.07-13.32,1.12a.81.81,0,0,1-.27,0c-6.05-.52-12.13-.69-18.13-1.62-1.21-.19-1.64.14-1.91,1.18a16.92,16.92,0,0,0-.29,2.65c-.19,2.48-.08,5-.28,7.44-.34,4.19-.62,8.4-1.29,12.54-.35,2.22.12,4.37-.05,6.57a24.51,24.51,0,0,1-1.65,7.39,1.2,1.2,0,0,0-.07.53c.48,4.37-1.52,8.38-1.77,12.71-.23,4-.83,8-.91,12a77.83,77.83,0,0,1-1.32,13.07c-.75,3.94-.84,8-2.36,11.82.6,3.34-1.06,6.41-1.17,9.72-.19,5.7-1.42,11.35-1.38,17.09a14,14,0,0,1-.4,3.47,51.51,51.51,0,0,0-1,10.43c-.11,3.13,1.81,4.55,4.52,3,3-1.71,6.08-.54,9.09-.89,1.81-.2,3.7.3,5.59.07,4.32-.52,8.67-.39,13-.52,3.92-.12,7.86.51,11.77-.29a37.94,37.94,0,0,1,4.53-.42c2.65-.21,5.28-.46,7.67-2a10.11,10.11,0,0,1,4.26-1.53c5.3-.68,10.66,0,16-.93,2.87-.49,5.86-.24,8.64-1.51a2.51,2.51,0,0,1,3,.37,3.3,3.3,0,0,1,.53,3.3,5.48,5.48,0,0,1-4.88,3.57,46.27,46.27,0,0,1-5.64.13c-3.19-.3-6.34.43-9.6-.2-2.82-.54-6-.41-8.26,2.07-.38.41-1,.44-1.46.63-4,1.59-8.58.66-12.44,2.84a.89.89,0,0,1-.54,0c-2-.33-4,1-6-.09-.26-.14-.71,0-1,.09a13.54,13.54,0,0,1-6.14-.05,15.2,15.2,0,0,0-6.15-.13c-3.49.72-6.95.05-10.41.2-4.48.2-8.95.26-13.22,1.78-1.09.38-2.54,0-3.23,1s-.41,2.44-.54,3.68c-.27,2.66.44,3.4,3.17,3.15a13,13,0,0,1,3.4.38c3.46.57,7,1.69,10.4-.33a5.26,5.26,0,0,1,1.52-.52c5.92-1.26,11.74-2.91,17.94-2.79a82.91,82.91,0,0,0,15.23-1.07c3-.5,6.21,0,9-.72,3-.79,5.86.25,8.74-.31,5,1.43,10.12.75,15.2.84a33.24,33.24,0,0,0,4.57-.24c2.56-.31,3.26-1.13,3.25-3.66,0-1.71,0-3.4.17-5.11a49.87,49.87,0,0,0,.32-7.52c-.46-6.22.7-12.33,1-18.49.26-5.47.5-10.93.62-16.4,0-1.78-.27-1.92-2.05-2.08a3.54,3.54,0,0,1-3.49-3.32,73.57,73.57,0,0,0-1.74-10.28c-1.26-4.74-.53-6.26,3.55-8.59,1.5-.86,1.92-2.3,2.41-3.66.42-1.18-1-1.53-1.65-2.19a6,6,0,0,1-1.79-4.81,30.28,30.28,0,0,0-1.08-9.53c-.43-1.45-.93-3.14.15-4.61,1.71-2.31,3.48-2.66,6-1.08.84.51,1.59.93,2.46.4s.76-1.56.69-2.44a20,20,0,0,1-.47-2.63c.31-6.79.21-13.58-.07-20.37-.23-5.73-.75-11.44-.48-17.18.16-3.4-.07-6.82.47-10.21.28-1.76.16-3.56.58-5.33.32-1.36-.36-2.05-1.54-1.75-2.94.73-5.89.23-8.83.2a5.41,5.41,0,0,0-2.12.14c-3.55,1.37-7.33,1.64-11,2.27a5.85,5.85,0,0,1-2.92.23c-2.74-1-5.5-.29-8.25-.25-1.52,0-3,.14-4.57.07a8.94,8.94,0,0,0-4.45.73,3.64,3.64,0,0,1-2.84.51c-2.94-1.08-6,.06-9-.57-4.58-1-9.47.41-13.94-1.72a2.05,2.05,0,0,0-1.32-.05c-1.44.46-2.84.1-4.27,0-1.15-.12-2.31-.25-3.47-.28a1.68,1.68,0,0,0-1.85,1.55c-.39,2-1,4-1.26,6.06C136.68,161.54,136.66,163.77,136.47,166.59ZM508.18,58.51c-.63,0-1.25-.12-1.88-.14-1.7,0-2.09.47-1.07,1.81a7.58,7.58,0,0,1,1.43,5.55c-.13,1.64.26,1.87,2.08,2s3.47-.31,5.07.4c2.11,1,4.36.88,6.56,1.12,1.35.14,2.64.49,4,.64,2.73.32,5.2,2,8.24,1.08a3.49,3.49,0,0,1,4.34,2.28,8.22,8.22,0,0,1,.15,4.78,10.25,10.25,0,0,0-.33,4.77c.53,4.08,0,8.19.59,12.26.12.88.63,1.8.39,2.62-.9,3-.49,6-.37,9.06a33.15,33.15,0,0,0,.91,7.4,12.39,12.39,0,0,1,.36,3.72c-.11,2.65-.8,5.26-.45,7.94a21.72,21.72,0,0,1,.17,3.22c-.14,6,.21,12,.45,18,.07,1.77.24,3.6,1.75,4.93a2.14,2.14,0,0,1,.31,2.74c-1.08,2-.87,4-.6,6a26.69,26.69,0,0,1,.2,4.29c-.1,2.86-.44,5.8.07,8.57.82,4.43.75,8.89.94,13.33a97.81,97.81,0,0,1-.52,12.33c-.11,1.31.75,2.52.34,3.66a15.48,15.48,0,0,0,.06,10,5.6,5.6,0,0,1,.24,1.86c-.18,3.39,1.28,6.66.72,10.08,1.1,2,.93,4.13.88,6.27a35.52,35.52,0,0,0,.4,8.3,25.82,25.82,0,0,1,.58,5.61c0,4.28.57,8.52.14,12.84a111,111,0,0,0,0,12.64c0,2,.71,3.89.54,5.87-.38,4.44.14,9-1.09,13.32a2.53,2.53,0,0,0,0,1.06,8.69,8.69,0,0,1-.46,4,9.52,9.52,0,0,0-.49,3.18c.16,3.83.22,7.68.51,11.5s.76,7.48.23,11.26c-.59,4.17-.23,8.4-.86,12.59-.31,2-.84,4.18-.52,6.12.8,4.8.29,9.64.76,14.43A101.45,101.45,0,0,1,543,366c-.1,3.76-.22,7.53-.44,11.28a58.8,58.8,0,0,0-.37,8.73,39.92,39.92,0,0,1,0,8.81,25.25,25.25,0,0,0-.17,6.94c.43,3-.94,6.07.43,9,.09.19-.12.51-.16.78a65.76,65.76,0,0,0-.49,12.31c.15,5.73.42,11.45.11,17.19a72.31,72.31,0,0,0-.46,7.22c.14,3.39,1.18,6.73.66,10.17a1.49,1.49,0,0,0,.23.76,11.32,11.32,0,0,1,.8,4.48,26.48,26.48,0,0,0,.77,6.36c.86,3.2-.14,4.61-3.32,6a17.29,17.29,0,0,1-3.16,1.43A2,2,0,0,0,536,479a20.56,20.56,0,0,0-1.06,7.14,43.31,43.31,0,0,1-1,11.18c-.31,1.77-.2,2.28,1.47,2.84s3.13.8,4.65,1.33a16.77,16.77,0,0,0,9.8.48,17.81,17.81,0,0,1,7.64-.66,5.05,5.05,0,0,0,5.31-3.6c.55-2.9,1-5.81,1.57-8.71.43-2.23-.09-4.48.15-6.66a5.11,5.11,0,0,0-1.91-5.16c-3.45-2.75-4.09-6.74-4.43-10.78-.33-3.85.74-7.7.19-11.55-.77-5.37.27-10.56,1.7-15.65a36.47,36.47,0,0,0,1.49-8.17c.23-4.57,1.58-9,1.6-13.61,0-3.54,1.13-7.07,1.48-10.63.18-1.81.9-3.71-.15-5.52-.31-.54.09-1,.24-1.53a23.2,23.2,0,0,0,.61-4c.44-3.76,0-7.52.12-11.27.11-4.21-.26-8.41-.14-12.62.07-2.68-.22-5.36.06-8.05a106.79,106.79,0,0,0,.4-14,122.67,122.67,0,0,1,.72-16.26,18.8,18.8,0,0,0,.41-3.45c-.45-5.89-.8-11.78-1.26-17.66a45.3,45.3,0,0,1,.87-12.73,15.09,15.09,0,0,0,.36-1.85,179.59,179.59,0,0,0,.6-24.44,70.55,70.55,0,0,1-.57-7.46c.19-4.21-.87-8.18-1.54-12.22-.63-3.8-1.07-7.61-1.56-11.41a72.91,72.91,0,0,1-.39-9.1c0-1.28-.8-2.37-.61-3.68.6-4.12,0-8.24-.29-12.32-.58-8.4-1.23-16.79-.87-25.21.09-2.16-.19-4.29-.19-6.44q0-8.18,0-16.35a21,21,0,0,1-.11-2.95c.57-4.17-.15-8.38.49-12.54a8.78,8.78,0,0,0-.17-1.59c-.17-3.22-.7-6.47-.4-9.63.46-4.77,0-9.52,0-14.25-.06-5.63-.45-11.28-.23-16.91.24-6.39.36-12.73-.9-19a4.52,4.52,0,0,1,.34-2.37,3.68,3.68,0,0,0,.38-1.54c-.34-2.82.54-5.52.9-8.25.31-2.34.58-4.77,2-6.9,1-1.42,1.8-2.39,3.64-1.77.39.14.88-.06,1.32,0,3.19.22,5.86-2,9-1.94A1.24,1.24,0,0,0,579,67.69c-.43-1-.07-2,0-2.92.09-2.38,0-2.44-2.25-2.18-.53.06-1.07,0-1.61,0-3.75.1-7.42-.87-11.18-.9-1.54,0-3,.49-4.52.35-4-.34-8-.76-12-.93-7-.3-13.87-1.43-20.87-1.33a11.42,11.42,0,0,1-2.66-.35A53.29,53.29,0,0,0,514,58.33C512.05,58.25,510.13,58.89,508.18,58.51Zm-78.89-1.93a13.14,13.14,0,0,0-1.31-.14c-1.5-.07-1.93.42-1.62,1.91a7.27,7.27,0,0,0,.47,1.25,4.85,4.85,0,0,1,0,4.16A2.21,2.21,0,0,0,427.7,67a3.16,3.16,0,0,1,1.74,3.07c-.09,2.49,1.69,3.34,3.49,4.19.48.23,1.05.25,1.52.48,1.91.93,2.8,2.78,1.86,4.67a5.22,5.22,0,0,0-.18,4.41c1.1,2.82,1.05,5.75,1.38,8.68a96,96,0,0,1,.67,11.13c0,4.48-.56,8.89-.83,13.32s1.16,8.87,0,13.28c0,.08,0,.17,0,.26.11,3.49.43,6.95-.16,10.46a29.62,29.62,0,0,0-.62,9,9.45,9.45,0,0,1-.39,4,13.55,13.55,0,0,0-.4,4.24,59.25,59.25,0,0,1-.3,7.77,45.21,45.21,0,0,0-.63,7.21c.28,5-.61,10,0,15,.45,3.74-.62,7.43-.16,11.2s-.19,7.35.71,11c1,4,.56,8.1.1,12-.52,4.44-.38,8.9-.86,13.33-.22,2-.93,4.18-.65,6.06.43,2.93-.3,5.71-.2,8.56a35,35,0,0,1-.35,6.64c-.59,3.64-.77,7.3-1.2,10.95-.93,8-1.41,16-2.52,23.9-.64,4.57-.36,9.28-.39,13.93,0,3,.16,6.08.23,9.13.1,5,.09,10,.31,15,.14,3,.21,6,.65,9.07a50.28,50.28,0,0,1,0,9.66c-.06,1.42.39,2.85-.22,4.26a9.82,9.82,0,0,0-.45,4.76,83.85,83.85,0,0,1,.3,8.82c0,1.61-.1,3.21-.1,4.83,0,3.56,1.11,7.07.26,10.69a14.34,14.34,0,0,0,0,4.53c.4,3.92,1.17,7.78,1.59,11.7.2,1.88.05,3.79.36,5.6a37.58,37.58,0,0,1-.06,11.74,19.26,19.26,0,0,0-.17,2.94c.11,4.11.69,8.22.11,12.34a10.75,10.75,0,0,0,.19,2.13c.12,2.22.42,4.51-.41,6.58a3.29,3.29,0,0,0-.19,3,4.55,4.55,0,0,1,.41,2.62,11.27,11.27,0,0,0,.31,4,4.93,4.93,0,0,1,0,2.92,5.21,5.21,0,0,0-.06,2.08,22.18,22.18,0,0,0,2.65,8.6,3.42,3.42,0,0,1-.64,4.17,23.83,23.83,0,0,1-1.85,1.92c-1.85,1.61-4,3.09-3.78,6.05a2.48,2.48,0,0,1-.41,1.27,8.13,8.13,0,0,0-.93,4.16c.13,3.2-1.16,6.35-.29,9.58a2,2,0,0,1-.21,1.56c-1.19,1.38,0,2.76-.12,4.12-.06.58.41,1,1,1.1A56,56,0,0,0,440,498.49a10,10,0,0,0,5.88-1.59,3.61,3.61,0,0,1,3.33-.57c1.45.5,1.65-.26,1.8-1.42.37-2.84.92-5.67,1.27-8.51a43.67,43.67,0,0,0,.82-5.3,90.22,90.22,0,0,1,.57-11.27c.41-3.21-.85-5.16-3.55-6.45a2.48,2.48,0,0,1-1.67-2.23,4.17,4.17,0,0,0-1.43-3.06,4.69,4.69,0,0,1-1.33-5.37,17.34,17.34,0,0,0,.39-8.5,11.65,11.65,0,0,1-.21-3.47c.54-3.53,1.32-7,1.9-10.56a42.63,42.63,0,0,0,.12-14.73,33.47,33.47,0,0,1,.41-13.72c1.11-4.93,1.31-9.94,1.9-14.89.81-6.84.34-13.76-.1-20.64a13.16,13.16,0,0,1,.09-2.66,58.27,58.27,0,0,0,.79-7.2c.06-3.59.6-7.13.86-10.69.31-4.19,1.29-8.29,1.77-12.48a81,81,0,0,0-.06-13.93,62.07,62.07,0,0,1,.44-15,68.94,68.94,0,0,0,1.29-12c0-2.6-.17-2.69-2.74-3.24a4.23,4.23,0,0,1-3.15-3.57,3.26,3.26,0,0,1,.64-2c.68-.9,1.63-.49,2.48-.6a2.15,2.15,0,0,0,2.19-2.25c.05-1.88.12-3.76.16-5.65a1.92,1.92,0,0,0-.78-1.9c-1.73-.94-2-2.61-2.39-4.29-.15-.7-.12-1.52-.65-2-1.51-1.46-1.17-3-.45-4.67.42-1,.87-2,1.34-2.93,1.27-2.58,1-3.42-1.88-4.17a4.24,4.24,0,0,1-3.29-3.8,3.34,3.34,0,0,1,2-3.89c2.22-1.17,2.39-2.81.87-4.92a12.78,12.78,0,0,1-1.73-3c-.7-1.83-.3-3.2,1.53-4a20.6,20.6,0,0,0,5.69-3.91c1.48-1.3,2.07-2.49,1.72-4.36-.94-4.93,0-9.85.29-14.75a31.22,31.22,0,0,0-.39-8.82c-.9-3.9-.57-7.83-1-11.73-.38-3.59.17-7.16.15-10.74,0-4.29-.68-8.54-.64-12.86.06-6.81-1.12-13.54-1.83-20.3a6.41,6.41,0,0,0-.61-2,9.51,9.51,0,0,1-.65-6,2.93,2.93,0,0,0,.08-1.58,5.31,5.31,0,0,1,.3-3.68,11.12,11.12,0,0,0,.58-3.43,33.38,33.38,0,0,1,.51-5.08,19.58,19.58,0,0,0,.37-5.33c-.55-4.65.68-9.07,1.57-13.51.62-3.09,1.32-6.11.57-9.25-1.17-4.95-1.58-9.89,0-14.83a3.09,3.09,0,0,0,.09-.53,11.19,11.19,0,0,1,6-8c2.88-1.54,4-3.47,3.51-6.65-.31-2.08-.82-3.91-3.49-3.9a5,5,0,0,1-1.53-.49,3,3,0,0,1-2-4c.63-2,.6-1.88-1.58-2.33-5.16-1-10.39-.53-15.55-.51C437.53,56.75,433.43,56.53,429.29,56.58ZM113.84,396.66h-.07c.16,3.32.35,6.63.46,9.95.09,2.84.61,3.17,3.41,3.67,5,.88,10-.27,15,0,3.91.2,7.67,1.25,11.62,1.25,4.78,0,9.56,1.3,14.33-.22a5,5,0,0,1,2.4,0c3.43.63,6.95.12,10.38.77,1.5.28,3.17-.37,4.5,0,3.44.84,6.77-.09,10.15-.06a23.07,23.07,0,0,0,5.84-.42c1.47-.36,3-.64,4.45-1,2.95-.71,5.88-1.66,8.94-.38,1,.43,1.69,0,1.84-1.2.26-2,.55-4.1.68-6.12.45-6.63,2.09-13.05,2.91-19.61.61-4.89,1.48-9.76,1.74-14.67.32-6.26-.15-12.53-.24-18.8-.06-4.2-.15-8.43.14-12.62.28-3.93.54-7.87.62-11.81a38.27,38.27,0,0,0,.13-6.15c-.31-2.28-.43-2.58-2.83-2.55-3.19.05-6.39-.24-9.59.09a6,6,0,0,1-3.17-.35,5.54,5.54,0,0,0-2.38-.37c-3.66.11-7.34-.54-11,.43a10.37,10.37,0,0,1-1.85,0c-2.59.15-5.28-.07-7.73.58-4.42,1.18-8.89,1-13.34,1.31-3.66.27-7.34,0-11,.81-1.53.34-2.65,1.61-4.19,1.74-3.3.26-6.36,1.94-9.76,1.54a3,3,0,0,0-1.32.19,5.37,5.37,0,0,1-3.43,0c-1.28-.39-2.65-.29-4-.58-1.73-.38-3.54-.35-5.31-.62-2-.3-2.53.31-2.8,2.25a48.57,48.57,0,0,0-.54,7.23c0,3.22-.82,6.38-.78,9.63,0,1.34-.64,2.75-.72,4.2a110.09,110.09,0,0,1-1.71,13,5.48,5.48,0,0,0-.3,1.83c.73,3.53-.67,6.89-.7,10.38-.07,6.24-1.53,12.41-.92,18.72C114.05,391.27,113.84,394,113.84,396.66Zm379.3-113.33c-2.52,2.58-2.53,2.64-6.49,2.37a32.4,32.4,0,0,0-6.91.49c-4.24.63-8.37,1.85-12.74,1.56-1.39-.09-2.82.17-4.27.09-1.87-.12-2.36.5-2.37,2.36,0,1.16.12,2.3,0,3.48-.2,2,.42,2.58,2.31,1.92a33,33,0,0,1,6.6-1.14c1.53-.22,3,.21,4.53-.07a30.77,30.77,0,0,1,8.77-.7,21.73,21.73,0,0,0,2.42,0c5-.06,10-.25,15,.58,2.55.42,5.25,1,7.73.56a37.6,37.6,0,0,1,7.18-.2c1.43,0,2.86.07,4.29.07,4.69,0,9.17-1.37,13.72-2.23a6.87,6.87,0,0,1,3.94-.06c1.14.43,1.68.05,2-1.28,1.41-5.5.88-11,.69-16.58-.15-4.56-.77-9.1-.35-13.68a80.59,80.59,0,0,0-.77-19.56c-.25-1.67-.78-3.44-.46-5,1-5-.5-9.81-.75-14.7a104.31,104.31,0,0,0-1.46-10.35,45,45,0,0,1,0-8.84c.17-3.64.31-7.29.41-10.93,0-1.52-.17-3.06,0-4.56.41-3.8-.26-7.52-.59-11.27a2.28,2.28,0,0,0-1.59-2.25c-2.06-.6-3.85-1.93-6.06-2.08-4-.27-8-.79-12-.79s-7.78.59-11.73.58c-4.54,0-9.12.15-13.66.08-5.36-.07-10.72.66-16.1-.05-3.17-.42-6.43-.14-9.64-.23-1.9-.05-2.82.55-3.27,2.39-.21.86-.27,1.77-.42,2.64-.43,2.53.51,5,.33,7.42a84.16,84.16,0,0,0-.1,8.84,82.91,82.91,0,0,0,.56,10.94,36.63,36.63,0,0,1-.32,11.69,4.71,4.71,0,0,0,2.73,5.15,2.75,2.75,0,0,1,1.39,1.2c.92,1.8,1.5,3.66.72,5.68-1,2.56-1.56,5.27-3.72,7.32-1.27,1.22-.69,2.5,1.08,2.92a28.21,28.21,0,0,0,3.19.49c.65.08,1.36.16,1.58.81.54,1.57,1.64,2.92,1.41,4.79-.18,1.51-.41,3-.64,4.52a7.11,7.11,0,0,0,.72,3.65c.39,1,1.55.69,2.36,1a5.22,5.22,0,0,1,3.08,4.65c-.28,4.16-.11,8.5-3.48,11.78a4.17,4.17,0,0,0-.85,1.36,4.76,4.76,0,0,1-3.23,2.64,15.18,15.18,0,0,1-4.16,1c-3.91.07-3.36,1.39-3.54,4.26a7.51,7.51,0,0,0,.13,1.34c.36,2.86.59,3,3.37,2.71s5.35-.94,8-.79a33.42,33.42,0,0,0,8.72-.94c3-.63,6.08-.26,9.11-.25a3,3,0,0,1,2.63,1.11c.35.46.79.81,1.36.41a6,6,0,0,1,6.11-.58,3,3,0,0,0,1.33,0,41.07,41.07,0,0,1,5.87,0c5.77.22,11.58,1.33,17.25-.95a2.35,2.35,0,0,1,3.29,1.44,3.28,3.28,0,0,1-2.16,3.57c-.34.09-.72.05-1.07.13a46.1,46.1,0,0,1-12.21,1.32c-2,0-3.94-1.07-5.87.15-1.77-.74-3.54-.13-5.32-.08-2.06.05-4.09-.1-5.65-1.83A3.58,3.58,0,0,0,493.14,283.33ZM351,126.87a11,11,0,0,0,4.55-1.09c3.07-1.51,4.72-.56,5,2.83.08.82.2,1.41,1.13,1.49,1.15.1,1.43.86,1.53,1.85s.24,1.76.28,2.66a3.38,3.38,0,0,0,3.13,3c1.79.06,1.88.19,1.79,1.94a3.69,3.69,0,0,1-1.61,3,17,17,0,0,0-1.79,1.62.88.88,0,0,0-.32,1,.72.72,0,0,0,.89.41c2-.35,3.94.09,5.91-.1,5.64-.52,11.29,0,16.92.14a66.53,66.53,0,0,0,10.18-.16,18.69,18.69,0,0,1,4,0c3.72.33,7.45,1.07,11.21.3a3.77,3.77,0,0,1,1.34,0c4.59.89,9.29.7,13.88,1.59,1.17.22,1.78-.08,2.06-1.38.68-3.08.37-6.26,1.08-9.32a2.26,2.26,0,0,0-.1-1.06,8.2,8.2,0,0,1,0-4,4.25,4.25,0,0,0,.08-2.39c-.87-2-.22-4.08-.32-6.11-.05-1,.49-1.88.42-2.91-.25-3.44-1.15-6.87-.15-10.35a6.18,6.18,0,0,0,0-1.87c-.13-3.57-.47-7.13-.73-10.68A25.08,25.08,0,0,0,428,86c-.91-1.55-1.84-3.06-1.58-5,.09-.68.05-1.71-.79-1.8-2.43-.26-3.71-2.41-5.77-3.27-1.44-.61-1.77-1.52-1.4-3.07a20.35,20.35,0,0,1,1.65-5.11A10.7,10.7,0,0,0,421,63.3a2,2,0,0,0-1-2.07,2.92,2.92,0,0,1-1.67-3.1c.1-1.56-.75-2.07-2.09-2.16-.71,0-1.42-.08-2.13-.1-2.59-.06-5.18,0-7.75-.08-6.32-.19-12.64-.64-18.94-1.23-1.42-.13-2.61.4-3.93.46-2,.08-3.91-.3-5.86-.29-4.83.05-9.65.21-14.47.3-2.06,0-4.11,0-6.17,0-.73,0-1.49.1-1.57,1.07-.34,3.76-1.54,7.33-2.46,11a5.76,5.76,0,0,0,0,3.67c1.42,3.7-.84,6.34-4.84,5.78a13.91,13.91,0,0,0-2.41-.12c-2.62.09-2.6.11-2.79,2.81-.06.8-.28,1.59-.39,2.39a2.39,2.39,0,0,0,.38,2c2.55,2.74,2.37,6,1.94,9.37a16,16,0,0,0,1.13,8.09,11.62,11.62,0,0,1,.85,5.66c-.16,2.06-.1,4.13-.85,6.1a.84.84,0,0,0,.25,1,.76.76,0,0,0,1-.12c.7-.56,1.46-1.06,2.11-1.68,1.55-1.47,1.52-1.49,3,.1a6.64,6.64,0,0,1,1.09,1.17c.89,1.61,2.24,1.57,3.72,1.18.52-.14,1-.43,1.52-.53a3.86,3.86,0,0,1,4.1,2.34c.52,1.56,0,2.42-2.07,3.47s-4.39,1.61-5.88,3.58a1.41,1.41,0,0,1-.69.4C352.67,124.21,352,125.38,351,126.87ZM467.76,58a5.58,5.58,0,0,0,.53.76c.19.19.42.46.64.47,3.06,0,4.66,2.23,6.52,4.15.82.84.91,1.41.18,2.23a7.73,7.73,0,0,0-1.88,6.24A4.26,4.26,0,0,1,473,74c-.59,1.31-2.25,1.76-2.57,3-.67,2.5-2.73,3.9-4.15,5.76-2.23,2.95-4,5.77-3.41,9.77a20.16,20.16,0,0,1,0,7.74,74.14,74.14,0,0,0-1.39,8.08c-.79,5.3-1.22,10.62-1.85,15.93-.34,2.83-.51,5.71-1.13,8.49a21.46,21.46,0,0,0,.15,10.08,9.89,9.89,0,0,1,.26,3.71c-.37,2.83.44,3.57,3.29,3.08.35-.06.68-.23,1-.31A42.6,42.6,0,0,1,473.57,148c3.67.06,7.33.32,11,.25,5.54-.11,11.13-.4,16.62.16,4.59.47,9.22.78,13.81,1.48a100.78,100.78,0,0,0,16.84,1.37c1.92,0,2.21-.19,2.12-2.11-.13-2.6-.42-5.19-.46-7.79-.07-4.2-.26-8.39-.68-12.56a10.59,10.59,0,0,1,0-3.18c.79-4.18-.09-8.39.11-12.59a7.49,7.49,0,0,0-.39-1.55,61,61,0,0,1-1.4-8.71,47.16,47.16,0,0,1,0-8.06,34.15,34.15,0,0,0,.3-5.35,58.71,58.71,0,0,0-1.57-11.88c-.16-.75.17-1.66-.71-2.31a22.76,22.76,0,0,1-7.9.79c-2.53,0-5.06.1-7.48-1.42-1.56-1-3.75-1.74-5.63-.5-1.72,1.13-3.35.85-5.13.45-2.68-.61-3.55-1.66-3.45-4.45,0-1.34.11-2.69.26-4a2.73,2.73,0,0,0-1.49-3.14c-.71-.36-1.31-.94-2-1.37a1.51,1.51,0,0,1-.89-1.76c.33-1.32-.45-1.51-1.49-1.56-3.34-.17-6.71.08-10-.56a9.13,9.13,0,0,0-2.95,0,40.89,40.89,0,0,1-11.16.08A3,3,0,0,0,467.76,58ZM185,482.14c2.87-.13,6.1-.35,9.31-.66,1.79-.17,1.89-.55,1.55-2.29a6.87,6.87,0,0,0-2.33-3.51c-2.43-2.46-1.88-5.08,1.3-6.21,2.59-.92,5.1-2.16,7.92-2.29.93,0,1.22-.51,1-1.44A9.45,9.45,0,0,1,204,460a5.28,5.28,0,0,0,.14-1.6c.2-4.21.37-8.41.62-12.62.28-4.73.63-9.47.95-14.2.15-2.33-.21-3.17-2-3-3.93.4-7.79-1.56-11.72-.15a4.62,4.62,0,0,1-2.11-.13c-2.21-.32-4.5-1-6.62-.66-2.53.39-5,.09-7.45.17-3.83.12-7.63-.39-11.5.12s-8.05.08-12.07.13c-1.61,0-3.27.54-4.81.27-4.93-.87-9.81.2-14.71.06a24.14,24.14,0,0,0-5.09.42,80.94,80.94,0,0,1-9.81,1.37c-2.91.17-3.54.85-3.72,3.76-.09,1.43.51,3-.09,4.27-1.17,2.56-.79,5.28-1,7.91-.19,3,0,6-.53,9.05a71.87,71.87,0,0,0-.8,15c0,1.09.41,1.67,1.53,1.76,1.46.13,2.6.64,2.7,2.38.05.85.65,1,1.36.81a41.89,41.89,0,0,1,9.36-.33c3,.07,4,1.4,3.51,4.35-.08.44-.27.86-.39,1.29a10.44,10.44,0,0,0-.13,5.06c.28,1.4.54,1.47,2,1,2.75-.82,5.46-1.6,8.43-1.14a24.29,24.29,0,0,0,6.42.27c5.21-.63,10.54.41,15.66-1.26a.4.4,0,0,1,.26,0c2.68,1.16,5.17-.32,7.76-.54,3-.26,5.89-1.6,9-1.59C181,482.16,182.83,482.24,185,482.14ZM401.69,285.45a10.54,10.54,0,0,0,5-4.3c1.65-2.32,4.13-2.66,6.61-3,1.11-.14,1.77.66,2.23,1.63A1.71,1.71,0,0,1,415,282a37.68,37.68,0,0,0-4.18,5.24c-.9,1.27-2.12,2.74-3.7,2.84a20.36,20.36,0,0,1-5.35.06c-2.39-.46-4.61-.49-6.46,1.9-1.64,2.12-4.31,1.92-6-.06a2.93,2.93,0,0,0-2.82-1.06,36.31,36.31,0,0,1-7,.42,42.25,42.25,0,0,0-12,.51,10.37,10.37,0,0,1-3.47.07,6.91,6.91,0,0,0-4.38.82,22.27,22.27,0,0,1-8.74,2.25c-2.77.22-5.53.35-8.27.77a4.56,4.56,0,0,1-3.13-.38c-1.78-1-2.17-.84-2.24,1.06a134.92,134.92,0,0,0,.12,15.05c.09,1.24-.07,2.57.52,3.71a11.86,11.86,0,0,1,1,7,2.35,2.35,0,0,0,0,.53c.14,1.48.87,1.93,2.12,1.22a15.91,15.91,0,0,0,1.46-1.17,22.69,22.69,0,0,1,6.88-3.58,2.47,2.47,0,0,1,2.54.26,2,2,0,0,0,2.27.34c2-.93,3.57-2.47,5.77-4-2.07-.65-3.46-1.46-5.16-.9-2.86.93-5.86.54-8.79.89-1.76.22-3.11-.82-4.31-1.87a2.39,2.39,0,0,1,.35-3.74,4.12,4.12,0,0,1,2.26-.79c4.91-.3,9.8-1,14.74-.71a12.56,12.56,0,0,0,4.26-.38,7.9,7.9,0,0,1,4-.48c5.14,1.19,10.13-.39,15.17-.83a33.36,33.36,0,0,1,6.15-.35,44,44,0,0,0,6.69-.08c1.11,0,2-.84,3.11-.7a7.88,7.88,0,0,0,5.07-1.41c1.25-.72,2.66-1.42,4.09-.76,2.32,1.07,4.74.77,7.14.87,2.67.11,5.36,0,8,.21,1.38.1,1.76-.5,1.81-1.66.07-1.79.13-3.58.21-5.37.23-5.25.1-10.55.84-15.72.45-3.19.67-6.39,1-9.58.44-3.83.93-7.65,1.39-11.47.14-1.16.51-2.73-.46-3.26s-2.05.8-2.8,1.57a61.07,61.07,0,0,1-5.58,5.45,30.9,30.9,0,0,0-5,5.19c-2.13,2.73-4.24,5.63-8.17,6a1.23,1.23,0,0,0-1.1,1.57,6.24,6.24,0,0,1-1.72,4.9A8.55,8.55,0,0,0,401.69,285.45ZM340.47,152.82c-.37,2-1.41,3.71-1.14,5.79a21.82,21.82,0,0,1,.33,5.36c-.12,1,.32,1.65,1.59,1.55,2.3-.17,4.64,0,6.93-.29a66.25,66.25,0,0,1,11.52-.32c2,.09,3.91-.45,5.87-.26a56.92,56.92,0,0,0,12-.08c4.62-.51,9.2-1.49,13.86-1.44,6.71.06,13.32-1.57,20-1.18a3.26,3.26,0,0,0,.53-.09,38.21,38.21,0,0,1,7.71,0c2.75.33,5.49.81,8.23,1.25,1.69.27,1.77.3,1.81-1.47.06-2.32.46-4.6.5-6.92.05-2.65,0-3-2.63-2.8a22.71,22.71,0,0,1-5.34-.33,13.63,13.63,0,0,0-2.66-.33c-5.7.15-11.41.8-17.09-.23a17.26,17.26,0,0,0-5.87.18,7.77,7.77,0,0,1-3.43-.26,18.27,18.27,0,0,0-7.43-.85c-3.66.56-7.34-.41-10.94.51a3.22,3.22,0,0,1-1.34-.07,27.62,27.62,0,0,0-6.1-.29c-6.23.11-12.2,2-18.39,2.33C346.24,152.7,343.46,153.51,340.47,152.82Zm185.71,13.11a22.15,22.15,0,0,0,6.16-.65c.85-.22,1.92.49,2.54-.28s.38-1.9.47-2.87a19.31,19.31,0,0,0,0-2.15c-.08-2.58-.09-2.7-2.73-2.9-4.43-.34-8.86-.45-13.28-1.18s-8.73-.65-12.95-1.82c-4.81-1.33-9.84-.22-14.63-1.51-.29-.08-.67.24-1,.26-3.56.18-7.13,1-10.67,0a10,10,0,0,0-4.25-.16c-4.13.67-8.36.56-12.47,1.5A2.31,2.31,0,0,1,461,154a.74.74,0,0,0-1.17.05,1.09,1.09,0,0,0-.11,1.26c1.18,2.13,1,4.53,1.26,6.81.31,2.87.42,3.26,3.3,3.26,6.9,0,13.79.51,20.67.79,6.42.26,12.82-.13,19.23.22,3.42.19,6.75-.68,10.14-.91a23.86,23.86,0,0,1,5.83-.11A25.34,25.34,0,0,0,526.18,165.93ZM114.87,419.82c-.06.72-.17,1.43-.16,2.15,0,1.7.45,2.23,2,2.08,2-.2,4.07.26,6-1s4.17.87,6.24-.2c.15-.08.35-.07.52-.14,1.56-.66,3.17-.41,4.77-.29,3,.23,6,1,9,0a4.08,4.08,0,0,1,1.6-.08c5,.37,10-.28,15-.07a63,63,0,0,0,10.72-.24,46.41,46.41,0,0,1,7.74-.13c3.4.14,6.84,1.12,10.15.42,2.54-.55,4.89-.1,7.34,0,2.85.11,5.71,0,8.57,0,.64,0,1.36-.15,1.55-.84a9.74,9.74,0,0,0,.32-4.52.73.73,0,0,0-.74-.65c-2.23.08-4.39-.8-6.68-.28a30.78,30.78,0,0,1-7.42,1,57.59,57.59,0,0,0-9.91.57,16.48,16.48,0,0,1-5.86,0,11.06,11.06,0,0,0-5.57-.15,2.39,2.39,0,0,1-1.82-.34,5.7,5.7,0,0,0-4.42-.21,53.64,53.64,0,0,1-9,.86c-3.07.21-6-.45-9.08-.45a46.24,46.24,0,0,1-10.7-.81,9.16,9.16,0,0,0-5.29,0c-3.14,1.22-6,.09-8.9-.37-.62-.1-1.22-.31-1.84-.39-3.42-.45-4.11.15-4.15,3.54Zm222-150.17c.11.74,0,1.61.86,2.07a.56.56,0,0,0,.5-.06,1.65,1.65,0,0,0,.37-2.2c-1-2.12-.21-3.57,1.48-4.82a3.2,3.2,0,0,0,1.08-1.18c.81-1.87,2.5-3.65.56-5.84-.76-.85-.31-1.54.58-2.19,2.93-2.14,5.51-4.71,8.25-7.07s5.8-5,8.54-7.71c4-4,8.64-7.47,12.63-11.57a3.14,3.14,0,0,1,.84-.66,3,3,0,0,0,1.79-1.87,4,4,0,0,1,2-2.07,24.34,24.34,0,0,0,5.81-5.07c2.63-2.91,5.17-5.88,8.63-7.87a.7.7,0,0,0,.4-.88.83.83,0,0,0-1.11-.47,4,4,0,0,0-.95.47,104.27,104.27,0,0,0-15,11.67c-2,1.88-3.73,4.2-5.83,5.88-4.69,3.74-8.91,7.93-13.18,12.08-.7.68-1.13,1.73-1.92,2.2-2.15,1.25-3.53,3.3-5.38,4.83-2.61,2.17-4.48,5.08-7.3,7.06a5.69,5.69,0,0,0-2.13,3C337.24,261.38,337.65,265.57,336.88,269.65Zm1.69,65.21c.19,1.28-.14,3.05,1.18,3.85s2.44-.53,3.57-1.16a2.39,2.39,0,0,1,.48-.24c1.24-.29,1.46-1.74,2.62-2.2,3.26-1.29,6.06-3.37,8.95-5.31,1.24-.83,2.38-2.11,3.77-2.36a13.07,13.07,0,0,0,5.87-3,43.61,43.61,0,0,1,6.58-4,24.12,24.12,0,0,0,5.74-4.36c.31-.33.7-.61.42-1.12a1.1,1.1,0,0,0-1.15-.54,9.52,9.52,0,0,1-2.64.36c-2.08-.4-3.61.56-5.21,1.61a23.83,23.83,0,0,0-3.51,2.9c-1.79,1.73-4.31,2.54-5.8,4.67-.25.37-1,.36-1.46.6-2.46,1.26-5.06,2.27-7.05,4.32s-4.51,2.87-6.8,4.26a4.57,4.57,0,0,1-3.67.14C338.73,332.79,338.56,332.92,338.57,334.86Zm-1.09-43.32a30,30,0,0,1,6.27-2.17c1.57-.24,1.67-.52.79-1.85-.29-.44-.67-.83-1-1.27a3.58,3.58,0,0,1,.17-4.65c.46-.54,1.09-.93,1.59-1.43,1.41-1.38,2.75-2.86,3-4.93.12-1.15,0-2.31,1-3.19a.69.69,0,0,0,0-1c-.46-.45-.8,0-1.12.27-1.95,1.69-3.87,3.44-5.86,5.08-1.1.9-1.88,2.25-3.25,2.75-1.57.58-1.72,1.76-1.44,3a14.24,14.24,0,0,1,.15,4.51C337.6,288.2,337.58,289.71,337.48,291.54Zm3.25-144.78c-.17,1.28.23,1.88,1.37,1.61a48.15,48.15,0,0,1,5.32-.46,25.32,25.32,0,0,0,4.66-1.2,1.76,1.76,0,0,0,1.21-1.91c-.1-.85-.93-.63-1.5-.79-2-.54-2.75-1.92-2.11-3.84a8,8,0,0,1,1.71-2.69,15.44,15.44,0,0,0,1.89-2.25c.42-.69,1.52-1.58.65-2.29s-1.67.43-2.21,1c-2.26,2.52-4.46,5.11-6.59,7.74a6.85,6.85,0,0,1-2.52,2.33A3.24,3.24,0,0,0,340.73,146.76Zm19.35,139.78a2,2,0,0,0,2.5-2,6.07,6.07,0,0,1,1.09-2.11,40,40,0,0,1,5-6.61,2.72,2.72,0,0,0,.84-1.91A1.06,1.06,0,0,0,369,273c-.38-.24-.68,0-.94.24-1.73,1.78-3.65,3.46-4,6.13-.12.88-.48,1.6-1.39,1.76-2.12.35-2.74,2.37-4.08,3.58a1.2,1.2,0,0,0-.34,1.47C358.56,286.78,359.17,286.55,360.08,286.54Zm22.36,149.12c2.12-.36,3.34-1.69,4.58-3,1.64-1.67,3.24-3.36,5.47-4.28a2,2,0,0,0,1.32-1.8c-.91-.12-1.7-.21-2.48-.34a1.74,1.74,0,0,0-1.9.72,25.67,25.67,0,0,1-4.75,5.07A5.74,5.74,0,0,0,382.44,435.66Zm7.27-215c.78.21,1.1-.43,1.54-.83,1.33-1.17,2.48-2.65,4-3.48,3.18-1.75,5.31-4.71,8.3-6.65a.49.49,0,0,0,.17-.69.87.87,0,0,0-.67-.28,4.7,4.7,0,0,0-1.86,1c-4,2.78-7.18,6.62-11.11,9.54A1,1,0,0,0,389.71,220.68Zm-47.15-45.9c1.82.46,2.71-.72,3.59-1.84.42-.54,1-1.16.62-1.91s-1.19-.66-1.9-.61c-1,.07-1.94.17-2.9.3-1.81.23-2,.7-1.62,2.49A1.75,1.75,0,0,0,342.56,174.78Zm1.7,287.79c-.76,1.75-1.44,3.07-1.9,4.45s1.75,3.38,3.12,3c1-.28,2.25-2.85,1.52-3.15C345.19,466.14,344.86,464.5,344.26,462.57Zm122.65-203a.87.87,0,0,0-.46-.93,6.06,6.06,0,0,0-3.4-1.4c-.6,0-1.28-.41-1.6.45a2,2,0,0,0,1.05,2.44,28.47,28.47,0,0,0,3.18.52C466.48,260.73,466.75,260.15,466.91,259.56Zm-109.6-118a9.26,9.26,0,0,0,2.76-1.45,5.51,5.51,0,0,1,2.13-1.56c.65-.21,1.18-.62.84-1.38-.42-1-1.16-.51-1.81-.25-1.85.76-2.67,2.84-4.53,3.61-.13.05-.17.5-.11.72S357,141.56,357.31,141.53Zm26,139.83c-1.64.88-3.22.73-4,2.18-.35.63-.78,1.33-.12,1.93a1.34,1.34,0,0,0,2.11-.16C382,284.24,383.11,283.37,383.32,281.36ZM382,227c3.27-.85,4.59-3.45,6.49-5.4C385.65,222.43,383.68,224.31,382,227Zm-.43,198.66a2.48,2.48,0,0,0-2.35.38.75.75,0,0,0-.24,1.13c.28.5.69.86,1.28.51A2.32,2.32,0,0,0,381.58,425.66ZM361.65,203.07c-1.13.25-2,.45-2,1.62,0,.12.22.34.33.33C361,205,361.52,204.33,361.65,203.07ZM340.59,383.42c-.85,0-1.57.07-1.89,1a.52.52,0,0,0,.22.44C339.9,385,340.4,384.55,340.59,383.42Zm12-96.16c-.12-.47-.47-.51-.84-.46s-.73.24-.75.63.3.62.7.61A.83.83,0,0,0,352.55,287.26Zm-11.24-61.52c0-.32-.18-.61-.46-.47a1.17,1.17,0,0,0-.62,1.28c0,.28.19.57.47.45C341.26,226.78,341.22,226.2,341.31,225.74ZM358.36,342.1c-.25-.07-.35-.14-.41-.11a7.7,7.7,0,0,0-1.18.49c-.15.09,0,.41.16.37a6.77,6.77,0,0,0,1.21-.38C358.2,342.45,358.23,342.34,358.36,342.1Zm5.19-3.69a.56.56,0,0,0-.4.57.23.23,0,0,0,.38.17,1.13,1.13,0,0,0,.4-.57C364,338.42,363.75,338.34,363.55,338.41Z"/><path d="M255.17,488.08c-.65-1.32-1.61-2.36-1.17-3.78a1.08,1.08,0,0,0-1.26.75c-.9,2-2.71,2.23-4.53,2.16a2.37,2.37,0,0,1-2.54-1.59,3.15,3.15,0,0,1,.4-3.23c3.29-4.24,6.41-8.6,9.69-12.84.8-1.05,2.23-1.65,2.91-2.74a18.73,18.73,0,0,1,6-5.62,6.39,6.39,0,0,1,2.88-1.33,2,2,0,0,0,1.43-.66,2,2,0,0,0,.5-1.49c-.11-.71-.79-.57-1.3-.63-1.5-.16-3.13,0-4.11-1.76-2.21,2.32-4.94,3.76-6.7,6.26a37.11,37.11,0,0,0-3.78,5.79,14.13,14.13,0,0,1-3.56,4.27,2.16,2.16,0,0,1-2.95-.05c-1.49-1-2-2-1.63-3.31.44-1.78,1.73-3.12,2.47-4.75a47.26,47.26,0,0,1,5.77-9c1.31-1.73,3.36-2.68,5.22-3.72,1.25-.7,2.45,0,3.39.95.58.56,1.06,1.22,1.59,1.83.3.35.7.72,1.13.34a1,1,0,0,0,.05-1.44c-.06-.08-.09-.17-.17-.22a3.33,3.33,0,0,1-1.51-4.07,2.72,2.72,0,0,0-.6-.33c-3.7-.76-4.42-2-3.11-5.62.32-.9.75-1.55-.48-2.16-2.58-1.28-3.3-3.47-1.73-5.88,1.37-2.09,1.81-4.64,3.59-6.27-.3-.69-.68-.77-1-.69a9.87,9.87,0,0,1-4.77,0c-2.36-.59-4.79,0-7.16-.08-4.54-.25-8.89.76-13.3,1.39-4.7.68-4.74.82-5,5.4-.28,4.28-.46,8.57-.74,12.85a62.06,62.06,0,0,0,.42,7c.13,2.66-1,5.22-.86,7.9,0,.36-.17.73-.1,1.06.78,3.53-.53,4.28,4.46,4.94,1.72.23,3.61.19,4.62,2.18a3.57,3.57,0,0,1,.51,2.27c-.83,5-1.51,10.09-2.71,15.07a30.29,30.29,0,0,0-.46,8c0,.62.14,1.25.15,1.88a4.69,4.69,0,0,1-5.35,4.91,1.77,1.77,0,0,1-1.68-1.45,10.74,10.74,0,0,1,.08-5.57c.95-5,2.15-10,2.56-15.07.09-1.07.37-2.12.55-3.18.34-2,0-2.48-2-3a16.41,16.41,0,0,0-4-.41c-2.54-.06-3.81-1.61-3.19-4.06a35.34,35.34,0,0,0,1.17-10.38,2.44,2.44,0,0,1,0-.81c1.3-4.22.85-8.5.6-12.8-.27-4.76.84-9.47.87-14.23,0-3.85-.12-7.71-.19-11.56a2.86,2.86,0,0,0-2.43-3c-3.07-.84-3.62-2.68-1.79-5.17a2.53,2.53,0,0,1,2.31-1c1.81,0,1.92-.16,2-2,0-.81,0-1.62,0-2.43a88,88,0,0,1,1.82-17.35,42.67,42.67,0,0,0,.55-7.24c0-2.78.62-5.55.58-8.28-.11-6,1.15-11.92.89-17.93a32.32,32.32,0,0,1,.42-4c.37-4.64.8-9.27,1-13.92.16-3.21.19-6.49.52-9.64,1.16-11,.87-22,1.29-33,.17-4.43-.41-8.77-.59-13.15s-.21-8.61-.75-12.85c-.84-6.56,1.27-12.77,1.76-19.16.42-5.45,1.2-10.87,1.77-16.3a6.66,6.66,0,0,0-.34-3.45,3.52,3.52,0,0,1,.4-3.58,12,12,0,0,0,1.76-5.28c1.16-7.54,1.4-15.15,1.86-22.74.14-2.34.89-4.55,1.13-6.88.61-5.79,2-11.52,2.23-17.31.25-5.47,1.68-10.8,1.57-16.28a17.82,17.82,0,0,1,.44-3.47c.79-4.5,1-9.07,1.49-13.6.37-3.9.62-7.86.71-11.8.05-2.58.74-5.14.46-7.74a47.45,47.45,0,0,1,.4-10.45c.36-3.19.76-6.39-.16-9.6a20.92,20.92,0,0,1-.42-4.28,20.55,20.55,0,0,0-1.31-6,18.28,18.28,0,0,1-1.31-7.85,15.33,15.33,0,0,0-.43-4.52c-.45-1.91.12-3.93-.69-5.78-.06-.15-.1-.45,0-.5,1.77-1.23,1.26-3.83,3.21-5s3.55-1.51,5.46-.23a3.9,3.9,0,0,0,2.18.84c2.44.06,3.48-.91,3.5-3.34a18.09,18.09,0,0,1,.08-2.95c.38-2.16,1.83-3.25,3.74-3,1.73.26,3.63,2.35,3.26,4a52.1,52.1,0,0,0-.67,7.47c-.22,3-2.25,4.81-5.24,5.11a38.63,38.63,0,0,0-5.84.78,2.36,2.36,0,0,0-2,1.85,6.31,6.31,0,0,0-.32,1.85c.27,3.81-.11,7.73,1.72,11.31a3.83,3.83,0,0,1,.5,1.53c.05,4.23,1.31,8.33,1.33,12.56a9.56,9.56,0,0,1-.16,2.14,41.64,41.64,0,0,0-.8,7.47c-.22,4.73-.06,9.48-.88,14.19-.44,2.54-.17,5.2-.62,7.74A37,37,0,0,0,250,143c0,2,.28,2.44,2.23,2.37,1.62-.06,3.22.08,4.83.12,5,.13,10,1.2,15,1.1,4.22-.09,8.41.5,12.62.47,5.5,0,11,0,16.43,0a1.08,1.08,0,0,0-.36-1.39,3.25,3.25,0,0,1-.92-3.45c.27-1.13.35-2.06-.6-2.94a1.67,1.67,0,0,1-.43-2c1-1.89,1.56-4,3.41-5.37a9,9,0,0,0,3.84-8.07c-.05-2.21.15-4.47,2.21-6.2,1.55-1.29,2.23-3.41,3.4-5.11s3.37-2.68,4.42-4.63c.27-.49.95-.4,1.5-.3a6.16,6.16,0,0,1,2.52.71,3.92,3.92,0,0,0,1.09-2.81c-.08-6.09.61-12.17-.17-18.27a43.37,43.37,0,0,0-.58-5.3c-.46-1.86-.64-3.68-3-4.46a3.14,3.14,0,0,1-1.93-3.79,4.07,4.07,0,0,1,3-3.36c2.94-.76,3.87-2.33,3.73-5.59,0-1-.27-1.95-.33-2.94-.13-2.27,1.11-4.41,3.9-5.5a1.46,1.46,0,0,1,2,.68,5.71,5.71,0,0,1,.83,5.1,12.49,12.49,0,0,0,.74,9.35c.2.4.59.76.35,1.21-1.06,1.93-.52,4-.74,6.08a52.59,52.59,0,0,1-1.22,7.13,23,23,0,0,0-.44,5.33c-.15,6.53-.42,13-1,19.57-.2,2.28,0,4.61-.22,6.93-.1,1.07,0,2.11-.82,3a2.14,2.14,0,0,0-.29,1.8,87.54,87.54,0,0,1,.4,15.27c-.18,2.78.43,5.49.45,8.26,0,4.17.42,8.35.65,12.52a6.65,6.65,0,0,1-.07,1.61c-.77,4.09-.36,8.21-.27,12.31.06,3-.36,5.88-.58,8.82a28.8,28.8,0,0,0-.13,3.22,9.2,9.2,0,0,1-.48,4c-1,2.26-.68,4.53-.48,6.85a33.15,33.15,0,0,1,.08,5.08,129.69,129.69,0,0,0,.19,18,30.29,30.29,0,0,1-.22,5.63,4.78,4.78,0,0,0,.95,4,2.3,2.3,0,0,1,.41,2.77c-1.77,2.42-1.24,5.13-1.18,7.77.12,5.46.42,10.92.52,16.37.08,4.35-.22,8.72-.16,13.08a20.91,20.91,0,0,1-.29,5.06,16.82,16.82,0,0,0-.35,5.88,7.47,7.47,0,0,1-.17,2.94c-.95,3.41-.07,7-1.05,10.39a3.85,3.85,0,0,0,.1,1.87,23,23,0,0,1,.25,7c-.16,2.24.11,4.45.17,6.68.06,2.39-.34,4.79-.48,7.19-.12,2.14-.2,4.29-.38,6.43-.53,6.23-.95,12.47-1.64,18.69-.37,3.3-1.05,6.63-.77,10.08.24,3-.56,6-.91,9a5,5,0,0,0-.13,1.32c.71,4.65.17,9.29,0,13.94-.06,2.12.21,4.27.29,6.41.07,1.72-.51,3.43-.17,5.08.73,3.57-.27,7-.29,10.57,0,2.85.09,5.71.15,8.56a6.27,6.27,0,0,1,.07,1.87c-1.11,3.3-.12,6.59,0,9.87.06,2.37.48,4.54,2.55,6.23,1.64,1.33,1.64,2.37-.1,3.79s-2,3.23-1.76,5.25c.44,4.13-.27,8.21-.53,12.31a36,36,0,0,0,.42,5.88,37.09,37.09,0,0,1,.17,7.22,15.47,15.47,0,0,0,.51,4.25,45,45,0,0,1,.85,4.75,5.77,5.77,0,0,0,.83,2.26,5.84,5.84,0,0,1-.42,5.72,4.14,4.14,0,0,1-2.57,1.32c-4.86.92-4.54.8-5.71,5.7-.29,1.22-.58,2.44-.75,3.68a10.82,10.82,0,0,0,0,3.72,8.34,8.34,0,0,1-2.35,7.38,3.2,3.2,0,0,1-5.52-.9c-.75-2.12-2.22-2.52-4.11-2.7-3.5-.33-6.93.35-10.38.68a22.14,22.14,0,0,1-4.24-.07c-3.77-.38-7.53-.29-11.29-.32a31.36,31.36,0,0,0-9.42,1.92c-.34.1-.68.46-1,.42-3.43-.46-6.72.79-10.11.75-.27,0-.57-.13-.8,0-3.21,1.23-6.58.54-9.86.81a11,11,0,0,0-2.83.8,3.58,3.58,0,0,1-4.92-3c-.14-1.11,1.9-4.14,3.1-4.34a12.67,12.67,0,0,1,4.25-.49A19.71,19.71,0,0,0,255.17,488.08Zm3.42-257a4.11,4.11,0,0,0,2.25-1.39,64.15,64.15,0,0,1,8.18-7.35,8.65,8.65,0,0,0,2.14-2.4,14.79,14.79,0,0,1,4.22-4.71,30.43,30.43,0,0,0,5.44-4.65c1.79-1.87,3.44-3.87,5.4-5.58,1.55-1.35,3.4-2.5,4.51-4.15a27.42,27.42,0,0,1,5.62-5.71c1.38-1.15,2.82-1.34,4.16-.33s1.9.44,2.61-.55a14.53,14.53,0,0,0,1.48-1.9,8.91,8.91,0,0,1,3.65-3.84,5,5,0,0,0,1.35-1.28c.7-.85.8-1.62-.47-2a6.36,6.36,0,0,1-1-.37,3.14,3.14,0,0,1-1.3-4.93c.34-.52.81-1,1.18-1.47,1.81-2.43,3.66-4.84,5.38-7.33.94-1.35.54-2.33-1.06-2.37-2.67-.06-5.41-.26-8,.58a36.71,36.71,0,0,1-5.61,1.25c-4.07.65-8.31-.65-12.23,1.16a.81.81,0,0,1-.53,0c-2-.66-4,1-6-.11-.17-.1-.55,0-.76.18-1,.66-2.06.33-3.13.33-1.43,0-2.85-.17-4.29-.16-4.27,0-8.53.37-12.81.24-2.66-.08-5.35.22-8,.4a10.44,10.44,0,0,0-3.38.85c-1.77.75-2.31,1.59-2.09,3.54a12.18,12.18,0,0,1-.54,6.33,6.93,6.93,0,0,0-.42,3.17,11.93,11.93,0,0,1-1.09,5.76,3.67,3.67,0,0,0-.6,2.29c1,5.48-.53,10.83-.93,16.23-.09,1.14-.76,2.23-.56,3.42a10.92,10.92,0,0,1-.66,5.54c-.27.79-.78,1.66-.2,2.28,3.25.38,4.46-1.89,5.92-3.91,2.93-4.07,6.45-7.7,9-12.07,1.45-2.5,3.61-2.87,6-1.14.82.59,1.61.92,2.44.24,1.09-.9,2.37-1.6,3.13-2.89,1.73-2.95,4.64-4.42,7.56-5.77,1.77-.81,2.79-.32,3.81,1.36s1.08,1.76,2.81.84c.55-.29,1.07-.65,1.64-.93,1.79-.87,3.36-.37,4.61,1.43.89,1.28.56,2.6-1.05,3.9a17.75,17.75,0,0,1-1.82,1.12,13.12,13.12,0,0,0-3.48,2.49,100,100,0,0,1-7.25,7.16c-2.07,2-4.1,4-6,6.09-2.31,2.47-4.39,5.19-7,7.4a5.17,5.17,0,0,0-2.11,3.85c-3.41,1.07-5,4.21-7.29,6.51a.7.7,0,0,0,0,1c.43.44.91.12,1.15-.22,1.62-2.27,3.9-3.94,5.62-6.11A4.37,4.37,0,0,0,258.59,231ZM278.31,321c1.25-1.33,2.45-2.42,3.42-3.68,1.11-1.46,3-1.19,4.51-2a6.33,6.33,0,0,0-4.71-1.11c-2.57.34-5.13,1-7.69,0a25.61,25.61,0,0,1-12.91-1.52c-5.41.25-10.93-.66-16.14,1.55a3.9,3.9,0,0,1-2.89,0c-2.75-.95-3.22-3.13-1.09-5a5.37,5.37,0,0,1,3.31-1.54,44.77,44.77,0,0,0,7.93-1.3c2.95-.75,6-.25,8.95.4,3.09.7,6.29.66,9.34,1.57a2.25,2.25,0,0,0,1.78-.48,1.23,1.23,0,0,1,1.5,0c.87.61,1.9.44,2.84.66,2.43.54,4.83-.35,7.24,0,4.51.63,8.92-.29,13.35-.86,4-.5,8-1.2,12-.42,2.89.57,5.73,0,8.58.24a1.42,1.42,0,0,0,1.67-1.39,39.76,39.76,0,0,0,.26-7c-.65-5.86.08-11.65.51-17.44.53-7.24,1.2-14.44.86-21.72a69,69,0,0,1-.25-8,32.15,32.15,0,0,0-.18-5.37c-.14-1.46-.8-1.72-1.9-.86-1.41,1.1-2.8,2.23-4.15,3.41a9.07,9.07,0,0,0-1.39,1.63.67.67,0,0,0,.31,1.1c.41.17.87.23,1.29.38a3,3,0,0,1,1.33,5.07,6.8,6.8,0,0,1-2.32,1.8,22.75,22.75,0,0,0-3.27,2.32c-3.7,2.55-6.05,6.5-9.63,9.14a2.38,2.38,0,0,0-.84,2.79c1.3-.28,1.89-1.29,2.78-1.86,4.33-2.8,9.06-5.06,12.53-9a2.79,2.79,0,0,1,.39-.38,2.66,2.66,0,0,1,3-.44c1.1.55.87,1.61.67,2.62-.65,3.19-3.21,4.81-5.56,6.44a20.34,20.34,0,0,0-3.2,2.32c-1.41,1.46-2.23,3.74-4.89,3.65-.44,0-.92.8-1.35,1.24s-1,1.38-1.68,1.73c-3.65,1.91-5.34,5.42-7.32,8.69-.58,1-.31,1.49.83,1.63a9.65,9.65,0,0,0,4.74-.7,27.07,27.07,0,0,1,7.29-1.82,9.17,9.17,0,0,1,6.66,1.56,2,2,0,0,1,.1,3.38,4.58,4.58,0,0,1-4,1.1,19.83,19.83,0,0,0-8.74.57,40,40,0,0,1-8.92,1.83c-3.68.14-7.24,1.12-10.94,1.3-2.46.12-4.9.51-7.4.4a64.77,64.77,0,0,0-6.95.4c-1.55.11-3.12,1.07-4.63-.21-.35-.3-.86,0-1.27.16a9.59,9.59,0,0,1-5.51.8,3.39,3.39,0,0,0-2.09.42,7.8,7.8,0,0,1-6.68.5c-2.4-.84-5-.45-7.42-.75-2.93-.35-3.54.06-3.9,2.87-.27,2.14.07,4.28,0,6.39-.13,4.88.44,9.86-1.36,14.6-.21.53.11,1,.17,1.57a32.45,32.45,0,0,1-.09,9.64,21.62,21.62,0,0,0-.45,4.53,20.44,20.44,0,0,1-.48,5.34c-.31,1.3-.81,2.76-.49,4,.54,2.05.05,3.91-.25,5.84a7.28,7.28,0,0,0,0,2.94,9.2,9.2,0,0,1-.13,3.73,46.4,46.4,0,0,0-.29,13.87,15.89,15.89,0,0,1-.05,4c-.74,6.22-1.72,12.42-2.2,18.66-.3,3.86-1.73,7.62-.9,11.62.26,1.29.59,1.76,1.73,1.73q3.09-.07,6.18-.3c2.73-.21,5.37-.76,8.25-.29,5,.81,10,2.14,15.1.26a5.42,5.42,0,0,1,1.87.07c2.55.16,2.54.16,2.69-2.36a8.55,8.55,0,0,1,.31-1.57,1.38,1.38,0,0,0-.75-1.79c-1.55-.74-1.87-2.09-1.65-3.61a2.86,2.86,0,0,0-.58-2.53c-1.56-1.66-1.14-3.36-.41-5.2.52-1.32,1.7-2.33,1.73-3.88,0-.26.42-.59.72-.73,1.85-.83,3.14-2.36,4.6-3.69a2.69,2.69,0,0,1,2.15-.83c2.87.19,4.15,2,3.44,5-.39,1.68-.21,2,1.43,1.82,1.08-.09,2.24-.46,3.1.35,1,.95,2.29-.13,3.4.69,1.42,1.05,2.33-.71,3.36-1.25,1.65-.86,3.36-1.65,4.95-2.65,4.31-2.73,8.61-5.47,12.86-8.28a12.46,12.46,0,0,1,5.21-2.06c.69-.09,1.48-.33,1.95.42a1.66,1.66,0,0,1-.25,1.78,17.65,17.65,0,0,1-4.27,5.15c-1.73,1.32-1.84,1.55-.06,2.49,1.4.74,1.22,1.73.77,2.67a5.53,5.53,0,0,1-2.85,3.09,20.23,20.23,0,0,0-5.78,3.33c-3.22,2.38-7,4.1-9.37,7.51a4.28,4.28,0,0,1-3.86,1.51c-2.53-.07-3.61-2.12-2.35-4.33a9.11,9.11,0,0,1,1.84-1.93c.53-.52.89-1.41-.09-1.74-1.4-.48-2.22-1.6-3.19-2.56-.36.3-.58.45-.76.64s-.46.55-.72.8c-1.61,1.53-1.61,1.53,0,3.26,1.41,1.5,1.26,3-.59,3.94a30.82,30.82,0,0,1-4.27,2.22c-1.37.45-3.75,3.21-4.3,4.68a1.61,1.61,0,0,0,1.25.35c5.1.24,10.22.27,15.3.79,2.67.27,4.17-.52,5.37-2.81a18,18,0,0,1,5.25-6c3.35-2.54,6.67-5.13,9.89-7.83a6.64,6.64,0,0,1,4.11-1.69c2.1-.11,2.11-.18,2.34-2.34.05-.53,0-1.07.05-1.61.11-4.29-.37-8.58-.12-12.89a40.72,40.72,0,0,0-.14-5.63c-.16-1.8-.5-1.87-2.26-1.44-2.07.51-3.64,1.91-5.48,2.83a59.7,59.7,0,0,0-11.59,7.16c-3,2.5-6.38,4.26-9.64,6.27-1.48.91-3.09,1.51-4.85.7a1.57,1.57,0,0,1-.76-2.6,11.91,11.91,0,0,1,.92-1c1.47-1.74,3.49-2.74,5.3-4,4.08-2.88,7.87-6.21,12.15-8.73,4.68-2.76,9.38-5.61,14.58-7.37a2.49,2.49,0,0,0,2-2.77c0-.71,0-1.44,0-2.15-.16-1.33-.43-1.4-1.78-1-3.25.92-5.71,3.28-8.71,4.67-2.68,1.24-4.74,3.55-7.22,5.06-3.05,1.87-5.93,3.94-8.82,6a8.53,8.53,0,0,1-5,1.63c-2.7,0-3.17-.53-3.1-3.23,0-.15-.15-.31-.24-.46-.51-.19-.87.13-1.18.43-3.69,3.63-7.65,7-10.86,11.08a2.95,2.95,0,0,1-5.31-.81,3.22,3.22,0,0,1,.64-3.05,53,53,0,0,1,4.91-5.65c3.29-3,6.86-5.71,10.12-8.78a7.15,7.15,0,0,1,4.75-2.24,3.87,3.87,0,0,0,3.05-1.42,21,21,0,0,1,3.71-3.08c.67-.46,1.54-.89,1.49-2.19-1.15.32-2.23,0-3.13.92a11.89,11.89,0,0,1-4.21,2.32c-3.17,1.24-4.74.31-5-3,0-.06-.12-.12-.34-.33-3.11,1.71-5.56,4.35-8.11,6.77-2.38,2.25-4.24,5-7.16,6.76-1.08.64-2.88.9-3.79.24-1.13-.81-.71-1.92-.46-2.95a4.48,4.48,0,0,1,2.22-3.18,15.76,15.76,0,0,0,4.74-4.32,25.69,25.69,0,0,1,3.64-4c2.38-2,4.84-3.95,7.07-6.11a70.61,70.61,0,0,0,6.14-6,3.46,3.46,0,0,1,3-1.47c1.78.22,3.09-.74,4.49-1.49,1.55-.83,1.79-1.78.85-3.26-.53-.83-1.25-1.55-1.73-2.4-.64-1.12-1.25-1-2.11-.28-1.95,1.72-3.89,3.46-5.94,5.06A91.79,91.79,0,0,0,268,350.47c-1.72,2-3.24,1.9-4.65-.43-.37-.61-1.39-1.14-.78-2.08,1-1.5,1.75-3.25,3.06-4.36,2.54-2.15,4.87-4.48,7.26-6.77,3.64-3.51,8.09-6.09,11.82-9.53a4.36,4.36,0,0,1,1.72-.72c.86-.23,1.76-.35,2.63-.56,2-.48,2.55-1.8,1.64-3.63-1.16-2.34-1.12-2.66.86-4.26.76-.6,1.39-1.43,2.47-1.54s1.24-.95,1.62-1.65c.47-.88.16-1.44-.83-1.37-1.43.09-2.85.3-4.27.49-2.51.35-3.2,1.11-3.28,3.59,0,.72.28,1.58,0,2.12-1.69,3-3.54,6.13-6.26,8.23-1.73,1.33-3.57,2.63-5.22,4.08-.8.7-1.91.88-2.51,1.9a22.07,22.07,0,0,1-7.19,7,3.27,3.27,0,0,1-4.34-.61c-.68-.78-.54-2.51.34-3.75.47-.66,1-1.25,1.51-1.9,1.18-1.63,1.17-1.66-.18-3.15a4,4,0,0,1,.5-6.07,35.8,35.8,0,0,0,7.61-7.49,8.8,8.8,0,0,1,1.32-1.34,3.84,3.84,0,0,1,3.84-.38c1.37.49,1.46,1.66,1.51,2.87C278.15,319.65,277.79,320.16,278.31,321Zm2-43a3.87,3.87,0,0,1,1.78-4,14.8,14.8,0,0,0,3.76-3.39c1.6-2.58,3.92-4.41,5.92-6.57,1.75-1.89,1.77-1.87.45-4-1-1.57-.93-2,.41-3.22.45-.43.92-1,1.47-1.14,3-.68,4.67-2.76,6.26-5.12,1-1.47,2.89-2.2,3.73-3.81,1.71-3.29,4.43-5.84,6.44-8.9,1.87-2.86,3.91-5.74,6.68-7.65,2.31-1.6,2.75-3.43,2.8-5.86.07-4.05-.12-8.07-.38-12.1-.21-3.3-.19-6.61-.55-9.92a17.77,17.77,0,0,1,.33-7.45,15.85,15.85,0,0,0,.38-4.27c0-1.24-.5-1.61-1.68-1.19a6.55,6.55,0,0,0-1.62.93c-2,1.5-4,3-6,4.54a3.12,3.12,0,0,0-1.42,2.19,3.4,3.4,0,0,1-2.28,3c-1.22.56-1.89,1.32-1.12,2.75a2.47,2.47,0,0,1-.48,2.74,9.76,9.76,0,0,1-2.4,2.52,40.85,40.85,0,0,0-6.33,5.35c-5.42,5.58-10.85,11.14-16.05,16.92-1.49,1.66-2.57,3.89-4.4,5-2.39,1.4-3.73,3.71-5.74,5.41-4.26,3.64-7.71,8.14-11.91,11.9-1.84,1.65-3.83,3.28-5,5.6a2.7,2.7,0,0,1-1.39,1.18,23.44,23.44,0,0,0-6.88,5.77,7.68,7.68,0,0,1-.55.59c-1.1,1-3,1.18-3.86.3a2.81,2.81,0,0,1,0-3.63c1-1.38,2-2.79,3.07-4.28-3.71-.88-4.08-1.31-4.56-4.91,0-.26,0-.54,0-.8A2.88,2.88,0,0,0,237.3,250c-.84,2-.68,4-.91,5.9-.38,3.26-1.54,6.49-.78,9.84s.5,6.94.38,10.42a4.56,4.56,0,0,0,0,1.61c.8,2.33.24,4.79.78,7.16a22.8,22.8,0,0,1,.26,5.61c0,2-.14,2,1.83,1.88.45,0,.95-.2,1.3.1,1.17,1,2.54.57,3.86.66,3.31.23,6.59-1,9.91-.2a1.24,1.24,0,0,0,.78-.11,8.76,8.76,0,0,1,4.71-.71c.72,0,1.67-.1,1.73-.95a7.19,7.19,0,0,1,2.45-5.17.65.65,0,0,0,0-1,.71.71,0,0,0-1-.1,5.52,5.52,0,0,0-1.18,1.08c-.49.63-.84,1.37-1.32,2-1.17,1.58-3.6,2.27-4.73,1.39a4.07,4.07,0,0,1-1.12-5.51,23.72,23.72,0,0,1,5.12-5.33c1.9-1.51,4-2.62,5.89-4.15.78-.65,1.48-1.31.7-2.49-.51-.76-.05-1.55.32-2.28a16,16,0,0,1,4.05-5c1.14-1,1.67-2.32,2.56-3.43.53-.65.11-1.19-.74-1.18a9.87,9.87,0,0,0-1.07.16,2,2,0,0,1-2.29-1c-.51-1,.16-1.71.68-2.42a7.07,7.07,0,0,1,1-.92c1.79-1.73,3.45-3.56,5.36-5.21,2.46-2.13,4.32-5,6.26-7.6a49.81,49.81,0,0,1,5.85-6.83c1.64-1.53,2.87-3.39,4.54-4.91,2.1-1.89,4.57-3.54,6-6a5.27,5.27,0,0,1,4.43-2.54,3.54,3.54,0,0,1,3.44,4.74c-.29.69-.69,1.44-1.49,1.37-2.84-.25-4.09,1.94-5.59,3.62a38,38,0,0,1-5.86,5.89,8.16,8.16,0,0,0-2.74,4.11,9.41,9.41,0,0,0,4.12-2.32c1.1-.93,2.13-1.93,3.21-2.88a15.76,15.76,0,0,1,6.74-3.17,1.87,1.87,0,0,1,2.36.76,2.49,2.49,0,0,1,0,2.8,6.52,6.52,0,0,1-3.05,2.53,5.79,5.79,0,0,0-2.37,1.23c-2,2.17-4.69,3.5-6.88,5.49-2.65,2.41-5.3,4.8-7.83,7.33a66.3,66.3,0,0,0-6.37,7.59,89.23,89.23,0,0,1-8.33,9,2.48,2.48,0,0,0-.89,2.72c.49,2.24.71,4.67-1.49,6.42a.58.58,0,0,0-.06.93c2.47-.34,2.47-.34,2.58-3.05,1.56,1.24,1.56,1.26,4,.49A11.69,11.69,0,0,1,280.31,278Zm-26-127.67v.12c-1.08,0-2.15,0-3.23,0-2.05.06-2.37.24-2.52,2.3-.2,2.68-.61,5.33-1,8a38.91,38.91,0,0,0-.13,4.84c0,.8.36,1.2,1.14,1.09,1.7-.24,3.44.3,5.05.07,2.72-.41,5.37.09,8,.16,4.72.12,9.43.12,14.15.06,3.59,0,7.11-1.82,10.76-.44a1.36,1.36,0,0,0,.53,0c2.34-.06,4.66.13,7,.23,3.17.13,6.29-.26,8.88-2.39a3.47,3.47,0,0,1,2.48-.78c4.53.11,9.06,0,13.57.38,1.54.12,1.81-.19,2-1.51a81.69,81.69,0,0,0,.42-11.27c-.05-8.21-1.18-16.38-.77-24.61a8.58,8.58,0,0,0-.2-2.14c-.27-1.36-.81-1.59-1.74-.65a22.1,22.1,0,0,1-2,1.72c-1.79,1.39-1.76,1.94,0,3.46a6.57,6.57,0,0,1,1,.88,3.11,3.11,0,0,1-1.71,5.15,4.23,4.23,0,0,0-1.6.91c-3.4,2.79-5.84,6.52-9.17,9.38a1.09,1.09,0,0,0-.5,1.16c.2.62.77.72,1.33.61a16.52,16.52,0,0,0,2.61-.62,4.44,4.44,0,0,1,2.64-.23,13.31,13.31,0,0,0,4.53.39c.88-.07,1.63.08,1.91,1.05a1.91,1.91,0,0,1-1.1,2.46,10.57,10.57,0,0,1-4.36,1.25,44.74,44.74,0,0,0-6.41.63c-.88.14-1.57.8-2.55.71a85.19,85.19,0,0,0-12.88-.1,9.88,9.88,0,0,1-4.74-.55,6.49,6.49,0,0,0-3.7-.23,16.19,16.19,0,0,1-5.08.33,79.45,79.45,0,0,0-12.13-1.16C261.25,150.91,257.77,150.51,254.28,150.28Zm60.77,287c-.95-.09-1.2.48-1.48.88-2.22,3.12-4.95,5.81-7.35,8.76-1.35,1.67-3.15,3-4.11,4.92-2.49,4.83-7.43,7.12-10.88,10.93-.28.31-.84.32-1.22.56a2.42,2.42,0,0,1-3.38-.39,2.8,2.8,0,0,1,.17-3.49,13.11,13.11,0,0,1,2.62-2.69,27.81,27.81,0,0,0,6.77-6.79c1.09-1.54,2.19-3.07,3.4-4.5a76.42,76.42,0,0,0,8.22-10.83,4.38,4.38,0,0,1,.95-.92,7.19,7.19,0,0,1,4.41-1.79c1.45-.11,1.7-1.1,1.64-2.28-.05-1,.14-2.07-1.1-2.49a3.6,3.6,0,0,0-3.12,1.17,1.92,1.92,0,0,0-.29.75,3.75,3.75,0,0,1-1.83,2.83,4,4,0,0,0-.92,1.3,50.83,50.83,0,0,1-9.09,10.06c-.26.23-.71.32-.87.59-1.31,2.15-3.29,3.74-4.77,5.74a14.4,14.4,0,0,1-5.56,4.94,1.61,1.61,0,0,0-1,1.14c-.44,2-1.87,3.16-3.44,4.28a21.55,21.55,0,0,0-3.85,3.31,8.35,8.35,0,0,1-3.88,2.33c-2.09.61-2.1.66-1.22,2.44,1.52,3.1.3,6.05-3,6.9a5,5,0,0,0-3.36,2.45,10.39,10.39,0,0,1-1.88,2.23,14.59,14.59,0,0,0-3.81,6.65c-.4,1.53.21,2.1,1.68,1.68,1.13-.32,2.26-.53,3.41-.74,2.34-.42,3.15-1.38,3.17-3.87a5,5,0,0,1,1.61-3.84c.82-.73,1.39-1.63,2.13-2.4a61.44,61.44,0,0,1,5.9-5.85,12.36,12.36,0,0,0,3.47-3.55c.74-1.28,2.45-1.23,3.74-1.52,1-.23,2.72,2.31,2.65,3.47a6.27,6.27,0,0,1-.9,3.07c-1,1.54-1.69,3.24-2.84,4.73a3.54,3.54,0,0,1-2.14,1.69c-2.83.65-4.62,2.59-5.86,5.1-.62,1.25-.39,1.76.92,1.74,2.61-.06,5.17.63,7.76.6,2,0,3.92.77,5.87.15,3.8-1.21,7.78-1,11.67-1.44,2.49-.32,2.57-.1,2.8-2.67a4.9,4.9,0,0,0-.07-2.39,4.42,4.42,0,0,1-.21-2.84,6.14,6.14,0,0,0-.12-3.45,1.2,1.2,0,0,1,.27-1.49c2.11-1.6,3.73-3.87,6.59-4.43,2.2-.44,2.24-.65,2.07-2.94-.26-3.29-1.14-6.53-.69-9.87a2.44,2.44,0,0,0,0-.27c-.05-.45-.11-.92-.6-1.1a1.23,1.23,0,0,0-1.44.44,12.89,12.89,0,0,1-2,2.49,22.8,22.8,0,0,0-5.19,6.12,6.55,6.55,0,0,1-2.06,2.44,11.26,11.26,0,0,0-2.68,2.56c-1.34,1.43-2.83,2.77-5.08,2.49s-3.06-1.83-1.8-3.53a23.76,23.76,0,0,1,2.82-3.55,27.69,27.69,0,0,0,3.87-4.43,69.51,69.51,0,0,1,6.93-8.8c1.66-1.72,3.51-3.38,6.15-3.51a1.2,1.2,0,0,0,1.29-1.12A47.4,47.4,0,0,0,315.05,437.27Zm-.75-20.15c0-.71.1-1.43.11-2.14s-.19-1.34-.86-1.53c-1.29-.37-2.79-1.15-3.88-.79-3.06,1-6.38,1.15-9.28,2.62a11.64,11.64,0,0,1-4.63,1.25,62.27,62.27,0,0,1-11,.12,34.45,34.45,0,0,0-8.28-.4,24.74,24.74,0,0,1-7.69-.27,15.86,15.86,0,0,0-7.18.24,12.83,12.83,0,0,1-10.57-1.3,2.15,2.15,0,0,0-2.06-.13c-.57.23-1.2.66-1.75.58-2.74-.39-5.34.33-8,.73a12.24,12.24,0,0,1-3.2,0,28.07,28.07,0,0,0-4.3,0c-1.07,0-1.52.66-1.64,1.73-.44,4.14.77,5.16,4.86,4a17.09,17.09,0,0,1,3.65-.9c3.09-.2,6.18-.42,9.28-.57a22.38,22.38,0,0,1,2.94.16c2.11.19,4.21.42,6.31.59s4.27-.27,6.35.56a3.19,3.19,0,0,0,1.86,0,16.54,16.54,0,0,1,4.81-.27c2.6,0,5.2.2,7.8.12,4.87-.17,9.73-.68,14.62-.34,3.23.23,6.42-.53,9.64-.61a73.8,73.8,0,0,1,8.28,0C314,420.81,314.37,420.66,314.3,417.12ZM248,254.53a1.94,1.94,0,0,0,.67-.22,11.25,11.25,0,0,0,2.53-2c1.54-2,3.59-3.45,5.13-5.44a10.45,10.45,0,0,1,2-2.5c6.19-4.4,10.68-10.54,16.05-15.78,3.39-3.31,6.34-7.07,9.57-10.55a110.24,110.24,0,0,1,11-10.64c2.67-2.18,4.67-5.27,8.41-6,.8-.15.63-.77.22-1.22a1.64,1.64,0,0,0-1.92-.62c-2.7,1.22-5.41,2.6-7.19,5a13.27,13.27,0,0,1-3.81,3.66,3.63,3.63,0,0,0-1.24,1,32.3,32.3,0,0,1-9.54,9.27c-.49.3-.64.85-1,1.24-1.26,1.5-2.36,3.33-4,4.29-2.52,1.5-4,4-6.17,5.8-1.84,1.52-3.46,3.55-5.24,5.3-4.26,4.2-8.46,8.46-12.65,12.74-1.25,1.28-1.9,3-3.19,4.31-.31.31-.27,1-.31,1.54A.71.71,0,0,0,248,254.53Zm35.52,172.74c-1.75.4-3.24-.29-4.79-.54-1.13-.18-2.28-.79-3.42-.39a7.37,7.37,0,0,1-4.14.14,6.5,6.5,0,0,0-4.79.91c-.9.65.91,2,.87,3.09-.08,2,.9,2,2.5,1.78a3,3,0,0,1,3.32,1.68c1.16,2.2,2.78,2.55,4.7,1A17.87,17.87,0,0,0,283.53,427.27ZM307,342.84c1.32-.28,2.35-.57,3.4-.68a2.69,2.69,0,0,1,3.18,2.21,3.54,3.54,0,0,1-2.92,4.37c-2.25.54-3.43,2.28-5,3.66a9.79,9.79,0,0,0,2.77-.83,13.78,13.78,0,0,1,5.21-1.13c2.14-.14,2.39-.32,2.65-2.43.37-2.93,0-5.89.58-8.82.28-1.4-.36-1.82-1.74-1.3-2.17.81-4.31,1.73-6.42,2.71A2.53,2.53,0,0,0,307,342.84ZM302,408.48c.44.25.6.43.73.41a42.79,42.79,0,0,1,10.58-1.08.91.91,0,0,0,1-1c-.1-2.2.36-4.41-.09-6.82A33.49,33.49,0,0,0,302,408.48Zm-6.46,19.31a1.07,1.07,0,0,0-.76-1.19c-2.24-1.06-4.46.2-4.47,2.69a5.55,5.55,0,0,1-1.29,4c-2.47,2.49-4.16,5.55-6.28,8.28-.29.37-.53.82-.11,1.18s.87,0,1.13-.32a65.31,65.31,0,0,1,5.3-6.59c1.19-1.24,2-2.83,3.56-3.86S294.49,429,295.56,427.79Zm22.82-101.91c.08-.42.16-.86.26-1.29s.19-.92-.26-1.21a.89.89,0,0,0-1.19.28c-1.28,1.41-3.59,2.3-2.52,4.93a1.89,1.89,0,0,1-.14,1.05c-.38,1.25-.08,2.11,1.31,2.39,1.56.31,1.74-.81,2-1.9A12.4,12.4,0,0,0,318.38,325.88Zm-36.44,25.6c1.27,0,1.79-1.14,2.88-1.29,1.36-.2,2.32-1.26,3.61-1.69a2.15,2.15,0,0,0,1.36-2.61c-.06-.46-.24-.93-.73-1a1.16,1.16,0,0,0-.93.39,12.5,12.5,0,0,1-2.71,2.48A47.09,47.09,0,0,0,281.94,351.48Zm26.41-39.05a10.13,10.13,0,0,0-4.69-.26c-.67,0-1.56-.31-1.93.48s.38,1.47.74,2.15a1.18,1.18,0,0,0,1.82.42C305.58,314.41,306.8,313.5,308.35,312.43Zm-35-23a.82.82,0,0,0-1.14-.74,6,6,0,0,0-3.32,2.54c-.48.75,0,1.14.73,1.3C270.81,292.77,273.3,290.71,273.33,289.41Zm10.56,2.43c1.2-.21,2.25-.37,3.29-.58a.93.93,0,0,0,.81-.91c0-.66-.46-.91-1-1-1.24-.16-2.16.71-3.25,1-.43.13-.88.36-.75.91S283.59,291.83,283.89,291.84Zm17.05,139.61a15.77,15.77,0,0,0,3.11-3.15c.31-.45.5-1-.06-1.43s-1.43-.38-1.65.22C301.89,428.37,300.55,429.36,300.94,431.45Zm18.69-194.69c-1.89,1.92-2.06,3.17-.71,4a1,1,0,0,0,1,.19.74.74,0,0,0,.43-.88C320.09,239.08,320.27,238,319.63,236.76Zm-36.21,45.06c-.05-.71-.26-1.41-1.07-1.25-1,.21-1.24,1.22-1.4,2.09a.78.78,0,0,0,.93,1A1.66,1.66,0,0,0,283.42,281.82ZM274.36,204c-2.14,1-3.12,2.53-4.51,3.5a.46.46,0,0,0,0,.7.44.44,0,0,0,.69.05C271.57,206.9,273.29,206.17,274.36,204Zm-.54,187.27c-1.92,0-2.65,1-3.5,2.43A3.79,3.79,0,0,0,273.82,391.27Zm44.34-72.68a1.1,1.1,0,0,0,.73-1.26c0-.38-.25-.75-.65-.63a1.15,1.15,0,0,0-.79,1.25A.66.66,0,0,0,318.16,318.59Zm-31.08,46.23c0-.39-.27-.69-.65-.67-.56,0-.63.51-.62,1s.1.75.56.67S287.05,365.3,287.08,364.82Zm14.34-18.18c.49.22.81-.12,1.15-.35s.62-.51.39-.84c-.35-.51-.78-.19-1.08.12S301.19,346.13,301.42,346.64Zm-30.26,118.8c0-.41-.2-.57-.48-.54-.53,0-.75.47-.87.91s.13.56.45.47A1.31,1.31,0,0,0,271.16,465.44Zm-1.36-24.88a1.36,1.36,0,0,0-1,1c-.07.19.07.38.23.32A1.24,1.24,0,0,0,269.8,440.56Zm33.3-86.2c0-.41-.19-.61-.47-.53a.87.87,0,0,0-.53.48.37.37,0,0,0,.46.45C302.77,354.71,303,354.48,303.1,354.36ZM255.9,480.22c-.08.15-.22.29-.24.44s.15.35.33.25a.64.64,0,0,0,.24-.43C256.26,480.27,256.11,480.18,255.9,480.22Zm22.41-194.81c-.2.11-.22.26-.06.4s.18,0,.25,0,.22-.25.05-.4S278.39,285.41,278.31,285.41Zm41.94-42.18-.21-.37c-.11.08-.29.16-.3.26s.11.26.17.38ZM295.2,352.29a2.4,2.4,0,0,0,.33-.61.29.29,0,0,0-.43-.35c-.18.08-.3.34-.41.54A4.51,4.51,0,0,0,295.2,352.29Zm2.81-3.06c.11.09.23.25.34.24a.45.45,0,0,0,.32-.28c.05-.3-.16-.42-.42-.32S298.09,349.1,298,349.23ZM320.06,114c-.13-.06-.27-.19-.38-.17s-.31.19-.32.3c0,.32.21.38.45.25S320,114.13,320.06,114Z"/><path d="M100,544.87c-4.21,0-8.43.08-12.64,0-2.23-.06-4.35-1-6.64-1-1.88,0-3.75,0-5.64.15a16.5,16.5,0,0,1-6.13-.45,20.63,20.63,0,0,0-6.17-.35c-4.56.09-9.1-.4-13.67-.29a40.78,40.78,0,0,1-8-.26c-5.31-.95-10.55.32-15.82-.22-3.65-.38-7.33-.38-11-.6a5.32,5.32,0,0,0-2.85.54c-3.09,1.57-6.06.14-6.57-3.22a5.87,5.87,0,0,0-1.31-3.11A9.68,9.68,0,0,1,1.43,531c-.51-4.2-.23-8.43-.88-12.61A47.51,47.51,0,0,1,0,511.41a5,5,0,0,1,5.16-5.28,2,2,0,0,1,2.12,1.63,10.38,10.38,0,0,1,.34,2.66c-.16,4.48-.14,8.94,1.24,13.27a.9.9,0,0,1,.06.53c-1,2.76.1,5.51,0,8.27-.07,2.6.37,3.09,2.83,3.12a91.41,91.41,0,0,1,11.81.69c1.49.21,3-.12,4.56,0,3,.12,5.9.06,8.86.38s5.9-.12,8.86-.08a86.72,86.72,0,0,1,11.26.78,28.92,28.92,0,0,0,5.1.09,49.79,49.79,0,0,1,12.83,1.07,2.44,2.44,0,0,0,.8.1c6.55-.77,13,.5,19.58.53,1.56,0,3-.62,4.51-.62,2.6,0,5.2-.17,7.8-.07s5.25-1.21,8-1c.62.05,1.27-.12,1.88,0,5.73.78,11.45.27,17.17,0a82.56,82.56,0,0,1,8.31.32,69.88,69.88,0,0,0,7.76-.44c6.25-.35,12.45-1.27,18.73-1.29,1.79,0,3.56.24,5.35.28,5.38.13,10.71-.9,16.09-.61a5.12,5.12,0,0,0,1.58-.29,40.55,40.55,0,0,1,13-1.36c4.12.13,8.24.45,12.37.37,2.4,0,4.82.33,7.24.41,4.11.13,8.2.57,12.33-.13a21.92,21.92,0,0,1,5.89.05c4.37.47,8.77,0,13.15.75a12.52,12.52,0,0,0,5.78-.71c3.86-1.3,7.83-.83,11.74-1.16,4.58-.37,9.08.82,13.66.91a50.46,50.46,0,0,1,7.47.24,13,13,0,0,1,3.15.42,2.15,2.15,0,0,0,1.05.21c6.5-.7,13,.23,19.53-.51a74.86,74.86,0,0,1,8.34-.37,6.07,6.07,0,0,0,1.6-.06c3.59-1.09,7.31-.3,10.95-.86a12.54,12.54,0,0,1,5.82.79,3.94,3.94,0,0,0,3.34-.22,7.08,7.08,0,0,1,4.16-.45c2.76.23,5.48.9,8.28.79,1.32-.05,2.67.51,4,.47,5.19-.14,10.24,1.49,15.5,1,2.11-.2,4.4.55,6.59.9,3.27.51,6.58.62,9.82,1.32a4.26,4.26,0,0,0,1.33.12,108,108,0,0,1,13.7,0c4.26.18,8.62-.72,12.82.68a2.16,2.16,0,0,0,.8.07c8.12-.64,16.26-.36,24.38-.79,2-.1,4,.14,5.91-.05,2.22-.23,4.42-.38,6.66-.45,2.69-.09,5.39.07,8.07-.12,4.19-.3,8.41-.31,12.59-.36s8.56-.38,12.86.08c3.27.35,6.62,0,9.93-.1,1.25,0,2.51-.09,3.76-.05a38.45,38.45,0,0,0,8.28-.6c3.51-.67,7.09-1,10.64-1.46,3.1-.44,6.25-.61,9.33-1.24a3.26,3.26,0,0,1,1.06-.14c6.94,1,13.73-.77,20.6-1.08,3.77-.17,7.5-1,11.24-1.1a105.94,105.94,0,0,1,12,.86c3.67.33,7.34.19,11,.33,3.43-1.91,7.46-.44,11-2,1.7-.76,3.68-.49,5.58-.35a21.52,21.52,0,0,0,8.5-.69,21.58,21.58,0,0,1,8.23-1.08,3.3,3.3,0,0,0,2.66-.89c1.85-1.59,3.83-3,6.52-1.61a2.4,2.4,0,0,0,3-.65c1.48-1.73,3.5-2,5.54-2.32a5.32,5.32,0,0,0,1.57-.27c.81-.38,1.4-1.05.57-1.89-1-1.06-1-2.47-1.31-3.74a37.58,37.58,0,0,0-1.26-5.49,3.71,3.71,0,0,1-.08-2.12c.5-2.34-.69-3.88-2.51-4.86a24.44,24.44,0,0,1-6.54-4.95c-.19-.2-.39-.5-.61-.52-2.3-.25-3.3-2.17-4.66-3.6-1.18-1.24-2.88-1.38-4.3-2.1a6.69,6.69,0,0,1-2.29-1.77c-1.43-1.79-1.6-3.12-.53-4.33a3.66,3.66,0,0,1,5-.94,46.16,46.16,0,0,1,9.89,6.84,23.92,23.92,0,0,0,4.42,3c3.33,1.79,5.79,4.45,8.23,7.16a7.49,7.49,0,0,1,1.77,6c-.36,2.7,1.37,4.75,1.82,7.17.12.65,1,1,1.6,1.35a3.7,3.7,0,0,1,.42,6.12,20.24,20.24,0,0,0-4.17,4.49,4.41,4.41,0,0,1-4.84,2.09,22.62,22.62,0,0,0-4.29-.19c-.44,0-1-.07-1.3.17-2.17,2.13-5.44,1.66-7.79,3.4-1.25.92-2.95.73-4.44.85a68.85,68.85,0,0,0-11.17,1.54,5.21,5.21,0,0,1-2.4.19c-2.77-.67-5.58-.29-8.31-.08a35.58,35.58,0,0,0-8,2,8,8,0,0,1-4.16.39c-2-.39-4.09-.35-6.09-.55-2.83-.27-5.74.49-8.49-.64a2.17,2.17,0,0,0-1.05-.19c-4.06.71-8.17-.51-12.29.58-3,.78-6.21.73-9.33,1-3.47.31-6.95.63-10.43.82-3.71.21-7.37.89-11.16.44-2.24-.26-4.62.43-6.91.89a58.08,58.08,0,0,1-16.27,1.28c-1.82-.15-3.68.64-5.59.6-4-.09-8.06,0-12.07-.21-3.07-.2-6.08.22-9.12.29-5.55.11-11.1.24-16.65.25-3,0-6.09.22-9.14,0a11.72,11.72,0,0,0-3.71.38c-2.8.7-5.69.32-8.54.38-2,.05-4.11.41-6.15-.24a2.25,2.25,0,0,0-1.57.16c-1.81.93-3.76.58-5.56.38s-3.58,0-5.32-.12c-6.08-.55-12.18.11-18.24-.56a13.53,13.53,0,0,0-4,.06,25.36,25.36,0,0,1-8.56,0c-2.84-.45-5.77.12-8.54-.91a1.37,1.37,0,0,0-.8,0c-2.88.74-5.66.12-8.51-.38a121.71,121.71,0,0,0-16.84-1.53c-3.4-.11-6.78-.57-10.18-.69a8.56,8.56,0,0,1-6.27-2.52,1.72,1.72,0,0,0-2.41-.41c-2.89,1.86-6.1,1.67-9.34,1.81-3.4.14-6.76,1-10.15,1.17a158.82,158.82,0,0,1-16,.63c-3.93-.14-7.88-.2-11.82-.23-2.35,0-4.63-.5-7-.58-5.46-.18-10.94-.17-16.37-.6-3.77-.3-7.28.56-10.89,1a51.08,51.08,0,0,1-7.22.41c-5.47-.08-10.95-.78-16.39-.15a54.24,54.24,0,0,1-10.42.36c-5.08-.39-10.16-.85-15.26-1.14-4-.23-8.05-.44-12.07-.28a22.93,22.93,0,0,0-7.84,1.66,8.21,8.21,0,0,1-3.65.54c-3.67-.14-7.35-.1-11,0a36.13,36.13,0,0,1-4.29,0,15.31,15.31,0,0,0-5.09.21,9.9,9.9,0,0,1-2.67.16c-5.4-.23-10.74.47-16.09,1a68.79,68.79,0,0,1-12.34-.29,52.21,52.21,0,0,0-13.39.46,36.8,36.8,0,0,1-7.78,0c-2.74-.13-5.33.59-8,.55-3.58-.05-7.15,0-10.73,0Z"/><path d="M629.81,511.27a6.65,6.65,0,0,0-1.61,0c-3.73,1-7.47,0-11.19.19-2.24.11-4.53,0-6.75.91a12.91,12.91,0,0,1-7.9.77,10.3,10.3,0,0,0-6.34.51,9.58,9.58,0,0,1-3.68.41c-5.45.1-10.9-.57-16.35,0a3,3,0,0,0-1,.15c-3.69,1.85-7.85,1.75-11.73,2.86-2.07.6-4.28.16-6.43.08a29.57,29.57,0,0,0-7,.26,4.33,4.33,0,0,1-1.34.09c-6.12-.77-12.16.39-18.24.63-3.92.16-7.84.3-11.8.1-6.58-.33-13.22-.92-19.8-.27-2.65.26-5.14-.23-7.7-.34-6.79-.3-13.59-.79-20.38-.6-3.92.1-7.84-.42-11.8.13-2.43.33-5-.43-7.49-.36-6.09.17-12.18.28-18.27.22-4.38,0-8.75-.49-13.14-.62-6.44-.18-12.89-.37-19.34-.32-5.81,0-11.62-.2-17.43.14a17.65,17.65,0,0,1-4.3-.14c-8.44-1.53-17-1.18-25.47-1.2-2.53,0-5.08.81-7.67,1.06-4.17.41-8.35,1-12.46,1.7a60.77,60.77,0,0,1-7.68.72,3.73,3.73,0,0,1-3.23-2.45,3.13,3.13,0,0,1,1.12-3.37,2.76,2.76,0,0,1,2.25-.68c2.37.22,4.63-.59,6.93-.73,4.54-.29,8.94-1.63,13.55-1.6,1.94,0,4-.88,6-1.18,3.66-.54,7.33-.19,11-.05a13.81,13.81,0,0,0,3.46.07c2.08-.42,4.08.36,6.13.54,4.18.37,8.35.9,12.53,1.39,3.24.37,6.43-.5,9.67-.31,1.16.06,2.33-.09,3.49,0a88.71,88.71,0,0,0,12.09.14,22.83,22.83,0,0,1,4.81.35c2.3.39,4.63-.21,6.95-.18a15.29,15.29,0,0,1,2.41-.13c4.27.78,8.58.16,12.86.49,3.28.25,6.6.07,9.89.09,5.64,0,11.29.3,16.92.05s10.93.51,16.38.09a44.68,44.68,0,0,1,7.77.43,85.54,85.54,0,0,0,12.08.41,18.22,18.22,0,0,1,2.95.14,23.87,23.87,0,0,0,6.43.05c1.84-.31,3.72.29,5.61.25A20.1,20.1,0,0,0,519,512a15.76,15.76,0,0,1,4.55-.14,27,27,0,0,0,8-.3,7.4,7.4,0,0,1,1.88-.1c3.57.23,7.14-.39,10.69-.27,5.11.18,10.17-.41,15.25-.58s10.12-.7,14.86-2.68a6.82,6.82,0,0,1,2.62-.47c3.76-.06,7.53.19,11.3,0a32,32,0,0,0,5.06-.47,62.84,62.84,0,0,1,9.1-.72,39.78,39.78,0,0,0,6.81-1c2.92-.68,5.85-1.67,8.92-1.7.18,0,.4-.11.53,0,2.52,1.34,5.25.39,7.86.71a3.86,3.86,0,0,0,3.06-.57,4.05,4.05,0,0,1,4.79.11c1.35.84,1.9,3.15,1.3,4.88a4.15,4.15,0,0,1-3.65,2.72,15.41,15.41,0,0,1-2.15,0Z"/><path d="M22.36,504.18a18.53,18.53,0,0,1,3.46.45,43,43,0,0,0,12.5,1.1c5.73-.24,11.45-.57,17.19-.67a169,169,0,0,1,17.45.82,84.91,84.91,0,0,0,14.44,0c3.5-.31,7-.11,10.43-.25,2.92-.11,5.87.54,8.81.86,5.34.59,10.73,1.18,16.07.73,3.73-.32,7.49-.46,11.22-1a26.7,26.7,0,0,1,6.95.35c4.94.68,9.84-.19,14.75-.17,5.73,0,11.46-.28,17.19.14q6.3.45,12.6.83c7,.4,13.94-.09,20.85.89,4.17.59,8.37.92,12.55,1.38,4.9.53,9.82.16,14.75,0a103.49,103.49,0,0,1,15,.31,7.44,7.44,0,0,0,2.4,0c4.54-.89,9.13-.49,13.69-.56,6.26-.09,12.51-.12,18.75-.79a32.93,32.93,0,0,1,6.43-.24,8.73,8.73,0,0,0,2.66-.28c4.48-.94,8.93-.39,13.38.22a9.74,9.74,0,0,1,1.57.39c.82.25,1.56.71,1.54,1.63s-.9.94-1.57,1.18c-2.64.95-5.45,1.08-8.18,1.55-3.51.61-7,1.8-10.64,1a5.6,5.6,0,0,0-1.83.32,16,16,0,0,1-5.6.34c-1.9-.35-3.74.35-5.61.33-5.38-.05-10.74.54-16.1.5s-10.92.34-16.36,0c-6.79-.41-13.56.06-20.34-.06-4.57-.09-9.1-.49-13.65-.7-5.27-.25-10.51-1.21-15.83-.69a24.07,24.07,0,0,1-5.35-.3c-6-.75-12.12-.41-18.16-1.16a39.62,39.62,0,0,0-7.52.28,38.48,38.48,0,0,1-8.58-.25,5.21,5.21,0,0,0-2.39,0A12.27,12.27,0,0,1,146,513c-3.4-.47-6.81.17-10.19-.22-2.76-.32-5.52,0-8.28-.2a11.19,11.19,0,0,0-4.21.74,10.07,10.07,0,0,1-4,.31c-5.17-.42-10.39-.52-15.54-1.13-3.65-.44-7.32.19-11-.54-1.42-.28-3,.42-4.52.37-9-.33-18.08-.67-27.11-1.16-3.57-.19-7.1.38-10.64.33-5-.07-10,.54-15,.23-3.12-.19-6.24.13-9.39-.16-2.68-.25-5.22-1.18-7.93-1.23a2,2,0,0,1-2.12-2c-.17-1.67.23-2.82,1.54-3.37A9.53,9.53,0,0,1,22.36,504.18Z"/><path d="M402.86,327.32c-.29,3.05-2.06,4.34-4.29,5.68-5.13,3.08-10.5,5.78-15.26,9.47a53,53,0,0,1-5.22,3.32,15.43,15.43,0,0,0-3.25,2.36,5.16,5.16,0,0,1-2.41,1.64,1.91,1.91,0,0,0-.94.47c-3.47,3.81-8.23,5.62-12.55,8.08-1.69,1-3.25,2.22-5.32,2.49s-3.16,0-3.57-1,.45-2.49,1.8-3.31a34.65,34.65,0,0,1,4.47-2.44,15.08,15.08,0,0,0,3.27-1.82c4.34-3.3,9-6.08,13.17-9.71a40.78,40.78,0,0,1,8.74-5.66c3.14-1.57,6-3.63,9-5.29,2-1.1,4.16-2.07,6.2-3.19C398.62,327.37,400.68,327.47,402.86,327.32Z"/><path d="M362.48,381.56c2.11.22,3.64-.91,4.89-2.35a9.06,9.06,0,0,1,5.16-3.17,4.25,4.25,0,0,0,1.92-.93,4.32,4.32,0,0,1,1.54-1.05c3.1-.73,5.29-2.87,7.67-4.73a5.12,5.12,0,0,1,1.83-1.1c1.87-.49,3.25-1.75,4.82-2.75,3.15-2,6-4.51,9.49-6,.48-.21,1-.59,1.5-.16s.2,1.16,0,1.75c-.73,2.51-3,3.68-4.66,5.43-3.92,4.26-8.82,7.12-13.93,9.74-5.74,2.94-10.8,6.93-15.86,10.9a26.57,26.57,0,0,0-4.85,4.21c-1.19,1.51-3.12,2-4.77,2.88a3.29,3.29,0,0,1-2.63-.18,1.51,1.51,0,0,1-1-2.34,9.71,9.71,0,0,1,2.3-3.27,66.28,66.28,0,0,1,5.27-4.48,2.68,2.68,0,0,0,1.34-2.48Z"/><path d="M402.68,374.16c-1.7,3.8-5.13,4.6-7.95,6.15-3.35,1.84-6.61,3.94-10.36,5a2.61,2.61,0,0,0-1.37.79c-.77,1.07-2,1.51-2.92,2.27-3,2.41-6.56,4.09-9.43,6.54s-6.08,4.08-9,6.33a6.92,6.92,0,0,1-4.73,1.6,1.79,1.79,0,0,1-1.7-2.76,4.42,4.42,0,0,1,1.77-2,6.06,6.06,0,0,0,2.61-2.62c.1-.24.3-.58.49-.61,2.35-.31,3.75-2.34,5.83-3.16a13.46,13.46,0,0,0,5.32-3.72,24.15,24.15,0,0,1,6.2-4.63c5.66-3.23,11.26-6.6,17.33-9a3.8,3.8,0,0,1,2.32-.28A11.59,11.59,0,0,0,402.68,374.16Z"/><path d="M10,500.32A5.07,5.07,0,0,1,7.43,500c-1-.57-2.45-.8-2.4-2.23s-.16-3.27,1.53-4.32a9.34,9.34,0,0,1,2.93-1.28,15.14,15.14,0,0,0,5.9-2.46c1.17-.89,2.68-.72,4-1.37A33.1,33.1,0,0,0,29.59,481a25,25,0,0,1,3.19-2.89,4.32,4.32,0,0,1,6.3,1,2.59,2.59,0,0,1,.28,2.45A7.86,7.86,0,0,1,34.3,487c-3,1.26-5.28,3.65-8,5.3-.85.51-1.7,1-2.59,1.4-3.26,1.62-6.72,2.84-9.63,5.15A5.86,5.86,0,0,1,10,500.32Z"/><path d="M397.52,441.65a5.57,5.57,0,0,1-3.08,5.63,9.85,9.85,0,0,0-4.21,4.4,1.69,1.69,0,0,1-1.3,1.14,9.49,9.49,0,0,0-4.5,2.73q-4.53,4.57-9.09,9.12a.88.88,0,0,1-.18.2c-3.16,1.7-5.12,4.95-8.42,6.48a3.82,3.82,0,0,0-1.55,1.46,2.05,2.05,0,0,1-2.56.89c-.84-.23-2-.14-2.17-1.24a3.23,3.23,0,0,1,.87-3.21c3.53-3.15,7-6.36,10.58-9.47,1.3-1.13,2.34-2.48,3.56-3.66,3.84-3.72,7.59-7.55,12-10.61,1.83-1.26,3.4-2.77,5.63-3.51A11,11,0,0,1,397.52,441.65Z"/><path d="M362.57,381.48c-.69,0-1.11.53-1.62.89-2.34,1.61-3.77,1.45-6-.38-1.22-1-.49-2.14-.53-3.23s.9-.86,1.54-1a8.12,8.12,0,0,0,3.29-1.71c2.52-2.14,5.17-4.12,7.77-6.17,4.31-3.42,8.65-6.79,13.29-9.81a33.21,33.21,0,0,0,6.41-4.84,3.4,3.4,0,0,1,1.59-.94c1.11-.32,2.27-.34,3,.62a2.43,2.43,0,0,1-.27,3,27.61,27.61,0,0,1-6.18,5.93,20.2,20.2,0,0,0-4.06,3.49c-1.07,1.3-2.76,1.6-4,2.62-3.9,3.09-7.57,6.51-11.77,9.23a6.59,6.59,0,0,0-2.48,2.41Z"/><path d="M384.93,471.79a2.55,2.55,0,0,1-2-4c1.41-2.38,2.93-4.7,4.55-6.93,1.18-1.62,1.74-3.77,3.8-4.69a.38.38,0,0,0,.14-.22c1.4-4.46,5.85-5.7,8.91-8.4,1.05-.93,2.23-.44,3.22.26a3.21,3.21,0,0,1,1.5,3.25,3.86,3.86,0,0,1-2.43,3.29,9.4,9.4,0,0,0-5.28,4.67,12.4,12.4,0,0,1-2.92,3.45,18,18,0,0,0-3.28,4.13,32.15,32.15,0,0,1-4.23,4.49A2.38,2.38,0,0,1,384.93,471.79Z"/><path d="M403.83,461.41c3,0,5.26,1.26,5.37,2.52s-2.16,3.75-3.78,4.2c-.77.21-1.54.45-2.31.65a10.37,10.37,0,0,0-6.45,5.26c-1.17,2-2.72,3.57-5.26,3.71-2.28.13-3-.58-2.61-2.8a4.32,4.32,0,0,1,.55-1.77c1.65-2.34,2.8-5,4.92-7C397.15,463.46,400.8,462.32,403.83,461.41Z"/><path d="M252.91,268c-1.63.18-2.18-.95-2.78-1.93a1.79,1.79,0,0,1,.42-2.44c1.65-1.26,2.7-3.06,4.27-4.42,2.47-2.16,4.56-4.76,6.88-7.09,2.53-2.52,5.15-4.94,7.71-7.43a64.5,64.5,0,0,0,7.89-8.7,16.12,16.12,0,0,1,3.48-3.7,24.34,24.34,0,0,0,5.42-5.54c1.82-2.57,4.57-4,6.85-6,4.49-3.93,9.19-7.63,13.69-11.55,2.08-1.82,4.72-2.07,7.1-3,.93-.38,1.66.31,2,1.3.57,1.58.49,2.63-.64,3.38a14.56,14.56,0,0,1-3.35,1.67,6.89,6.89,0,0,0-3.09,2,24.35,24.35,0,0,1-4.14,3.43,91.91,91.91,0,0,0-12.09,10.63c-2.18,2.26-4.45,4.42-6.61,6.7a6.91,6.91,0,0,0-1.8,2.31,1.88,1.88,0,0,1-.55.9c-5.16,3.36-8.54,8.5-12.81,12.75-1.07,1.07-2.29,2-3.38,3.06-1.86,1.8-3.47,3.94-5.36,5.58-2.58,2.24-4.59,4.95-7.06,7.24A3.32,3.32,0,0,1,252.91,268Z"/><path d="M305,471.07c-.13.61-.1,1.39-.81,1.59-1.54.45-2.1,1.88-3.08,2.88-.44.45-.76,1.1-1.28,1.35-2.87,1.37-4.49,4-6.53,6.24-.84.9-2.67.87-4.12-.07-1.08-.7-1.25-1.59-.44-3a20.55,20.55,0,0,1,8.8-8c1.8-.91,3.23-2.53,5.39-2.81C304.5,469,305.17,469.52,305,471.07Z"/></g></g></svg>