<svg id="Layer_1" data-name="Layer 1" xmlns="http://www.w3.org/2000/svg" viewBox="0 0 507.38 500.13"><defs><style>.cls-1{opacity:0.4;}.cls-2{opacity:0.69;}.cls-3{opacity:0.65;}.cls-4{opacity:0.52;}.cls-5{opacity:0.85;}.cls-6{opacity:0.24;}</style></defs><title>crates</title><g class="cls-1"><path d="M181.46,156.89a20.59,20.59,0,0,0,5.24-1.41c3.37-1.34,6.74-2.68,10.06-4.15,2.35-1,4.61-2.26,6.91-3.37a38.3,38.3,0,0,1,6.66-2.6,2.45,2.45,0,0,0,1.18-.51.37.37,0,0,1,.54,0c.23.19.53.18.77.32s.47.35.42.67a.61.61,0,0,1-.52.49,26.2,26.2,0,0,0-5.81,2.22c-1.73.83-3.45,1.71-5.18,2.55-2,1-4,2-6.09,3-1.77.83-3.47,1.79-5.28,2.55a23.57,23.57,0,0,1-5.17,1.77,7.15,7.15,0,0,1-3.31-.22c-.26-.08-.35-.34-.58-.47a4.53,4.53,0,0,1-.2.59.32.32,0,0,1-.59,0,.7.7,0,0,1-.12-.28,38.45,38.45,0,0,0-1.56-4.84c-.71-2.12-1.41-4.24-2-6.4a33.18,33.18,0,0,1-.71-4.2c-.1-.81-.24-1.61-.36-2.41-.41-2.5-.85-5-1.42-7.48-.43-1.85-1-3.67-1.46-5.51-.55-2.14-1.29-4.22-2-6.31a25.69,25.69,0,0,0-1.72-4.38,2.9,2.9,0,0,1-.42-2.33c.06-.16,0-.28-.13-.41a1.25,1.25,0,0,1-.07-.89c.07-.35.41-.31.66-.41a22.59,22.59,0,0,0,3.12-1.54c1.53-.9,3.06-1.8,4.65-2.6,2.15-1.08,4.37-2,6.57-3,3.06-1.35,6.08-2.79,9.11-4.21,1.6-.76,3.19-1.57,4.76-2.38.37-.19.78-.23,1.14-.43a.24.24,0,0,1,.28,0c.09.08.07.18,0,.28a4.52,4.52,0,0,1-1.73,2.17q-2,1.35-4.11,2.61c-1.72,1-3.46,2-5.2,3-2.49,1.42-5,2.74-7.47,4.26a32.32,32.32,0,0,1-5.1,2.71c-.66.26-1.3.56-1.94.87a3.36,3.36,0,0,0-.64.42.49.49,0,0,0-.12.68,32.9,32.9,0,0,1,1.67,4.23,30.64,30.64,0,0,1,1,4.12c.54,2.77.84,5.57,1.26,8.36.23,1.5.62,3,.92,4.47.21,1.1.44,2.19.61,3.3s.4,2.14.66,3.2.44,2.19.76,3.26c.43,1.44.78,2.89,1.19,4.33a31.21,31.21,0,0,1,.68,3.44,3.43,3.43,0,0,1,0,1.06A4.11,4.11,0,0,0,181.46,156.89Z"/><path d="M225.88,107.55a17,17,0,0,1-.29,3.18,39.39,39.39,0,0,0-.76,5.49,23.16,23.16,0,0,0,.31,4.63c.24,1.43.48,2.86.69,4.29a11.09,11.09,0,0,0,1,3.09c.1.21.2.42.28.63a1.64,1.64,0,0,1-.42,1.95l-1,.87c-.21.19-.35.11-.47-.12a1.63,1.63,0,0,1-.15-.81,13.35,13.35,0,0,0-.84-4.85,32.28,32.28,0,0,1-1.47-11.26c.13-2.46.33-4.92.51-7.37a6.08,6.08,0,0,0-1.09-4.11,5.08,5.08,0,0,0-.77-1.11c-.33-.24-.83,0-1.26,0a6.78,6.78,0,0,1-1.27-.24c-1.59-.42-3.19-.84-4.79-1.24a16.3,16.3,0,0,0-2.32-.4c-.5,0-1-.1-1.51-.19-.7-.12-1.4-.21-2.11-.28a9.09,9.09,0,0,1-3.75-1.17,3.15,3.15,0,0,1-.91-.79.67.67,0,0,1-.2-.7c.15-.29.47-.2.69-.14a9.09,9.09,0,0,0,2.27.13c.46,0,.91-.08,1.37-.1a23.21,23.21,0,0,1,7.36,1,55.23,55.23,0,0,1,5.32,1.62c.44.17,1,.11,1.37.39.2.13.44.23.5.45.17.75.82,1.13,1.25,1.68a11.84,11.84,0,0,1,2.21,3.87A6.24,6.24,0,0,1,225.88,107.55Z"/><path d="M220.46,159.83a4.37,4.37,0,0,1-1.64-.16,6.18,6.18,0,0,0-2,0,20.87,20.87,0,0,1-4.33-.11,8.62,8.62,0,0,1-1.86-.42.68.68,0,0,0-.66,0,4,4,0,0,1-2.85.51c-.63-.06-1.26-.08-1.88-.09a28.46,28.46,0,0,1-4.23-.42,15,15,0,0,0-3.34-.19,18.57,18.57,0,0,0-2.88.26,4.72,4.72,0,0,1-1.59,0,2.56,2.56,0,0,0-1.2,0,.61.61,0,0,1-.36-.08,2.25,2.25,0,0,0-1-.19,1.56,1.56,0,0,1-1.29-.69.36.36,0,0,1,0-.43.32.32,0,0,1,.35-.08,8.6,8.6,0,0,1,1.5.21,1.17,1.17,0,0,0,.67.05c.76-.12,1.53-.06,2.28-.19a18.63,18.63,0,0,1,3.34,0c1.06,0,2.13.08,3.19.17a26.1,26.1,0,0,0,4,.15,12.23,12.23,0,0,0,3-.1c.09,0,.22,0,.3,0,1.18-.66,2.36-.25,3.54,0a20.11,20.11,0,0,0,5.08.31,9,9,0,0,1,2.26.14,7.31,7.31,0,0,0,1.81,0c.18,0,.36-.1.52-.06a3.1,3.1,0,0,0,2.42-.8c1.53-1.05,3-2.22,4.48-3.3,2.41-1.73,4.7-3.63,7.18-5.26,1.3-.85,2.64-1.62,3.9-2.53l1-.79c.1-.08.21-.17.34-.09a.27.27,0,0,1,.07.34,3.9,3.9,0,0,1-1.26,1.87c-.94.85-1.87,1.7-2.86,2.51-1.24,1-2.44,2.06-3.69,3.06a35.35,35.35,0,0,1-3,2.45c-1.52,1-3,2-4.59,2.85a4.82,4.82,0,0,1-.78.29,21.1,21.1,0,0,0-2.14.78A3.84,3.84,0,0,1,220.46,159.83Z"/><path d="M206.45,113.7a42.34,42.34,0,0,0,.48,4.77,13.1,13.1,0,0,0,1.61,4.63,12.93,12.93,0,0,1,1.11,4c.13,1.13.41,2.25.46,3.39a.9.9,0,0,0,.38.64,6.82,6.82,0,0,1,2,4.61c.15,1.26.31,2.53.34,3.79a14,14,0,0,1-.16,3c0,.16-.09.3-.26.33s-.26-.11-.35-.24a4.28,4.28,0,0,1-.45-1,28.6,28.6,0,0,1-1.64-7.87,10.35,10.35,0,0,0-.45-2.46,1.11,1.11,0,0,1,0-.82,1.6,1.6,0,0,0-.13-1c-.58-2.16-1.16-4.31-1.81-6.44-.36-1.19-.85-2.34-1.29-3.5a23.28,23.28,0,0,1-1.14-4.49c-.24-1.35-.48-2.7-.8-4-.28-1.16-.48-2.34-.72-3.5s-.49-2.23-.74-3.35-.51-2.17-.76-3.25a13.72,13.72,0,0,0-.57-1.89.81.81,0,0,0-.65-.53,4.08,4.08,0,0,1-1.44-.48c-.46-.35-.46-.7,0-1a2.84,2.84,0,0,1,3.7.58,5.93,5.93,0,0,1,1.38,3.06,46.23,46.23,0,0,1,.79,5.49c.13,1.14.35,2.26.58,3.38A17.57,17.57,0,0,1,206.45,113.7Z"/><path d="M237.24,131.61a1.78,1.78,0,0,1-.27-1.06,32.49,32.49,0,0,0-1.16-5.35c-.38-1.53-.55-3.1-.86-4.64a65.46,65.46,0,0,1-.69-7.66c-.2-2.43-.45-4.85-.73-7.27,0-.32-.16-.64-.22-1a.69.69,0,0,0-.33-.49,5.9,5.9,0,0,1-1.72-1.58,1.37,1.37,0,0,0-.29-.24c-.29-.24-.29-.46,0-.61a1,1,0,0,1,.81,0c1,.42,1.86,1.14,2.82,1.65.32.18.34.53.06.85s-.26.35-.05.62a4,4,0,0,1,.64,2.39,50.28,50.28,0,0,1-.07,5.49,26.51,26.51,0,0,0,.08,4.18,33.21,33.21,0,0,0,.49,3.85c.19.82.48,1.6.68,2.42a42.88,42.88,0,0,1,1.07,7.14A2.4,2.4,0,0,1,237.24,131.61Z"/><path d="M216.71,145.21c1,0,1.93,0,2.89,0a40,40,0,0,1,4.1.31,23.79,23.79,0,0,0,3.49-.18,40.38,40.38,0,0,1,6.68-.29c1.41.17,2.82.37,4.21.66.27.06.48.2.49.5a.55.55,0,0,1-.46.54,2.57,2.57,0,0,1-1.79,0,7.27,7.27,0,0,0-2.61-.44c-.76,0-1.52-.12-2.28-.08a45.11,45.11,0,0,0-5.43.73,3.32,3.32,0,0,1-.83.06,16.89,16.89,0,0,1-3.17-.42,3.46,3.46,0,0,0-1.43-.13,31.13,31.13,0,0,1-3.74.08,3.39,3.39,0,0,0-.45,0,1.51,1.51,0,0,1-1.43-.76c-.16-.33-.07-.52.31-.59A4.71,4.71,0,0,1,216.71,145.21Z"/><path d="M230.06,111.58a10.38,10.38,0,0,1-.29,2.44,10.75,10.75,0,0,0,.19,2.72c0,.15.06.3.08.45a1,1,0,0,1-1,1.3c-.18,0-.22-.09-.28-.19a6.38,6.38,0,0,1-.77-3.81c.1-.88.36-1.73.49-2.61a4.39,4.39,0,0,0,.08-1.2,1.23,1.23,0,0,1,.13-.73c.09-.21.12-.48.41-.48a.69.69,0,0,1,.61.4A2.33,2.33,0,0,1,230.06,111.58Z"/><path d="M226.09,101.75a2.64,2.64,0,0,1,2.22.3,3.54,3.54,0,0,1,1.75,2.79,5.51,5.51,0,0,1-1.38,4.57,1.1,1.1,0,0,1-.23.2c-.24.16-.39.09-.39-.21a2.18,2.18,0,0,1,.09-.51,9.4,9.4,0,0,0,.52-3.75,3.51,3.51,0,0,0-2.23-3.24Z"/><path d="M228.34,130.19c.44-.25.66-.7,1.18-.76a.49.49,0,0,0,.35-.26c.11-.24.22-.39.51-.28s.47.24.49.52a1.62,1.62,0,0,1-.53,1.36c-.17.17-.44.28-.62.15A9.77,9.77,0,0,1,228.34,130.19Z"/><path d="M246.05,140a1.74,1.74,0,0,1,.15.13,2.28,2.28,0,0,1,.44.88,4.26,4.26,0,0,0,.43,1.29c.12.19.22.41,0,.62a.36.36,0,0,1-.41.12.62.62,0,0,1-.48-.53c0-.4-.09-.8-.16-1.2a5.18,5.18,0,0,1-.21-1C245.85,140.17,245.86,140.05,246.05,140Z"/></g><path class="cls-2" d="M433.06,312.66a16.37,16.37,0,0,1-.11,1.72c-1.24,7.55-1.45,15.19-2,22.8-.26,3.6-1.1,7.11-1.7,10.66-.66,3.9-1.66,7.74-2.25,11.64a28.05,28.05,0,0,1-2.2,7.19c-1.62,3.6-2.89,7.36-4.86,10.79a10.3,10.3,0,0,1-.66,1.12c-.63.82-1.44,1.26-2.41.6s-1.54-.4-2.11.65c-.66,1.22-2.12,1.41-3.31,1.85-1,.38-2.07.55-2.72,1.55-.46.72-1.26.66-1.95.69a16,16,0,0,0-8.65,3c-2.06,1.42-4.53,1.79-6.82,2.6-5.22,1.85-10.22,4.21-15.33,6.31a102.79,102.79,0,0,1-10.83,4.28c-1.59.45-3.23.72-4.83,1.13-.79.2-1.37-.35-2.08-.44-4.15-.51-8.28-1.11-12.43-1.56a32.26,32.26,0,0,1-10-2.4c-2.15-1-4.53-1.4-6.76-2.19-2-.73-4-1.66-6.2-1.76a3.55,3.55,0,0,1-1.47-.37c-3.21-1.68-6.84-2.11-10.19-3.39a3.4,3.4,0,0,0-1-.34,13.18,13.18,0,0,1-7.19-2.66,20,20,0,0,0-4.21-1.66c-.81-.3-1.56-.73-2.34-1.09a1.67,1.67,0,0,1-1.15-2,2.24,2.24,0,0,0-.42-1.85c-.45-.57-1-.2-1.6-.22-1,0-1.9-1.43-1.82-2.8a5.26,5.26,0,0,1,.34-1.46,27,27,0,0,0,1.22-8.31,54.15,54.15,0,0,1,1.95-12.13,60.19,60.19,0,0,0,1.9-12.37,45,45,0,0,1,3.81-15.65,82,82,0,0,0,5.85-20.94,6.78,6.78,0,0,1,.6-1.83c.66-1.43.65-1.42,2.3-1a2.68,2.68,0,0,0,2.26-.27c5.4-3.35,11.24-5.85,17-8.45,5-2.27,10.17-4.36,15.31-6.42,4.88-1.95,9.84-3.68,14.89-5.14,1.31-.38,2.58-.71,3.87.31a2.58,2.58,0,0,0,2.48.27c.67-.24,1.43-.26,2.1-.5,3.59-1.28,6.93-.41,10.08,1.33a12.29,12.29,0,0,0,4.51,1.3,92.35,92.35,0,0,1,15.23,3.07c8.94,2.78,17.3,6.74,23.63,14a15.39,15.39,0,0,0,2.76,2.4,21,21,0,0,1,4.45,3.76c.29.36.55.82,1-.11.3-.65,1.31-.32,2,0C432.77,309.21,433.26,310.76,433.06,312.66ZM296.56,377.2a15.7,15.7,0,0,0,1.89-.45,75.5,75.5,0,0,1,8.2-2.68c3.13-.81,6.26-1.67,9.34-2.68a143.8,143.8,0,0,1,27.09-6.3c4.15-.52,8.29-1,12.44-1.52a42.34,42.34,0,0,1,9.28-.23c1.4.15,1.47.12,1.44-1.3-.08-3.85.73-7.59,1.18-11.37.6-5.08,1.43-10.13,1.93-15.21.59-6,1.16-11.91,2.21-17.8,1.48-8.3,3-16.58,4.05-24.94.25-2,.27-4,.35-6,0-.57,0-1.17-.77-1.34a16.87,16.87,0,0,0-6.14-.75,31.78,31.78,0,0,0-6.32,1.28c-2.93,1-5.79,2.17-8.68,3.25-8.84,3.3-17.54,6.9-26,11.06-4.77,2.35-9.48,4.87-14.63,6.34a1.62,1.62,0,0,0-1.17,1.38c-1,4-2,8.09-3.15,12.09-.5,1.72-.9,3.47-1.47,5.17-.86,2.53-2,4.95-2.72,7.51a118.22,118.22,0,0,0-3.43,18.45,48.07,48.07,0,0,1-2.39,10.22,16.22,16.22,0,0,0-1.1,5.49A43,43,0,0,1,296.56,377.2Zm93.37-5.68a11.79,11.79,0,0,0-6.64-1.94A33,33,0,0,1,371.81,368a29,29,0,0,0-14.68-1.18,58.49,58.49,0,0,1-6.22.63,131.46,131.46,0,0,0-22.59,3.63c-6.44,1.77-12.81,3.83-19.21,5.78-2.81.86-5.6,1.8-8.43,2.63-1.19.35-2.44.49-4.22.83.63.35.81.48,1,.55,4.11,1.52,8.22,3.05,12.35,4.52,1.08.39,2.27.28,3.38.67a96.82,96.82,0,0,0,10.39,2.85c5.13,1.18,10,3.06,15.1,4.41a18,18,0,0,0,3.52,1,116.08,116.08,0,0,1,12.87,1.51c.43.08.94.24,1.24-.06,1.52-1.56,3.7-1.87,5.45-3,3.74-2.43,7.26-5.22,11.37-7.05a13.51,13.51,0,0,0,2.35-1.53c4.9-3.56,9.27-7.76,13.85-11.71A1.53,1.53,0,0,0,389.93,371.52ZM373.3,362a5,5,0,0,1,3,.65,40.91,40.91,0,0,0,8.92,2.37c1.14.17,1.63-.27,2-1.37,1.31-4,2.71-8,4.13-12,2.27-6.38,4.12-12.88,5.91-19.4,1.19-4.37,2.5-8.72,3.59-13.11,1.5-6,1.57-12.13,2.21-18.21a18.54,18.54,0,0,0,.12-4.71,40.94,40.94,0,0,0-5-2.12c-5.66-1.85-11.66-2.36-17.45-4.39-.09,3.24-1.06,6.2-1.42,9.26s-.7,6.3-1.28,9.41c-.95,5.1-1.45,10.25-2.23,15.38-1,6.4-1.32,12.89-2.07,19.32s-1.24,13-1.5,19.59c-.09,2.13.24,2.35,2.54,1.88C374.78,363.45,373.7,363,373.3,362Zm42.59-57.68c0,2.32,0,4.31,0,6.3a20.47,20.47,0,0,1-.32,5.81c-.8,2.92-1.32,5.89-1.91,8.85a28,28,0,0,1-.82,4.45c-.95,2.56-1.5,5.23-2.33,7.82s-1.37,5.43-2.2,8.1a69.36,69.36,0,0,0-2.88,10.53c-.59,4.17-2.54,8.05-3.74,12.1a.93.93,0,0,1-1.29.75c-.38-.1-.9-.33-1,.32a.94.94,0,0,0,.71,1.16c.74.28,1.48.56,2.2.89,3.42,1.52,6.91,2.93,9.47,5.85.33.38.56,1.12,1.35.68s1.43-.61,1.33-1.69a4.39,4.39,0,0,1,.79-2.63,84.65,84.65,0,0,0,6.08-13.1c1.18-3,1.43-6.17,2.38-9.19,2-6.24,2.67-12.68,3.23-19.14.44-4.95.64-9.92,1-14.88a2.52,2.52,0,0,0-.5-1.8,20,20,0,0,0-5.18-5.41,19.94,19.94,0,0,1-3.54-3.16A14.9,14.9,0,0,0,415.89,304.29Zm-17.25,62.43a13.79,13.79,0,0,1,.51-3.5c.88-2.58,1.7-5.19,2.74-7.71s1.19-5.05,2.37-7.39a41.76,41.76,0,0,0,3-8.52A147,147,0,0,0,411,321.68c.77-6.14,2-12.22,1.91-18.45a3,3,0,0,0-1.76-3.11c-1.62-.76-3.2-1.62-4.8-2.44-.43-.22-.86-.55-1.4-.24a4.84,4.84,0,0,0-.09,2.14c.68,6.53-.3,12.94-1.62,19.28-1.29,6.18-3.14,12.24-4.65,18.38s-3.56,11.82-5.18,17.78c-.82,3-1.49,6-2.26,9-.23.88.08,1.21.93,1.19A12.74,12.74,0,0,1,398.64,366.72Zm-22.51,24.72c3.86-1.56,7.4-2.93,10.89-4.41a185.32,185.32,0,0,1,17.85-7,13.1,13.1,0,0,0,1.63-.57c.7-.33.71-.83,0-1.24a36.62,36.62,0,0,0-9.35-3.81,1.66,1.66,0,0,0-1.75.45c-1.69,1.65-3.4,3.27-5.16,4.85-2.5,2.25-5,4.54-7.61,6.65a53.82,53.82,0,0,1-5.21,3.43A2.3,2.3,0,0,0,376.13,391.44Z"/><path class="cls-3" d="M222.2,360.43c-.08-2.26-.21-5.9-.34-9.53a21.8,21.8,0,0,1,.1-4.35,42.4,42.4,0,0,1,3.51-2.51,63.38,63.38,0,0,1,16.57-6.9,5,5,0,0,1,2.45,0c1.65.44,3.43.57,4.82,1.74a2.35,2.35,0,0,0,.95.33c4.3,1.27,8.44,2.88,11.95,5.78a8.34,8.34,0,0,1,3.1,3.91c0,.09.05.22.11.26,1.46.89,1.15,2.24,1.07,3.62-.15,2.71-.64,5.38-.91,8.08-.38,3.86-.87,7.71-1.05,11.58a33.17,33.17,0,0,1-1.29,7.12,1.66,1.66,0,0,0-.12.42c.08,1.61-1.09,2.61-1.84,3.81a2,2,0,0,1-1.12.86,47.34,47.34,0,0,0-11,5.14c-1.3.79-1.87.77-3.06-.28-.27-.24-.46-.48-.87-.38a3,3,0,0,1-2.93-.88c-3-3-6.89-3.76-10.85-4.36-.76-.11-1.52-.29-2.28-.42a5.56,5.56,0,0,1-3.9-2.63c-.56-.87-1.55-1.43-2.06-2.41a5,5,0,0,1-.73-2.48C222.61,371.21,222.26,366.51,222.2,360.43Zm4.07,17.63A21.79,21.79,0,0,0,231,376.2a48,48,0,0,1,14.79-4.56c.87-.11,1-.25.85-1.3a77.33,77.33,0,0,1-.29-9c.08-6.83-.33-13.66-.09-20.49,0-.48-.23-.52-.62-.55a9.22,9.22,0,0,0-3.57.52,109.55,109.55,0,0,0-12.95,5.8,29.43,29.43,0,0,1-3.32,1.76c-.79.27-.93.51-.89,1.27.22,5,.68,10.06.72,15.1C225.66,369.15,225.94,373.54,226.27,378.06Zm33.51,1c.08-.06.2-.11.22-.18a52.92,52.92,0,0,0,1.73-10c.33-3.23.44-6.47.94-9.68.41-2.68.58-5.4.89-8.09a2.13,2.13,0,0,0-.66-1.83,21.4,21.4,0,0,0-4.8-3.71c-2.29-1.37-4.9-2.08-7.17-3.51-1.22-.77-1.29-.7-1.31.75-.05,3.49-.06,7,.11,10.47.2,4.12-.14,8.23-.12,12.35,0,2.12,0,4.25.18,6.38A1.71,1.71,0,0,0,251,373.6,33.14,33.14,0,0,1,259.78,379.08Zm-29.25,1.62c.12.14.15.2.18.2.24.05.47.08.71.11,4.11.6,8.11,1.45,11.38,4.29a2.53,2.53,0,0,0,1.28.65,1.46,1.46,0,0,1,1.11.61c.35.54.78.5,1.23.17,2.88-2.11,6.21-3.31,9.48-4.65a6.49,6.49,0,0,0,2-1,2,2,0,0,0-.89-1,79.65,79.65,0,0,0-7.85-4.68,3.42,3.42,0,0,0-2.39-.37c-.67.14-1.34.22-2,.34-4.28.78-8.21,2.55-12.17,4.24A5.42,5.42,0,0,0,230.53,380.7Z"/><path class="cls-4" d="M340,237.43c.31-1.45.5-2.94,1.64-4.07.31-.3.17-.78.12-1.19a11.91,11.91,0,0,0-.75-3.3,28.79,28.79,0,0,1-1.89-7.76c-.6-4.17-1.44-8.29-2.27-12.42-.95-4.74-1.47-9.54-2.18-14.32-.66-4.52-1.38-9-2.05-13.56a31.84,31.84,0,0,0-.72-4.09,7.71,7.71,0,0,1,.09-2.43.26.26,0,0,1,.31-.26c.71.18.78-.95,1.7-.65a64.12,64.12,0,0,0,6.62,1.34c3.16.69,6.32,1.39,9.45,2.18,4.23,1.07,8.43,2.24,12.55,3.69a30.36,30.36,0,0,1,3.47,1.22c.35.17.77.33.62.74-.77,2.2.3,4.24.65,6.29.53,3,1,6.08,1.54,9.11.76,4.29,1.57,8.59,2.39,12.87.55,2.88,1.13,5.74,1.55,8.64s1.16,6,1.87,9c.78,3.25,1.23,6.57,1.73,9.87a9.23,9.23,0,0,0,.31,1.65,2,2,0,0,1-.19,1.92c-.06.08-.17.17-.17.25,0,2.36-2,2.75-3.49,3.5-3.75,1.9-7.61,3.56-11.4,5.37a38.19,38.19,0,0,0-6.8,3.89,19.55,19.55,0,0,1-3.28,2,21.06,21.06,0,0,0-3.9,2.44,4.83,4.83,0,0,1-3.07,1.27c-.56,0-1.07,0-1.34-.52a1.37,1.37,0,0,1,.2-1.44,16,16,0,0,1,2.52-3.1,39.94,39.94,0,0,1,11.32-7.37c5-2.23,10.21-4.06,15.38-5.89a1.79,1.79,0,0,0,.91-.53c0-.47-.38-.55-.64-.76a6.17,6.17,0,0,1-1.07-.89c-1.14-1.47-2.41-2.66-4.43-2.7a.88.88,0,0,1-.77-.67c-.13-.44.24-.65.49-.88a2,2,0,0,1,1.9-.33,8.32,8.32,0,0,1,2.71,1.06,7.09,7.09,0,0,0,1.35.74c.57.24.95,0,.82-.63-1.06-5-1.44-10.17-2.21-15.25-1.08-7.12-2.76-14.12-4.12-21.18-.66-3.43-1.45-6.84-2.08-10.27a24.5,24.5,0,0,1-.43-4.91c0-.59-.07-1.05-.77-1.07-1.64,0-3.07-.82-4.57-1.31A121.44,121.44,0,0,0,345.35,179c-2.21-.44-4.41-1-6.61-1.43-1-.2-2-.33-3.05-.45-.58-.07-.83.16-.73.81.41,2.64.83,5.28,1.14,7.93.23,2,.68,4,.83,6.1.17,2.3.65,4.57,1,6.85.29,1.88.51,3.77.85,5.64.81,4.4,1.59,8.8,2.54,13.17a50.41,50.41,0,0,1,1.16,7.11,8.28,8.28,0,0,0,.6,2.36,54.4,54.4,0,0,1,1.64,5.6c.18.72.46,1,1.28.76a26.82,26.82,0,0,1,7-.75,14.13,14.13,0,0,1,7.83,1.88c.88.52,1.72,1.1,2.83.33.53-.36,1.6.67,1.73,1.56a1.88,1.88,0,0,1-1.27,2.19,3.33,3.33,0,0,1-3-.28,20.39,20.39,0,0,0-7-2.26,14.77,14.77,0,0,0-5.66.08,5.4,5.4,0,0,1-1.68.26,10.12,10.12,0,0,0-5.38,1.46c-.87.46-1.06-.18-1.5-.52Z"/><path class="cls-4" d="M304.4,184.82c-2.43,2.83-5.84,3.86-9.13,5.14a46.46,46.46,0,0,0-6.57,2.59c-1.15.67-2.3,1.35-3.4,2.1a2,2,0,0,0-1,2.09c.3,3,.39,5.95.67,8.91.21,2.15.58,4.28.87,6.41a3.4,3.4,0,0,1,.09.46c.1,3.08.78,6.11.93,9.19A42.65,42.65,0,0,0,288,228c.47,2.26,1,4.5,1.32,6.79.36,2.49.69,5,1,7.48s1.2,5,1.5,7.53c.1.81.53,1.54.65,2.37a2.69,2.69,0,0,1-.09,1.2,1.19,1.19,0,0,1-1.06,1c-.62.05-.85-.4-1-.93a32.93,32.93,0,0,1-1.11-5.27c-.49-2.62-.8-5.29-1.41-7.88-1.2-5.1-1.86-10.3-2.92-15.42-.93-4.48-1.22-9.07-2-13.57-.9-5.31-2-10.6-3-15.89-.18-.88-.12-1.4.69-1.91a9.54,9.54,0,0,0,1.75-1.73,16.89,16.89,0,0,1,8.71-4.92,83.71,83.71,0,0,0,8.59-2.42c1.84-.65,3.55-1.54,5.35-2.27a1.74,1.74,0,0,0,.9-1,12.4,12.4,0,0,1,1.69-2.57c.36-.39.68-.57,1.19-.27a8.73,8.73,0,0,0,1,.38c1.53.66,1.76,2.07.46,3.13a18.82,18.82,0,0,0-1.81,1.42,3.86,3.86,0,0,0-1.19,2.9,17.25,17.25,0,0,0,.32,4,8.79,8.79,0,0,1,.2,2c.07,4.08,1,8,1.68,12,.78,4.61,2.14,9.08,3.24,13.62.23.93.17,1.94.33,2.9.2,1.21.36,1.35,1.59,1.43.56,0,1.13-.06,1.7-.05a2,2,0,0,0,2.28-2c.18-1.07,1.1-1.71,1.82-2.43a1.55,1.55,0,0,0,.53-1.59,151.31,151.31,0,0,1-2.14-15.57c-.33-3.53-1-7-1.48-10.53-.06-.4-.22-.79-.32-1.19a12.68,12.68,0,0,1,.75-8.43,4.05,4.05,0,0,1,.67-1c.36-.41.74-1,1.39-.72a1.92,1.92,0,0,1,.92,2.08,2.75,2.75,0,0,1-.45.8,6.56,6.56,0,0,0-.93,6.25,21.07,21.07,0,0,1,.88,5.31,110.5,110.5,0,0,0,1.11,11.5,65.67,65.67,0,0,0,1.6,6.9,7.9,7.9,0,0,1,.28,1.35,7.46,7.46,0,0,0,.62,2.52,4.68,4.68,0,0,1,.52,2.38,2.82,2.82,0,0,0,.22,1c.66,1.94,0,3-2,3.25-.44,0-.74.11-.94.59-.83,1.92-2.54,2.46-4.42,2.84-1.68.34-3.35-.28-5,.17-.58.16-1.29-.52-1.52-1.3a10.44,10.44,0,0,1-.23-1.36c-.69-4.37-1.44-8.72-2.06-13.08s-1.25-8.76-2-13.11a86.75,86.75,0,0,0-1.71-9.7,7.57,7.57,0,0,1,0-2.13Z"/><path class="cls-4" d="M340,237.38c0,1.89-.16,2-2,2a20.09,20.09,0,0,0-7.17,1.67,132.35,132.35,0,0,0-14.86,6.74c-3.26,1.74-6.54,3.43-9.89,5a33.17,33.17,0,0,1-3.74,1.44c-.28.09-.62.1-.76.44.3.27.68.19,1,.2,4.94.18,9.85.69,14.78,1,3.84.27,7.69.58,11.52,1a78.67,78.67,0,0,1,11.73,1.75c.57.16,1.24.17,1.51.91a2.86,2.86,0,0,1-2.24.37c-3.33-.39-6.68-.18-10-.37-6.57-.37-13.16-.25-19.74-.23-3.87,0-7.7-.28-11.55-.56a8.78,8.78,0,0,1-4-1.49,4.85,4.85,0,0,1-1.52-2.12c-.51-1.09-.24-1.57,1-1.89a43.51,43.51,0,0,0,4.46-1.14c3.94-1.49,7.76-3.27,11.58-5,4.65-2.16,9.37-4.18,14-6.34a95.38,95.38,0,0,1,9.21-3.45,16.74,16.74,0,0,1,4.26-.62c.9-.06,1.58.73,2.47.76Z"/><g class="cls-5"><path d="M111.32,358.63c2.82-2.88,5.63-5.51,8.53-8a106.22,106.22,0,0,1,17.61-12c10.87-6.17,22.43-10.75,34.2-14.83a45,45,0,0,1,9.41-2.65c-2.55,1.36-5.2,2.59-7.63,4.14s-5.34,2.59-7.81,4.22-5.39,2.3-8.11,4.35a20.85,20.85,0,0,0,10.62.43c6.48-1.56,12.83-3.59,19.32-5.1a35.54,35.54,0,0,1,6.82-.93c1.69-.06,3.37-.32,5.21-.5-.22,1.12-1.06,1.53-1.9,1.9a10.67,10.67,0,0,1-1.67.59c-4.76,1.39-9.27,3.48-14,5.06A52.34,52.34,0,0,1,167.38,338a22.23,22.23,0,0,1-8.53-1.15,4.24,4.24,0,0,1-1.61-.72c-1.63-1.7-3-.79-4.63.12-6.91,3.87-13.77,7.84-20.27,12.38a119.55,119.55,0,0,0-12.66,10.46c-.21.19-.48.37-.39.83,1.16.24,2.11-.39,3.08-.84,5.52-2.52,11-5.22,16.65-7.39a105.74,105.74,0,0,1,30.68-6.85c2.44-.17,4.87-.53,7.33-.49a3.46,3.46,0,0,1,2,.26c-4.31,1.36-8.63,2.23-12.91,3.27a108.55,108.55,0,0,0-14.33,4.69c-6.68,2.63-13.15,5.8-20,8.07a34.94,34.94,0,0,1-4.33,1,11.5,11.5,0,0,1-6.77-.51c-1.81-.75-3.25-.45-4.27,1.12a5.59,5.59,0,0,1-5.57,2.81,3.4,3.4,0,0,0-.84.23,1.65,1.65,0,0,1-2.06-2.12,4.46,4.46,0,0,1,.91-1.52c1.45-1.89,1.42-1.88-.17-3.77a69.88,69.88,0,0,1-9.46-14.41,172.45,172.45,0,0,1-8.52-21.2c-2.45-7.38-4.89-14.76-6.94-22.26-1.88-6.86-3.49-13.79-5-20.72-1.1-4.91-2.15-9.84-3.31-14.73-.92-3.92-1.06-7.93-1.54-11.9a2.19,2.19,0,0,1,.09-.88c.1-.34.22-.74.66-.81s.67.3.78.64c1,3.18,3,5.91,4.42,8.92,2.2,4.72,3.63,9.7,5.34,14.59,1.59,4.54,2.86,9.18,4.09,13.82,1.09,4.15,2.06,8.34,3.14,12.49,1.16,4.43,2.38,8.86,3.61,13.27,1.73,6.2,3.32,12.43,5.13,18.61a148.39,148.39,0,0,0,5.62,16.33A41.66,41.66,0,0,0,111.32,358.63Z"/><path d="M149,318.59a5.15,5.15,0,0,1-2-2,84,84,0,0,1-8.34-16.39c-.94-2.49-2-4.93-3.16-7.33a71.1,71.1,0,0,1-4-11.06c-1.67-5.76-3.07-11.6-4.24-17.48-.54-2.69-1.3-5.32-1.88-8-.17-.79-.42-1.46-1.28-1.6-1.9-.3-2.21-1.81-2.46-3.27-1-6,.71-11.28,4.58-15.9a5.79,5.79,0,0,0,1.32-1.8,10.64,10.64,0,0,0-1.9.61c-4.41,2.42-8.78,4.91-13.2,7.31a2.31,2.31,0,0,0-1.36,2.31c.08,3.85-.7,7.68-.32,11.53a1.87,1.87,0,0,1-.86,1.68,2.18,2.18,0,0,0-.48,2.82c2,3.93,2.77,8.26,4.1,12.41a102.85,102.85,0,0,0,7.27,18.06c2.77,5.07,4.73,10.52,7,15.84,3.38,8,7.16,15.75,11,23.51.16.31.56.53.27,1.09-.76-.16-1.11-.8-1.53-1.36a102.81,102.81,0,0,1-10.37-17.3c-3.52-7.26-6.88-14.6-10.21-21.95a94.86,94.86,0,0,1-6.57-20c-1-4.85-2.19-9.67-3.21-14.52a16.56,16.56,0,0,1,.65-9.19l.81-2.21a2.24,2.24,0,0,0-2,.55,162.13,162.13,0,0,1-15.63,8.43,31,31,0,0,1-7.13,2.41c-1.77.38-3.49-.57-5.29-.15-.14-.91.47-1.18.89-1.51,2.95-2.37,6.25-4.22,9.41-6.28,6.08-4,12.31-7.69,18.64-11.24a209.87,209.87,0,0,1,19.23-9.72c6.52-2.84,13.06-5.63,19.81-7.89a123.34,123.34,0,0,1,17.81-4.74,24.9,24.9,0,0,1,5.1-.33c.53,0,1.12.13,1.1.82a1,1,0,0,1-1.18,1c-1.58-.2-2.77.6-4.1,1.3a51.63,51.63,0,0,1-5.77,2.28c-7.83,2.94-15.5,6.25-23.06,9.83a3.47,3.47,0,0,0-1.63,1.12c-1.07,1.81-2.88,3-4.08,4.66a31.93,31.93,0,0,0-4.55,9.05,22.23,22.23,0,0,0-.7,3.26,10.82,10.82,0,0,0,1,7,87.7,87.7,0,0,1,6.94,18.41c1.85,7,3.52,14.07,6.13,20.85C142,300,144,306.7,147,313,147.77,314.79,148.34,316.7,149,318.59Z"/><path d="M241.15,230.61a10.57,10.57,0,0,1,2.68,3.75A46,46,0,0,1,246.4,246c.93,8.7.95,17.47,1.84,26.17a77.89,77.89,0,0,0,2.95,13.89,141.26,141.26,0,0,1,4,16.61c.38,2.33.47,4.71.81,7.06.14,1-.5,1.83-.33,2.93,1.71.13,3.35-.75,5.15-.18-.37.9-1.24.94-1.81,1.25a59,59,0,0,1-9.27,4.09,57.86,57.86,0,0,0-9.83,4c-1.19.64-2.5.94-3.72,1.47-7.38,3.23-14.76,6.44-22.13,9.71-6.76,3-13.46,6.13-20.26,9.06a86.34,86.34,0,0,1-8.39,2.87c-1.28.4-2.23,0-4.29-1.51,1.31-.89,2.55-1.78,3.83-2.61a183.37,183.37,0,0,1,26.64-14.2,247.68,247.68,0,0,1,28.55-10.5,75.78,75.78,0,0,1,11-2.62c.66-.09,1.31-.25,2-.39a1,1,0,0,0,.84-1.3c-.12-.69-.56-.73-1.13-.75a36.87,36.87,0,0,0-9.49.77c-2.76.6-5.7.28-8.32,1.34-4.23,1.71-8.71,2.34-13.07,3.49a48.41,48.41,0,0,1-8.15,1c-1.55.15-3.1.3-4.65.42a13.66,13.66,0,0,1-8.35-1.64c-.38-.23-.84-.41-.8-.94s.5-.46.83-.6c2.4-1,4.79-2,7.2-2.91a81.68,81.68,0,0,1,19.86-4.55,78.18,78.18,0,0,1,9.55-.55A55.71,55.71,0,0,1,252.33,309a1.62,1.62,0,0,0,1.11.08c.41-.62.09-1.29-.05-1.89-1.24-5.41-2.59-10.79-4.16-16.13-1.68-5.74-3.53-11.47-4.48-17.39a111.61,111.61,0,0,1-1.25-14.39,236.67,236.67,0,0,0-1.77-24.38C241.55,233.61,240.85,232.33,241.15,230.61Z"/><path d="M191.53,322.86c-4.67-6.55-9.53-12.44-13.34-19.07a40.79,40.79,0,0,1-4.83-11.39c-.94-4.18-2-8.35-2.78-12.57a179,179,0,0,1-2.63-18,10.85,10.85,0,0,0-.48-2.16A93.21,93.21,0,0,1,164,238.88c-.26-4.22-.39-8.44-.33-12.67,0-1.6.13-3.21-.82-4.73a1.75,1.75,0,0,1,1.13-2.64,6.56,6.56,0,0,1,1.95-.39,2.63,2.63,0,0,1,2.9,2.46,75.19,75.19,0,0,1,.95,15.93c-.08,2.08,0,4.16,0,6.23s.88,4.19,1.25,6.3c.8,4.44,1.67,8.88,2.29,13.35.75,5.35,1.29,10.73,2.1,16.08.71,4.68,1.47,9.36,2.57,14a46.47,46.47,0,0,0,4.77,12.82c2,3.45,4.09,6.84,6.25,10.2,1.2,1.87,1.65,4.09,2.73,6C191.75,322,191.62,322.22,191.53,322.86Z"/><path d="M183.33,218.94c4-1.25,50.15,4.17,55.86,6.59a16.71,16.71,0,0,1-5.08,1c-5.62-.14-11.25.46-16.87,0-6.12-.51-12.28-.57-18.34-1.72a51.62,51.62,0,0,1-7.35-1.57A29.91,29.91,0,0,1,183.33,218.94Z"/></g><path class="cls-4" d="M330.16,174.09h.46c.9.1,1.17.54.78,1.33a3.45,3.45,0,0,1-1,1.36A16.63,16.63,0,0,1,324,179.9a1.6,1.6,0,0,1-1.78-.6,3.15,3.15,0,0,1,.38-2.14A14.65,14.65,0,0,1,330.16,174.09Z"/><path class="cls-6" d="M237.45,191.63a5.62,5.62,0,0,0-.89,0c-.69.07-1.37-.07-2.06,0-1.79.14-3.59,0-5.38.12-.42,0-.83.07-1.25.1-2.17.15-4.35.14-6.53.1a12.39,12.39,0,0,1-1.49-.07c-.37-.05-.4,0-.43.38a7.48,7.48,0,0,1-.48,2.24,14.85,14.85,0,0,0-.69,2.64,10,10,0,0,1-.52,2,12.61,12.61,0,0,0-.42,1.52c0,.13,0,.25-.16.33s-.45.09-.56.38c-.05.12-.33,0-.37-.24a3.46,3.46,0,0,1,0-.91c0-.31.09-.63.13-.95a2.5,2.5,0,0,0-.07-1.09,8,8,0,0,1-.23-1.37c-.21-1.49-.16-3-.42-4.49-.14-.84-.15-1.69-.21-2.54a4.68,4.68,0,0,1-.07-1.24c0-.16-.05-.22-.19-.27s-.24-.22-.16-.42a12.92,12.92,0,0,0,.6-3.2c.06-.54.14-1.08.24-1.61a6.12,6.12,0,0,0,.13-1.2,17.45,17.45,0,0,1,.43-3.81,6.94,6.94,0,0,1,.61-2.21.8.8,0,0,0,.06-.38,2.31,2.31,0,0,1,.44-1c.09-.17.27-.16.43-.15a21.62,21.62,0,0,0,2.67-.15c1.89-.18,3.78-.15,5.67-.31s4.09-.17,6.14-.18c.6,0,1.19,0,1.78-.06a3.14,3.14,0,0,1,.81.08c.34.07.45.15.38.48a1.77,1.77,0,0,0,.17,1,13.77,13.77,0,0,1,.43,1.82c.24,1.25.42,2.52.69,3.77.18.83.3,1.67.49,2.5.24,1.11.33,2.24.59,3.35.16.65.34,1.3.47,2a6.09,6.09,0,0,1,.18,1.81,1.6,1.6,0,0,1-.25.81.48.48,0,0,0-.1.45.8.8,0,0,1-.11.68c-.5,1-.92,2.07-1.36,3.11-.65,1.57-1.23,3.16-1.77,4.76a15.77,15.77,0,0,1-.78,2,3.46,3.46,0,0,1-1.09,1.19.48.48,0,0,1-.41.09c-1.44-.23-2.9-.22-4.36-.32-2.44-.17-4.89-.21-7.34-.32a.79.79,0,0,1-.28,0,8.05,8.05,0,0,0-1.34-.36.53.53,0,0,0-.28,0l-2,.2c-.34,0-.49-.06-.54-.32a.31.31,0,0,1,0-.19,1.27,1.27,0,0,1,.82-.64,1.2,1.2,0,0,1,.33,0,3.49,3.49,0,0,0,1.67,0,6.51,6.51,0,0,1,2.33.08c.45.07.9.08,1.34.12,1.09.11,2.18.18,3.26.23,1.82.1,3.64.36,5.47.29a7.41,7.41,0,0,1,1,.07.4.4,0,0,0,.44-.27,26,26,0,0,0,1.1-2.81c.38-1.1.78-2.2,1.23-3.27.37-.87.73-1.74,1.1-2.6.14-.33.32-.63.44-1S237.31,191.87,237.45,191.63Zm-19.81-16.52c0,.34.18.62.23.93.19,1.05.39,2.11.55,3.17a20.19,20.19,0,0,1,.25,4.11,2.78,2.78,0,0,0,0,.58c.1.76.15,1.53.28,2.29a11.33,11.33,0,0,1,.22,1.42,22.42,22.42,0,0,1,.19,2.83v.05c0,.15.06.22.24.19a5,5,0,0,1,.67,0l4.47,0c1.14,0,2.28,0,3.42-.07a25.85,25.85,0,0,1,3.41-.06c1.63.09,3.27.09,4.9.11a5.77,5.77,0,0,0,.72,0c.31,0,.34-.08.31-.39a10.94,10.94,0,0,0-.44-2.12c-.48-1.58-.52-3.25-.92-4.85-.25-1.05-.38-2.14-.6-3.2-.29-1.37-.35-2.77-.73-4.12a1,1,0,0,1,.17-1c0-.06.1-.13,0-.22a3.59,3.59,0,0,1-.47,0c-.7,0-1.41,0-2.11,0-1.28,0-2.56-.16-3.84-.1-.4,0-.8,0-1.2,0-1.46,0-2.92,0-4.38.1s-3.19.3-4.79.32A1.91,1.91,0,0,0,217.64,175.11Zm-1,23.77a.29.29,0,0,0,.23-.28,5.78,5.78,0,0,1,.18-.94,26.55,26.55,0,0,1,.87-3.29,14.08,14.08,0,0,0,.45-1.81c.1-.5.1-1,.65-1.37a.75.75,0,0,1-.57-.68c0-.39-.06-.77-.1-1.15-.08-.7-.05-1.41-.19-2.1a14.5,14.5,0,0,1-.31-3.53,23.19,23.19,0,0,0-.23-3.64c-.12-1-.32-2-.39-3.05,0-.07,0-.16-.09-.2a6,6,0,0,0-.4,1.61,38.78,38.78,0,0,0-.49,3.86,12.59,12.59,0,0,1-.21,1.62c-.27,1.3-.28,2.63-.44,4,.28-.24.34-.12.35.12,0,.77.06,1.54.11,2.31a18.5,18.5,0,0,0,.12,2.35,30.53,30.53,0,0,1,.31,3.44C216.57,197.05,216.64,197.94,216.65,198.88Z"/></svg>